<svg width="591" height="530" viewBox="0 0 591 530" fill="none" xmlns="http://www.w3.org/2000/svg">
<g filter="url(#filter0_d_88_158)">
<rect x="11.0771" y="5.76318" width="553.198" height="491.732" rx="22.494" fill="white"/>
</g>
<path d="M11.0771 28.2572C11.0771 15.8341 21.1481 5.76318 33.5712 5.76318H541.782C554.205 5.76318 564.276 15.8341 564.276 28.2572V67.2297H11.0771V28.2572Z" fill="#4EC3CC"/>
<circle cx="484.368" cy="38.0319" r="6.14665" fill="white"/>
<circle cx="505.882" cy="38.0319" r="6.14665" fill="#E8E8E8"/>
<path d="M37.7965 31.56H35.5175V42.4991H37.7965C39.0195 42.4991 39.9881 42.104 40.7021 41.314C41.4162 40.5164 41.7733 39.468 41.7733 38.169V35.8787C41.7733 34.5873 41.4162 33.5465 40.7021 32.7565C39.9881 31.9589 39.0195 31.56 37.7965 31.56ZM37.8648 44.4932H33.022V29.5659H37.8648C39.764 29.5659 41.3061 30.1547 42.4911 31.3321C43.6762 32.5096 44.2687 34.0327 44.2687 35.9015V38.169C44.2687 40.0378 43.6762 41.5609 42.4911 42.7384C41.3061 43.9082 39.764 44.4932 37.8648 44.4932ZM49.6471 44.7325C48.5 44.7325 47.615 44.44 46.9921 43.8551C46.3692 43.2625 46.0577 42.4345 46.0577 41.371C46.0577 40.2999 46.4793 39.468 47.3225 38.8755C48.1658 38.283 49.3622 37.9867 50.9119 37.9867H52.849V37.0068C52.849 36.4218 52.6781 35.966 52.3363 35.6394C51.9944 35.3127 51.5196 35.1494 50.9119 35.1494C50.3118 35.1494 49.8408 35.2861 49.4989 35.5596C49.1647 35.8255 48.9976 36.1787 48.9976 36.6193H46.5933L46.5819 36.5624C46.5363 35.6584 46.9351 34.8759 47.7783 34.215C48.6215 33.5465 49.7041 33.2123 51.0259 33.2123C52.3477 33.2123 53.396 33.5465 54.1708 34.215C54.9457 34.8759 55.3331 35.8141 55.3331 37.0296V41.9635C55.3331 42.8751 55.466 43.7259 55.7319 44.516L53.2023 44.5273C53.0199 43.95 52.906 43.4069 52.8604 42.8979C52.4958 43.4448 52.0362 43.8892 51.4816 44.2311C50.9271 44.5653 50.3156 44.7325 49.6471 44.7325ZM48.5418 41.3482H48.5532C48.5532 41.7812 48.6899 42.1192 48.9634 42.3623C49.2445 42.6054 49.6661 42.727 50.2282 42.727C50.7904 42.727 51.3221 42.575 51.8235 42.2712C52.3249 41.9673 52.6629 41.6065 52.8376 41.1887V39.5478H50.8549C50.1561 39.5478 49.5939 39.7225 49.1685 40.072C48.7507 40.4138 48.5418 40.8392 48.5418 41.3482ZM58.5692 30.7282H61.0647V33.4174H63.0588V35.2634H61.0647V41.3938C61.0647 42.2446 61.4255 42.67 62.1472 42.67C62.4359 42.67 62.6942 42.6244 62.922 42.5333L63.1841 44.3678C62.7207 44.6109 62.1624 44.7325 61.5091 44.7325C59.5492 44.7325 58.5692 43.6196 58.5692 41.3938V35.2634H56.8828V33.4174H58.5692V30.7282ZM68.403 44.7325C67.2559 44.7325 66.3709 44.44 65.748 43.8551C65.125 43.2625 64.8136 42.4345 64.8136 41.371C64.8136 40.2999 65.2352 39.468 66.0784 38.8755C66.9216 38.283 68.1181 37.9867 69.6678 37.9867H71.6049V37.0068C71.6049 36.4218 71.434 35.966 71.0921 35.6394C70.7503 35.3127 70.2755 35.1494 69.6678 35.1494C69.0677 35.1494 68.5967 35.2861 68.2548 35.5596C67.9206 35.8255 67.7535 36.1787 67.7535 36.6193H65.3491L65.3378 36.5624C65.2922 35.6584 65.691 34.8759 66.5342 34.215C67.3774 33.5465 68.4599 33.2123 69.7817 33.2123C71.1035 33.2123 72.1519 33.5465 72.9267 34.215C73.7015 34.8759 74.089 35.8141 74.089 37.0296V41.9635C74.089 42.8751 74.2219 43.7259 74.4878 44.516L71.9581 44.5273C71.7758 43.95 71.6619 43.4069 71.6163 42.8979C71.2517 43.4448 70.7921 43.8892 70.2375 44.2311C69.683 44.5653 69.0715 44.7325 68.403 44.7325ZM67.2977 41.3482H67.3091C67.3091 41.7812 67.4458 42.1192 67.7193 42.3623C68.0003 42.6054 68.4219 42.727 68.9841 42.727C69.5462 42.727 70.078 42.575 70.5794 42.2712C71.0807 41.9673 71.4188 41.6065 71.5935 41.1887V39.5478H69.6108C68.9119 39.5478 68.3498 39.7225 67.9244 40.072C67.5066 40.4138 67.2977 40.8392 67.2977 41.3482ZM92.2295 44.4932L91.0445 41.0063H85.1989L84.0139 44.4932H81.4842L86.9765 29.5659H89.3352L94.7592 44.4932H92.2295ZM88.116 32.54L85.9168 38.9211H90.338L88.173 32.54H88.116ZM101.801 33.1895C102.986 33.1895 103.894 33.5465 104.525 34.2606C105.163 34.9747 105.482 36.061 105.482 37.5195V44.4932H102.986V37.5423C102.986 36.7143 102.815 36.1218 102.473 35.7647C102.139 35.4077 101.611 35.2292 100.89 35.2292C99.9324 35.2292 99.1842 35.6318 98.6448 36.437V44.4932H96.1493V33.3946L98.4283 33.406L98.5764 35.0127C99.3437 33.7972 100.419 33.1895 101.801 33.1895ZM111.202 44.7325C110.055 44.7325 109.17 44.44 108.547 43.8551C107.924 43.2625 107.613 42.4345 107.613 41.371C107.613 40.2999 108.034 39.468 108.877 38.8755C109.721 38.283 110.917 37.9867 112.467 37.9867H114.404V37.0068C114.404 36.4218 114.233 35.966 113.891 35.6394C113.549 35.3127 113.074 35.1494 112.467 35.1494C111.867 35.1494 111.396 35.2861 111.054 35.5596C110.72 35.8255 110.552 36.1787 110.552 36.6193H108.148L108.137 36.5624C108.091 35.6584 108.49 34.8759 109.333 34.215C110.176 33.5465 111.259 33.2123 112.581 33.2123C113.902 33.2123 114.951 33.5465 115.726 34.215C116.5 34.8759 116.888 35.8141 116.888 37.0296V41.9635C116.888 42.8751 117.021 43.7259 117.287 44.516L114.757 44.5273C114.575 43.95 114.461 43.4069 114.415 42.8979C114.051 43.4448 113.591 43.8892 113.036 44.2311C112.482 44.5653 111.87 44.7325 111.202 44.7325ZM110.097 41.3482H110.108C110.108 41.7812 110.245 42.1192 110.518 42.3623C110.799 42.6054 111.221 42.727 111.783 42.727C112.345 42.727 112.877 42.575 113.378 42.2712C113.88 41.9673 114.218 41.6065 114.392 41.1887V39.5478H112.41C111.711 39.5478 111.149 39.7225 110.723 40.072C110.306 40.4138 110.097 40.8392 110.097 41.3482ZM122.164 28.4948V44.4932H119.68V28.4948H122.164ZM126.015 49.4727C125.711 49.4727 125.263 49.4043 124.671 49.2676L124.944 47.3419C125.43 47.3723 125.681 47.3874 125.696 47.3874C126.433 47.3874 127.01 46.8785 127.428 45.8605L127.838 44.8578L123.805 33.896H126.528L128.647 40.5392L128.898 41.6445H128.955L131.394 33.896H134.117L129.525 46.6696C129.191 47.5508 128.75 48.2383 128.203 48.732C127.656 49.2258 126.927 49.4727 126.015 49.4727ZM139.837 42.8865C140.483 42.8865 140.977 42.7649 141.318 42.5219C141.668 42.2788 141.843 41.9521 141.843 41.5419C141.843 41.1317 141.672 40.8012 141.33 40.5506C140.996 40.2999 140.392 40.0796 139.518 39.8897C138.151 39.5934 137.137 39.187 136.476 38.6704C135.815 38.1462 135.484 37.4284 135.484 36.5168C135.484 35.6052 135.879 34.8266 136.669 34.1809C137.467 33.5351 138.519 33.2123 139.826 33.2123C141.14 33.2123 142.196 33.5427 142.993 34.2036C143.799 34.8569 144.182 35.685 144.144 36.6877L144.122 36.7561H141.74C141.74 36.2775 141.562 35.8787 141.204 35.5596C140.847 35.2406 140.373 35.081 139.78 35.081C139.195 35.081 138.739 35.214 138.413 35.4799C138.094 35.7381 137.934 36.0724 137.934 36.4826C137.934 36.8852 138.086 37.1967 138.39 37.417C138.701 37.6373 139.302 37.8348 140.19 38.0095C141.611 38.3058 142.652 38.7198 143.313 39.2515C143.973 39.7757 144.304 40.4822 144.304 41.371C144.304 42.3737 143.894 43.1866 143.073 43.8095C142.253 44.4248 141.151 44.7325 139.769 44.7325C138.386 44.7325 137.269 44.3754 136.419 43.6613C135.568 42.9473 135.161 42.0889 135.199 41.0861L135.222 41.0177H137.535C137.566 41.6407 137.786 42.104 138.196 42.4079C138.614 42.7118 139.157 42.8637 139.826 42.8637L139.837 42.8865ZM149.192 33.3946V44.4932H146.708V33.3946H149.192ZM149.192 28.4948V30.6826H146.708V28.4948H149.192ZM156.223 42.8865C156.869 42.8865 157.362 42.7649 157.704 42.5219C158.054 42.2788 158.228 41.9521 158.228 41.5419C158.228 41.1317 158.057 40.8012 157.716 40.5506C157.381 40.2999 156.777 40.0796 155.904 39.8897C154.536 39.5934 153.522 39.187 152.861 38.6704C152.2 38.1462 151.87 37.4284 151.87 36.5168C151.87 35.6052 152.265 34.8266 153.055 34.1809C153.853 33.5351 154.905 33.2123 156.211 33.2123C157.526 33.2123 158.582 33.5427 159.379 34.2036C160.184 34.8569 160.568 35.685 160.53 36.6877L160.507 36.7561H158.126C158.126 36.2775 157.947 35.8787 157.59 35.5596C157.233 35.2406 156.758 35.081 156.166 35.081C155.581 35.081 155.125 35.214 154.798 35.4799C154.479 35.7381 154.32 36.0724 154.32 36.4826C154.32 36.8852 154.472 37.1967 154.776 37.417C155.087 37.6373 155.687 37.8348 156.576 38.0095C157.997 38.3058 159.037 38.7198 159.698 39.2515C160.359 39.7757 160.69 40.4822 160.69 41.371C160.69 42.3737 160.279 43.1866 159.459 43.8095C158.639 44.4248 157.537 44.7325 156.154 44.7325C154.772 44.7325 153.655 44.3754 152.804 43.6613C151.954 42.9473 151.547 42.0889 151.585 41.0861L151.608 41.0177H153.921C153.951 41.6407 154.172 42.104 154.582 42.4079C155 42.7118 155.543 42.8637 156.211 42.8637L156.223 42.8865Z" fill="white"/>
<path d="M32.0312 473.766V471.415L37.8281 465.208C38.6576 464.241 39.25 463.43 39.6055 462.774C39.9609 462.118 40.1387 461.502 40.1387 460.928C40.1387 460.153 39.9336 459.534 39.5234 459.069C39.1133 458.595 38.5163 458.358 37.7324 458.358C36.9577 458.358 36.3516 458.631 35.9141 459.178C35.4857 459.725 35.2715 460.482 35.2715 461.448H31.7715L31.7441 461.379C31.7077 459.721 32.2454 458.344 33.3574 457.25C34.4785 456.148 35.9642 455.596 37.8145 455.596C39.6647 455.596 41.1139 456.07 42.1621 457.018C43.2194 457.966 43.748 459.251 43.748 460.874C43.748 461.903 43.4792 462.856 42.9414 463.731C42.4036 464.606 41.3919 465.846 39.9062 467.45L36.7207 470.936L36.748 470.991H44.2812L44.2676 473.766H32.0312ZM46.2016 473.766V471.415L51.9985 465.208C52.8279 464.241 53.4203 463.43 53.7758 462.774C54.1313 462.118 54.309 461.502 54.309 460.928C54.309 460.153 54.1039 459.534 53.6938 459.069C53.2836 458.595 52.6866 458.358 51.9028 458.358C51.128 458.358 50.5219 458.631 50.0844 459.178C49.656 459.725 49.4418 460.482 49.4418 461.448H45.9418L45.9145 461.379C45.878 459.721 46.4158 458.344 47.5278 457.25C48.6488 456.148 50.1345 455.596 51.9848 455.596C53.835 455.596 55.2843 456.07 56.3324 457.018C57.3897 457.966 57.9184 459.251 57.9184 460.874C57.9184 461.903 57.6495 462.856 57.1117 463.731C56.574 464.606 55.5623 465.846 54.0766 467.45L50.891 470.936L50.9184 470.991H58.4516L58.4379 473.766H46.2016ZM64.5282 470.608V473.752H60.9461V470.608H64.5282ZM75.5403 473.752H71.9446V459.014H68.3079V456.471L75.5403 455.842V473.752ZM85.1032 468.653C85.1032 469.464 85.3265 470.107 85.7731 470.581C86.2289 471.045 86.8395 471.278 87.6052 471.278C88.3708 471.278 88.9815 471.041 89.4372 470.567C89.8929 470.093 90.1208 469.455 90.1208 468.653C90.1208 467.842 89.8884 467.194 89.4235 466.711C88.9587 466.219 88.348 465.973 87.5915 465.973C86.835 465.973 86.2289 466.219 85.7731 466.711C85.3265 467.194 85.1032 467.842 85.1032 468.653ZM85.4997 460.792C85.4997 461.539 85.6865 462.131 86.0602 462.569C86.4339 462.997 86.9489 463.211 87.6052 463.211C88.2614 463.211 88.7764 462.997 89.1501 462.569C89.5238 462.131 89.7106 461.543 89.7106 460.805C89.7106 460.058 89.5192 459.465 89.1364 459.028C88.7536 458.59 88.2341 458.372 87.5778 458.372C86.9307 458.372 86.4203 458.586 86.0466 459.014C85.682 459.443 85.4997 460.035 85.4997 460.792ZM83.4489 456.936C84.4697 456.052 85.8506 455.61 87.5915 455.61C89.3324 455.61 90.7178 456.052 91.7477 456.936C92.7777 457.811 93.2927 459.042 93.2927 460.627C93.2927 461.512 93.0602 462.3 92.5954 462.993C92.1305 463.676 91.4789 464.219 90.6403 464.62C91.6065 465.03 92.3584 465.609 92.8962 466.356C93.443 467.094 93.7165 467.942 93.7165 468.899C93.7165 470.54 93.165 471.811 92.0622 472.713C90.9593 473.607 89.4736 474.053 87.6052 474.053C85.7367 474.053 84.251 473.607 83.1481 472.713C82.0453 471.811 81.4938 470.54 81.4938 468.899C81.4938 467.933 81.7627 467.081 82.3005 466.342C82.8382 465.595 83.5947 465.016 84.57 464.606C83.7223 464.205 83.0661 463.663 82.6012 462.979C82.1455 462.295 81.9177 461.512 81.9177 460.627C81.9177 459.042 82.4281 457.811 83.4489 456.936ZM111.995 471.059C112.87 471.059 113.649 470.931 114.333 470.676L114.784 473.657C113.736 473.894 112.683 474.012 111.626 474.012C109.465 474.012 107.756 473.433 106.499 472.276C105.25 471.118 104.594 469.5 104.53 467.422H102.452V465.563H104.53V464.032H102.452V462.159H104.557C104.694 460.09 105.409 458.486 106.704 457.346C107.998 456.198 109.725 455.624 111.885 455.624C112.769 455.624 113.74 455.751 114.797 456.006L114.346 459C113.571 458.736 112.815 458.604 112.077 458.604C109.752 458.604 108.481 459.789 108.262 462.159H112.364V464.032H108.235V465.563H112.364L112.35 467.422H108.221C108.267 468.653 108.59 469.569 109.192 470.17C109.803 470.763 110.737 471.059 111.995 471.059Z" fill="#181819" fill-opacity="0.9"/>
<path d="M162.975 452.16V454.79H165.453V455.894H162.975V458.745H161.753V455.894H159.255V454.79H161.753V452.16H162.975ZM171.001 456.57V453.913C171.001 453.131 170.858 452.542 170.573 452.146C170.292 451.75 169.88 451.552 169.337 451.552C168.238 451.552 167.688 452.339 167.688 453.913V456.57C167.688 457.353 167.828 457.944 168.109 458.344C168.394 458.74 168.808 458.938 169.351 458.938C170.451 458.938 171.001 458.149 171.001 456.57ZM172.222 454.175V456.322C172.222 457.472 171.969 458.356 171.463 458.972C170.962 459.589 170.258 459.897 169.351 459.897C168.449 459.897 167.743 459.589 167.232 458.972C166.721 458.351 166.466 457.468 166.466 456.322V454.175C166.466 453.03 166.719 452.146 167.225 451.525C167.736 450.904 168.442 450.593 169.344 450.593C170.246 450.593 170.95 450.904 171.456 451.525C171.967 452.146 172.222 453.03 172.222 454.175ZM174.933 458.496V459.752H173.712V458.496H174.933ZM179.363 454.672C179.892 454.672 180.272 454.543 180.502 454.286C180.737 454.024 180.854 453.637 180.854 453.126C180.854 452.611 180.725 452.22 180.467 451.953C180.214 451.681 179.842 451.546 179.349 451.546C178.862 451.546 178.473 451.686 178.183 451.967C177.898 452.247 177.755 452.62 177.755 453.085H176.581L176.568 453.043C176.549 452.349 176.8 451.766 177.32 451.297C177.84 450.823 178.519 450.586 179.356 450.586C180.198 450.586 180.863 450.809 181.351 451.256C181.839 451.702 182.083 452.335 182.083 453.154C182.083 453.55 181.965 453.929 181.731 454.293C181.496 454.656 181.162 454.935 180.73 455.128C181.724 455.45 182.221 456.156 182.221 457.247C182.221 458.061 181.954 458.708 181.42 459.186C180.891 459.66 180.201 459.897 179.349 459.897C178.498 459.897 177.808 459.672 177.279 459.221C176.749 458.77 176.494 458.17 176.512 457.419L176.533 457.378H177.7C177.7 457.861 177.845 458.243 178.135 458.524C178.429 458.8 178.834 458.938 179.349 458.938C179.869 458.938 180.274 458.798 180.564 458.517C180.854 458.232 180.999 457.813 180.999 457.261C180.999 456.704 180.868 456.294 180.606 456.032C180.343 455.77 179.931 455.639 179.37 455.639H178.3L178.293 454.672H179.363ZM188.3 456.722H188.307C188.307 456.11 188.153 455.616 187.844 455.238C187.541 454.861 187.127 454.672 186.602 454.672C185.788 454.672 185.205 454.983 184.856 455.604V456.336C184.856 457.155 185.026 457.794 185.367 458.255C185.712 458.71 186.144 458.938 186.664 458.938C187.184 458.938 187.587 458.731 187.872 458.317C188.157 457.903 188.3 457.371 188.3 456.722ZM183.648 454.493H183.641C183.641 453.338 183.958 452.399 184.593 451.677C185.233 450.954 186.041 450.593 187.016 450.593C187.674 450.593 188.233 450.717 188.693 450.966L188.431 451.905C187.985 451.67 187.513 451.552 187.016 451.552C186.367 451.552 185.845 451.81 185.449 452.326C185.054 452.836 184.856 453.513 184.856 454.355V454.5C185.422 454.007 186.098 453.761 186.885 453.761C187.676 453.761 188.314 454.037 188.797 454.59C189.285 455.142 189.529 455.873 189.529 456.784C189.529 457.691 189.271 458.436 188.756 459.021C188.245 459.605 187.548 459.897 186.664 459.897C185.785 459.897 185.063 459.571 184.497 458.917C183.931 458.264 183.648 457.364 183.648 456.218V454.493ZM197.325 452.16V454.79H199.803V455.894H197.325V458.745H196.103V455.894H193.605V454.79H196.103V452.16H197.325ZM204.343 459.752H203.121V451.898L201.265 451.925V451.042L204.343 450.71V459.752ZM209.27 458.496V459.752H208.048V458.496H209.27ZM215.701 456.722H215.708C215.708 456.11 215.554 455.616 215.245 455.238C214.942 454.861 214.528 454.672 214.003 454.672C213.189 454.672 212.606 454.983 212.257 455.604V456.336C212.257 457.155 212.427 457.794 212.767 458.255C213.113 458.71 213.545 458.938 214.065 458.938C214.585 458.938 214.988 458.731 215.273 458.317C215.558 457.903 215.701 457.371 215.701 456.722ZM211.049 454.493H211.042C211.042 453.338 211.359 452.399 211.994 451.677C212.634 450.954 213.442 450.593 214.417 450.593C215.075 450.593 215.634 450.717 216.094 450.966L215.832 451.905C215.386 451.67 214.914 451.552 214.417 451.552C213.768 451.552 213.246 451.81 212.85 452.326C212.455 452.836 212.257 453.513 212.257 454.355V454.5C212.823 454.007 213.499 453.761 214.286 453.761C215.077 453.761 215.715 454.037 216.198 454.59C216.686 455.142 216.93 455.873 216.93 456.784C216.93 457.691 216.672 458.436 216.157 459.021C215.646 459.605 214.949 459.897 214.065 459.897C213.186 459.897 212.464 459.571 211.898 458.917C211.332 458.264 211.049 457.364 211.049 456.218V454.493ZM222.636 456.722H222.643C222.643 456.11 222.489 455.616 222.181 455.238C221.877 454.861 221.463 454.672 220.938 454.672C220.124 454.672 219.542 454.983 219.192 455.604V456.336C219.192 457.155 219.362 457.794 219.703 458.255C220.048 458.71 220.48 458.938 221 458.938C221.52 458.938 221.923 458.731 222.208 458.317C222.494 457.903 222.636 457.371 222.636 456.722ZM217.984 454.493H217.977C217.977 453.338 218.295 452.399 218.93 451.677C219.569 450.954 220.377 450.593 221.352 450.593C222.01 450.593 222.569 450.717 223.03 450.966L222.767 451.905C222.321 451.67 221.849 451.552 221.352 451.552C220.704 451.552 220.181 451.81 219.786 452.326C219.39 452.836 219.192 453.513 219.192 454.355V454.5C219.758 454.007 220.434 453.761 221.221 453.761C222.013 453.761 222.65 454.037 223.133 454.59C223.621 455.142 223.865 455.873 223.865 456.784C223.865 457.691 223.607 458.436 223.092 459.021C222.581 459.605 221.884 459.897 221 459.897C220.121 459.897 219.399 459.571 218.833 458.917C218.267 458.264 217.984 457.364 217.984 456.218V454.493ZM230.034 457.551V458.034C230.034 458.356 230.119 458.62 230.289 458.828C230.459 459.035 230.694 459.138 230.993 459.138C231.297 459.138 231.534 459.035 231.704 458.828C231.874 458.62 231.96 458.356 231.96 458.034V457.551C231.96 457.233 231.872 456.971 231.697 456.764C231.522 456.552 231.285 456.446 230.986 456.446C230.692 456.446 230.459 456.55 230.289 456.757C230.119 456.964 230.034 457.228 230.034 457.551ZM229.123 458.034V457.551C229.123 457.012 229.293 456.568 229.633 456.218C229.979 455.864 230.43 455.687 230.986 455.687C231.548 455.687 232.001 455.864 232.346 456.218C232.691 456.568 232.864 457.012 232.864 457.551V458.034C232.864 458.572 232.691 459.018 232.346 459.373C232.006 459.723 231.555 459.897 230.993 459.897C230.436 459.897 229.985 459.723 229.64 459.373C229.295 459.018 229.123 458.572 229.123 458.034ZM231.359 452.015L226.942 459.083L226.265 458.669L230.683 451.601L231.359 452.015ZM225.651 452.464V452.94C225.651 453.262 225.736 453.527 225.906 453.734C226.081 453.936 226.318 454.037 226.617 454.037C226.916 454.037 227.151 453.936 227.321 453.734C227.491 453.527 227.577 453.262 227.577 452.94V452.464C227.577 452.141 227.489 451.877 227.314 451.67C227.144 451.458 226.909 451.352 226.61 451.352C226.311 451.352 226.076 451.458 225.906 451.67C225.736 451.877 225.651 452.141 225.651 452.464ZM224.747 452.94V452.464C224.747 451.921 224.917 451.474 225.257 451.125C225.603 450.77 226.056 450.593 226.617 450.593C227.179 450.593 227.63 450.77 227.97 451.125C228.311 451.474 228.481 451.921 228.481 452.464V452.94C228.481 453.478 228.311 453.922 227.97 454.272C227.634 454.622 227.183 454.797 226.617 454.797C226.056 454.797 225.603 454.622 225.257 454.272C224.917 453.922 224.747 453.478 224.747 452.94Z" fill="#4EC3CC"/>
<path d="M160.235 470.71L162.575 477.502L162.782 478.22H162.816L163.023 477.502L165.356 470.71H166.682L163.32 479.752H162.271L158.91 470.71H160.235ZM168.129 476.343V476.481C168.129 477.226 168.281 477.822 168.585 478.268C168.893 478.715 169.335 478.938 169.91 478.938C170.485 478.938 170.927 478.715 171.235 478.268C171.544 477.817 171.698 477.222 171.698 476.481V476.343C171.698 475.611 171.541 475.02 171.229 474.569C170.92 474.113 170.478 473.885 169.903 473.885C169.333 473.885 168.893 474.113 168.585 474.569C168.281 475.02 168.129 475.611 168.129 476.343ZM166.901 476.481V476.343C166.901 475.33 167.172 474.507 167.715 473.872C168.258 473.237 168.99 472.919 169.91 472.919C170.831 472.919 171.562 473.237 172.105 473.872C172.648 474.502 172.92 475.326 172.92 476.343V476.481C172.92 477.502 172.648 478.328 172.105 478.959C171.567 479.584 170.835 479.897 169.91 479.897C168.99 479.897 168.258 479.582 167.715 478.952C167.172 478.321 166.901 477.498 166.901 476.481ZM175.513 470.062V479.752H174.292V470.062H175.513ZM179.474 479.897C178.719 479.897 178.141 479.66 177.741 479.186C177.341 478.708 177.141 477.981 177.141 477.005V473.043H178.362V477.019C178.362 477.723 178.464 478.213 178.666 478.489C178.873 478.765 179.207 478.903 179.667 478.903C180.509 478.903 181.084 478.565 181.392 477.889V473.043H182.614V479.766H181.517L181.434 478.772C180.992 479.522 180.339 479.897 179.474 479.897ZM185.394 479.752H184.179V473.03H185.27L185.36 473.913C185.82 473.241 186.501 472.905 187.403 472.905C188.309 472.905 188.923 473.319 189.246 474.148C189.71 473.319 190.396 472.905 191.302 472.905C192.007 472.905 192.552 473.145 192.938 473.623C193.325 474.097 193.518 474.801 193.518 475.735V479.752H192.296V475.721C192.296 475.073 192.186 474.608 191.965 474.327C191.744 474.042 191.413 473.899 190.971 473.899C190.534 473.899 190.184 474.042 189.922 474.327C189.664 474.608 189.512 474.976 189.466 475.432V479.752H188.231V475.721C188.231 475.096 188.116 474.636 187.886 474.341C187.66 474.047 187.322 473.899 186.871 473.899C186.163 473.899 185.67 474.191 185.394 474.776V479.752ZM199.19 475.577C199.19 475.07 199.059 474.663 198.797 474.355C198.534 474.042 198.157 473.885 197.665 473.885C197.26 473.885 196.91 474.056 196.616 474.396C196.326 474.737 196.146 475.172 196.077 475.701L196.091 475.735H199.19V475.577ZM197.851 479.897C196.917 479.897 196.172 479.589 195.615 478.972C195.063 478.356 194.787 477.544 194.787 476.536V476.26C194.787 475.317 195.067 474.525 195.629 473.885C196.195 473.241 196.873 472.919 197.665 472.919C198.558 472.919 199.239 473.188 199.708 473.727C200.182 474.261 200.419 474.994 200.419 475.929V476.695H196.057L196.036 476.722C196.05 477.385 196.215 477.921 196.533 478.331C196.855 478.736 197.294 478.938 197.851 478.938C198.633 478.938 199.268 478.717 199.756 478.275L200.239 479.069H200.232C199.671 479.621 198.877 479.897 197.851 479.897ZM202.688 478.62V479.752H201.591V478.62H202.688ZM202.688 473.181V474.313H201.591V473.181H202.688ZM211.264 479.752H210.043V471.898L208.186 471.925V471.042L211.264 470.71V479.752ZM215.825 477.302C215.825 477.808 215.982 478.209 216.295 478.503C216.607 478.793 217.024 478.938 217.544 478.938C218.068 478.938 218.487 478.791 218.8 478.496C219.118 478.202 219.276 477.804 219.276 477.302C219.276 476.801 219.113 476.391 218.786 476.074C218.46 475.751 218.043 475.59 217.537 475.59C217.031 475.59 216.619 475.749 216.301 476.067C215.984 476.384 215.825 476.796 215.825 477.302ZM216.081 473.106C216.081 473.566 216.214 473.936 216.481 474.217C216.752 474.493 217.107 474.631 217.544 474.631C217.986 474.631 218.342 474.493 218.614 474.217C218.885 473.936 219.021 473.57 219.021 473.119C219.021 472.664 218.881 472.289 218.6 471.994C218.319 471.7 217.963 471.552 217.53 471.552C217.102 471.552 216.752 471.695 216.481 471.98C216.214 472.266 216.081 472.641 216.081 473.106ZM214.859 473.085C214.859 472.293 215.098 471.681 215.577 471.249C216.06 470.812 216.711 470.593 217.53 470.593C218.349 470.593 219.005 470.812 219.497 471.249C219.994 471.686 220.243 472.298 220.243 473.085C220.243 473.55 220.112 473.959 219.849 474.313C219.592 474.668 219.233 474.935 218.772 475.114C219.302 475.303 219.72 475.593 220.029 475.984C220.337 476.37 220.491 476.814 220.491 477.316C220.491 478.14 220.224 478.777 219.69 479.228C219.157 479.674 218.439 479.897 217.537 479.897C216.64 479.897 215.926 479.674 215.397 479.228C214.868 478.782 214.603 478.144 214.603 477.316C214.603 476.814 214.755 476.37 215.059 475.984C215.363 475.593 215.777 475.303 216.301 475.114C215.846 474.935 215.492 474.67 215.239 474.32C214.985 473.966 214.859 473.554 214.859 473.085ZM226.377 476.722H226.384C226.384 476.11 226.23 475.616 225.922 475.238C225.618 474.861 225.204 474.672 224.679 474.672C223.865 474.672 223.283 474.983 222.933 475.604V476.336C222.933 477.155 223.103 477.794 223.444 478.255C223.789 478.71 224.221 478.938 224.741 478.938C225.261 478.938 225.664 478.731 225.949 478.317C226.235 477.903 226.377 477.371 226.377 476.722ZM221.725 474.493H221.718C221.718 473.338 222.036 472.399 222.671 471.677C223.31 470.954 224.118 470.593 225.093 470.593C225.751 470.593 226.31 470.717 226.771 470.966L226.508 471.905C226.062 471.67 225.59 471.552 225.093 471.552C224.445 471.552 223.922 471.81 223.527 472.326C223.131 472.836 222.933 473.513 222.933 474.355V474.5C223.499 474.007 224.175 473.761 224.962 473.761C225.754 473.761 226.391 474.037 226.874 474.59C227.362 475.142 227.606 475.873 227.606 476.784C227.606 477.691 227.348 478.436 226.833 479.021C226.322 479.605 225.625 479.897 224.741 479.897C223.862 479.897 223.14 479.571 222.574 478.917C222.008 478.264 221.725 477.364 221.725 476.218V474.493ZM229.799 478.558V479.635L228.867 481.533H228.136L228.571 479.573V478.558H229.799ZM231.979 477.302C231.979 477.808 232.135 478.209 232.448 478.503C232.761 478.793 233.177 478.938 233.697 478.938C234.222 478.938 234.641 478.791 234.954 478.496C235.271 478.202 235.43 477.804 235.43 477.302C235.43 476.801 235.266 476.391 234.94 476.074C234.613 475.751 234.197 475.59 233.69 475.59C233.184 475.59 232.772 475.749 232.455 476.067C232.137 476.384 231.979 476.796 231.979 477.302ZM232.234 473.106C232.234 473.566 232.367 473.936 232.634 474.217C232.906 474.493 233.26 474.631 233.697 474.631C234.139 474.631 234.496 474.493 234.767 474.217C235.039 473.936 235.174 473.57 235.174 473.119C235.174 472.664 235.034 472.289 234.753 471.994C234.473 471.7 234.116 471.552 233.684 471.552C233.256 471.552 232.906 471.695 232.634 471.98C232.367 472.266 232.234 472.641 232.234 473.106ZM231.012 473.085C231.012 472.293 231.252 471.681 231.73 471.249C232.213 470.812 232.864 470.593 233.684 470.593C234.503 470.593 235.158 470.812 235.651 471.249C236.148 471.686 236.396 472.298 236.396 473.085C236.396 473.55 236.265 473.959 236.003 474.313C235.745 474.668 235.386 474.935 234.926 475.114C235.455 475.303 235.874 475.593 236.182 475.984C236.49 476.37 236.645 476.814 236.645 477.316C236.645 478.14 236.378 478.777 235.844 479.228C235.31 479.674 234.592 479.897 233.69 479.897C232.793 479.897 232.08 479.674 231.551 479.228C231.022 478.782 230.757 478.144 230.757 477.316C230.757 476.814 230.909 476.37 231.212 475.984C231.516 475.593 231.93 475.303 232.455 475.114C231.999 474.935 231.645 474.67 231.392 474.32C231.139 473.966 231.012 473.554 231.012 473.085ZM241.288 479.752H240.067V471.898L238.21 471.925V471.042L241.288 470.71V479.752ZM245.849 477.302C245.849 477.808 246.005 478.209 246.318 478.503C246.631 478.793 247.048 478.938 247.568 478.938C248.092 478.938 248.511 478.791 248.824 478.496C249.141 478.202 249.3 477.804 249.3 477.302C249.3 476.801 249.137 476.391 248.81 476.074C248.483 475.751 248.067 475.59 247.561 475.59C247.055 475.59 246.643 475.749 246.325 476.067C246.008 476.384 245.849 476.796 245.849 477.302ZM246.104 473.106C246.104 473.566 246.238 473.936 246.505 474.217C246.776 474.493 247.131 474.631 247.568 474.631C248.009 474.631 248.366 474.493 248.638 474.217C248.909 473.936 249.045 473.57 249.045 473.119C249.045 472.664 248.904 472.289 248.624 471.994C248.343 471.7 247.986 471.552 247.554 471.552C247.126 471.552 246.776 471.695 246.505 471.98C246.238 472.266 246.104 472.641 246.104 473.106ZM244.883 473.085C244.883 472.293 245.122 471.681 245.601 471.249C246.084 470.812 246.735 470.593 247.554 470.593C248.373 470.593 249.029 470.812 249.521 471.249C250.018 471.686 250.267 472.298 250.267 473.085C250.267 473.55 250.135 473.959 249.873 474.313C249.615 474.668 249.256 474.935 248.796 475.114C249.326 475.303 249.744 475.593 250.053 475.984C250.361 476.37 250.515 476.814 250.515 477.316C250.515 478.14 250.248 478.777 249.714 479.228C249.181 479.674 248.463 479.897 247.561 479.897C246.664 479.897 245.95 479.674 245.421 479.228C244.892 478.782 244.627 478.144 244.627 477.316C244.627 476.814 244.779 476.37 245.083 475.984C245.387 475.593 245.801 475.303 246.325 475.114C245.87 474.935 245.515 474.67 245.262 474.32C245.009 473.966 244.883 473.554 244.883 473.085Z" fill="#181819" fill-opacity="0.9"/>
<rect width="553.198" height="1.19502" transform="matrix(1 0 0 -1 11.0771 436.789)" fill="#E6E7E9"/>
<path d="M32.4477 92.3393V103.037H30.6831V94.4334L28.069 95.3194V93.8623L32.2354 92.3393H32.4477ZM40.1269 92.3759H41.7671L44.8498 100.599L47.9251 92.3759H49.5653L45.4941 103.037H44.1908L40.1269 92.3759ZM39.38 92.3759H40.9397L41.2106 99.4931V103.037H39.38V92.3759ZM48.7526 92.3759H50.3195V103.037H48.4816V99.4931L48.7526 92.3759ZM51.5963 99.1636V98.9952C51.5963 98.4241 51.6793 97.8944 51.8453 97.4063C52.0113 96.9132 52.2504 96.4861 52.5629 96.1249C52.8802 95.7588 53.2658 95.4756 53.7198 95.2755C54.1786 95.0705 54.6961 94.968 55.2721 94.968C55.853 94.968 56.3704 95.0705 56.8244 95.2755C57.2833 95.4756 57.6714 95.7588 57.9887 96.1249C58.306 96.4861 58.5476 96.9132 58.7136 97.4063C58.8796 97.8944 58.9625 98.4241 58.9625 98.9952V99.1636C58.9625 99.7348 58.8796 100.264 58.7136 100.753C58.5476 101.241 58.306 101.668 57.9887 102.034C57.6714 102.395 57.2857 102.678 56.8318 102.883C56.3778 103.083 55.8628 103.184 55.2868 103.184C54.7059 103.184 54.186 103.083 53.7271 102.883C53.2731 102.678 52.8875 102.395 52.5702 102.034C52.2529 101.668 52.0113 101.241 51.8453 100.753C51.6793 100.264 51.5963 99.7348 51.5963 99.1636ZM53.361 98.9952V99.1636C53.361 99.52 53.3976 99.8568 53.4708 100.174C53.5441 100.491 53.6588 100.77 53.815 101.009C53.9712 101.248 54.1713 101.436 54.4154 101.573C54.6595 101.709 54.9499 101.778 55.2868 101.778C55.6138 101.778 55.8969 101.709 56.1361 101.573C56.3802 101.436 56.5804 101.248 56.7366 101.009C56.8928 100.77 57.0075 100.491 57.0807 100.174C57.1588 99.8568 57.1979 99.52 57.1979 99.1636V98.9952C57.1979 98.6437 57.1588 98.3118 57.0807 97.9994C57.0075 97.6821 56.8903 97.4014 56.7292 97.1573C56.573 96.9132 56.3729 96.7229 56.1288 96.5862C55.8896 96.4446 55.6041 96.3738 55.2721 96.3738C54.9402 96.3738 54.6522 96.4446 54.4081 96.5862C54.1689 96.7229 53.9712 96.9132 53.815 97.1573C53.6588 97.4014 53.5441 97.6821 53.4708 97.9994C53.3976 98.3118 53.361 98.6437 53.361 98.9952ZM61.799 96.8059V103.037H60.0343V95.1144H61.6965L61.799 96.8059ZM61.4841 98.7829L60.913 98.7755C60.9179 98.2142 60.996 97.6992 61.1473 97.2305C61.3035 96.7619 61.5183 96.3592 61.7917 96.0224C62.0699 95.6855 62.4018 95.4268 62.7875 95.2462C63.1731 95.0607 63.6027 94.968 64.0762 94.968C64.457 94.968 64.8011 95.0217 65.1086 95.129C65.4211 95.2316 65.6871 95.4 65.9068 95.6343C66.1313 95.8686 66.3022 96.1737 66.4193 96.5496C66.5365 96.9206 66.5951 97.377 66.5951 97.9188V103.037H64.8231V97.9115C64.8231 97.5308 64.7669 97.2305 64.6547 97.0109C64.5473 96.7863 64.3886 96.6277 64.1787 96.5349C63.9737 96.4373 63.7174 96.3885 63.4099 96.3885C63.1072 96.3885 62.8363 96.4519 62.5971 96.5789C62.3579 96.7058 62.1553 96.8791 61.9894 97.0987C61.8283 97.3184 61.7038 97.5722 61.6159 97.8603C61.5281 98.1483 61.4841 98.4558 61.4841 98.7829ZM71.6355 95.1144V96.4031H67.1689V95.1144H71.6355ZM68.4577 93.174H70.2223V100.848C70.2223 101.092 70.2565 101.28 70.3248 101.412C70.3981 101.538 70.4981 101.624 70.625 101.668C70.752 101.712 70.9009 101.734 71.0717 101.734C71.1937 101.734 71.3109 101.726 71.4232 101.712C71.5354 101.697 71.6258 101.682 71.6941 101.668L71.7014 103.015C71.555 103.059 71.3841 103.098 71.1889 103.132C70.9985 103.166 70.7788 103.184 70.5299 103.184C70.1247 103.184 69.7659 103.113 69.4535 102.971C69.1411 102.825 68.897 102.588 68.7213 102.261C68.5455 101.934 68.4577 101.499 68.4577 100.958V93.174ZM74.3475 91.7901V103.037H72.5901V91.7901H74.3475ZM74.0399 98.7829L73.4688 98.7755C73.4737 98.2288 73.5494 97.7236 73.6958 97.2598C73.8471 96.7961 74.057 96.3934 74.3255 96.0517C74.5989 95.7051 74.9259 95.439 75.3067 95.2535C75.6875 95.0631 76.1097 94.968 76.5735 94.968C76.964 94.968 77.3154 95.0217 77.6279 95.129C77.9452 95.2364 78.2185 95.4097 78.448 95.6489C78.6774 95.8832 78.8507 96.1908 78.9678 96.5715C79.0899 96.9474 79.1509 97.4063 79.1509 97.9481V103.037H77.3789V97.9335C77.3789 97.5527 77.3228 97.2501 77.2105 97.0255C77.1031 96.801 76.9444 96.6399 76.7345 96.5422C76.5246 96.4397 76.2684 96.3885 75.9657 96.3885C75.6484 96.3885 75.3677 96.4519 75.1236 96.5789C74.8844 96.7058 74.6843 96.8791 74.5232 97.0987C74.3621 97.3184 74.2401 97.5722 74.1571 97.8603C74.079 98.1483 74.0399 98.4558 74.0399 98.7829Z" fill="#181819" fill-opacity="0.9"/>
<path d="M102.768 97.0402H103.735C104.208 97.0402 104.599 96.9621 104.906 96.8059C105.219 96.6448 105.451 96.4275 105.602 96.1542C105.758 95.8759 105.836 95.5635 105.836 95.2169C105.836 94.8069 105.768 94.4627 105.631 94.1845C105.495 93.9062 105.29 93.6963 105.016 93.5548C104.743 93.4132 104.396 93.3424 103.976 93.3424C103.596 93.3424 103.259 93.4181 102.966 93.5694C102.678 93.7158 102.451 93.9258 102.285 94.1991C102.124 94.4725 102.043 94.7947 102.043 95.1657H100.689C100.689 94.6238 100.825 94.1308 101.099 93.6866C101.372 93.2423 101.755 92.8884 102.248 92.6248C102.746 92.3612 103.322 92.2294 103.976 92.2294C104.621 92.2294 105.185 92.3441 105.668 92.5736C106.151 92.7981 106.527 93.1349 106.796 93.584C107.064 94.0283 107.198 94.5823 107.198 95.2462C107.198 95.5147 107.135 95.8027 107.008 96.1102C106.886 96.4129 106.693 96.696 106.429 96.9596C106.171 97.2232 105.834 97.4404 105.419 97.6113C105.004 97.7773 104.506 97.8603 103.925 97.8603H102.768V97.0402ZM102.768 98.1531V97.3404H103.925C104.604 97.3404 105.165 97.4209 105.609 97.582C106.054 97.7431 106.403 97.9579 106.656 98.2264C106.915 98.4949 107.096 98.7902 107.198 99.1124C107.306 99.4297 107.359 99.747 107.359 100.064C107.359 100.562 107.274 101.004 107.103 101.39C106.937 101.775 106.7 102.102 106.393 102.371C106.09 102.639 105.734 102.842 105.324 102.979C104.914 103.115 104.467 103.184 103.984 103.184C103.52 103.184 103.083 103.118 102.673 102.986C102.268 102.854 101.909 102.664 101.597 102.415C101.284 102.161 101.04 101.851 100.864 101.485C100.689 101.114 100.601 100.692 100.601 100.218H101.956C101.956 100.589 102.036 100.914 102.197 101.192C102.363 101.47 102.597 101.687 102.9 101.844C103.208 101.995 103.569 102.071 103.984 102.071C104.399 102.071 104.755 102 105.053 101.858C105.355 101.712 105.587 101.492 105.748 101.199C105.914 100.906 105.997 100.538 105.997 100.094C105.997 99.6493 105.905 99.2857 105.719 99.0025C105.534 98.7145 105.27 98.5022 104.928 98.3655C104.592 98.2239 104.194 98.1531 103.735 98.1531H102.768ZM112.959 92.3759H114.328L117.821 101.067L121.306 92.3759H122.683L118.348 103.037H117.279L112.959 92.3759ZM112.512 92.3759H113.721L113.918 98.8781V103.037H112.512V92.3759ZM121.914 92.3759H123.122V103.037H121.716V98.8781L121.914 92.3759ZM124.648 99.1636V98.9952C124.648 98.4241 124.731 97.8944 124.897 97.4063C125.063 96.9132 125.302 96.4861 125.615 96.1249C125.927 95.7588 126.305 95.4756 126.75 95.2755C127.194 95.0705 127.692 94.968 128.243 94.968C128.8 94.968 129.3 95.0705 129.744 95.2755C130.193 95.4756 130.574 95.7588 130.887 96.1249C131.204 96.4861 131.446 96.9132 131.612 97.4063C131.778 97.8944 131.861 98.4241 131.861 98.9952V99.1636C131.861 99.7348 131.778 100.264 131.612 100.753C131.446 101.241 131.204 101.668 130.887 102.034C130.574 102.395 130.196 102.678 129.752 102.883C129.312 103.083 128.814 103.184 128.258 103.184C127.701 103.184 127.201 103.083 126.757 102.883C126.313 102.678 125.932 102.395 125.615 102.034C125.302 101.668 125.063 101.241 124.897 100.753C124.731 100.264 124.648 99.7348 124.648 99.1636ZM126.003 98.9952V99.1636C126.003 99.559 126.049 99.9325 126.142 100.284C126.235 100.631 126.374 100.938 126.559 101.207C126.75 101.475 126.986 101.687 127.269 101.844C127.553 101.995 127.882 102.071 128.258 102.071C128.629 102.071 128.954 101.995 129.232 101.844C129.515 101.687 129.749 101.475 129.935 101.207C130.12 100.938 130.259 100.631 130.352 100.284C130.45 99.9325 130.499 99.559 130.499 99.1636V98.9952C130.499 98.6047 130.45 98.2361 130.352 97.8895C130.259 97.5381 130.118 97.2281 129.927 96.9596C129.742 96.6863 129.508 96.4715 129.225 96.3153C128.946 96.159 128.619 96.0809 128.243 96.0809C127.872 96.0809 127.545 96.159 127.262 96.3153C126.984 96.4715 126.75 96.6863 126.559 96.9596C126.374 97.2281 126.235 97.5381 126.142 97.8895C126.049 98.2361 126.003 98.6047 126.003 98.9952ZM134.521 96.8059V103.037H133.167V95.1144H134.448L134.521 96.8059ZM134.199 98.7755L133.635 98.7536C133.64 98.2117 133.721 97.7114 133.877 97.2525C134.033 96.7888 134.253 96.386 134.536 96.0443C134.819 95.7026 135.156 95.439 135.546 95.2535C135.942 95.0631 136.379 94.968 136.857 94.968C137.248 94.968 137.599 95.0217 137.911 95.129C138.224 95.2316 138.49 95.3975 138.71 95.627C138.934 95.8564 139.105 96.1542 139.222 96.5203C139.339 96.8815 139.398 97.3233 139.398 97.8456V103.037H138.036V97.831C138.036 97.416 137.975 97.0841 137.853 96.8351C137.731 96.5813 137.553 96.3982 137.318 96.286C137.084 96.1688 136.796 96.1102 136.454 96.1102C136.117 96.1102 135.81 96.181 135.532 96.3226C135.258 96.4641 135.022 96.6594 134.821 96.9084C134.626 97.1573 134.472 97.4429 134.36 97.7651C134.253 98.0824 134.199 98.4192 134.199 98.7755ZM144.38 95.1144V96.1542H140.096V95.1144H144.38ZM141.546 93.1886H142.901V101.075C142.901 101.343 142.942 101.546 143.025 101.682C143.108 101.819 143.216 101.909 143.347 101.953C143.479 101.997 143.621 102.019 143.772 102.019C143.884 102.019 144.001 102.01 144.123 101.99C144.25 101.966 144.346 101.946 144.409 101.931L144.416 103.037C144.309 103.071 144.167 103.103 143.992 103.132C143.821 103.166 143.613 103.184 143.369 103.184C143.037 103.184 142.732 103.118 142.454 102.986C142.176 102.854 141.954 102.634 141.788 102.327C141.627 102.014 141.546 101.595 141.546 101.067V93.1886ZM146.931 91.7901V103.037H145.576V91.7901H146.931ZM146.608 98.7755L146.045 98.7536C146.05 98.2117 146.13 97.7114 146.286 97.2525C146.442 96.7888 146.662 96.386 146.945 96.0443C147.228 95.7026 147.565 95.439 147.956 95.2535C148.351 95.0631 148.788 94.968 149.266 94.968C149.657 94.968 150.008 95.0217 150.321 95.129C150.633 95.2316 150.899 95.3975 151.119 95.627C151.344 95.8564 151.514 96.1542 151.632 96.5203C151.749 96.8815 151.807 97.3233 151.807 97.8456V103.037H150.445V97.831C150.445 97.416 150.384 97.0841 150.262 96.8351C150.14 96.5813 149.962 96.3982 149.728 96.286C149.493 96.1688 149.205 96.1102 148.864 96.1102C148.527 96.1102 148.219 96.181 147.941 96.3226C147.668 96.4641 147.431 96.6594 147.231 96.9084C147.036 97.1573 146.882 97.4429 146.77 97.7651C146.662 98.0824 146.608 98.4192 146.608 98.7755ZM158.056 100.936C158.056 100.74 158.012 100.56 157.924 100.394C157.841 100.223 157.668 100.069 157.404 99.9325C157.145 99.7909 156.755 99.6689 156.233 99.5663C155.793 99.4736 155.395 99.3638 155.039 99.2368C154.688 99.1099 154.387 98.9562 154.138 98.7755C153.894 98.5949 153.706 98.3826 153.575 98.1385C153.443 97.8944 153.377 97.6089 153.377 97.2818C153.377 96.9694 153.445 96.674 153.582 96.3958C153.724 96.1176 153.921 95.871 154.175 95.6563C154.434 95.4415 154.744 95.2731 155.105 95.151C155.466 95.029 155.869 94.968 156.313 94.968C156.948 94.968 157.49 95.0802 157.939 95.3048C158.388 95.5293 158.732 95.8295 158.971 96.2054C159.21 96.5764 159.33 96.9889 159.33 97.4429H157.975C157.975 97.2232 157.909 97.0109 157.778 96.8059C157.651 96.5959 157.463 96.4227 157.214 96.286C156.97 96.1493 156.67 96.0809 156.313 96.0809C155.937 96.0809 155.632 96.1395 155.398 96.2567C155.168 96.369 155 96.513 154.893 96.6887C154.79 96.8644 154.739 97.0499 154.739 97.2452C154.739 97.3916 154.763 97.5234 154.812 97.6406C154.866 97.7529 154.959 97.8578 155.09 97.9554C155.222 98.0482 155.408 98.1361 155.647 98.2191C155.886 98.302 156.191 98.385 156.562 98.468C157.211 98.6145 157.746 98.7902 158.166 98.9952C158.586 99.2002 158.898 99.4516 159.103 99.7494C159.308 100.047 159.411 100.408 159.411 100.833C159.411 101.18 159.337 101.497 159.191 101.785C159.049 102.073 158.842 102.322 158.568 102.532C158.3 102.737 157.978 102.898 157.602 103.015C157.231 103.127 156.814 103.184 156.35 103.184C155.652 103.184 155.061 103.059 154.578 102.81C154.095 102.561 153.728 102.239 153.479 101.844C153.23 101.448 153.106 101.031 153.106 100.591H154.468C154.487 100.962 154.595 101.258 154.79 101.477C154.985 101.692 155.225 101.846 155.508 101.939C155.791 102.027 156.072 102.071 156.35 102.071C156.721 102.071 157.031 102.022 157.28 101.924C157.534 101.826 157.726 101.692 157.858 101.521C157.99 101.351 158.056 101.155 158.056 100.936Z" fill="#BEBEBE"/>
<path d="M183.101 92.3173V103.037H181.746V94.0087L179.015 95.0046V93.7817L182.888 92.3173H183.101ZM190.86 92.3759L193.628 97.7285L196.403 92.3759H198.007L194.331 99.0538V103.037H192.918V99.0538L189.242 92.3759H190.86ZM201.583 103.184C201.031 103.184 200.531 103.091 200.082 102.905C199.638 102.715 199.254 102.449 198.932 102.107C198.615 101.765 198.371 101.36 198.2 100.892C198.029 100.423 197.944 99.9105 197.944 99.354V99.0465C197.944 98.4021 198.039 97.8285 198.229 97.3257C198.42 96.8181 198.678 96.3885 199.005 96.037C199.333 95.6855 199.704 95.4195 200.118 95.2389C200.533 95.0583 200.963 94.968 201.407 94.968C201.973 94.968 202.462 95.0656 202.872 95.2608C203.287 95.4561 203.626 95.7295 203.889 96.0809C204.153 96.4275 204.348 96.8376 204.475 97.3111C204.602 97.7797 204.666 98.2923 204.666 98.8488V99.4565H198.749V98.3509H203.311V98.2483C203.291 97.8969 203.218 97.5552 203.091 97.2232C202.969 96.8913 202.774 96.6179 202.506 96.4031C202.237 96.1883 201.871 96.0809 201.407 96.0809C201.1 96.0809 200.817 96.1468 200.558 96.2786C200.299 96.4056 200.077 96.5959 199.891 96.8498C199.706 97.1036 199.562 97.4136 199.459 97.7797C199.357 98.1458 199.306 98.5681 199.306 99.0465V99.354C199.306 99.7299 199.357 100.084 199.459 100.416C199.567 100.743 199.721 101.031 199.921 101.28C200.126 101.529 200.372 101.724 200.66 101.866C200.953 102.007 201.285 102.078 201.656 102.078C202.135 102.078 202.54 101.98 202.872 101.785C203.204 101.59 203.494 101.329 203.743 101.002L204.563 101.653C204.392 101.912 204.175 102.158 203.911 102.393C203.648 102.627 203.323 102.817 202.938 102.964C202.557 103.11 202.105 103.184 201.583 103.184ZM210.526 101.682V97.604C210.526 97.2916 210.463 97.0206 210.336 96.7912C210.214 96.5569 210.028 96.3763 209.779 96.2494C209.53 96.1224 209.223 96.059 208.857 96.059C208.515 96.059 208.215 96.1176 207.956 96.2347C207.702 96.3519 207.502 96.5056 207.356 96.696C207.214 96.8864 207.143 97.0914 207.143 97.3111H205.789C205.789 97.028 205.862 96.7473 206.008 96.469C206.155 96.1908 206.365 95.9394 206.638 95.7148C206.916 95.4854 207.248 95.3048 207.634 95.173C208.024 95.0363 208.459 94.968 208.937 94.968C209.513 94.968 210.021 95.0656 210.46 95.2608C210.904 95.4561 211.251 95.7514 211.5 96.1468C211.754 96.5374 211.881 97.028 211.881 97.6186V101.309C211.881 101.573 211.903 101.853 211.947 102.151C211.995 102.449 212.066 102.705 212.159 102.92V103.037H210.746C210.677 102.881 210.624 102.673 210.585 102.415C210.546 102.151 210.526 101.907 210.526 101.682ZM210.76 98.2337L210.775 99.1856H209.406C209.02 99.1856 208.676 99.2173 208.373 99.2808C208.071 99.3394 207.817 99.4297 207.612 99.5517C207.407 99.6737 207.251 99.8275 207.143 100.013C207.036 100.194 206.982 100.406 206.982 100.65C206.982 100.899 207.038 101.126 207.151 101.331C207.263 101.536 207.431 101.7 207.656 101.822C207.885 101.939 208.166 101.997 208.498 101.997C208.913 101.997 209.279 101.909 209.596 101.734C209.913 101.558 210.165 101.343 210.35 101.089C210.541 100.836 210.643 100.589 210.658 100.35L211.236 101.002C211.202 101.207 211.109 101.434 210.958 101.682C210.807 101.931 210.604 102.171 210.35 102.4C210.101 102.625 209.804 102.813 209.457 102.964C209.115 103.11 208.73 103.184 208.3 103.184C207.763 103.184 207.292 103.079 206.887 102.869C206.487 102.659 206.174 102.378 205.95 102.027C205.73 101.67 205.62 101.272 205.62 100.833C205.62 100.408 205.703 100.035 205.869 99.7128C206.035 99.3857 206.274 99.1148 206.587 98.9C206.899 98.6804 207.275 98.5144 207.714 98.4021C208.154 98.2898 208.644 98.2337 209.186 98.2337H210.76ZM214.973 96.3592V103.037H213.619V95.1144H214.937L214.973 96.3592ZM217.448 95.0705L217.441 96.3299C217.329 96.3055 217.221 96.2909 217.119 96.286C217.021 96.2762 216.909 96.2713 216.782 96.2713C216.47 96.2713 216.194 96.3201 215.955 96.4178C215.715 96.5154 215.513 96.6521 215.347 96.8278C215.181 97.0036 215.049 97.2135 214.952 97.4575C214.859 97.6967 214.798 97.9603 214.768 98.2483L214.388 98.468C214.388 97.9896 214.434 97.5405 214.527 97.1207C214.624 96.7009 214.773 96.3299 214.973 96.0077C215.174 95.6807 215.427 95.4268 215.735 95.2462C216.047 95.0607 216.418 94.968 216.848 94.968C216.946 94.968 217.058 94.9802 217.185 95.0046C217.312 95.0241 217.4 95.0461 217.448 95.0705Z" fill="#BEBEBE"/>
<path d="M248.93 97.0402H249.897C250.37 97.0402 250.761 96.9621 251.068 96.8059C251.381 96.6448 251.613 96.4275 251.764 96.1542C251.92 95.8759 251.998 95.5635 251.998 95.2169C251.998 94.8069 251.93 94.4627 251.793 94.1845C251.657 93.9062 251.452 93.6963 251.178 93.5548C250.905 93.4132 250.558 93.3424 250.139 93.3424C249.758 93.3424 249.421 93.4181 249.128 93.5694C248.84 93.7158 248.613 93.9258 248.447 94.1991C248.286 94.4725 248.205 94.7947 248.205 95.1657H246.851C246.851 94.6238 246.988 94.1308 247.261 93.6866C247.534 93.2423 247.917 92.8884 248.411 92.6248C248.908 92.3612 249.484 92.2294 250.139 92.2294C250.783 92.2294 251.347 92.3441 251.83 92.5736C252.313 92.7981 252.689 93.1349 252.958 93.584C253.226 94.0283 253.36 94.5823 253.36 95.2462C253.36 95.5147 253.297 95.8027 253.17 96.1102C253.048 96.4129 252.855 96.696 252.592 96.9596C252.333 97.2232 251.996 97.4404 251.581 97.6113C251.166 97.7773 250.668 97.8603 250.087 97.8603H248.93V97.0402ZM248.93 98.1531V97.3404H250.087C250.766 97.3404 251.327 97.4209 251.771 97.582C252.216 97.7431 252.565 97.9579 252.819 98.2264C253.077 98.4949 253.258 98.7902 253.36 99.1124C253.468 99.4297 253.521 99.747 253.521 100.064C253.521 100.562 253.436 101.004 253.265 101.39C253.099 101.775 252.862 102.102 252.555 102.371C252.252 102.639 251.896 102.842 251.486 102.979C251.076 103.115 250.629 103.184 250.146 103.184C249.682 103.184 249.245 103.118 248.835 102.986C248.43 102.854 248.071 102.664 247.759 102.415C247.446 102.161 247.202 101.851 247.027 101.485C246.851 101.114 246.763 100.692 246.763 100.218H248.118C248.118 100.589 248.198 100.914 248.359 101.192C248.525 101.47 248.76 101.687 249.062 101.844C249.37 101.995 249.731 102.071 250.146 102.071C250.561 102.071 250.917 102 251.215 101.858C251.518 101.712 251.749 101.492 251.911 101.199C252.077 100.906 252.16 100.538 252.16 100.094C252.16 99.6493 252.067 99.2857 251.881 99.0025C251.696 98.7145 251.432 98.5022 251.09 98.3655C250.754 98.2239 250.356 98.1531 249.897 98.1531H248.93ZM259.165 92.3759L261.933 97.7285L264.708 92.3759H266.312L262.636 99.0538V103.037H261.223V99.0538L257.547 92.3759H259.165ZM269.888 103.184C269.336 103.184 268.836 103.091 268.387 102.905C267.942 102.715 267.559 102.449 267.237 102.107C266.92 101.765 266.676 101.36 266.505 100.892C266.334 100.423 266.248 99.9105 266.248 99.354V99.0465C266.248 98.4021 266.344 97.8285 266.534 97.3257C266.724 96.8181 266.983 96.3885 267.31 96.037C267.637 95.6855 268.008 95.4195 268.423 95.2389C268.838 95.0583 269.268 94.968 269.712 94.968C270.278 94.968 270.766 95.0656 271.176 95.2608C271.591 95.4561 271.931 95.7295 272.194 96.0809C272.458 96.4275 272.653 96.8376 272.78 97.3111C272.907 97.7797 272.97 98.2923 272.97 98.8488V99.4565H267.054V98.3509H271.616V98.2483C271.596 97.8969 271.523 97.5552 271.396 97.2232C271.274 96.8913 271.079 96.6179 270.81 96.4031C270.542 96.1883 270.176 96.0809 269.712 96.0809C269.404 96.0809 269.121 96.1468 268.862 96.2786C268.604 96.4056 268.382 96.5959 268.196 96.8498C268.011 97.1036 267.867 97.4136 267.764 97.7797C267.662 98.1458 267.61 98.5681 267.61 99.0465V99.354C267.61 99.7299 267.662 100.084 267.764 100.416C267.872 100.743 268.025 101.031 268.225 101.28C268.43 101.529 268.677 101.724 268.965 101.866C269.258 102.007 269.59 102.078 269.961 102.078C270.439 102.078 270.844 101.98 271.176 101.785C271.508 101.59 271.799 101.329 272.048 101.002L272.868 101.653C272.697 101.912 272.48 102.158 272.216 102.393C271.952 102.627 271.628 102.817 271.242 102.964C270.861 103.11 270.41 103.184 269.888 103.184ZM278.831 101.682V97.604C278.831 97.2916 278.767 97.0206 278.64 96.7912C278.518 96.5569 278.333 96.3763 278.084 96.2494C277.835 96.1224 277.527 96.059 277.161 96.059C276.82 96.059 276.519 96.1176 276.261 96.2347C276.007 96.3519 275.807 96.5056 275.66 96.696C275.519 96.8864 275.448 97.0914 275.448 97.3111H274.093C274.093 97.028 274.167 96.7473 274.313 96.469C274.459 96.1908 274.669 95.9394 274.943 95.7148C275.221 95.4854 275.553 95.3048 275.939 95.173C276.329 95.0363 276.763 94.968 277.242 94.968C277.818 94.968 278.326 95.0656 278.765 95.2608C279.209 95.4561 279.556 95.7514 279.805 96.1468C280.059 96.5374 280.185 97.028 280.185 97.6186V101.309C280.185 101.573 280.207 101.853 280.251 102.151C280.3 102.449 280.371 102.705 280.464 102.92V103.037H279.05C278.982 102.881 278.928 102.673 278.889 102.415C278.85 102.151 278.831 101.907 278.831 101.682ZM279.065 98.2337L279.08 99.1856H277.711C277.325 99.1856 276.981 99.2173 276.678 99.2808C276.375 99.3394 276.122 99.4297 275.917 99.5517C275.712 99.6737 275.555 99.8275 275.448 100.013C275.341 100.194 275.287 100.406 275.287 100.65C275.287 100.899 275.343 101.126 275.455 101.331C275.568 101.536 275.736 101.7 275.96 101.822C276.19 101.939 276.471 101.997 276.803 101.997C277.217 101.997 277.584 101.909 277.901 101.734C278.218 101.558 278.47 101.343 278.655 101.089C278.845 100.836 278.948 100.589 278.963 100.35L279.541 101.002C279.507 101.207 279.414 101.434 279.263 101.682C279.112 101.931 278.909 102.171 278.655 102.4C278.406 102.625 278.108 102.813 277.762 102.964C277.42 103.11 277.034 103.184 276.605 103.184C276.068 103.184 275.597 103.079 275.192 102.869C274.791 102.659 274.479 102.378 274.254 102.027C274.035 101.67 273.925 101.272 273.925 100.833C273.925 100.408 274.008 100.035 274.174 99.7128C274.34 99.3857 274.579 99.1148 274.891 98.9C275.204 98.6804 275.58 98.5144 276.019 98.4021C276.458 98.2898 276.949 98.2337 277.491 98.2337H279.065ZM283.278 96.3592V103.037H281.924V95.1144H283.242L283.278 96.3592ZM285.753 95.0705L285.746 96.3299C285.633 96.3055 285.526 96.2909 285.424 96.286C285.326 96.2762 285.214 96.2713 285.087 96.2713C284.774 96.2713 284.499 96.3201 284.259 96.4178C284.02 96.5154 283.818 96.6521 283.652 96.8278C283.486 97.0036 283.354 97.2135 283.256 97.4575C283.163 97.6967 283.102 97.9603 283.073 98.2483L282.692 98.468C282.692 97.9896 282.739 97.5405 282.831 97.1207C282.929 96.7009 283.078 96.3299 283.278 96.0077C283.478 95.6807 283.732 95.4268 284.04 95.2462C284.352 95.0607 284.723 94.968 285.153 94.968C285.25 94.968 285.363 94.9802 285.489 95.0046C285.616 95.0241 285.704 95.0461 285.753 95.0705ZM291.226 100.936C291.226 100.74 291.182 100.56 291.094 100.394C291.011 100.223 290.837 100.069 290.574 99.9325C290.315 99.7909 289.925 99.6689 289.402 99.5663C288.963 99.4736 288.565 99.3638 288.209 99.2368C287.857 99.1099 287.557 98.9562 287.308 98.7755C287.064 98.5949 286.876 98.3826 286.744 98.1385C286.613 97.8944 286.547 97.6089 286.547 97.2818C286.547 96.9694 286.615 96.674 286.752 96.3958C286.893 96.1176 287.091 95.871 287.345 95.6563C287.603 95.4415 287.913 95.2731 288.275 95.151C288.636 95.029 289.039 94.968 289.483 94.968C290.117 94.968 290.659 95.0802 291.108 95.3048C291.557 95.5293 291.902 95.8295 292.141 96.2054C292.38 96.5764 292.5 96.9889 292.5 97.4429H291.145C291.145 97.2232 291.079 97.0109 290.947 96.8059C290.82 96.5959 290.632 96.4227 290.383 96.286C290.139 96.1493 289.839 96.0809 289.483 96.0809C289.107 96.0809 288.802 96.1395 288.568 96.2567C288.338 96.369 288.17 96.513 288.062 96.6887C287.96 96.8644 287.909 97.0499 287.909 97.2452C287.909 97.3916 287.933 97.5234 287.982 97.6406C288.035 97.7529 288.128 97.8578 288.26 97.9554C288.392 98.0482 288.577 98.1361 288.817 98.2191C289.056 98.302 289.361 98.385 289.732 98.468C290.381 98.6145 290.916 98.7902 291.335 98.9952C291.755 99.2002 292.068 99.4516 292.273 99.7494C292.478 100.047 292.58 100.408 292.58 100.833C292.58 101.18 292.507 101.497 292.361 101.785C292.219 102.073 292.011 102.322 291.738 102.532C291.47 102.737 291.147 102.898 290.772 103.015C290.401 103.127 289.983 103.184 289.519 103.184C288.821 103.184 288.231 103.059 287.747 102.81C287.264 102.561 286.898 102.239 286.649 101.844C286.4 101.448 286.276 101.031 286.276 100.591H287.638C287.657 100.962 287.765 101.258 287.96 101.477C288.155 101.692 288.394 101.846 288.677 101.939C288.961 102.027 289.241 102.071 289.519 102.071C289.89 102.071 290.2 102.022 290.449 101.924C290.703 101.826 290.896 101.692 291.028 101.521C291.16 101.351 291.226 101.155 291.226 100.936Z" fill="#BEBEBE"/>
<path d="M33.4428 387.017V387.823H28.5534V387.121L31.0269 384.377C31.4679 383.886 31.767 383.497 31.9242 383.209C32.0815 382.922 32.1601 382.605 32.1601 382.26C32.1601 381.911 32.0489 381.61 31.8264 381.357C31.604 381.104 31.3145 380.978 30.9579 380.978C29.9416 380.978 29.4335 381.488 29.4335 382.508H28.4557L28.4442 382.473C28.4288 381.81 28.6493 381.261 29.1057 380.828C29.562 380.395 30.1794 380.178 30.9579 380.178C31.6289 380.178 32.1658 380.374 32.5685 380.765C32.975 381.152 33.1782 381.656 33.1782 382.278C33.1782 382.669 33.0632 383.068 32.8331 383.474C32.6068 383.877 32.2598 384.331 31.7919 384.837L29.8074 386.994L29.8189 387.017H33.4428ZM37.4406 387.817H36.4224V381.271L34.8751 381.294V380.558L37.4406 380.282V387.817ZM41.7375 386.77V387.817H40.7193V386.77H41.7375ZM47.0928 385.165V382.951C47.0928 382.299 46.9739 381.808 46.7361 381.478C46.5022 381.148 46.159 380.983 45.7065 380.983C44.79 380.983 44.3317 381.639 44.3317 382.951V385.165C44.3317 385.817 44.4487 386.31 44.6826 386.643C44.9203 386.973 45.2655 387.138 45.718 387.138C46.6345 387.138 47.0928 386.48 47.0928 385.165ZM48.1109 383.169V384.958C48.1109 385.917 47.9 386.653 47.4782 387.167C47.0602 387.681 46.4734 387.938 45.718 387.938C44.9664 387.938 44.3777 387.681 43.9521 387.167C43.5264 386.649 43.3136 385.913 43.3136 384.958V383.169C43.3136 382.214 43.5245 381.478 43.9463 380.96C44.372 380.443 44.9606 380.184 45.7122 380.184C46.4639 380.184 47.0506 380.443 47.4724 380.96C47.8981 381.478 48.1109 382.214 48.1109 383.169ZM53.075 385.165V382.951C53.075 382.299 52.9562 381.808 52.7184 381.478C52.4845 381.148 52.1413 380.983 51.6888 380.983C50.7722 380.983 50.314 381.639 50.314 382.951V385.165C50.314 385.817 50.4309 386.31 50.6649 386.643C50.9026 386.973 51.2478 387.138 51.7003 387.138C52.6168 387.138 53.075 386.48 53.075 385.165ZM54.0932 383.169V384.958C54.0932 385.917 53.8823 386.653 53.4604 387.167C53.0424 387.681 52.4557 387.938 51.7003 387.938C50.9486 387.938 50.36 387.681 49.9343 387.167C49.5087 386.649 49.2958 385.913 49.2958 384.958V383.169C49.2958 382.214 49.5068 381.478 49.9286 380.96C50.3543 380.443 50.9429 380.184 51.6945 380.184C52.4461 380.184 53.0329 380.443 53.4547 380.96C53.8803 381.478 54.0932 382.214 54.0932 383.169Z" fill="#595B61"/>
<path d="M33.4543 358.886V359.692H28.5649V358.99L31.0384 356.246C31.4794 355.755 31.7785 355.366 31.9357 355.079C32.093 354.791 32.1716 354.475 32.1716 354.129C32.1716 353.78 32.0604 353.479 31.8379 353.226C31.6155 352.973 31.326 352.847 30.9694 352.847C29.9531 352.847 29.445 353.357 29.445 354.377H28.4672L28.4557 354.342C28.4403 353.679 28.6608 353.13 29.1172 352.697C29.5735 352.264 30.1909 352.047 30.9694 352.047C31.6405 352.047 32.1773 352.243 32.58 352.634C32.9865 353.021 33.1897 353.525 33.1897 354.147C33.1897 354.538 33.0747 354.937 32.8446 355.343C32.6183 355.746 32.2713 356.2 31.8034 356.706L29.8189 358.863L29.8304 358.886H33.4543ZM37.4521 359.686H36.4339V353.14L34.8866 353.163V352.427L37.4521 352.151V359.686ZM41.749 358.639V359.686H40.7308V358.639H41.749ZM47.8578 352.156V353.06H44.9472L44.6998 355.176C45.0718 354.912 45.4745 354.772 45.9078 354.756C46.6019 354.753 47.1484 354.979 47.5472 355.435C47.946 355.892 48.1454 356.511 48.1454 357.293C48.1454 358.072 47.9402 358.685 47.5299 359.134C47.1196 359.582 46.531 359.807 45.764 359.807C45.0967 359.807 44.556 359.629 44.1419 359.272C43.7316 358.911 43.5341 358.403 43.5494 357.748L43.5609 357.713H44.4813C44.4813 358.116 44.5982 358.432 44.8321 358.662C45.0661 358.892 45.3863 359.007 45.7928 359.007C46.1993 359.007 46.5214 358.858 46.7591 358.559C46.9969 358.256 47.1158 357.847 47.1158 357.333C47.1158 356.82 46.9931 356.411 46.7476 356.108C46.506 355.801 46.182 355.648 45.7755 355.648C45.3729 355.648 45.0795 355.706 44.8954 355.821C44.7152 355.936 44.581 356.124 44.4928 356.384L43.6529 356.292L44.0844 352.156H47.8578ZM53.075 357.034V354.82C53.075 354.168 52.9562 353.677 52.7184 353.347C52.4845 353.017 52.1413 352.852 51.6888 352.852C50.7722 352.852 50.314 353.508 50.314 354.82V357.034C50.314 357.686 50.4309 358.179 50.6649 358.513C50.9026 358.842 51.2478 359.007 51.7003 359.007C52.6168 359.007 53.075 358.35 53.075 357.034ZM54.0932 355.038V356.827C54.0932 357.786 53.8823 358.522 53.4604 359.036C53.0424 359.55 52.4557 359.807 51.7003 359.807C50.9486 359.807 50.36 359.55 49.9343 359.036C49.5087 358.518 49.2958 357.782 49.2958 356.827V355.038C49.2958 354.083 49.5068 353.347 49.9286 352.829C50.3543 352.312 50.9429 352.053 51.6945 352.053C52.4461 352.053 53.0329 352.312 53.4547 352.829C53.8803 353.347 54.0932 354.083 54.0932 355.038Z" fill="#595B61"/>
<path d="M33.4428 327.729V328.535H28.5534V327.833L31.0269 325.089C31.4679 324.598 31.767 324.209 31.9242 323.921C32.0815 323.634 32.1601 323.317 32.1601 322.972C32.1601 322.623 32.0489 322.322 31.8264 322.069C31.604 321.816 31.3145 321.689 30.9579 321.689C29.9416 321.689 29.4335 322.199 29.4335 323.22H28.4557L28.4442 323.185C28.4288 322.522 28.6493 321.973 29.1057 321.54C29.562 321.107 30.1794 320.89 30.9579 320.89C31.6289 320.89 32.1658 321.085 32.5685 321.477C32.975 321.864 33.1782 322.368 33.1782 322.989C33.1782 323.381 33.0632 323.779 32.8331 324.186C32.6068 324.589 32.2598 325.043 31.7919 325.549L29.8074 327.706L29.8189 327.729H33.4428ZM39.4136 327.729V328.535H34.5242V327.833L36.9977 325.089C37.4387 324.598 37.7378 324.209 37.895 323.921C38.0522 323.634 38.1308 323.317 38.1308 322.972C38.1308 322.623 38.0196 322.322 37.7972 322.069C37.5748 321.816 37.2853 321.689 36.9286 321.689C35.9124 321.689 35.4043 322.199 35.4043 323.22H34.4264L34.4149 323.185C34.3996 322.522 34.6201 321.973 35.0764 321.54C35.5328 321.107 36.1502 320.89 36.9286 320.89C37.5997 320.89 38.1366 321.085 38.5392 321.477C38.9457 321.864 39.149 322.368 39.149 322.989C39.149 323.381 39.0339 323.779 38.8039 324.186C38.5776 324.589 38.2305 325.043 37.7627 325.549L35.7782 327.706L35.7897 327.729H39.4136ZM41.7375 327.482V328.529H40.7193V327.482H41.7375ZM47.0928 325.877V323.662C47.0928 323.011 46.9739 322.52 46.7361 322.19C46.5022 321.86 46.159 321.695 45.7065 321.695C44.79 321.695 44.3317 322.351 44.3317 323.662V325.877C44.3317 326.529 44.4487 327.022 44.6826 327.355C44.9203 327.685 45.2655 327.85 45.718 327.85C46.6345 327.85 47.0928 327.192 47.0928 325.877ZM48.1109 323.881V325.67C48.1109 326.629 47.9 327.365 47.4782 327.879C47.0602 328.393 46.4734 328.65 45.718 328.65C44.9664 328.65 44.3777 328.393 43.9521 327.879C43.5264 327.361 43.3136 326.625 43.3136 325.67V323.881C43.3136 322.926 43.5245 322.19 43.9463 321.672C44.372 321.154 44.9606 320.896 45.7122 320.896C46.4639 320.896 47.0506 321.154 47.4724 321.672C47.8981 322.19 48.1109 322.926 48.1109 323.881ZM53.075 325.877V323.662C53.075 323.011 52.9562 322.52 52.7184 322.19C52.4845 321.86 52.1413 321.695 51.6888 321.695C50.7722 321.695 50.314 322.351 50.314 323.662V325.877C50.314 326.529 50.4309 327.022 50.6649 327.355C50.9026 327.685 51.2478 327.85 51.7003 327.85C52.6168 327.85 53.075 327.192 53.075 325.877ZM54.0932 323.881V325.67C54.0932 326.629 53.8823 327.365 53.4604 327.879C53.0424 328.393 52.4557 328.65 51.7003 328.65C50.9486 328.65 50.36 328.393 49.9343 327.879C49.5087 327.361 49.2958 326.625 49.2958 325.67V323.881C49.2958 322.926 49.5068 322.19 49.9286 321.672C50.3543 321.154 50.9429 320.896 51.6945 320.896C52.4461 320.896 53.0329 321.154 53.4547 321.672C53.8803 322.19 54.0932 322.926 54.0932 323.881Z" fill="#595B61"/>
<path d="M33.4543 295.857V296.662H28.5649V295.96L31.0384 293.216C31.4794 292.726 31.7785 292.336 31.9357 292.049C32.093 291.761 32.1716 291.445 32.1716 291.1C32.1716 290.751 32.0604 290.45 31.8379 290.197C31.6155 289.943 31.326 289.817 30.9694 289.817C29.9531 289.817 29.445 290.327 29.445 291.347H28.4672L28.4557 291.312C28.4403 290.649 28.6608 290.101 29.1172 289.667C29.5735 289.234 30.1909 289.017 30.9694 289.017C31.6405 289.017 32.1773 289.213 32.58 289.604C32.9865 289.991 33.1897 290.496 33.1897 291.117C33.1897 291.508 33.0747 291.907 32.8446 292.313C32.6183 292.716 32.2713 293.17 31.8034 293.677L29.8189 295.834L29.8304 295.857H33.4543ZM39.4251 295.857V296.662H34.5357V295.96L37.0092 293.216C37.4502 292.726 37.7493 292.336 37.9065 292.049C38.0637 291.761 38.1423 291.445 38.1423 291.1C38.1423 290.751 38.0311 290.45 37.8087 290.197C37.5863 289.943 37.2968 289.817 36.9401 289.817C35.9239 289.817 35.4158 290.327 35.4158 291.347H34.4379L34.4264 291.312C34.4111 290.649 34.6316 290.101 35.0879 289.667C35.5443 289.234 36.1617 289.017 36.9401 289.017C37.6112 289.017 38.1481 289.213 38.5508 289.604C38.9572 289.991 39.1605 290.496 39.1605 291.117C39.1605 291.508 39.0454 291.907 38.8154 292.313C38.5891 292.716 38.2421 293.17 37.7742 293.677L35.7897 295.834L35.8012 295.857H39.4251ZM41.749 295.609V296.656H40.7308V295.609H41.749ZM47.8578 289.127V290.03H44.9472L44.6998 292.147C45.0718 291.882 45.4745 291.742 45.9078 291.727C46.6019 291.723 47.1484 291.949 47.5472 292.405C47.946 292.862 48.1454 293.481 48.1454 294.263C48.1454 295.042 47.9402 295.655 47.5299 296.104C47.1196 296.553 46.531 296.777 45.764 296.777C45.0967 296.777 44.556 296.599 44.1419 296.242C43.7316 295.882 43.5341 295.374 43.5494 294.718L43.5609 294.683H44.4813C44.4813 295.086 44.5982 295.402 44.8321 295.632C45.0661 295.862 45.3863 295.977 45.7928 295.977C46.1993 295.977 46.5214 295.828 46.7591 295.529C46.9969 295.226 47.1158 294.817 47.1158 294.304C47.1158 293.79 46.9931 293.381 46.7476 293.078C46.506 292.772 46.182 292.618 45.7755 292.618C45.3729 292.618 45.0795 292.676 44.8954 292.791C44.7152 292.906 44.581 293.094 44.4928 293.354L43.6529 293.262L44.0844 289.127H47.8578ZM53.075 294.004V291.79C53.075 291.138 52.9562 290.647 52.7184 290.317C52.4845 289.988 52.1413 289.823 51.6888 289.823C50.7722 289.823 50.314 290.478 50.314 291.79V294.004C50.314 294.656 50.4309 295.149 50.6649 295.483C50.9026 295.813 51.2478 295.977 51.7003 295.977C52.6168 295.977 53.075 295.32 53.075 294.004ZM54.0932 292.008V293.797C54.0932 294.756 53.8823 295.492 53.4604 296.006C53.0424 296.52 52.4557 296.777 51.7003 296.777C50.9486 296.777 50.36 296.52 49.9343 296.006C49.5087 295.489 49.2958 294.752 49.2958 293.797V292.008C49.2958 291.054 49.5068 290.317 49.9286 289.8C50.3543 289.282 50.9429 289.023 51.6945 289.023C52.4461 289.023 53.0329 289.282 53.4547 289.8C53.8803 290.317 54.0932 291.054 54.0932 292.008Z" fill="#595B61"/>
<path d="M33.4428 264.342V265.147H28.5534V264.446L31.0269 261.702C31.4679 261.211 31.767 260.822 31.9242 260.534C32.0815 260.246 32.1601 259.93 32.1601 259.585C32.1601 259.236 32.0489 258.935 31.8264 258.682C31.604 258.429 31.3145 258.302 30.9579 258.302C29.9416 258.302 29.4335 258.812 29.4335 259.832H28.4557L28.4442 259.798C28.4288 259.134 28.6493 258.586 29.1057 258.153C29.562 257.719 30.1794 257.503 30.9579 257.503C31.6289 257.503 32.1658 257.698 32.5685 258.089C32.975 258.477 33.1782 258.981 33.1782 259.602C33.1782 259.993 33.0632 260.392 32.8331 260.799C32.6068 261.201 32.2598 261.656 31.7919 262.162L29.8074 264.319L29.8189 264.342H33.4428ZM36.8078 260.908C37.2488 260.908 37.5652 260.801 37.757 260.586C37.9525 260.367 38.0503 260.045 38.0503 259.619C38.0503 259.19 37.9429 258.864 37.7282 258.642C37.5173 258.415 37.2067 258.302 36.7963 258.302C36.3898 258.302 36.0658 258.419 35.8242 258.653C35.5865 258.887 35.4676 259.198 35.4676 259.585H34.4897L34.4782 259.55C34.4629 258.971 34.6719 258.486 35.1052 258.095C35.5385 257.7 36.1042 257.503 36.8021 257.503C37.5039 257.503 38.058 257.689 38.4645 258.061C38.871 258.433 39.0742 258.96 39.0742 259.643C39.0742 259.972 38.9764 260.289 38.7808 260.592C38.5853 260.895 38.3072 261.127 37.9468 261.288C38.7751 261.556 39.1892 262.145 39.1892 263.054C39.1892 263.732 38.9668 264.271 38.522 264.67C38.081 265.065 37.5058 265.262 36.7963 265.262C36.0869 265.262 35.5117 265.074 35.0707 264.699C34.6297 264.323 34.4168 263.822 34.4322 263.197L34.4494 263.163H35.4216C35.4216 263.566 35.5424 263.884 35.7839 264.118C36.0294 264.348 36.3668 264.463 36.7963 264.463C37.2297 264.463 37.5671 264.346 37.8087 264.112C38.0503 263.874 38.1711 263.525 38.1711 263.065C38.1711 262.601 38.0618 262.26 37.8432 262.041C37.6247 261.823 37.2814 261.713 36.8136 261.713H35.922L35.9162 260.908H36.8078ZM41.7375 264.095V265.142H40.7193V264.095H41.7375ZM47.0928 262.49V260.275C47.0928 259.623 46.9739 259.132 46.7361 258.803C46.5022 258.473 46.159 258.308 45.7065 258.308C44.79 258.308 44.3317 258.964 44.3317 260.275V262.49C44.3317 263.142 44.4487 263.635 44.6826 263.968C44.9203 264.298 45.2655 264.463 45.718 264.463C46.6345 264.463 47.0928 263.805 47.0928 262.49ZM48.1109 260.494V262.283C48.1109 263.241 47.9 263.978 47.4782 264.492C47.0602 265.005 46.4734 265.262 45.718 265.262C44.9664 265.262 44.3777 265.005 43.9521 264.492C43.5264 263.974 43.3136 263.238 43.3136 262.283V260.494C43.3136 259.539 43.5245 258.803 43.9463 258.285C44.372 257.767 44.9606 257.508 45.7122 257.508C46.4639 257.508 47.0506 257.767 47.4724 258.285C47.8981 258.803 48.1109 259.539 48.1109 260.494ZM53.075 262.49V260.275C53.075 259.623 52.9562 259.132 52.7184 258.803C52.4845 258.473 52.1413 258.308 51.6888 258.308C50.7722 258.308 50.314 258.964 50.314 260.275V262.49C50.314 263.142 50.4309 263.635 50.6649 263.968C50.9026 264.298 51.2478 264.463 51.7003 264.463C52.6168 264.463 53.075 263.805 53.075 262.49ZM54.0932 260.494V262.283C54.0932 263.241 53.8823 263.978 53.4604 264.492C53.0424 265.005 52.4557 265.262 51.7003 265.262C50.9486 265.262 50.36 265.005 49.9343 264.492C49.5087 263.974 49.2958 263.238 49.2958 262.283V260.494C49.2958 259.539 49.5068 258.803 49.9286 258.285C50.3543 257.767 50.9429 257.508 51.6945 257.508C52.4461 257.508 53.0329 257.767 53.4547 258.285C53.8803 258.803 54.0932 259.539 54.0932 260.494Z" fill="#595B61"/>
<path d="M33.4543 235.709V236.515H28.5649V235.813L31.0384 233.069C31.4794 232.578 31.7785 232.189 31.9357 231.901C32.093 231.614 32.1716 231.297 32.1716 230.952C32.1716 230.603 32.0604 230.302 31.8379 230.049C31.6155 229.796 31.326 229.669 30.9694 229.669C29.9531 229.669 29.445 230.179 29.445 231.2H28.4672L28.4557 231.165C28.4403 230.502 28.6608 229.953 29.1172 229.52C29.5735 229.087 30.1909 228.87 30.9694 228.87C31.6405 228.87 32.1773 229.065 32.58 229.457C32.9865 229.844 33.1897 230.348 33.1897 230.969C33.1897 231.361 33.0747 231.759 32.8446 232.166C32.6183 232.569 32.2713 233.023 31.8034 233.529L29.8189 235.686L29.8304 235.709H33.4543ZM36.8193 232.275C37.2603 232.275 37.5767 232.168 37.7685 231.953C37.964 231.734 38.0618 231.412 38.0618 230.987C38.0618 230.557 37.9544 230.231 37.7397 230.009C37.5288 229.783 37.2182 229.669 36.8078 229.669C36.4013 229.669 36.0773 229.786 35.8357 230.02C35.598 230.254 35.4791 230.565 35.4791 230.952H34.5012L34.4897 230.918C34.4744 230.339 34.6834 229.854 35.1167 229.462C35.55 229.067 36.1157 228.87 36.8136 228.87C37.5154 228.87 38.0695 229.056 38.476 229.428C38.8825 229.8 39.0857 230.327 39.0857 231.01C39.0857 231.339 38.9879 231.656 38.7923 231.959C38.5968 232.262 38.3187 232.494 37.9583 232.655C38.7866 232.923 39.2008 233.512 39.2008 234.421C39.2008 235.1 38.9783 235.638 38.5335 236.037C38.0925 236.432 37.5173 236.63 36.8078 236.63C36.0984 236.63 35.5232 236.442 35.0822 236.066C34.6412 235.69 34.4283 235.19 34.4437 234.565L34.4609 234.53H35.4331C35.4331 234.933 35.5539 235.251 35.7955 235.485C36.0409 235.715 36.3783 235.83 36.8078 235.83C37.2412 235.83 37.5786 235.713 37.8202 235.479C38.0618 235.241 38.1826 234.892 38.1826 234.432C38.1826 233.968 38.0733 233.627 37.8547 233.408C37.6362 233.19 37.2929 233.08 36.8251 233.08H35.9335L35.9278 232.275H36.8193ZM41.749 235.462V236.509H40.7308V235.462H41.749ZM47.8578 228.979V229.882H44.9472L44.6998 231.999C45.0718 231.734 45.4745 231.594 45.9078 231.579C46.6019 231.575 47.1484 231.802 47.5472 232.258C47.946 232.714 48.1454 233.334 48.1454 234.116C48.1454 234.894 47.9402 235.508 47.5299 235.957C47.1196 236.405 46.531 236.63 45.764 236.63C45.0967 236.63 44.556 236.451 44.1419 236.095C43.7316 235.734 43.5341 235.226 43.5494 234.57L43.5609 234.536H44.4813C44.4813 234.938 44.5982 235.255 44.8321 235.485C45.0661 235.715 45.3863 235.83 45.7928 235.83C46.1993 235.83 46.5214 235.68 46.7591 235.381C46.9969 235.078 47.1158 234.67 47.1158 234.156C47.1158 233.642 46.9931 233.234 46.7476 232.931C46.506 232.624 46.182 232.471 45.7755 232.471C45.3729 232.471 45.0795 232.528 44.8954 232.643C44.7152 232.758 44.581 232.946 44.4928 233.207L43.6529 233.115L44.0844 228.979H47.8578ZM53.075 233.857V231.642C53.075 230.991 52.9562 230.5 52.7184 230.17C52.4845 229.84 52.1413 229.675 51.6888 229.675C50.7722 229.675 50.314 230.331 50.314 231.642V233.857C50.314 234.509 50.4309 235.002 50.6649 235.335C50.9026 235.665 51.2478 235.83 51.7003 235.83C52.6168 235.83 53.075 235.172 53.075 233.857ZM54.0932 231.861V233.65C54.0932 234.609 53.8823 235.345 53.4604 235.859C53.0424 236.373 52.4557 236.63 51.7003 236.63C50.9486 236.63 50.36 236.373 49.9343 235.859C49.5087 235.341 49.2958 234.605 49.2958 233.65V231.861C49.2958 230.906 49.5068 230.17 49.9286 229.652C50.3543 229.134 50.9429 228.876 51.6945 228.876C52.4461 228.876 53.0329 229.134 53.4547 229.652C53.8803 230.17 54.0932 230.906 54.0932 231.861Z" fill="#595B61"/>
<path d="M33.4428 199.593V200.398H28.5534V199.696L31.0269 196.952C31.4679 196.461 31.767 196.072 31.9242 195.785C32.0815 195.497 32.1601 195.181 32.1601 194.835C32.1601 194.487 32.0489 194.185 31.8264 193.932C31.604 193.679 31.3145 193.553 30.9579 193.553C29.9416 193.553 29.4335 194.063 29.4335 195.083H28.4557L28.4442 195.048C28.4288 194.385 28.6493 193.837 29.1057 193.403C29.562 192.97 30.1794 192.753 30.9579 192.753C31.6289 192.753 32.1658 192.949 32.5685 193.34C32.975 193.727 33.1782 194.231 33.1782 194.853C33.1782 195.244 33.0632 195.643 32.8331 196.049C32.6068 196.452 32.2598 196.906 31.7919 197.412L29.8074 199.57L29.8189 199.593H33.4428ZM37.5844 197.855V194.318L37.5556 194.312L37.4578 194.571L35.2893 197.855H37.5844ZM38.6025 192.857V197.855H39.6379V198.655H38.6025V200.392H37.5844V198.655H34.2021V198.08L37.5211 192.857H38.6025ZM41.7375 199.345V200.392H40.7193V199.345H41.7375ZM47.0928 197.74V195.526C47.0928 194.874 46.9739 194.383 46.7361 194.053C46.5022 193.723 46.159 193.558 45.7065 193.558C44.79 193.558 44.3317 194.214 44.3317 195.526V197.74C44.3317 198.392 44.4487 198.885 44.6826 199.219C44.9203 199.548 45.2655 199.713 45.718 199.713C46.6345 199.713 47.0928 199.056 47.0928 197.74ZM48.1109 195.744V197.533C48.1109 198.492 47.9 199.228 47.4782 199.742C47.0602 200.256 46.4734 200.513 45.718 200.513C44.9664 200.513 44.3777 200.256 43.9521 199.742C43.5264 199.224 43.3136 198.488 43.3136 197.533V195.744C43.3136 194.789 43.5245 194.053 43.9463 193.535C44.372 193.018 44.9606 192.759 45.7122 192.759C46.4639 192.759 47.0506 193.018 47.4724 193.535C47.8981 194.053 48.1109 194.789 48.1109 195.744ZM53.075 197.74V195.526C53.075 194.874 52.9562 194.383 52.7184 194.053C52.4845 193.723 52.1413 193.558 51.6888 193.558C50.7722 193.558 50.314 194.214 50.314 195.526V197.74C50.314 198.392 50.4309 198.885 50.6649 199.219C50.9026 199.548 51.2478 199.713 51.7003 199.713C52.6168 199.713 53.075 199.056 53.075 197.74ZM54.0932 195.744V197.533C54.0932 198.492 53.8823 199.228 53.4604 199.742C53.0424 200.256 52.4557 200.513 51.7003 200.513C50.9486 200.513 50.36 200.256 49.9343 199.742C49.5087 199.224 49.2958 198.488 49.2958 197.533V195.744C49.2958 194.789 49.5068 194.053 49.9286 193.535C50.3543 193.018 50.9429 192.759 51.6945 192.759C52.4461 192.759 53.0329 193.018 53.4547 193.535C53.8803 194.053 54.0932 194.789 54.0932 195.744Z" fill="#595B61"/>
<path d="M33.4543 169.564V170.369H28.5649V169.667L31.0384 166.923C31.4794 166.433 31.7785 166.043 31.9357 165.756C32.093 165.468 32.1716 165.152 32.1716 164.807C32.1716 164.458 32.0604 164.157 31.8379 163.904C31.6155 163.65 31.326 163.524 30.9694 163.524C29.9531 163.524 29.445 164.034 29.445 165.054H28.4672L28.4557 165.019C28.4403 164.356 28.6608 163.808 29.1172 163.374C29.5735 162.941 30.1909 162.724 30.9694 162.724C31.6405 162.724 32.1773 162.92 32.58 163.311C32.9865 163.698 33.1897 164.203 33.1897 164.824C33.1897 165.215 33.0747 165.614 32.8446 166.02C32.6183 166.423 32.2713 166.877 31.8034 167.384L29.8189 169.541L29.8304 169.564H33.4543ZM37.5959 167.827V164.289L37.5671 164.283L37.4693 164.542L35.3008 167.827H37.5959ZM38.614 162.828V167.827H39.6494V168.626H38.614V170.363H37.5959V168.626H34.2136V168.051L37.5326 162.828H38.614ZM41.749 169.316V170.363H40.7308V169.316H41.749ZM47.8578 162.834V163.737H44.9472L44.6998 165.854C45.0718 165.589 45.4745 165.449 45.9078 165.434C46.6019 165.43 47.1484 165.656 47.5472 166.112C47.946 166.569 48.1454 167.188 48.1454 167.97C48.1454 168.749 47.9402 169.362 47.5299 169.811C47.1196 170.26 46.531 170.484 45.764 170.484C45.0967 170.484 44.556 170.306 44.1419 169.949C43.7316 169.589 43.5341 169.081 43.5494 168.425L43.5609 168.39H44.4813C44.4813 168.793 44.5982 169.109 44.8321 169.339C45.0661 169.569 45.3863 169.685 45.7928 169.685C46.1993 169.685 46.5214 169.535 46.7591 169.236C46.9969 168.933 47.1158 168.524 47.1158 168.011C47.1158 167.497 46.9931 167.088 46.7476 166.785C46.506 166.479 46.182 166.325 45.7755 166.325C45.3729 166.325 45.0795 166.383 44.8954 166.498C44.7152 166.613 44.581 166.801 44.4928 167.062L43.6529 166.969L44.0844 162.834H47.8578ZM53.075 167.712V165.497C53.075 164.845 52.9562 164.354 52.7184 164.024C52.4845 163.695 52.1413 163.53 51.6888 163.53C50.7722 163.53 50.314 164.185 50.314 165.497V167.712C50.314 168.363 50.4309 168.856 50.6649 169.19C50.9026 169.52 51.2478 169.685 51.7003 169.685C52.6168 169.685 53.075 169.027 53.075 167.712ZM54.0932 165.716V167.504C54.0932 168.463 53.8823 169.199 53.4604 169.713C53.0424 170.227 52.4557 170.484 51.7003 170.484C50.9486 170.484 50.36 170.227 49.9343 169.713C49.5087 169.196 49.2958 168.459 49.2958 167.504V165.716C49.2958 164.761 49.5068 164.024 49.9286 163.507C50.3543 162.989 50.9429 162.73 51.6945 162.73C52.4461 162.73 53.0329 162.989 53.4547 163.507C53.8803 164.024 54.0932 164.761 54.0932 165.716Z" fill="#595B61"/>
<path d="M33.4428 137.355V138.16H28.5534V137.458L31.0269 134.714C31.4679 134.224 31.767 133.834 31.9242 133.547C32.0815 133.259 32.1601 132.943 32.1601 132.598C32.1601 132.249 32.0489 131.948 31.8264 131.695C31.604 131.441 31.3145 131.315 30.9579 131.315C29.9416 131.315 29.4335 131.825 29.4335 132.845H28.4557L28.4442 132.811C28.4288 132.147 28.6493 131.599 29.1057 131.165C29.562 130.732 30.1794 130.515 30.9579 130.515C31.6289 130.515 32.1658 130.711 32.5685 131.102C32.975 131.489 33.1782 131.994 33.1782 132.615C33.1782 133.006 33.0632 133.405 32.8331 133.811C32.6068 134.214 32.2598 134.668 31.7919 135.175L29.8074 137.332L29.8189 137.355H33.4428ZM39.0339 130.625V131.528H36.1233L35.876 133.645C36.248 133.38 36.6506 133.24 37.0839 133.225C37.778 133.221 38.3245 133.447 38.7233 133.903C39.1221 134.36 39.3215 134.979 39.3215 135.761C39.3215 136.54 39.1164 137.153 38.7061 137.602C38.2957 138.051 37.7071 138.275 36.9401 138.275C36.2729 138.275 35.7322 138.097 35.318 137.74C34.9077 137.38 34.7102 136.872 34.7255 136.216L34.737 136.181H35.6574C35.6574 136.584 35.7744 136.9 36.0083 137.13C36.2422 137.36 36.5624 137.476 36.9689 137.476C37.3754 137.476 37.6975 137.326 37.9353 137.027C38.173 136.724 38.2919 136.316 38.2919 135.802C38.2919 135.288 38.1692 134.879 37.9238 134.576C37.6822 134.27 37.3581 134.116 36.9516 134.116C36.549 134.116 36.2556 134.174 36.0716 134.289C35.8913 134.404 35.7571 134.592 35.6689 134.853L34.8291 134.761L35.2605 130.625H39.0339ZM41.7375 137.107V138.154H40.7193V137.107H41.7375ZM47.0928 135.503V133.288C47.0928 132.636 46.9739 132.145 46.7361 131.815C46.5022 131.486 46.159 131.321 45.7065 131.321C44.79 131.321 44.3317 131.976 44.3317 133.288V135.503C44.3317 136.154 44.4487 136.647 44.6826 136.981C44.9203 137.311 45.2655 137.476 45.718 137.476C46.6345 137.476 47.0928 136.818 47.0928 135.503ZM48.1109 133.507V135.295C48.1109 136.254 47.9 136.99 47.4782 137.504C47.0602 138.018 46.4734 138.275 45.718 138.275C44.9664 138.275 44.3777 138.018 43.9521 137.504C43.5264 136.987 43.3136 136.25 43.3136 135.295V133.507C43.3136 132.552 43.5245 131.815 43.9463 131.298C44.372 130.78 44.9606 130.521 45.7122 130.521C46.4639 130.521 47.0506 130.78 47.4724 131.298C47.8981 131.815 48.1109 132.552 48.1109 133.507ZM53.075 135.503V133.288C53.075 132.636 52.9562 132.145 52.7184 131.815C52.4845 131.486 52.1413 131.321 51.6888 131.321C50.7722 131.321 50.314 131.976 50.314 133.288V135.503C50.314 136.154 50.4309 136.647 50.6649 136.981C50.9026 137.311 51.2478 137.476 51.7003 137.476C52.6168 137.476 53.075 136.818 53.075 135.503ZM54.0932 133.507V135.295C54.0932 136.254 53.8823 136.99 53.4604 137.504C53.0424 138.018 52.4557 138.275 51.7003 138.275C50.9486 138.275 50.36 138.018 49.9343 137.504C49.5087 136.987 49.2958 136.25 49.2958 135.295V133.507C49.2958 132.552 49.5068 131.815 49.9286 131.298C50.3543 130.78 50.9429 130.521 51.6945 130.521C52.4461 130.521 53.0329 130.78 53.4547 131.298C53.8803 131.815 54.0932 132.552 54.0932 133.507Z" fill="#595B61"/>
<rect x="61.2266" y="388.196" width="463.363" height="1.03429" fill="#E6E7E9"/>
<rect x="61.2285" y="356.529" width="463.363" height="1.03429" fill="#E6E7E9"/>
<rect x="61.2285" y="324.495" width="463.363" height="1.03429" fill="#E6E7E9"/>
<rect x="61.2285" y="292.46" width="463.363" height="1.03429" fill="#E6E7E9"/>
<rect x="61.2285" y="260.426" width="463.363" height="1.03429" fill="#E6E7E9"/>
<rect x="61.2285" y="228.392" width="463.363" height="1.03429" fill="#E6E7E9"/>
<rect x="61.2285" y="196.358" width="463.363" height="1.03429" fill="#E6E7E9"/>
<rect x="61.2285" y="164.324" width="463.363" height="1.03429" fill="#E6E7E9"/>
<rect x="61.2266" y="133.76" width="463.363" height="1.03429" fill="#E6E7E9"/>
<rect x="60.4529" y="134.018" width="0.517146" height="253.919" stroke="#E6E7E9" stroke-width="0.517146" stroke-dasharray="3.93 3.93"/>
<rect x="126.388" y="133.76" width="1.03429" height="254.436" fill="#F0F1F2"/>
<rect x="192.583" y="133.76" width="1.03429" height="254.436" fill="#F0F1F2"/>
<rect x="258.776" y="133.76" width="1.03429" height="254.436" fill="#F0F1F2"/>
<rect x="324.973" y="133.76" width="1.03429" height="254.436" fill="#F0F1F2"/>
<rect x="391.166" y="133.76" width="1.03429" height="254.436" fill="#F0F1F2"/>
<rect x="457.36" y="133.76" width="1.03429" height="254.436" fill="#F0F1F2"/>
<rect x="524.591" y="133.76" width="1.03429" height="254.436" fill="#F0F1F2"/>
<path d="M476.374 404.768H475.355V398.222L473.808 398.245V397.508L476.374 397.232V404.768ZM483.184 402.116V399.901C483.184 399.249 483.065 398.758 482.827 398.429C482.594 398.099 482.25 397.934 481.798 397.934C480.881 397.934 480.423 398.59 480.423 399.901V402.116C480.423 402.768 480.54 403.261 480.774 403.594C481.012 403.924 481.357 404.089 481.809 404.089C482.726 404.089 483.184 403.431 483.184 402.116ZM484.202 400.12V401.909C484.202 402.867 483.991 403.604 483.57 404.118C483.152 404.631 482.565 404.888 481.809 404.888C481.058 404.888 480.469 404.631 480.043 404.118C479.618 403.6 479.405 402.864 479.405 401.909V400.12C479.405 399.165 479.616 398.429 480.038 397.911C480.463 397.393 481.052 397.134 481.804 397.134C482.555 397.134 483.142 397.393 483.564 397.911C483.989 398.429 484.202 399.165 484.202 400.12ZM488.764 402.691V397.244H489.788V402.691C489.788 403.362 489.577 403.897 489.155 404.296C488.733 404.691 488.164 404.888 487.447 404.888C486.733 404.888 486.166 404.702 485.744 404.33C485.326 403.958 485.125 403.427 485.14 402.737L485.151 402.703H486.129C486.129 403.163 486.246 403.51 486.48 403.744C486.714 403.974 487.034 404.089 487.441 404.089C487.851 404.089 488.173 403.962 488.407 403.709C488.645 403.456 488.764 403.117 488.764 402.691ZM493.319 404.888C492.691 404.888 492.209 404.691 491.876 404.296C491.542 403.897 491.375 403.291 491.375 402.478V399.176H492.393V402.49C492.393 403.076 492.478 403.485 492.646 403.715C492.819 403.945 493.097 404.06 493.481 404.06C494.182 404.06 494.662 403.778 494.919 403.214V399.176H495.937V404.779H495.022L494.953 403.951C494.585 404.576 494.04 404.888 493.319 404.888ZM497.427 399.165H498.335L498.41 399.999C498.797 399.374 499.352 399.061 500.073 399.061C500.686 399.061 501.156 399.242 501.482 399.602C501.808 399.959 501.971 400.501 501.971 401.23V404.768H500.953V401.253C500.953 400.766 500.857 400.417 500.665 400.206C500.473 399.995 500.174 399.89 499.768 399.89C499.476 399.89 499.217 399.959 498.991 400.097C498.765 400.235 498.583 400.43 498.445 400.684V404.768H497.427V399.165ZM506.889 401.288C506.889 400.866 506.78 400.526 506.561 400.269C506.342 400.009 506.028 399.878 505.618 399.878C505.28 399.878 504.989 400.02 504.743 400.304C504.502 400.588 504.352 400.95 504.295 401.391L504.306 401.42H506.889V401.288ZM505.773 404.888C504.995 404.888 504.373 404.631 503.909 404.118C503.449 403.604 503.219 402.927 503.219 402.087V401.857C503.219 401.071 503.453 400.411 503.921 399.878C504.392 399.341 504.958 399.073 505.618 399.073C506.362 399.073 506.929 399.297 507.32 399.746C507.715 400.191 507.913 400.802 507.913 401.581V402.219H504.277L504.26 402.242C504.272 402.795 504.41 403.241 504.674 403.583C504.943 403.92 505.309 404.089 505.773 404.089C506.425 404.089 506.954 403.905 507.361 403.537L507.763 404.198H507.757C507.29 404.658 506.628 404.888 505.773 404.888Z" fill="#595B61"/>
<path d="M379.97 400.534C380.411 400.534 380.727 400.427 380.919 400.212C381.114 399.993 381.212 399.671 381.212 399.245C381.212 398.816 381.105 398.49 380.89 398.268C380.679 398.041 380.368 397.928 379.958 397.928C379.552 397.928 379.228 398.045 378.986 398.279C378.748 398.513 378.629 398.824 378.629 399.211H377.652L377.64 399.176C377.625 398.597 377.834 398.112 378.267 397.721C378.7 397.326 379.266 397.129 379.964 397.129C380.666 397.129 381.22 397.315 381.626 397.687C382.033 398.059 382.236 398.586 382.236 399.268C382.236 399.598 382.138 399.915 381.943 400.218C381.747 400.521 381.469 400.753 381.109 400.914C381.937 401.182 382.351 401.771 382.351 402.68C382.351 403.358 382.129 403.897 381.684 404.296C381.243 404.691 380.668 404.888 379.958 404.888C379.249 404.888 378.674 404.7 378.233 404.325C377.792 403.949 377.579 403.448 377.594 402.823L377.611 402.789H378.583C378.583 403.191 378.704 403.51 378.946 403.744C379.191 403.974 379.529 404.089 379.958 404.089C380.392 404.089 380.729 403.972 380.971 403.738C381.212 403.5 381.333 403.151 381.333 402.691C381.333 402.227 381.224 401.886 381.005 401.667C380.786 401.449 380.443 401.339 379.975 401.339H379.084L379.078 400.534H379.97ZM387.01 402.691V397.244H388.034V402.691C388.034 403.362 387.823 403.897 387.402 404.296C386.98 404.691 386.41 404.888 385.693 404.888C384.98 404.888 384.412 404.702 383.99 404.33C383.572 403.958 383.371 403.427 383.386 402.737L383.398 402.703H384.376C384.376 403.163 384.493 403.51 384.727 403.744C384.961 403.974 385.281 404.089 385.687 404.089C386.098 404.089 386.42 403.962 386.654 403.709C386.891 403.456 387.01 403.117 387.01 402.691ZM391.566 404.888C390.937 404.888 390.456 404.691 390.122 404.296C389.789 403.897 389.622 403.291 389.622 402.478V399.176H390.64V402.49C390.64 403.076 390.724 403.485 390.893 403.715C391.066 403.945 391.344 404.06 391.727 404.06C392.429 404.06 392.908 403.778 393.165 403.214V399.176H394.183V404.779H393.269L393.2 403.951C392.832 404.576 392.287 404.888 391.566 404.888ZM395.673 399.165H396.582L396.657 399.999C397.044 399.374 397.598 399.061 398.319 399.061C398.933 399.061 399.403 399.242 399.728 399.602C400.054 399.959 400.217 400.501 400.217 401.23V404.768H399.199V401.253C399.199 400.766 399.103 400.417 398.912 400.206C398.72 399.995 398.421 399.89 398.014 399.89C397.723 399.89 397.464 399.959 397.238 400.097C397.012 400.235 396.829 400.43 396.691 400.684V404.768H395.673V399.165ZM405.136 401.288C405.136 400.866 405.026 400.526 404.808 400.269C404.589 400.009 404.275 399.878 403.864 399.878C403.527 399.878 403.235 400.02 402.99 400.304C402.748 400.588 402.599 400.95 402.541 401.391L402.553 401.42H405.136V401.288ZM404.02 404.888C403.241 404.888 402.62 404.631 402.156 404.118C401.696 403.604 401.466 402.927 401.466 402.087V401.857C401.466 401.071 401.7 400.411 402.167 399.878C402.639 399.341 403.205 399.073 403.864 399.073C404.608 399.073 405.176 399.297 405.567 399.746C405.962 400.191 406.159 400.802 406.159 401.581V402.219H402.524L402.507 402.242C402.518 402.795 402.656 403.241 402.921 403.583C403.189 403.92 403.556 404.089 404.02 404.089C404.672 404.089 405.201 403.905 405.607 403.537L406.01 404.198H406.004C405.536 404.658 404.875 404.888 404.02 404.888Z" fill="#595B61"/>
<path d="M283.502 403.968V404.773H278.613V404.072L281.087 401.328C281.528 400.837 281.827 400.448 281.984 400.16C282.141 399.872 282.22 399.556 282.22 399.211C282.22 398.862 282.108 398.561 281.886 398.308C281.664 398.055 281.374 397.928 281.017 397.928C280.001 397.928 279.493 398.438 279.493 399.458H278.515L278.504 399.424C278.488 398.76 278.709 398.212 279.165 397.779C279.622 397.345 280.239 397.129 281.017 397.129C281.689 397.129 282.225 397.324 282.628 397.715C283.035 398.103 283.238 398.607 283.238 399.228C283.238 399.619 283.123 400.018 282.893 400.425C282.666 400.827 282.319 401.282 281.852 401.788L279.867 403.945L279.879 403.968H283.502ZM289.473 397.232V398.032C289.017 398.576 288.641 399.077 288.346 399.533C288.05 399.986 287.809 400.45 287.621 400.925C287.437 401.401 287.295 401.863 287.195 402.311C287.099 402.76 287.013 403.308 286.936 403.957L286.85 404.768H285.832L285.918 403.957C286.06 402.787 286.334 401.736 286.741 400.804C287.151 399.869 287.728 398.944 288.472 398.032H284.371V397.232H289.473ZM290.877 397.232H292.182L294.581 403.353H294.616L297.014 397.232H298.32V404.768H297.302V401.788L297.405 398.722L297.377 398.716L294.938 404.768H294.259L291.826 398.734H291.797L291.895 401.788V404.768H290.877V397.232ZM301.599 404.888C301.016 404.888 300.571 404.741 300.264 404.445C299.958 404.15 299.804 403.736 299.804 403.203C299.804 402.67 300.019 402.252 300.448 401.949C300.878 401.646 301.468 401.495 302.22 401.495H303.324V400.942C303.324 400.613 303.223 400.354 303.02 400.166C302.82 399.974 302.548 399.878 302.203 399.878C301.862 399.878 301.587 399.961 301.38 400.126C301.173 400.287 301.07 400.488 301.07 400.73H300.098L300.086 400.701C300.067 400.279 300.262 399.903 300.673 399.573C301.087 399.24 301.612 399.073 302.249 399.073C302.889 399.073 303.399 399.238 303.779 399.568C304.159 399.894 304.348 400.356 304.348 400.954V403.652C304.348 404.085 304.396 404.461 304.492 404.779H303.44C303.367 404.422 303.328 404.143 303.324 403.939C303.125 404.223 302.872 404.453 302.565 404.63C302.262 404.802 301.94 404.888 301.599 404.888ZM300.834 403.226H300.828C300.828 403.479 300.907 403.677 301.064 403.818C301.221 403.96 301.465 404.031 301.794 404.031C302.124 404.031 302.439 403.939 302.738 403.755C303.041 403.567 303.238 403.349 303.33 403.099V402.185H302.191C301.785 402.185 301.457 402.286 301.208 402.49C300.958 402.689 300.834 402.935 300.834 403.226ZM306.241 407.281C306.095 407.281 305.894 407.254 305.637 407.201L305.74 406.395C305.994 406.415 306.145 406.424 306.195 406.424C306.394 406.424 306.561 406.34 306.695 406.171C306.833 406.002 306.958 405.776 307.069 405.492L307.311 404.906L305.228 399.418H306.367L307.558 402.944L307.736 403.646H307.771L309.146 399.418H310.279L307.926 405.878C307.57 406.813 307.008 407.281 306.241 407.281Z" fill="#595B61"/>
<path d="M181.921 403.968V404.773H177.031V404.072L179.505 401.328C179.946 400.837 180.245 400.448 180.402 400.16C180.559 399.872 180.638 399.556 180.638 399.211C180.638 398.862 180.527 398.561 180.304 398.308C180.082 398.055 179.792 397.928 179.436 397.928C178.419 397.928 177.911 398.438 177.911 399.458H176.933L176.922 399.424C176.907 398.76 177.127 398.212 177.583 397.779C178.04 397.345 178.657 397.129 179.436 397.129C180.107 397.129 180.644 397.324 181.046 397.715C181.453 398.103 181.656 398.607 181.656 399.228C181.656 399.619 181.541 400.018 181.311 400.425C181.085 400.827 180.737 401.282 180.27 401.788L178.285 403.945L178.297 403.968H181.921ZM186.758 402.116V399.901C186.758 399.249 186.639 398.758 186.401 398.429C186.168 398.099 185.824 397.934 185.372 397.934C184.455 397.934 183.997 398.59 183.997 399.901V402.116C183.997 402.768 184.114 403.261 184.348 403.594C184.586 403.924 184.931 404.089 185.383 404.089C186.3 404.089 186.758 403.431 186.758 402.116ZM187.776 400.12V401.909C187.776 402.867 187.565 403.604 187.143 404.118C186.726 404.631 186.139 404.888 185.383 404.888C184.632 404.888 184.043 404.631 183.617 404.118C183.192 403.6 182.979 402.864 182.979 401.909V400.12C182.979 399.165 183.19 398.429 183.612 397.911C184.037 397.393 184.626 397.134 185.378 397.134C186.129 397.134 186.716 397.393 187.138 397.911C187.563 398.429 187.776 399.165 187.776 400.12ZM189.306 397.232H190.612L193.011 403.353H193.045L195.444 397.232H196.75V404.768H195.732V401.788L195.835 398.722L195.806 398.716L193.367 404.768H192.689L190.255 398.734H190.227L190.324 401.788V404.768H189.306V397.232ZM200.028 404.888C199.446 404.888 199.001 404.741 198.694 404.445C198.387 404.15 198.234 403.736 198.234 403.203C198.234 402.67 198.448 402.252 198.878 401.949C199.307 401.646 199.898 401.495 200.65 401.495H201.754V400.942C201.754 400.613 201.652 400.354 201.449 400.166C201.25 399.974 200.978 399.878 200.632 399.878C200.291 399.878 200.017 399.961 199.81 400.126C199.603 400.287 199.499 400.488 199.499 400.73H198.527L198.516 400.701C198.496 400.279 198.692 399.903 199.102 399.573C199.516 399.24 200.042 399.073 200.678 399.073C201.319 399.073 201.829 399.238 202.208 399.568C202.588 399.894 202.778 400.356 202.778 400.954V403.652C202.778 404.085 202.826 404.461 202.922 404.779H201.869C201.796 404.422 201.758 404.143 201.754 403.939C201.555 404.223 201.302 404.453 200.995 404.63C200.692 404.802 200.37 404.888 200.028 404.888ZM199.263 403.226H199.258C199.258 403.479 199.336 403.677 199.493 403.818C199.651 403.96 199.894 404.031 200.224 404.031C200.554 404.031 200.868 403.939 201.167 403.755C201.47 403.567 201.668 403.349 201.76 403.099V402.185H200.621C200.214 402.185 199.887 402.286 199.637 402.49C199.388 402.689 199.263 402.935 199.263 403.226ZM204.67 407.281C204.525 407.281 204.323 407.254 204.066 407.201L204.17 406.395C204.423 406.415 204.575 406.424 204.624 406.424C204.824 406.424 204.991 406.34 205.125 406.171C205.263 406.002 205.388 405.776 205.499 405.492L205.74 404.906L203.658 399.418H204.797L205.988 402.944L206.166 403.646H206.201L207.575 399.418H208.708L206.356 405.878C205.999 406.813 205.437 407.281 204.67 407.281Z" fill="#595B61"/>
<path d="M77.2077 404.768H76.1896V398.222L74.6423 398.245V397.508L77.2077 397.232V404.768ZM82.5458 400.534C82.9868 400.534 83.3031 400.427 83.4949 400.212C83.6905 399.993 83.7882 399.671 83.7882 399.245C83.7882 398.816 83.6809 398.49 83.4661 398.268C83.2552 398.041 82.9446 397.928 82.5343 397.928C82.1278 397.928 81.8037 398.045 81.5621 398.279C81.3244 398.513 81.2055 398.824 81.2055 399.211H80.2276L80.2161 399.176C80.2008 398.597 80.4098 398.112 80.8431 397.721C81.2765 397.326 81.8421 397.129 82.54 397.129C83.2418 397.129 83.7959 397.315 84.2024 397.687C84.6089 398.059 84.8121 398.586 84.8121 399.268C84.8121 399.598 84.7143 399.915 84.5188 400.218C84.3232 400.521 84.0452 400.753 83.6847 400.914C84.513 401.182 84.9272 401.771 84.9272 402.68C84.9272 403.358 84.7048 403.897 84.2599 404.296C83.8189 404.691 83.2437 404.888 82.5343 404.888C81.8248 404.888 81.2496 404.7 80.8086 404.325C80.3676 403.949 80.1548 403.448 80.1701 402.823L80.1874 402.789H81.1595C81.1595 403.191 81.2803 403.51 81.5219 403.744C81.7673 403.974 82.1048 404.089 82.5343 404.089C82.9676 404.089 83.3051 403.972 83.5467 403.738C83.7882 403.5 83.909 403.151 83.909 402.691C83.909 402.227 83.7997 401.886 83.5812 401.667C83.3626 401.449 83.0194 401.339 82.5515 401.339H81.6599L81.6542 400.534H82.5458ZM86.555 397.232H87.8608L90.2595 403.353H90.294L92.6926 397.232H93.9984V404.768H92.9802V401.788L93.0838 398.722L93.055 398.716L90.6161 404.768H89.9373L87.5042 398.734H87.4754L87.5732 401.788V404.768H86.555V397.232ZM97.2771 404.888C96.6942 404.888 96.2494 404.741 95.9426 404.445C95.6358 404.15 95.4825 403.736 95.4825 403.203C95.4825 402.67 95.6972 402.252 96.1267 401.949C96.5562 401.646 97.1468 401.495 97.8984 401.495H99.0028V400.942C99.0028 400.613 98.9012 400.354 98.6979 400.166C98.4985 399.974 98.2262 399.878 97.8811 399.878C97.5398 399.878 97.2656 399.961 97.0586 400.126C96.8515 400.287 96.7479 400.488 96.7479 400.73H95.7758L95.7643 400.701C95.7451 400.279 95.9407 399.903 96.351 399.573C96.7652 399.24 97.2906 399.073 97.9271 399.073C98.5675 399.073 99.0776 399.238 99.4572 399.568C99.8369 399.894 100.027 400.356 100.027 400.954V403.652C100.027 404.085 100.075 404.461 100.17 404.779H99.1178C99.045 404.422 99.0066 404.143 99.0028 403.939C98.8034 404.223 98.5503 404.453 98.2435 404.63C97.9406 404.802 97.6184 404.888 97.2771 404.888ZM96.5121 403.226H96.5063C96.5063 403.479 96.585 403.677 96.7422 403.818C96.8994 403.96 97.1429 404.031 97.4727 404.031C97.8025 404.031 98.117 403.939 98.4161 403.755C98.719 403.567 98.9165 403.349 99.0085 403.099V402.185H97.8696C97.4631 402.185 97.1352 402.286 96.886 402.49C96.6367 402.689 96.5121 402.935 96.5121 403.226ZM101.919 407.281C101.773 407.281 101.572 407.254 101.315 407.201L101.419 406.395C101.672 406.415 101.823 406.424 101.873 406.424C102.073 406.424 102.239 406.34 102.374 406.171C102.512 406.002 102.636 405.776 102.747 405.492L102.989 404.906L100.907 399.418H102.046L103.236 402.944L103.415 403.646H103.449L104.824 399.418H105.957L103.605 405.878C103.248 406.813 102.686 407.281 101.919 407.281Z" fill="#595B61"/>
<defs>
<filter id="filter0_d_88_158" x="0.301642" y="0.658996" width="590.629" height="529.163" filterUnits="userSpaceOnUse" color-interpolation-filters="sRGB">
<feFlood flood-opacity="0" result="BackgroundImageFix"/>
<feColorMatrix in="SourceAlpha" type="matrix" values="0 0 0 0 0 0 0 0 0 0 0 0 0 0 0 0 0 0 127 0" result="hardAlpha"/>
<feOffset dx="7.93985" dy="13.6112"/>
<feGaussianBlur stdDeviation="9.35768"/>
<feComposite in2="hardAlpha" operator="out"/>
<feColorMatrix type="matrix" values="0 0 0 0 0 0 0 0 0 0 0 0 0 0 0 0 0 0 0.1 0"/>
<feBlend mode="normal" in2="BackgroundImageFix" result="effect1_dropShadow_88_158"/>
<feBlend mode="normal" in="SourceGraphic" in2="effect1_dropShadow_88_158" result="shape"/>
</filter>
</defs>
</svg>
