<svg width="1083" height="834" viewBox="0 0 1083 834" fill="none" xmlns="http://www.w3.org/2000/svg">
<g opacity="0.25">
<path d="M-409.788 623.686C-355.022 558.874 -268.932 499.023 -168.76 456.12C-68.589 413.216 45.0918 387.502 149.514 384.13C202.41 382.424 252.681 386.272 305.745 384.182C358.811 382.098 417.17 373.196 466.748 350.119C518.702 325.93 553.478 289.702 576.888 254.666C600.298 219.629 614.904 184.093 640.577 149.249C666.25 114.405 706.02 78.7744 760.727 58.1223" stroke="black" stroke-miterlimit="10"/>
<path opacity="0.9524" d="M-404.07 636.062C-353.579 581.225 -280.787 528.207 -197.412 486.31C-185.416 480.277 -173.18 474.473 -160.756 468.923C-86.807 435.899 -6.11154 411.93 73.2796 399.352C99.8894 395.144 126.375 392.202 152.395 390.654C204.912 387.495 255.285 389.795 308.542 386.942C320.684 386.287 333.118 385.325 345.66 383.971C388.069 379.399 431.677 370.35 470.275 353.253C522.736 330.04 558.808 295.369 583.947 260.9C609.072 226.435 625.035 190.814 651.655 156.026C678.289 121.241 718.967 85.6854 774.005 65.7443" stroke="black" stroke-miterlimit="10"/>
<path opacity="0.9048" d="M-400.045 644.329C-346.95 591.308 -273.155 538.137 -190.649 495.423C-178.773 489.271 -166.691 483.334 -154.441 477.631C-81.5586 443.709 -2.75871 418.271 75.4035 403.802C101.59 398.967 127.769 395.347 153.587 393.083C205.725 388.471 256.187 389.226 309.648 385.6C321.856 384.766 334.326 383.673 346.93 382.229C389.481 377.384 433.178 368.656 472.109 352.277C525.091 330.036 562.455 296.915 589.31 263.017C616.138 229.127 633.459 193.422 661.039 158.693C688.622 123.972 730.207 88.4904 785.587 69.2491" stroke="black" stroke-miterlimit="10"/>
<path opacity="0.8571" d="M-396.034 652.602C-340.335 601.398 -265.55 548.077 -183.902 504.535C-172.147 498.264 -160.232 492.197 -148.156 486.342C-76.3395 451.521 0.562643 424.607 77.5093 408.245C103.287 402.784 129.144 398.483 154.748 395.507C206.519 389.438 257.057 388.652 310.723 384.254C322.983 383.244 335.514 382.005 348.17 380.49C390.862 375.372 434.65 366.964 473.9 351.308C527.389 330.042 566.049 298.478 594.633 265.148C623.179 231.836 641.854 196.04 670.397 161.37C698.939 126.701 741.434 91.3015 797.145 72.7714" stroke="black" stroke-miterlimit="10"/>
<path opacity="0.8095" d="M-392.009 660.87C-333.691 611.487 -257.92 558.002 -177.141 513.642C-165.506 507.252 -153.747 501.044 -141.858 495.041C-71.1086 459.322 3.89578 430.931 79.6291 412.682C104.985 406.6 130.531 401.607 155.936 397.923C207.326 390.393 257.955 388.07 311.838 382.895C324.151 381.709 336.731 380.336 349.463 378.728C392.285 373.349 436.174 365.249 475.757 350.312C529.752 330.021 569.719 300.004 600.019 267.244C630.268 234.507 650.3 198.627 679.804 164.017C709.308 129.407 752.697 94.0859 808.752 76.2631" stroke="black" stroke-miterlimit="10"/>
<path opacity="0.7619" d="M-387.98 669.152C-327.058 621.586 -250.297 567.951 -170.376 522.764C-158.876 516.258 -147.257 509.913 -135.542 503.758C-65.8585 467.14 7.23681 437.283 81.7526 417.134C106.685 410.423 131.924 404.752 157.128 400.353C208.138 391.37 258.857 387.502 312.946 381.561C325.309 380.193 337.954 378.689 350.737 377.002C393.7 371.35 437.679 363.571 477.582 349.356C532.099 330.044 573.344 301.573 605.373 269.381C637.337 237.215 658.714 201.255 689.179 166.704C719.644 132.153 763.941 96.9066 820.327 79.7949" stroke="black" stroke-miterlimit="10"/>
<path opacity="0.7143" d="M-383.946 677.451C-320.42 631.702 -242.655 577.914 -163.606 531.902C-152.226 525.278 -140.761 518.799 -129.233 512.495C-60.6141 474.987 10.5813 443.645 83.8837 421.61C108.408 414.274 133.322 407.914 158.316 402.819C208.947 392.382 259.755 386.97 314.048 380.256C326.464 378.712 339.172 377.069 352.016 375.292C395.121 369.368 439.19 361.909 479.414 348.424C534.438 330.087 576.991 303.17 610.737 271.549C644.403 239.958 667.15 203.91 698.564 169.422C729.977 134.935 775.197 99.7663 831.911 83.3582" stroke="black" stroke-miterlimit="10"/>
<path opacity="0.6667" d="M-379.895 685.768C-313.751 641.831 -235.012 587.89 -156.805 541.053C-145.546 534.31 -134.248 527.702 -122.896 521.238C-55.3434 482.832 13.9543 450.014 86.0278 426.088C110.128 418.124 134.736 411.086 159.529 405.275C209.78 393.386 260.677 386.429 315.174 378.942C327.656 377.218 340.4 375.445 353.308 373.586C396.554 367.388 440.714 360.25 481.27 347.483C536.801 330.122 580.648 304.755 616.122 273.701C651.505 242.681 675.596 206.553 707.971 172.125C740.345 137.696 786.459 102.606 843.518 86.9057" stroke="black" stroke-miterlimit="10"/>
<path opacity="0.619" d="M-375.85 694.11C-307.1 651.999 -227.36 597.896 -150.024 550.235C-138.885 543.374 -127.744 536.624 -116.563 530.015C-50.0771 490.711 17.3249 456.423 88.1808 430.597C111.859 422.011 136.165 414.311 160.736 407.766C210.623 394.475 261.594 385.921 316.298 377.669C328.832 375.77 341.639 373.859 354.609 371.909C397.999 365.446 442.246 358.621 483.122 346.577C539.173 330.186 584.315 306.377 621.506 275.894C658.592 245.457 684.052 209.233 717.387 174.857C750.721 140.481 797.744 105.473 855.132 90.4757" stroke="black" stroke-miterlimit="10"/>
<path opacity="0.5714" d="M-371.785 702.465C-300.432 662.17 -219.701 607.918 -143.223 559.429C-132.219 552.452 -121.218 545.564 -110.224 538.808C-44.8041 498.605 20.7002 462.841 90.3427 435.128C113.611 425.91 137.596 417.536 161.967 410.276C211.474 395.532 262.547 385.429 317.456 376.403C330.04 374.321 342.898 372.283 355.933 370.252C399.45 363.519 443.802 356.963 485.01 345.685C541.551 330.21 588.003 308.011 626.923 278.095C665.725 248.229 692.529 211.925 726.825 177.608C761.107 143.295 809.038 108.362 866.77 94.0719" stroke="black" stroke-miterlimit="10"/>
<path opacity="0.5238" d="M-367.717 710.832C-293.746 672.351 -212.028 617.942 -136.42 568.635C-125.535 561.54 -114.702 554.522 -103.883 547.606C-39.5305 506.505 24.0782 469.271 92.4897 439.661C115.336 429.822 139.01 420.756 163.168 412.791C212.31 396.59 263.459 384.947 318.572 375.148C331.208 372.891 344.127 370.707 357.212 368.596C400.871 361.591 445.313 355.355 486.84 344.8C543.901 330.296 591.647 309.647 632.282 280.303C672.787 251.011 700.962 214.619 736.206 180.366C771.449 146.112 820.288 111.253 878.351 97.6744" stroke="black" stroke-miterlimit="10"/>
<path opacity="0.4762" d="M-363.66 719.221C-287.085 682.556 -204.364 627.994 -129.626 577.863C-118.863 570.649 -108.185 563.49 -97.5385 556.429C-34.2499 514.437 27.4455 475.723 94.6571 444.223C117.082 433.763 140.447 424.011 164.406 415.339C213.168 397.685 264.407 384.496 319.726 373.932C332.415 371.499 345.383 369.181 358.546 366.984C402.348 359.714 446.878 353.79 488.738 343.954C546.305 330.426 595.346 311.334 637.711 282.557C679.932 253.836 709.45 217.364 745.656 183.17C781.861 148.976 831.608 114.191 890.001 101.324" stroke="black" stroke-miterlimit="10"/>
<path opacity="0.4286" d="M-359.572 727.616C-280.391 692.776 -196.681 638.056 -122.802 587.097C-112.161 579.756 -101.635 572.472 -91.1756 565.262C-28.9535 522.372 30.8441 482.181 96.8403 448.788C118.855 437.695 141.898 427.262 165.644 417.885C214.027 398.778 265.354 384.045 320.878 372.708C333.633 370.095 346.65 367.642 359.861 365.36C403.805 357.816 448.437 352.258 490.606 343.107C548.699 330.621 599.028 313.009 643.109 284.802C687.032 256.656 717.921 220.097 755.075 185.966C792.241 151.831 842.882 117.125 901.619 104.965" stroke="black" stroke-miterlimit="10"/>
<path opacity="0.381" d="M-355.488 736.036C-273.69 703.009 -188.993 648.132 -115.969 596.352C-105.462 588.896 -95.0769 581.474 -84.8043 574.116C-23.6487 530.327 34.2533 488.668 99.0205 453.384C120.613 441.67 143.325 430.526 166.893 420.46C214.866 399.843 266.313 383.622 322.04 371.511C334.845 368.716 347.928 366.132 361.203 363.768C405.275 355.955 450.011 350.713 492.512 342.28C551.112 330.77 602.735 314.708 648.547 287.076C694.188 259.508 726.418 222.861 764.533 188.79C802.648 154.718 854.21 120.083 913.278 108.634" stroke="black" stroke-miterlimit="10"/>
<path opacity="0.3333" d="M-351.405 744.464C-267.003 713.254 -181.315 658.228 -109.15 605.62C-98.7635 598.045 -88.5454 590.493 -78.435 582.971C-18.3459 538.285 37.6583 495.148 101.21 457.971C122.379 445.628 144.784 433.807 168.151 423.025C215.744 400.955 267.28 383.189 323.214 370.313C336.072 367.342 349.204 364.624 362.541 362.169C406.754 354.084 451.582 349.17 494.401 341.452C553.507 330.917 606.439 316.409 653.964 289.34C701.308 262.348 734.909 225.613 773.986 191.6C813.06 157.581 865.521 123.039 924.928 112.282" stroke="black" stroke-miterlimit="10"/>
<path opacity="0.2857" d="M-347.314 752.908C-260.309 723.515 -173.618 668.335 -102.323 614.903C-92.0579 607.209 -81.9957 599.516 -72.0703 591.853C-13.0477 546.268 41.0609 501.663 103.397 462.592C124.158 449.624 146.239 437.114 169.395 425.636C216.609 402.113 268.234 382.801 324.386 369.149C337.296 366.002 350.491 363.146 363.892 360.609C408.248 352.258 453.164 347.657 496.302 340.661C555.931 331.105 610.14 318.143 659.397 291.65C708.457 265.228 743.402 228.413 783.438 194.452C823.474 160.492 876.842 126.025 936.58 115.979" stroke="black" stroke-miterlimit="10"/>
<path opacity="0.2381" d="M-343.214 761.348C-253.589 733.775 -165.923 678.442 -95.4848 624.189C-85.3399 616.376 -75.4316 608.55 -65.6932 600.739C-7.73503 554.263 44.4737 508.173 105.581 467.212C125.918 453.616 147.692 440.427 170.647 428.234C217.48 403.25 269.209 382.398 325.552 367.976C338.514 364.654 351.756 361.656 365.222 359.037C409.719 350.413 454.725 346.132 498.196 339.855C558.332 331.274 613.85 319.866 664.821 293.936C715.583 268.089 751.885 231.19 792.883 197.289C833.88 163.388 888.156 128.995 948.225 119.661" stroke="black" stroke-miterlimit="10"/>
<path opacity="0.1905" d="M-339.168 769.684C-246.94 743.928 -158.273 688.434 -88.7033 633.364C-78.6926 625.436 -68.938 617.476 -59.3619 609.501C-2.47023 562.127 47.8273 514.564 107.735 471.714C127.65 457.496 149.113 443.615 171.856 430.718C218.309 404.281 270.127 381.884 326.674 366.689C339.7 363.18 352.994 360.055 366.524 357.353C411.162 348.456 456.259 344.496 500.049 338.942C560.691 331.336 617.503 321.478 670.203 296.115C722.667 270.843 760.34 233.856 802.286 200.018C844.231 166.181 899.414 131.862 959.841 123.231" stroke="black" stroke-miterlimit="10"/>
<path opacity="0.1429" d="M-335.161 777.898C-240.328 753.96 -150.671 698.317 -81.9595 642.418C-72.0693 634.371 -62.4708 626.27 -53.0797 618.155C2.74554 569.882 51.1474 520.85 109.837 476.098C129.344 461.256 150.485 446.694 173.027 433.081C219.1 405.19 271.008 381.249 327.761 365.288C340.84 361.604 354.196 358.34 367.774 355.553C412.541 346.387 457.741 342.743 501.866 337.915C563.028 331.28 621.133 322.972 675.551 298.188C729.733 273.494 768.75 236.427 811.655 202.641C854.56 168.856 910.653 134.619 971.41 126.7" stroke="black" stroke-miterlimit="10"/>
<path opacity="0.0952" d="M-331.202 786.026C-233.752 763.901 -143.105 708.108 -75.2516 651.381C-65.4821 643.215 -56.0374 634.98 -46.8334 626.716C7.92534 577.546 54.4294 527.037 111.89 480.395C130.973 464.924 151.806 449.677 174.135 435.36C219.829 406.016 271.826 380.53 328.783 363.796C341.914 359.936 355.32 356.538 368.962 353.668C413.872 344.237 459.16 340.907 503.605 336.8C565.274 331.141 624.674 324.391 680.819 300.166C736.703 276.048 777.091 238.893 820.944 205.17C864.811 171.443 921.811 137.282 982.899 130.073" stroke="black" stroke-miterlimit="10"/>
<path opacity="0.0476" d="M-327.265 794.086C-227.209 773.785 -135.577 717.828 -68.5788 660.28C-58.9299 651.996 -49.639 643.627 -40.6107 635.204C13.0815 585.135 57.6879 533.149 113.935 484.621C132.597 468.529 153.12 452.596 175.25 437.571C220.565 406.775 272.651 379.743 329.813 362.237C342.996 358.201 356.465 354.665 370.169 351.705C415.22 342.001 460.598 338.991 505.376 335.603C567.553 330.927 628.258 325.715 686.121 302.07C743.722 278.522 785.453 241.287 830.281 207.62C875.096 173.956 933.004 139.869 994.434 133.36" stroke="black" stroke-miterlimit="10"/>
<path opacity="0.0476" d="M1001.85 143.713C941.648 150.97 883.378 184.91 837.164 218.146C813.333 235.29 790.091 253.289 765.042 269.769C741.539 285.237 716.428 299.379 687.708 310.25C625.511 333.787 560.781 336.881 495.516 340.761C453.212 343.277 410.653 346.129 368.331 355.099C315.847 366.233 266.889 386.137 222.738 410.577C180.909 433.712 143.307 460.917 111.299 488.946C67.4682 527.351 31.3986 568.285 -7.25432 608.458C-26.5684 628.537 -46.5694 648.447 -68.6377 667.829C-90.5198 687.046 -115.225 705.995 -142.317 723.379C-197.198 758.618 -262.109 787.389 -329.913 798.423" stroke="black" stroke-miterlimit="10"/>
<path opacity="0.0952" d="M997.82 150.837C939.176 159.554 881.439 193.424 834.817 226.293C810.773 243.247 787.179 260.927 761.857 277.058C738.101 292.194 712.818 305.983 684.085 316.6C621.879 339.585 557.251 342.836 492.182 346.693C449.977 349.197 407.552 351.955 365.365 360.525C313.088 371.159 264.17 390.119 219.762 413.489C177.649 435.61 139.459 461.71 106.681 489.12C61.8816 526.663 25.1074 567.417 -13.7565 607.408C-33.1715 627.387 -53.2297 647.249 -75.3055 666.552C-97.2313 685.717 -121.932 704.577 -149.085 721.85C-204.041 756.82 -269.589 785.086 -336.448 794.777" stroke="black" stroke-miterlimit="10"/>
<path opacity="0.1429" d="M993.794 157.983C936.694 168.156 879.505 201.96 832.461 234.465C808.19 251.234 784.259 268.59 758.662 284.364C734.667 299.166 709.184 312.608 680.439 322.972C618.222 345.405 553.683 348.816 488.827 352.653C446.718 355.138 404.442 357.807 362.36 365.977C310.292 376.109 261.401 394.13 216.765 416.43C174.38 437.534 135.574 462.529 102.042 489.322C56.2711 525.996 18.8057 566.567 -20.2807 606.388C-39.8078 626.277 -59.8983 646.076 -82.0086 665.309C-103.978 684.421 -128.659 703.195 -155.877 720.341C-210.909 755.043 -277.09 782.812 -343.004 791.16" stroke="black" stroke-miterlimit="10"/>
<path opacity="0.1905" d="M989.796 165.162C934.254 176.794 877.612 210.525 830.13 242.663C805.646 259.242 781.364 276.279 755.494 291.704C731.246 306.174 705.592 319.263 676.833 329.373C614.609 351.262 550.158 354.832 485.524 358.632C443.513 361.105 401.37 363.68 359.424 371.45C307.564 381.082 258.714 398.166 213.819 419.389C171.149 439.48 131.755 463.362 97.4677 489.539C50.7147 525.355 12.5581 565.743 -26.7527 605.385C-46.3787 625.182 -66.515 644.921 -88.6483 664.072C-110.664 683.125 -135.339 701.816 -162.617 718.851C-217.726 753.277 -284.542 780.549 -349.508 787.562" stroke="black" stroke-miterlimit="10"/>
<path opacity="0.2381" d="M986.091 173.077C932.107 186.169 875.998 219.831 828.094 251.604C803.382 267.991 778.763 284.712 752.621 299.787C728.133 313.923 702.291 326.655 673.521 336.519C611.287 357.855 546.925 361.586 482.504 365.365C440.591 367.827 398.582 370.308 356.755 377.675C305.105 386.814 256.28 402.95 211.155 423.096C168.215 442.177 128.203 464.946 93.1633 490.515C45.4393 525.462 6.59357 565.673 -32.9418 605.138C-52.68 624.845 -72.8642 644.518 -95.0163 663.601C-117.075 682.603 -141.745 701.212 -169.074 718.116C-224.245 752.27 -291.708 779.049 -355.731 784.711" stroke="black" stroke-miterlimit="10"/>
<path opacity="0.2857" d="M982.678 181.675C930.253 196.226 874.69 229.815 826.351 261.228C801.425 277.425 776.455 293.827 750.038 308.546C725.295 322.343 699.27 334.732 670.5 344.338C608.257 365.123 543.983 369.014 479.788 372.77C437.971 375.213 396.098 377.607 354.406 384.574C302.964 393.213 254.179 408.405 208.796 427.481C165.572 445.549 124.957 467.209 89.1631 492.161C40.4681 526.24 0.931215 566.268 -38.8379 605.572C-58.6749 625.187 -78.9049 644.8 -101.078 663.809C-123.183 682.751 -147.833 701.274 -175.235 718.071C-230.482 751.957 -298.581 778.231 -361.657 782.557" stroke="black" stroke-miterlimit="10"/>
<path opacity="0.3333" d="M979.271 190.343C928.388 206.35 873.374 239.873 824.624 270.912C799.485 286.919 774.164 303.002 747.474 317.371C722.492 330.834 696.281 342.873 667.485 352.229C605.231 372.462 541.06 376.509 477.061 380.242C435.344 382.673 393.604 384.974 352.031 391.537C300.797 399.675 252.038 413.927 206.428 431.934C162.919 448.988 121.715 469.535 85.1527 493.875C35.4888 527.092 -4.75281 566.94 -44.733 606.063C-64.6843 625.581 -84.9445 645.138 -107.138 664.073C-129.287 682.963 -153.931 701.404 -181.398 718.074C-236.723 751.684 -305.454 777.468 -367.584 780.451" stroke="black" stroke-miterlimit="10"/>
<path opacity="0.381" d="M975.918 199.101C926.595 216.567 872.113 250.021 822.941 280.696C797.576 296.517 771.916 312.277 744.952 326.289C719.717 339.421 693.32 351.11 664.524 360.209C602.261 379.89 538.18 384.104 474.406 387.806C432.787 390.226 391.18 392.433 349.742 398.597C298.716 406.234 250.028 419.598 204.13 436.479C160.38 452.572 118.53 471.958 81.2129 495.682C30.578 528.03 -10.3527 567.702 -50.5708 606.65C-70.6209 626.076 -90.9404 645.577 -113.155 664.437C-135.35 683.267 -159.974 701.623 -187.504 718.174C-242.904 751.516 -312.271 776.795 -373.456 778.435" stroke="black" stroke-miterlimit="10"/>
<path opacity="0.4286" d="M972.617 207.989C924.852 226.915 870.917 260.296 821.309 290.61C795.73 306.243 769.733 321.679 742.469 335.349C716.994 348.146 690.412 359.486 661.603 368.331C599.33 387.46 535.338 391.834 471.774 395.509C430.264 397.906 388.78 400.031 347.461 405.791C296.646 412.935 247.983 425.359 201.854 441.155C157.819 456.235 115.368 474.519 77.2947 497.62C25.6774 529.11 -15.9466 568.591 -56.3736 607.365C-76.5359 626.701 -96.8878 646.139 -119.124 664.925C-141.362 683.703 -165.98 701.976 -193.573 718.408C-249.034 751.478 -319.049 776.264 -379.289 776.561" stroke="black" stroke-miterlimit="10"/>
<path opacity="0.4762" d="M969.378 217.045C923.171 237.431 869.769 270.742 819.737 300.686C793.93 316.125 767.597 331.246 740.06 344.566C714.332 357.033 687.565 368.022 658.756 376.61C596.473 395.186 532.569 399.721 469.218 403.377C427.807 405.762 386.47 407.789 345.272 413.153C294.665 419.796 246.029 431.28 199.656 446.003C155.338 460.077 112.296 477.241 73.4568 499.736C20.8685 530.358 -21.4445 569.663 -62.1096 608.262C-82.3707 627.506 -102.768 646.884 -125.041 665.592C-147.338 684.314 -171.923 702.498 -199.579 718.811C-255.118 751.605 -325.78 775.897 -385.048 774.843" stroke="black" stroke-miterlimit="10"/>
<path opacity="0.5238" d="M966.236 226.299C921.586 248.136 868.719 281.386 818.265 310.965C792.245 326.216 765.56 341.017 737.749 353.981C711.768 366.116 684.829 376.752 656.007 385.086C593.714 403.11 529.901 407.812 466.771 411.43C425.457 413.796 384.256 415.736 343.177 420.698C292.778 426.84 244.182 437.38 197.565 451.03C152.962 464.089 109.318 480.144 69.724 502.024C16.1646 531.777 -26.851 570.909 -67.7249 609.334C-88.0848 628.485 -108.542 647.808 -130.822 666.437C-153.163 685.107 -177.742 703.209 -205.46 719.403C-261.074 751.928 -332.37 775.724 -390.693 773.326" stroke="black" stroke-miterlimit="10"/>
<path opacity="0.5714" d="M963.169 235.764C920.064 259.064 867.759 292.244 816.879 321.445C790.645 336.506 763.609 350.988 735.525 363.602C709.305 375.402 682.165 385.685 653.331 393.773C591.031 411.253 527.304 416.107 464.387 419.705C423.171 422.06 382.104 423.906 341.159 428.468C290.971 434.117 242.399 443.709 195.541 456.293C150.653 468.34 106.407 483.285 66.0579 504.549C11.5297 533.441 -32.1792 572.382 -73.289 610.64C-93.7632 629.694 -114.25 648.961 -136.551 667.516C-158.936 686.134 -183.498 704.142 -211.278 720.217C-266.968 752.474 -338.898 775.773 -396.276 772.032" stroke="black" stroke-miterlimit="10"/>
<path opacity="0.619" d="M960.168 245.412C918.622 270.172 866.849 303.282 815.547 332.12C789.087 346.995 761.713 361.154 733.354 373.411C706.882 384.88 679.569 394.809 650.723 402.644C588.412 419.571 524.788 424.582 462.083 428.161C420.966 430.504 380.032 432.256 339.206 436.415C289.226 441.563 240.681 450.215 193.592 461.722C148.42 472.755 103.584 486.588 62.4676 507.239C6.96837 535.262 -37.4296 574.026 -78.7639 612.107C-99.3369 631.068 -119.87 650.276 -142.205 668.759C-164.636 687.318 -189.19 705.252 -217.032 721.207C-272.786 753.185 -345.364 775.99 -401.796 770.906" stroke="black" stroke-miterlimit="10"/>
<path opacity="0.6667" d="M957.245 255.224C917.258 281.444 866.018 314.485 814.294 342.958C787.62 357.644 759.893 371.477 731.263 383.391C704.549 394.519 677.039 404.109 648.194 411.686C585.874 428.062 522.34 433.24 459.843 436.784C418.822 439.108 378.024 440.774 337.333 444.533C287.561 449.18 239.042 456.892 191.71 467.326C146.253 477.345 100.815 490.069 58.9571 510.101C2.48894 537.262 -42.6137 575.847 -84.1725 613.749C-104.858 632.621 -125.439 651.762 -147.779 670.175C-170.253 688.682 -194.79 706.522 -222.709 722.362C-278.538 754.072 -351.75 776.379 -407.237 769.953" stroke="black" stroke-miterlimit="10"/>
<path opacity="0.7143" d="M954.386 265.169C915.955 292.841 865.264 325.817 813.102 353.922C786.202 368.423 758.137 381.932 729.232 393.49C702.265 404.286 674.583 413.523 645.724 420.847C583.408 436.666 519.949 442.008 457.679 445.529C416.756 447.841 376.091 449.414 335.52 452.769C285.956 456.915 237.476 463.628 189.901 473.044C144.16 482.001 98.1342 493.668 55.5083 513.088C-1.94437 539.384 -47.7247 577.781 -89.5059 615.513C-110.29 634.292 -130.917 653.373 -153.292 671.716C-175.812 690.163 -200.34 707.929 -228.308 723.646C-284.213 755.087 -358.06 776.89 -412.602 769.12" stroke="black" stroke-miterlimit="10"/>
<path opacity="0.7619" d="M951.556 275.22C914.67 304.355 864.525 337.257 811.941 364.999C784.826 379.303 756.411 392.5 727.234 403.709C700.028 414.17 672.147 423.061 643.275 430.131C580.949 445.399 517.578 450.901 455.519 454.394C414.695 456.695 374.163 458.174 333.726 461.129C284.372 464.782 235.917 470.547 188.101 478.898C142.088 486.838 95.4464 497.399 52.0659 516.202C-6.35777 541.63 -52.8406 579.855 -94.8329 617.405C-115.729 636.095 -136.388 655.113 -158.786 673.373C-181.35 691.768 -205.861 709.441 -233.905 725.042C-289.887 756.208 -364.366 777.521 -417.963 768.408" stroke="black" stroke-miterlimit="10"/>
<path opacity="0.8095" d="M948.764 285.356C913.437 315.95 863.825 348.783 810.832 376.158C783.504 390.272 754.738 403.15 725.288 414.009C697.829 424.139 669.776 432.676 640.89 439.493C578.554 454.208 515.275 459.878 453.426 463.344C412.698 465.626 372.315 467.015 331.985 469.571C282.839 472.723 234.425 477.551 186.364 484.821C140.066 491.748 92.822 501.2 48.6868 519.387C-10.7057 543.953 -57.8798 581.994 -100.108 619.377C-121.105 637.967 -141.821 656.937 -164.227 675.119C-186.836 693.455 -211.339 711.052 -239.434 726.524C-295.492 757.421 -370.607 778.23 -423.257 767.781" stroke="black" stroke-miterlimit="10"/>
<path opacity="0.9048" d="M941.498 301.542C909.286 335.048 860.755 367.745 806.903 394.389C779.135 408.128 749.679 420.363 719.682 430.516C691.73 439.981 663.304 447.81 634.408 454.123C572.055 467.742 508.964 473.721 447.537 477.141C407.007 479.399 366.891 480.6 326.815 482.353C278.085 484.504 229.737 487.448 181.189 492.571C134.337 497.475 85.8859 504.701 40.2281 521.66C-21.1044 544.496 -69.6744 582.174 -112.349 619.208C-133.558 637.616 -154.352 656.463 -176.813 674.5C-199.512 692.724 -223.989 710.154 -252.209 725.387C-308.407 755.737 -384.817 775.558 -435.562 762.419" stroke="black" stroke-miterlimit="10"/>
<path opacity="0.9524" d="M936.931 307.328C906.264 342.297 858.28 374.921 804.006 401.201C776.011 414.754 746.218 426.667 715.946 436.462C687.754 445.593 659.129 453.076 630.234 459.132C567.87 472.199 504.868 478.337 443.665 481.726C403.231 483.966 363.251 485.08 323.309 486.434C274.79 488.091 226.467 490.087 177.677 494.145C130.541 498.035 81.4866 504.152 35.0762 520.503C-27.2407 542.473 -76.4863 579.971 -119.386 616.827C-140.706 635.146 -161.546 653.934 -184.028 671.896C-206.771 690.068 -231.244 707.408 -259.525 722.53C-315.813 752.608 -392.857 771.932 -442.66 757.443" stroke="black" stroke-miterlimit="10"/>
<path d="M932.349 313.11C888.23 368.328 801.997 414.639 712.194 442.406C622.404 470.169 529.028 481.396 439.753 486.324C350.492 491.248 263.572 490.28 174.12 495.716C126.715 498.596 77.0562 503.597 29.8778 519.335C-33.4102 540.437 -83.3605 577.755 -126.482 614.44C-169.604 651.125 -210.542 689.842 -266.89 719.655C-323.226 749.457 -400.904 768.284 -449.759 752.459" stroke="black" stroke-miterlimit="10"/>
</g>
</svg>
