<svg width="16" height="16" viewBox="0 0 16 16" fill="none" xmlns="http://www.w3.org/2000/svg">
<path d="M15.9991 8.18411C15.9991 7.64031 15.9541 7.09357 15.8581 6.55859H8.16016V9.63914H12.5684C12.3855 10.6327 11.7977 11.5116 10.9371 12.0701V14.0689H13.567C15.1114 12.6756 15.9991 10.618 15.9991 8.18411Z" fill="#4285F4"/>
<path d="M8.16033 16C10.3615 16 12.2177 15.2916 13.5702 14.0688L10.9402 12.07C10.2085 12.5579 9.26389 12.8342 8.16332 12.8342C6.03416 12.8342 4.22887 11.4262 3.58112 9.5332H0.867188V11.5938C2.25264 14.2951 5.07454 16 8.16033 16Z" fill="#34A853"/>
<path d="M3.57905 9.53314C3.23718 8.5396 3.23718 7.46376 3.57905 6.47023V4.40967H0.868147C-0.289382 6.67011 -0.289382 9.33326 0.868147 11.5937L3.57905 9.53314Z" fill="#FBBC04"/>
<path d="M8.16033 3.16633C9.32387 3.1487 10.4484 3.57786 11.2911 4.36563L13.6212 2.08167C12.1458 0.723645 10.1875 -0.0229765 8.16033 0.000539092C5.07454 0.000539092 2.25264 1.70542 0.867188 4.40972L3.57812 6.47028C4.22287 4.57433 6.03116 3.16633 8.16033 3.16633Z" fill="#EA4335"/>
</svg>
