<svg width="105" height="30" viewBox="0 0 105 30" fill="none" xmlns="http://www.w3.org/2000/svg">
<path d="M0.357074 16.2772C-0.31578 14.9236 -0.0413654 13.7251 1.21132 12.6968C2.53842 11.6062 4.09498 11.0904 5.68409 10.6808C6.93988 10.3571 8.20652 10.0739 9.49796 9.98965C9.90105 9.96268 10.0902 9.78062 10.2034 9.37606C10.8003 7.24201 11.1305 5.07088 11.0762 2.83231C11.0654 2.3991 10.9646 2.21536 10.5538 2.26424C10.3243 2.2929 10.0886 2.27941 9.85764 2.26593C9.18169 2.22379 8.74604 1.78383 8.73674 1.1399C8.72588 0.48755 9.13983 0.0290491 9.83749 0.0172494C11.3615 -0.00803555 12.8855 0.00544977 14.4095 0.0037641C15.9335 0.00207844 17.4575 -0.00466422 18.9815 0.00544977C19.7985 0.0105068 20.2729 0.42518 20.2853 1.10113C20.2977 1.80405 19.7908 2.25076 18.9567 2.26593C17.8714 2.28616 17.8652 2.28616 17.8978 3.50152C17.9536 5.585 18.3117 7.61623 18.8249 9.6188C18.8993 9.91042 19.0171 10.0048 19.3024 10.0183C21.8434 10.1464 24.2852 10.7583 26.5968 11.913C27.5921 12.4103 28.4991 13.0609 28.8882 14.278C28.7875 14.2898 28.6107 14.2746 28.5968 14.3184C28.3859 15.0146 27.9983 14.9607 27.5162 14.6674C27.4449 14.6235 27.2867 14.7517 27.1689 14.8005C26.9131 14.4398 26.5937 14.1549 26.2294 13.9425C24.2666 12.8081 22.1287 12.3867 19.8481 12.0327C20.7411 14.0959 21.9783 15.7209 23.3178 17.2667C22.7147 17.3965 22.1116 17.5263 21.507 17.6561C20.0419 15.7614 18.7536 13.747 17.8823 11.441C16.8807 8.78945 16.3552 6.03676 16.4435 3.17113C16.4668 2.41595 16.2575 2.19513 15.5831 2.25244C14.8389 2.3165 14.0839 2.3165 13.3397 2.25244C12.6994 2.1985 12.5863 2.47326 12.5909 3.10539C12.625 7.57746 11.4824 11.6703 9.13518 15.3484C8.62356 16.1508 8.02978 16.8924 7.4732 17.6628C6.88872 17.533 6.30578 17.4015 5.7213 17.2717C6.99414 15.6872 8.28403 14.1162 9.12277 12.0647C8.73519 12.1119 8.45612 12.1288 8.18326 12.1793C6.33214 12.5266 4.49032 12.9193 2.82524 13.9206C2.35703 14.2021 1.74929 14.4432 1.86247 15.2557C1.83921 15.2675 1.81751 15.2843 1.79425 15.2928C1.41287 15.4259 1.07024 15.0804 0.696602 15.1832C0.0826617 15.3568 0.798925 16.0344 0.357074 16.2772Z" fill="black"/>
<path d="M14.4763 29.9956C13.1089 29.9973 11.7399 30.0041 10.3725 29.9956C6.01291 29.9687 2.75717 25.3685 3.83157 20.7784C3.94319 20.2997 4.12613 20.0586 4.57108 20.3047C4.90596 20.4902 5.56641 20.2323 5.36642 21.156C4.56798 24.8392 6.78034 28.1498 10.2562 28.3133C13.1151 28.4482 15.9894 28.4415 18.8483 28.2982C22.1785 28.1313 24.4373 24.8088 23.6745 21.2942C23.4637 20.3216 24.0544 20.4716 24.4699 20.2862C25.0544 20.0266 25.09 20.4868 25.183 20.915C26.183 25.4696 22.9536 29.9704 18.6591 29.9956C17.2638 30.0024 15.8701 29.9956 14.4763 29.9956Z" fill="black"/>
<path d="M14.516 12.422C16.0586 12.4405 16.8927 14.1684 15.9857 15.645C15.0958 17.0964 14.9966 18.5915 15.3718 20.2131C15.5563 21.0155 16.0509 21.5819 16.5082 22.1837C17.2353 23.1344 17.2648 24.2082 16.84 25.2634C16.4167 26.3119 15.5253 26.7957 14.5222 26.794C13.4509 26.7923 12.5641 26.2681 12.1455 25.1117C11.7719 24.0784 11.8075 23.0417 12.5114 22.1871C14.2369 20.0935 14.2742 17.9105 12.9874 15.5573C12.1827 14.0841 13.0292 12.4051 14.516 12.422Z" fill="black"/>
<path d="M27.1715 14.8038C27.2893 14.7549 27.449 14.6268 27.5187 14.6706C28.0024 14.9639 28.3885 15.0179 28.5993 14.3217C28.6133 14.2779 28.79 14.293 28.8908 14.2812C29.2598 15.7242 28.7141 16.862 27.204 17.8127C25.2227 19.0618 23.0227 19.5372 20.8057 19.9147C19.6119 20.117 18.4073 20.2603 17.1918 20.3176C16.2771 20.3614 16.3934 19.699 16.3159 19.1073C16.2337 18.4701 16.443 18.2088 17.0632 18.2105C18.5623 18.2156 20.0429 17.9813 21.5096 17.6593C22.1127 17.5295 22.7157 17.3997 23.3188 17.2699C24.3653 16.9783 25.3761 16.5856 26.3141 15.9939C26.7436 15.7242 27.1451 15.4208 27.1715 14.8038Z" fill="black"/>
<path d="M0.357422 16.278C0.799273 16.0353 0.0830103 15.3576 0.700051 15.1874C1.07369 15.0846 1.41787 15.4301 1.7977 15.297C1.82096 15.2885 1.84266 15.2734 1.86592 15.2599C2.92636 16.4432 4.33873 16.8292 5.72475 17.2759C6.30923 17.4057 6.89216 17.5355 7.47665 17.667C8.97119 17.962 10.4704 18.2014 11.9928 18.2165C12.4641 18.2216 12.8672 18.3193 12.7184 18.9548C12.5928 19.4892 12.8967 20.3641 11.8874 20.3051C8.69057 20.1146 5.5356 19.6864 2.57753 18.2469C1.68763 17.812 0.828729 17.2928 0.357422 16.278Z" fill="black"/>
<path d="M36.1425 14.4005C36.1425 12.8294 36.158 11.2584 36.1332 9.68735C36.1255 9.16479 36.2278 8.9524 36.7673 8.95914C39.3471 8.99117 41.9284 8.96757 44.5098 8.97599C45.5625 8.97937 46.3392 9.74297 46.3903 10.8825C46.4353 11.9175 46.4338 12.9592 46.3919 13.9942C46.3469 15.1253 45.5919 15.8906 44.5144 15.9091C42.8633 15.9378 41.2106 15.9429 39.5595 15.9125C39.0231 15.9024 38.8308 16.071 38.8587 16.666C38.899 17.5055 38.8494 18.3483 38.8727 19.1894C38.8851 19.6142 38.7735 19.7626 38.3564 19.7845C36.1425 19.9025 36.1441 19.9176 36.1441 17.5122C36.1425 16.4755 36.1425 15.4388 36.1425 14.4005ZM41.1827 13.4953C41.7998 13.4953 42.4183 13.4717 43.0354 13.5003C43.8199 13.5374 43.7082 12.9575 43.716 12.4249C43.7237 11.8669 43.7625 11.3326 43.009 11.3528C42.0835 11.3781 41.1564 11.3595 40.2308 11.3595C38.7797 11.3595 38.7983 11.3595 38.8572 12.9508C38.8742 13.4093 39.0262 13.5189 39.4091 13.502C39.9982 13.4784 40.5905 13.4969 41.1827 13.4953Z" fill="black"/>
<path d="M66.5861 19.7652C65.7598 19.7652 64.9334 19.7703 64.1086 19.7636C62.8823 19.7534 62.1009 18.9932 62.0529 17.6683C62.0064 16.3804 62.011 15.0858 62.0513 13.7963C62.0901 12.5641 62.9195 11.7094 64.0559 11.6909C65.3985 11.669 66.7411 11.6673 68.0822 11.6909C69.276 11.7128 70.0589 12.5894 70.0713 13.8755C70.0791 14.5481 70.0294 15.2257 70.0837 15.895C70.1349 16.522 69.8946 16.6333 69.3845 16.6215C68.0434 16.5861 66.7008 16.6097 65.3582 16.6012C65.028 16.5996 64.7443 16.5827 64.7489 17.1036C64.7536 17.5772 64.9334 17.766 65.3474 17.7644C66.6125 17.761 67.8776 17.793 69.1411 17.7526C69.6884 17.7357 69.9333 17.8453 69.9054 18.5229C69.845 20.0349 70.0449 19.7383 68.7551 19.7652C68.0326 19.7804 67.3101 19.7686 66.5861 19.7686C66.5861 19.7686 66.5861 19.7669 66.5861 19.7652ZM66.1334 14.8701C66.3644 14.8701 66.5954 14.8903 66.8233 14.865C67.1504 14.8279 67.6233 15.0993 67.6031 14.3391C67.5845 13.6968 67.3256 13.5165 66.7939 13.5468C66.3086 13.5755 65.8218 13.5603 65.335 13.5586C64.8513 13.5569 64.766 13.8705 64.7443 14.3239C64.7179 14.8751 64.9939 14.8987 65.366 14.8718C65.6202 14.8549 65.8776 14.8701 66.1334 14.8701Z" fill="black"/>
<path d="M98.14 14.3874C97.5229 16.1152 96.9291 17.5716 96.4919 19.082C96.2485 19.9215 95.7416 19.7225 95.23 19.7782C94.7183 19.8321 94.4501 19.6568 94.261 19.1005C93.4982 16.867 92.6982 14.6487 91.8796 12.4388C91.6781 11.8926 91.6393 11.7005 92.3029 11.66C93.1726 11.6077 93.6424 11.8589 93.9091 12.8265C94.2765 14.1598 94.8145 15.4376 95.2935 16.7794C95.6268 16.599 95.6656 16.2821 95.7617 16.0225C96.1912 14.851 96.6625 13.6929 97.0082 12.491C97.2191 11.7611 97.6035 11.6802 98.202 11.6634C98.7927 11.6465 99.0578 11.8606 99.2516 12.4573C99.7337 13.934 100.286 15.382 100.873 17.0154C101.38 15.6432 101.834 14.411 102.287 13.1788C102.372 12.9445 102.448 12.7068 102.534 12.4725C102.78 11.7982 103.824 11.3751 104.416 11.6988C104.675 11.8404 104.529 12.0342 104.472 12.196C103.624 14.5728 102.76 16.9429 101.921 19.3247C101.639 20.1237 101.044 19.645 100.597 19.7613C100.214 19.8625 100.003 19.6669 99.8624 19.2522C99.3384 17.7082 98.7772 16.1759 98.14 14.3874Z" fill="black"/>
<path d="M52.6037 19.0645C52.1076 19.8366 51.4409 19.7995 50.7619 19.7725C50.1185 19.7472 49.472 19.786 48.8286 19.7574C47.8674 19.7152 47.1077 18.9162 47.0937 17.8829C47.0689 16.0051 47.0937 14.1255 47.0782 12.2477C47.0736 11.8078 47.2147 11.6931 47.6131 11.6763C49.7371 11.5869 49.7371 11.5751 49.7371 13.8828C49.7371 14.8925 49.7712 15.9039 49.7262 16.9103C49.6952 17.5913 49.9433 17.7716 50.534 17.7784C52.6595 17.8003 52.6595 17.8188 52.6611 15.5095C52.6611 14.4441 52.6843 13.3788 52.6626 12.3135C52.6533 11.8549 52.7711 11.6881 53.2238 11.6729C55.3711 11.6004 55.3711 11.5836 55.3742 13.93C55.3757 15.6679 55.3633 17.4058 55.3819 19.1455C55.3866 19.6006 55.2874 19.8147 54.8254 19.7793C54.3122 19.7388 53.7928 19.7405 53.2797 19.7793C52.8316 19.8113 52.5711 19.6967 52.6037 19.0645Z" fill="black"/>
<path d="M81.2175 8.97073C80.8702 9.83042 80.5648 10.5923 80.2532 11.3526C79.202 13.9097 78.1307 16.4585 77.1091 19.0291C76.8765 19.614 76.5835 19.877 76.0114 19.7708C75.9106 19.7522 75.8021 19.7489 75.7029 19.7708C74.8393 19.9629 74.4626 19.5112 74.1324 18.665C72.9526 15.651 71.6921 12.6741 70.4379 9.69556C70.2084 9.15109 70.1759 8.9387 70.8425 8.95556C72.1681 8.99096 72.1603 8.95893 72.7185 10.3209C73.6797 12.6691 74.6533 15.0122 75.6889 17.5187C76.5246 15.5195 77.2982 13.6754 78.0672 11.8296C78.354 11.1402 78.6796 10.4642 78.9013 9.75119C79.1013 9.10558 79.4392 8.87464 80.0439 8.96061C80.3927 9.01118 80.7539 8.97073 81.2175 8.97073Z" fill="black"/>
<path d="M88.4012 19.7693C87.7035 19.7693 87.0059 19.7811 86.3097 19.7676C85.1439 19.744 84.4183 18.977 84.4013 17.7229C84.3827 16.4316 84.378 15.1404 84.3966 13.8492C84.4168 12.5394 85.1904 11.7152 86.3997 11.6949C87.4322 11.6781 88.4663 11.6764 89.4988 11.6949C90.7081 11.7168 91.4755 12.5546 91.5034 13.8644C91.5174 14.5656 91.4879 15.2685 91.5143 15.9698C91.5313 16.4165 91.3747 16.5446 90.9748 16.5378C89.6058 16.5159 88.2368 16.548 86.8679 16.5193C86.3857 16.5092 86.1547 16.6221 86.1935 17.2087C86.2291 17.7279 86.2384 18.1493 86.8911 18.1308C88.1299 18.0988 89.3717 18.1611 90.6089 18.1055C91.2306 18.0769 91.3422 18.3348 91.3158 18.9298C91.2926 19.449 91.3313 19.8535 90.6461 19.7878C89.9035 19.7136 89.15 19.7693 88.4012 19.7693ZM87.8849 14.9853C87.8849 14.987 87.8849 14.987 87.8849 14.9887C88.2709 14.9887 88.6585 14.9601 89.0399 14.9955C89.505 15.0393 89.7066 14.869 89.6539 14.3431C89.6089 13.893 89.7686 13.3334 89.0539 13.3536C88.3857 13.3722 87.7159 13.389 87.0508 13.3418C86.4136 13.2963 86.2167 13.5643 86.1795 14.2521C86.1361 15.0646 86.5516 15.0123 87.0353 14.987C87.319 14.9735 87.6027 14.9853 87.8849 14.9853Z" fill="black"/>
<path d="M58.8301 12.7124C59.5076 11.4735 60.3696 11.7095 61.1726 11.6791C61.5556 11.6639 61.7106 11.7718 61.7246 12.2337C61.7695 13.6851 61.7912 13.6783 60.4626 13.6817C58.7169 13.6851 58.813 13.4356 58.8161 15.5022C58.8177 16.7344 58.8037 17.9666 58.8254 19.1989C58.8332 19.6338 58.7029 19.7619 58.2983 19.7787C56.1402 19.8765 56.1402 19.8883 56.1402 17.5301C56.1402 15.8495 56.1634 14.1688 56.1278 12.4899C56.1154 11.8848 56.2363 11.5965 56.8441 11.6774C57.2254 11.728 57.6161 11.7027 58.0022 11.6842C58.4766 11.6589 58.9277 11.6387 58.8301 12.7124Z" fill="black"/>
<path d="M73.3939 24.5959C73.3939 24.0076 73.4311 23.4159 73.3831 22.831C73.3335 22.209 73.5862 22.0606 74.0962 22.0893C74.7396 22.123 75.3846 22.0994 76.0295 22.1028C77.397 22.1095 77.7008 22.4601 77.4853 23.9216C77.4156 24.3969 77.4063 24.7897 77.5675 25.2684C77.9907 26.5276 77.4977 27.2356 76.29 27.244C75.5164 27.2491 74.7427 27.2137 73.9691 27.244C73.5226 27.2626 73.3722 27.0822 73.3877 26.6136C73.411 25.941 73.3939 25.2684 73.3939 24.5959ZM75.3195 24.2115C75.6342 24.2115 75.8652 24.2014 76.0947 24.2132C76.5396 24.2385 76.6559 23.9755 76.6667 23.544C76.6807 22.9405 76.3009 22.8967 75.952 22.9995C75.4001 23.163 74.5257 22.4332 74.3195 23.5069C74.1211 24.547 74.9753 24.0902 75.3195 24.2115ZM75.5241 26.295C75.5241 26.2967 75.5241 26.2984 75.5241 26.3001C75.6792 26.3001 75.8326 26.295 75.9877 26.3018C76.3861 26.3186 76.7427 26.3742 76.7396 25.6983C76.7365 24.9954 76.3427 25.1285 75.966 25.1302C75.6063 25.1319 75.2451 25.1471 74.8854 25.1201C74.4761 25.0898 74.2792 25.2061 74.2807 25.7151C74.2823 26.2377 74.521 26.322 74.9071 26.2984C75.1117 26.2849 75.3179 26.295 75.5241 26.295Z" fill="black"/>
<path d="M81.6715 15.64C81.6715 14.546 81.6916 13.4521 81.6622 12.3581C81.6482 11.8658 81.7521 11.6534 82.2513 11.6754C83.8202 11.7411 83.5071 11.4832 83.5241 13.0407C83.5458 15.0315 83.5102 17.024 83.5396 19.0147C83.5474 19.5862 83.4203 19.861 82.8606 19.7733C82.6838 19.7446 82.4978 19.7463 82.3195 19.7733C81.8265 19.8458 81.6389 19.662 81.6575 19.0906C81.6994 17.941 81.6715 16.7897 81.6715 15.64Z" fill="black"/>
<path d="M86.5439 22.1023C86.9052 22.1023 87.2679 22.099 87.6292 22.1023C87.9346 22.104 88.2865 22.0299 88.2943 22.5541C88.3036 23.0716 87.9718 23.0311 87.6509 23.0278C87.0307 23.021 86.4106 23.0379 85.7905 23.016C85.3626 23.0008 85.1874 23.1761 85.1967 23.6532C85.2044 24.1319 85.4463 24.1959 85.7982 24.1892C86.3408 24.1774 86.8835 24.1723 87.4261 24.1976C88.0369 24.2263 88.3764 24.5702 88.3625 25.2663C88.3563 25.5748 88.3563 25.8833 88.3563 26.1935C88.3563 26.8475 88.0261 27.1998 87.4571 27.2251C86.5548 27.2622 85.6494 27.2419 84.7455 27.2453C84.4618 27.247 84.2401 27.1863 84.2292 26.7919C84.2168 26.335 84.4835 26.303 84.7889 26.303C85.4587 26.303 86.13 26.3047 86.7997 26.303C87.161 26.303 87.471 26.2541 87.4633 25.7215C87.4555 25.2141 87.1734 25.1247 86.7997 25.1231C86.2571 25.1197 85.7145 25.1163 85.1719 25.1113C84.5285 25.1045 84.2417 24.7134 84.2199 24.051C84.2106 23.7711 84.2246 23.4896 84.2277 23.2081C84.2339 22.49 84.561 22.1141 85.2277 22.1074C85.6664 22.099 86.1052 22.1023 86.5439 22.1023Z" fill="black"/>
<path d="M64.4925 22.12C64.8366 22.0542 65.0552 22.1908 65.2056 22.565C65.7405 23.9 66.3126 25.2182 66.8459 26.5533C66.9203 26.7387 67.1777 27.0455 66.8381 27.1905C66.5529 27.3118 66.2351 27.2815 66.0475 26.8938C65.8893 26.5651 65.8909 26.029 65.4366 26.0122C64.7452 25.9869 64.0444 26.024 63.3576 26.1133C63.1018 26.147 63.0041 26.5044 62.9483 26.7792C62.8444 27.2815 62.4894 27.3152 62.1685 27.1989C61.6786 27.0219 62.0677 26.6864 62.153 26.469C62.6491 25.2064 63.1933 23.9675 63.6847 22.7015C63.8475 22.2818 64.046 22.0357 64.4925 22.12ZM64.4708 23.0808C64.2661 23.541 64.1266 23.8394 63.9979 24.1428C63.6057 25.0648 63.632 25.0733 64.5731 25.1002C65.156 25.1171 65.3421 24.9586 65.0444 24.3569C64.863 23.9928 64.708 23.6118 64.4708 23.0808Z" fill="black"/>
<path d="M52.4464 24.5902C52.4449 23.9462 52.4542 23.3006 52.4418 22.6567C52.434 22.274 52.5518 22.1038 52.9332 22.1055C53.3363 22.1072 53.3906 22.3246 53.3875 22.687C53.3797 23.6394 53.42 24.5935 53.3921 25.5442C53.3751 26.1056 53.603 26.3062 54.0743 26.296C54.5642 26.2842 55.0541 26.2809 55.5425 26.2573C55.8556 26.2421 56.0231 26.3618 56.0417 26.7259C56.0603 27.0967 55.9006 27.235 55.5859 27.2333C54.6836 27.2282 53.7813 27.2232 52.879 27.2248C52.5379 27.2248 52.4402 27.0276 52.4433 26.6922C52.4542 25.9909 52.448 25.2897 52.4464 24.5902Z" fill="black"/>
<path d="M82.6312 10.511C82.0622 10.5885 81.6529 10.6458 81.639 9.75241C81.625 8.82023 82.1025 8.97532 82.6002 8.96857C83.1134 8.96183 83.5661 8.85058 83.5599 9.76252C83.5552 10.6745 83.1335 10.5986 82.6312 10.511Z" fill="black"/>
</svg>
