<svg width="124" height="66" viewBox="0 0 124 66" fill="none" xmlns="http://www.w3.org/2000/svg">
<rect x="14.8496" y="50.6692" width="63.003" height="8.77751" rx="3" fill="white"/>
<path d="M69.4811 26.6472C71.2347 24.8839 71.0884 24.9366 70.2184 22.5276C69.7386 21.1993 69.0325 21.0277 67.8583 21.0706C66.013 21.1388 65.5917 20.6571 65.5898 18.7748C65.5898 17.8326 65.5703 16.8905 65.5976 15.9484C65.6307 14.8307 66.1983 14.1422 67.2965 14.2904C69.1534 14.5401 69.8927 13.7462 70.5364 12.0726C71.0591 10.7131 70.944 9.96605 69.8888 9.06294C68.7146 8.0584 68.777 7.11238 69.8751 5.99471C70.5578 5.30031 71.2366 4.60006 71.9466 3.93102C72.8224 3.10398 73.7392 3.04547 74.4785 3.97393C75.5279 5.28861 76.4622 5.47391 78.085 4.7288C79.4894 4.08316 79.981 3.45118 79.8717 1.97071C79.7645 0.501937 80.3711 0.0221002 81.8652 0.018199C82.9692 0.0142979 84.0752 0.00454485 85.1792 0.0220999C86.2423 0.0396549 86.9601 0.595564 86.7923 1.63326C86.4744 3.61308 87.4731 4.35234 89.133 4.88094C90.6798 5.37443 90.6447 5.47976 91.8053 4.32503C93.1492 2.9889 93.7987 2.9889 95.1407 4.32893C95.7844 4.97262 96.4378 5.6046 97.0659 6.26194C97.9417 7.17675 98.0236 7.99598 97.0698 8.77621C95.7649 9.84121 95.4938 10.834 96.3423 12.4023C97.2883 14.15 97.1322 14.2358 99.116 14.2514C100.641 14.2631 101.078 14.7001 101.084 16.2332C101.088 17.306 101.1 18.3769 101.078 19.4497C101.059 20.4542 100.501 21.1857 99.5353 21.0413C97.5145 20.7409 96.6758 21.6635 96.1297 23.4678C95.6674 24.9951 95.4977 24.9444 96.6582 26.1089C98.1192 27.5737 98.1465 28.0438 96.6758 29.456C95.7688 30.326 95.0471 31.4046 93.8904 32.0035C93.0166 32.1614 92.4548 31.5061 91.7643 31.192H91.7487C91.6941 31.073 91.6414 30.956 91.5868 30.837C90.8319 29.4229 89.9854 28.1043 88.5381 27.2597C87.3658 26.575 86.0687 26.3059 84.793 25.9528C87.1317 25.4106 89.0472 24.2305 90.3853 22.2019C92.3729 19.1883 92.1642 15.4315 89.8293 12.4003C87.6584 9.58179 84.0869 8.75475 80.8841 9.68322C77.1702 10.7599 74.9973 14.1578 74.9719 17.5401C74.9466 20.9028 76.7977 24.3612 81.0908 25.7597C79.388 26.023 77.6735 25.8494 75.9648 25.8709C75.1553 25.8806 74.8998 26.1596 74.9154 26.9476C74.9407 28.3696 74.8744 29.7915 74.8471 31.2135C73.9147 31.9391 72.9609 32.3721 71.9154 31.4085C71.7867 30.6868 71.695 29.9554 71.5214 29.2434C71.2386 28.0809 70.2457 27.4489 69.4811 26.6492V26.6472Z" fill="#0C9CB0"/>
<path d="M123.297 33.2677C123.351 35.2612 123.316 35.3119 121.327 35.5401C120.683 35.6142 120.191 35.8073 120.119 36.5466C120.107 36.6734 120.068 36.808 120.006 36.9172C119.335 38.0797 119.495 38.9828 120.693 39.7455C121.377 40.1805 121.35 40.9178 120.858 41.54C120.314 42.2266 119.729 42.884 119.124 43.5159C118.43 44.2435 117.804 44.3137 117.117 43.5628C116.333 42.7084 115.719 42.6518 114.64 43.1824C113.442 43.7715 112.966 44.3839 113.269 45.6928C113.427 46.3735 113.002 46.8729 112.286 47.025C111.26 47.2396 110.218 47.2376 109.178 47.2044C108.591 47.1869 108.219 46.8319 108.106 46.2526C108.026 45.8391 107.942 45.4177 107.932 45.0003C107.92 44.4581 107.708 44.1401 107.16 44.066C107.064 44.0523 106.965 44.027 106.881 43.9821C105.623 43.3209 104.575 43.3618 103.684 44.6707C103.219 45.3514 102.469 45.1759 101.87 44.698C101.286 44.2318 100.733 43.7305 100.179 43.2292C99.3379 42.4665 99.2384 41.7565 100.05 40.9744C100.879 40.1746 101.031 39.4471 100.29 38.5479C100.149 38.3782 100.05 38.1519 99.9991 37.9354C99.8177 37.1747 99.3301 37.0245 98.6142 37.0928C96.8119 37.2644 96.5954 37.0654 96.3984 35.2943C96.3438 34.8126 96.2248 34.3347 96.2111 33.8548C96.1702 32.507 96.5213 32.1305 97.8184 31.8926C98.308 31.8028 98.9965 32.0798 99.2579 31.5454C99.6383 30.7671 99.8821 29.9088 100.081 29.0604C100.179 28.6449 99.7143 28.4089 99.4296 28.1553C98.1168 26.983 98.0973 26.6222 99.2891 25.3016C99.6363 24.9154 99.9582 24.5058 100.309 24.1235C101.125 23.2301 101.632 23.197 102.57 23.905C102.974 24.2113 103.288 24.8881 103.811 24.736C104.669 24.4843 105.467 24.0123 106.268 23.5949C106.547 23.4486 106.407 23.1268 106.395 22.8751C106.296 20.593 106.487 20.3882 108.802 20.2965C109.126 20.2828 109.452 20.2594 109.773 20.2224C111.047 20.0761 111.529 20.4642 111.623 21.7067C111.662 22.2139 111.507 22.8946 112.007 23.1424C112.808 23.5422 113.667 23.9148 114.576 23.985C115.026 24.0201 115.213 23.4798 115.494 23.1775C116.513 22.091 117.01 22.0579 118.106 23.039C118.566 23.4505 119.025 23.8621 119.489 24.2698C120.295 24.9759 120.334 25.4947 119.713 26.3686C119.386 26.8289 118.678 27.1839 118.861 27.812C119.103 28.641 119.557 29.4134 119.955 30.1917C120.068 30.414 120.347 30.3965 120.578 30.3497C122.85 29.8913 123.256 30.6267 123.299 32.8795C123.3 33.0102 123.299 33.139 123.299 33.2697L123.297 33.2677ZM109.851 27.338C106.321 27.3341 103.459 30.1644 103.434 33.6871C103.409 37.1922 106.403 40.1941 109.877 40.1454C113.325 40.0966 116.239 37.122 116.232 33.6617C116.224 30.2619 113.279 27.3419 109.851 27.338Z" fill="#4EC3CC"/>
<path d="M59.4494 37.8161C59.5859 40.0046 60.2471 40.7731 62.383 41.0852C63.6392 41.2686 64.909 41.2296 66.1495 40.9233C67.2458 40.6522 67.6398 39.9812 67.5325 38.7055C67.4525 37.7732 66.8088 37.1529 65.7867 37.0905C64.9772 37.0417 64.1658 37.0437 63.3544 37.0456C62.7497 37.0456 62.5039 36.7842 62.4649 36.1679C62.2835 33.322 62.2699 33.3298 65.0845 33.1445C65.8394 33.0957 66.5943 32.9533 67.0565 32.2726C67.7119 31.3071 67.2301 30.0099 66.0813 29.7174C64.4818 29.3116 62.8609 29.3643 61.2712 29.7603C60.5397 29.9417 59.9955 30.4508 59.8999 31.2427C59.7849 32.1965 59.2641 32.4715 58.3707 32.3916C57.6295 32.3272 56.8805 32.3604 56.1334 32.3662C55.5697 32.3701 55.361 32.1809 55.3805 31.5509C55.4254 30.1504 55.991 28.9879 56.7732 27.8877C58.4585 26.2103 60.5885 25.6817 62.8628 25.551C65.1469 25.4183 67.3686 25.7031 69.4791 26.6472C70.2438 27.445 71.2366 28.0769 71.5194 29.2414C71.693 29.9534 71.7847 30.6829 71.9134 31.4065C71.4004 33.2791 69.9843 34.0378 68.2405 34.426C67.905 34.5001 67.3764 34.4806 67.4096 35.0521C67.4428 35.6236 67.9811 35.4559 68.3108 35.5885C68.4297 35.6373 68.5624 35.651 68.6872 35.6841C70.1872 36.082 71.6013 36.6711 71.9271 38.3817C72.2996 40.3362 71.9602 42.1268 70.2164 43.4181C68.8062 44.4636 67.1853 44.8303 65.4883 45C63.3992 45.2087 61.3297 45.1112 59.3557 44.3661C57.3272 43.5995 55.9325 42.1912 55.3805 40.0358C55.2927 39.6925 55.1659 39.359 55.0567 39.0196C55.0567 38.8908 55.0665 38.7621 55.0509 38.6353C54.9124 37.4962 54.9241 37.4767 56.1139 37.4669C56.9175 37.4591 57.7192 37.4611 58.5229 37.465C58.874 37.465 59.2446 37.4318 59.4513 37.818L59.4494 37.8161Z" fill="#385B7E"/>
<path d="M32.1104 38.8148C31.5564 42.7881 28.9329 44.5007 25.3166 44.8752C23.7756 45.0352 22.2191 45.0137 20.6723 44.6899C17.4617 44.0189 15.0781 41.7972 15.0937 37.6406C15.1093 34.0087 15.0703 30.3787 15.0566 26.7467C15.0957 26.4659 15.1327 26.183 15.1717 25.9021L15.1912 25.8904C16.2289 25.8846 17.2705 25.9236 18.3043 25.8592C19.1255 25.8066 19.5449 26.0211 19.3986 26.9203C19.3576 27.17 19.4161 27.4372 19.4298 27.6947C19.4317 30.6342 19.4337 33.5756 19.4356 36.5151C19.381 36.8565 19.3713 37.192 19.5137 37.5177C19.5195 37.627 19.5254 37.7381 19.5312 37.8474C19.5195 37.8669 19.4942 37.8883 19.4981 37.9059C19.5059 37.9488 19.5273 37.9878 19.5449 38.0288C19.6892 39.8369 20.5202 40.8259 22.1898 41.1458C23.1534 41.3311 24.1248 41.333 25.0884 41.1458C26.6156 40.8493 27.5441 39.915 27.7216 38.4208C27.8445 37.3909 27.9264 36.3513 27.9362 35.3136C27.9615 32.1946 27.944 29.0777 27.942 25.9587C29.1358 25.7754 30.3354 25.9138 31.533 25.8826C32.2742 25.8631 32.126 26.4249 32.126 26.8482C32.1279 30.8371 32.1182 34.8259 32.1123 38.8148H32.1104Z" fill="white"/>
<path d="M52.9162 27.117C51.151 29.5474 49.3877 31.9798 47.6205 34.4082C47.2109 34.9719 47.1797 35.5532 47.5834 36.115C49.6061 38.9238 51.6406 41.7248 53.6731 44.5277L53.6809 44.6077C52.4189 44.6311 51.151 44.6057 49.8929 44.6955C49.0385 44.7559 48.5158 44.4146 48.0652 43.7436C46.8071 41.8652 45.4983 40.018 44.2441 38.1377C43.8442 37.5389 43.6277 37.5818 43.2356 38.1552C41.8663 40.1546 40.4463 42.1207 39.0536 44.1044C38.8683 44.3678 38.7571 44.6935 38.3514 44.676C36.8339 44.6155 35.3086 44.8184 33.7949 44.5667H33.8144C35.3125 42.4601 36.8066 40.3496 38.3144 38.2489C38.7844 37.5935 39.2994 36.9713 39.7714 36.3159C40.263 35.6351 40.263 34.9329 39.7675 34.2483C37.9067 31.6755 36.0439 29.1047 34.1831 26.5319C33.9685 26.1515 33.9217 25.8687 34.5108 25.8745C35.7338 25.8843 36.9587 25.9038 38.1798 25.8726C38.9385 25.8531 38.9893 26.6235 39.4574 26.9161C40.7565 28.7984 42.0672 30.671 43.3429 32.5689C43.6882 33.0818 43.8735 32.959 44.1602 32.5396C45.4944 30.5988 46.8461 28.6697 48.19 26.7367C48.6133 25.9409 49.3019 25.7985 50.1367 25.8609C50.9676 25.9233 51.8083 25.8628 52.6432 25.8804C52.9162 25.8862 53.281 25.7477 53.437 26.0462C53.5989 26.3583 53.1913 26.5221 53.0937 26.7796C53.0489 26.8966 52.9767 27.0059 52.9182 27.119L52.9162 27.117Z" fill="white"/>
<path d="M81.5725 46.7885C80.4392 46.65 80.0881 45.9634 80.2617 44.9121C80.5699 44.6643 80.9366 44.7404 81.2838 44.7443C82.6043 44.758 83.919 44.7131 85.2278 44.5219C85.2532 45.152 85.2766 45.7801 85.3019 46.4101C85.4092 46.6793 85.5068 46.9543 85.6257 47.2196C86.4859 49.1604 88.257 50.1591 90.4202 49.9269C92.363 49.7182 93.9098 48.1285 94.3291 45.9166C94.6451 44.245 93.584 42.2554 91.8968 41.362C91.5866 41.2255 91.2765 41.0909 90.9664 40.9544C91.4267 40.0825 91.5379 39.0682 92.0782 38.2275C92.5366 38.3972 92.993 38.5669 93.4514 38.7366C94.0112 39.3452 94.5281 39.0058 94.9397 38.5883C95.6302 37.8881 96.188 38.0871 96.742 38.721C97.0189 39.0389 97.2725 39.3783 97.5573 39.6885C98.1191 40.2951 98.0703 40.8705 97.4286 41.3464C96.8844 41.7502 96.6952 42.1559 96.9643 42.8347C97.2296 43.5018 97.2959 44.1943 98.3141 44.1572C99.1821 44.124 99.5937 44.6877 99.4845 45.5733C99.4532 45.8308 99.4045 46.0863 99.3752 46.3438C99.186 47.9413 99.186 47.9686 97.6119 47.912C97.1496 47.8964 96.9312 48.0778 96.8375 48.4543C96.6854 49.0589 95.8915 49.5173 96.4884 50.3014C97.4286 51.5381 97.4071 51.5537 96.2036 52.6129C96.0086 52.7845 95.8174 52.9601 95.6302 53.1395C95.0567 53.6876 94.4754 53.7598 93.978 53.0771C93.4455 52.3476 92.833 52.4568 92.086 52.6831C91.3721 52.8996 91.099 53.2702 91.0951 53.9978C91.0932 54.6863 90.6991 55.0706 89.9677 55.0296C89.6439 55.012 89.3181 55.0159 88.9944 55.0062C87.4905 54.9633 87.3286 54.8033 87.3715 53.2995C87.4007 52.2715 86.3884 52.4295 85.9086 51.9828C85.5711 51.6688 85.2883 51.8443 84.9762 52.0999C83.8624 53.0147 83.642 52.9874 82.6941 51.897C82.4385 51.6044 82.1694 51.3138 81.9645 50.9861C81.6856 50.5414 81.5764 49.9269 82.0504 49.6753C83.051 49.1448 82.9008 48.4504 82.577 47.6448C82.4931 47.4341 82.4307 47.2157 82.3605 46.9992C82.302 46.9426 82.2454 46.8841 82.1869 46.8275C81.984 46.8139 81.7792 46.8002 81.5764 46.7846L81.5725 46.7885Z" fill="#4EC3CC"/>
<path d="M4.39274 26.7485C4.38103 31.3596 4.37908 35.9707 4.34397 40.5838C4.34007 41.2158 4.53318 41.2997 5.132 41.2665C7.65992 41.128 10.1937 41.0812 12.7236 40.9603C13.3848 40.9291 13.5272 41.167 13.535 41.7853C13.5662 44.7736 13.5838 44.7756 10.5428 44.838C8.66056 44.877 6.77632 44.9062 4.89403 44.9414C3.74515 44.9296 2.59822 44.916 1.44934 44.9043C0.362884 44.4479 0.0683497 43.5584 0.0703003 42.47C0.0742014 36.9655 0.064448 31.461 0.0605469 25.9566C1.3089 25.7732 2.56311 25.9234 3.81342 25.8746C4.50392 25.8473 4.31471 26.3818 4.39664 26.7485H4.39274Z" fill="white"/>
<path d="M81.0885 25.7595C82.3251 25.7654 83.5637 25.781 84.7926 25.9526C86.0702 26.3057 87.3653 26.5749 88.5376 27.2595C89.9849 28.1041 90.8315 29.4227 91.5844 30.8368C91.5629 30.989 91.6078 31.1119 91.7463 31.1918H91.7619C91.9492 32.9746 92.5031 34.7262 92.2008 36.5539C92.1091 37.104 91.8185 37.6462 92.072 38.2255C91.5317 39.0662 91.4206 40.0805 90.9602 40.9524C89.63 43.0785 87.6774 44.202 85.2236 44.5219C83.9168 44.7131 82.6001 44.758 81.2796 44.7443C80.9344 44.7404 80.5657 44.6643 80.2575 44.912C78.8356 44.8964 77.4117 44.8457 75.9897 44.8769C75.1919 44.8945 74.9208 44.6117 74.9266 43.8119C74.9559 40.061 74.9383 36.312 74.9286 32.5611C74.9286 32.1105 74.8701 31.6619 74.8408 31.2113C74.8681 29.7894 74.9344 28.3674 74.9091 26.9455C74.8954 26.1574 75.149 25.8785 75.9585 25.8687C77.6672 25.8473 79.3817 26.0209 81.0846 25.7576L81.0885 25.7595ZM87.223 38.444C87.2795 38.3933 87.3341 38.3426 87.3907 38.2919C87.97 36.4154 87.9603 34.5058 87.4824 32.6333C87.063 30.9929 85.9922 29.9025 84.2054 29.7679C83.1736 29.6899 82.134 29.6801 81.0963 29.6762C79.3349 29.6704 79.3369 29.6821 79.3447 31.4103C79.3447 31.5722 79.3037 31.7321 79.3037 31.894C79.292 34.6502 79.2861 37.4083 79.2725 40.1644C79.2705 40.6696 79.45 40.968 80.0059 40.9544C81.1392 40.929 82.2744 40.9154 83.4077 40.8978C85.2275 41.087 86.9694 39.9674 87.2444 38.4323L87.223 38.4401V38.444Z" fill="#385B7E"/>
<path d="M33.9989 56.1698V56.6692H32.0893V53.7868H33.9989V54.2842H32.6926V54.9793H33.925V55.4427H32.6926V56.1698H33.9989ZM37.9162 56.6692H37.3389V53.7868H37.8423L39.1886 55.6644H39.2046V53.7868H39.7819V56.6692H39.2825L37.9342 54.7815H37.9162V56.6692ZM45.7446 55.4587C45.7446 56.2437 45.2692 56.7191 44.4662 56.7191C43.6053 56.7191 43.0779 56.1558 43.0779 55.219C43.0779 54.2961 43.6053 53.7368 44.4522 53.7368C45.1254 53.7368 45.6328 54.1343 45.7186 54.7176H45.1134C45.0255 54.416 44.7798 54.2362 44.4542 54.2362C43.9788 54.2362 43.6932 54.5978 43.6932 55.211C43.6932 55.8362 43.9968 56.2178 44.4762 56.2178C44.8697 56.2178 45.1434 55.9761 45.1553 55.6185L45.1573 55.5726H44.5301V55.1331H45.7446V55.4587ZM49.6519 56.6692H49.0487V53.7868H49.6519V56.6692ZM53.6131 56.6692H53.0358V53.7868H53.5392L54.8855 55.6644H54.9015V53.7868H55.4788V56.6692H54.9794L53.6311 54.7815H53.6131V56.6692ZM60.7744 56.1698V56.6692H58.8647V53.7868H60.7744V54.2842H59.468V54.9793H60.7005V55.4427H59.468V56.1698H60.7744Z" fill="#FAFAFA"/>
<path d="M29.1267 63.8445H28.8799V62.2548H29.1267V63.8445ZM29.6599 63.8445H29.4197V62.2548H29.6434L30.4674 63.427H30.4762V62.2548H30.7164V63.8445H30.4938L29.6698 62.6734H29.6599V63.8445ZM31.698 62.2284C32.1551 62.2284 32.4427 62.5445 32.4427 63.0502C32.4427 63.5558 32.1551 63.8709 31.698 63.8709C31.2397 63.8709 30.9532 63.5558 30.9532 63.0502C30.9532 62.5445 31.2397 62.2284 31.698 62.2284ZM31.698 62.4454C31.3961 62.4454 31.2055 62.6789 31.2055 63.0502C31.2055 63.4203 31.3961 63.6539 31.698 63.6539C31.9998 63.6539 32.1893 63.4203 32.1893 63.0502C32.1893 62.6789 31.9998 62.4454 31.698 62.4454ZM33.3427 63.8445H33.0728L32.5055 62.2548H32.7732L33.2061 63.5669H33.2127L33.6468 62.2548H33.9101L33.3427 63.8445ZM34.9677 63.8445L34.8223 63.4148H34.2163L34.0709 63.8445H33.8142L34.3882 62.2548H34.6548L35.2288 63.8445H34.9677ZM34.516 62.5192L34.2791 63.2165H34.7595L34.5226 62.5192H34.516ZM35.827 63.8445H35.5802V62.4674H35.0933V62.2548H36.3128V62.4674H35.827V63.8445ZM36.7612 63.8445H36.5144V62.2548H36.7612V63.8445ZM37.7417 62.2284C38.1988 62.2284 38.4864 62.5445 38.4864 63.0502C38.4864 63.5558 38.1988 63.8709 37.7417 63.8709C37.2834 63.8709 36.9969 63.5558 36.9969 63.0502C36.9969 62.5445 37.2834 62.2284 37.7417 62.2284ZM37.7417 62.4454C37.4398 62.4454 37.2492 62.6789 37.2492 63.0502C37.2492 63.4203 37.4398 63.6539 37.7417 63.6539C38.0435 63.6539 38.233 63.4203 38.233 63.0502C38.233 62.6789 38.0435 62.4454 37.7417 62.4454ZM38.9623 63.8445H38.7221V62.2548H38.9458L39.7698 63.427H39.7786V62.2548H40.0188V63.8445H39.7962L38.9722 62.6734H38.9623V63.8445ZM41.4091 63.8445H40.7712V62.2548H41.4058C41.6878 62.2548 41.8729 62.4112 41.8729 62.6514C41.8729 62.8199 41.7484 62.9709 41.5897 62.9973V63.0061C41.8057 63.0304 41.9511 63.1835 41.9511 63.395C41.9511 63.6748 41.7473 63.8445 41.4091 63.8445ZM41.018 62.4564V62.9312H41.2945C41.5082 62.9312 41.6261 62.8431 41.6261 62.6855C41.6261 62.5379 41.5247 62.4564 41.3463 62.4564H41.018ZM41.018 63.6429H41.3584C41.5809 63.6429 41.6988 63.5514 41.6988 63.3796C41.6988 63.2077 41.5776 63.1196 41.3441 63.1196H41.018V63.6429ZM42.839 63.8445H42.5922V63.1934L42.0326 62.2548H42.308L42.7134 62.9565H42.7211L43.1266 62.2548H43.3998L42.839 63.1934V63.8445ZM45.0699 63.8445L44.9245 63.4148H44.3185L44.1731 63.8445H43.9164L44.4904 62.2548H44.757L45.331 63.8445H45.0699ZM44.6182 62.5192L44.3813 63.2165H44.8617L44.6248 62.5192H44.6182ZM45.7397 62.2548V63.265C45.7397 63.492 45.8829 63.6517 46.1363 63.6517C46.3897 63.6517 46.534 63.492 46.534 63.265V62.2548H46.7796V63.2859C46.7796 63.6286 46.5351 63.8709 46.1363 63.8709C45.7375 63.8709 45.4929 63.6286 45.4929 63.2859V62.2548H45.7397ZM47.7139 63.8445H47.4671V62.4674H46.9801V62.2548H48.1997V62.4674H47.7139V63.8445ZM48.994 62.2284C49.4512 62.2284 49.7387 62.5445 49.7387 63.0502C49.7387 63.5558 49.4512 63.8709 48.994 63.8709C48.5357 63.8709 48.2493 63.5558 48.2493 63.0502C48.2493 62.5445 48.5357 62.2284 48.994 62.2284ZM48.994 62.4454C48.6921 62.4454 48.5015 62.6789 48.5015 63.0502C48.5015 63.4203 48.6921 63.6539 48.994 63.6539C49.2958 63.6539 49.4853 63.4203 49.4853 63.0502C49.4853 62.6789 49.2958 62.4454 48.994 62.4454ZM51.5829 63.8445H51.357V62.6745H51.3493L50.8701 63.8324H50.6872L50.2069 62.6745H50.1992V63.8445H49.9745V62.2548H50.2598L50.7743 63.5096H50.7831L51.2964 62.2548H51.5829V63.8445ZM52.9115 63.8445L52.7661 63.4148H52.1601L52.0147 63.8445H51.758L52.332 62.2548H52.5986L53.1726 63.8445H52.9115ZM52.4598 62.5192L52.2229 63.2165H52.7033L52.4664 62.5192H52.4598ZM53.7708 63.8445H53.524V62.4674H53.0371V62.2548H54.2566V62.4674H53.7708V63.8445ZM54.705 63.8445H54.4582V62.2548H54.705V63.8445ZM55.6854 62.2284C56.1426 62.2284 56.4302 62.5445 56.4302 63.0502C56.4302 63.5558 56.1426 63.8709 55.6854 63.8709C55.2272 63.8709 54.9407 63.5558 54.9407 63.0502C54.9407 62.5445 55.2272 62.2284 55.6854 62.2284ZM55.6854 62.4454C55.3836 62.4454 55.193 62.6789 55.193 63.0502C55.193 63.4203 55.3836 63.6539 55.6854 63.6539C55.9873 63.6539 56.1768 63.4203 56.1768 63.0502C56.1768 62.6789 55.9873 62.4454 55.6854 62.4454ZM56.9061 63.8445H56.6659V62.2548H56.8896L57.7136 63.427H57.7224V62.2548H57.9626V63.8445H57.74L56.916 62.6734H56.9061V63.8445Z" fill="white"/>
</svg>
