<svg width="92" height="70" viewBox="0 0 92 70" fill="none" xmlns="http://www.w3.org/2000/svg">
<path d="M27.0522 21.8763C26.1479 20.0571 26.5167 18.4463 28.2003 17.0643C29.9839 15.5985 32.0758 14.9053 34.2116 14.3548C35.8993 13.9198 37.6017 13.5392 39.3374 13.4259C39.8791 13.3897 40.1333 13.145 40.2854 12.6013C41.0876 9.73314 41.5315 6.81517 41.4585 3.80658C41.4439 3.22434 41.3085 2.9774 40.7563 3.0431C40.448 3.08162 40.1312 3.06349 39.8208 3.04537C38.9123 2.98873 38.3268 2.39743 38.3143 1.53201C38.2997 0.655259 38.856 0.0390415 39.7937 0.0231829C41.8419 -0.0107997 43.8901 0.0073244 45.9384 0.00505889C47.9866 0.00279339 50.0348 -0.00626864 52.0831 0.0073244C53.1811 0.0141209 53.8187 0.571436 53.8354 1.4799C53.8521 2.42462 53.1707 3.02498 52.0497 3.04537C50.5912 3.07256 50.5828 3.07256 50.6266 4.70599C50.7016 7.50615 51.1829 10.2361 51.8726 12.9275C51.9726 13.3194 52.131 13.4463 52.5144 13.4644C55.9295 13.6366 59.2112 14.459 62.3179 16.0109C63.6556 16.6792 64.8746 17.5537 65.3976 19.1894C65.2621 19.2052 65.0246 19.1848 65.0058 19.2437C64.7225 20.1794 64.2016 20.1069 63.5535 19.7127C63.4577 19.6538 63.2452 19.826 63.0868 19.8917C62.743 19.4069 62.3138 19.024 61.8241 18.7385C59.1862 17.2138 56.3129 16.6475 53.2478 16.1717C54.448 18.9447 56.1108 21.1286 57.911 23.2061C57.1005 23.3806 56.2899 23.555 55.4773 23.7294C53.5083 21.183 51.7768 18.4757 50.6057 15.3765C49.2597 11.8129 48.5534 8.11331 48.6721 4.26195C48.7034 3.247 48.4221 2.95022 47.5157 3.02725C46.5155 3.11333 45.5008 3.11333 44.5007 3.02725C43.6401 2.95475 43.488 3.32403 43.4942 4.17359C43.5401 10.184 42.0044 15.6846 38.8498 20.628C38.1622 21.7063 37.3642 22.7032 36.6161 23.7385C35.8306 23.5641 35.0471 23.3874 34.2616 23.2129C35.9723 21.0833 37.7059 18.9719 38.8331 16.2148C38.3122 16.2782 37.9372 16.3008 37.5704 16.3688C35.0826 16.8355 32.6072 17.3634 30.3693 18.7091C29.7401 19.0874 28.9233 19.4114 29.0754 20.5034C29.0441 20.5192 29.015 20.5419 28.9837 20.5532C28.4711 20.7322 28.0106 20.2678 27.5085 20.4059C26.6834 20.6393 27.646 21.55 27.0522 21.8763Z" fill="white"/>
<path d="M0.0130343 51.8494C0.0130343 49.7379 0.0338708 47.6265 0.000532432 45.515C-0.00988582 44.8127 0.127635 44.5273 0.852745 44.5363C4.31994 44.5794 7.78921 44.5477 11.2585 44.559C12.6733 44.5635 13.7172 45.5898 13.786 47.1213C13.8464 48.5123 13.8443 49.9124 13.788 51.3034C13.7276 52.8236 12.7129 53.8521 11.2647 53.877C9.04566 53.9155 6.82449 53.9223 4.6054 53.8816C3.88446 53.868 3.62608 54.0945 3.66359 54.8942C3.71776 56.0225 3.65109 57.1552 3.68234 58.2857C3.69901 58.8566 3.54899 59.056 2.98849 59.0854C0.0130345 59.244 0.015118 59.2644 0.015118 56.0315C0.0130343 54.6382 0.0130343 53.2449 0.0130343 51.8494ZM6.78698 50.6328C7.61627 50.6328 8.44765 50.6011 9.27694 50.6396C10.3313 50.6895 10.1812 49.9101 10.1917 49.1942C10.2021 48.4443 10.2542 47.7262 9.24152 47.7534C7.99758 47.7873 6.75156 47.7624 5.50762 47.7624C3.55732 47.7624 3.58233 47.7624 3.6615 49.9011C3.68443 50.5173 3.88862 50.6645 4.40328 50.6419C5.19507 50.6102 5.99102 50.6351 6.78698 50.6328Z" fill="white"/>
<path d="M46.0254 40.313C44.1876 40.3152 42.3477 40.3243 40.5099 40.313C34.6507 40.2767 30.2751 34.0941 31.719 27.9252C31.8691 27.2818 32.1149 26.9578 32.7129 27.2886C33.163 27.5378 34.0506 27.1911 33.7818 28.4326C32.7088 33.3828 35.6821 37.8322 40.3537 38.052C44.1959 38.2332 48.059 38.2242 51.9013 38.0316C56.3769 37.8073 59.4128 33.342 58.3877 28.6184C58.1043 27.3112 58.8982 27.5128 59.4566 27.2636C60.2421 26.9148 60.29 27.5332 60.4151 28.1087C61.759 34.2301 57.4188 40.279 51.6471 40.313C49.7718 40.322 47.8986 40.313 46.0254 40.313Z" fill="white"/>
<path d="M40.9304 59.0603C39.8198 59.0603 38.7092 59.0671 37.6007 59.058C35.9525 59.0444 34.9024 58.0227 34.8378 56.242C34.7753 54.5111 34.7815 52.7712 34.8357 51.0381C34.8878 49.382 36.0025 48.2334 37.5299 48.2085C39.3343 48.179 41.1387 48.1768 42.9411 48.2085C44.5455 48.2379 45.5977 49.416 45.6144 51.1446C45.6248 52.0485 45.5582 52.9593 45.6311 53.8587C45.6998 54.7014 45.3769 54.851 44.6914 54.8351C42.889 54.7875 41.0846 54.8192 39.2801 54.8079C38.8363 54.8056 38.455 54.783 38.4612 55.483C38.4675 56.1196 38.7092 56.3734 39.2655 56.3711C40.9658 56.3666 42.6661 56.4096 44.3642 56.3553C45.0998 56.3326 45.429 56.4799 45.3915 57.3906C45.3102 59.4228 45.579 59.024 43.8454 59.0603C42.8744 59.0807 41.9034 59.0648 40.9304 59.0648C40.9304 59.0648 40.9304 59.0625 40.9304 59.0603ZM40.3219 52.4812C40.6324 52.4812 40.9429 52.5084 41.2492 52.4744C41.6888 52.4246 42.3243 52.7893 42.2972 51.7676C42.2722 50.9044 41.9243 50.662 41.2096 50.7028C40.5574 50.7413 39.9031 50.7209 39.2489 50.7187C38.5988 50.7164 38.4842 51.1378 38.455 51.7472C38.4196 52.488 38.7905 52.5198 39.2905 52.4835C39.6323 52.4608 39.9781 52.4812 40.3219 52.4812Z" fill="white"/>
<path d="M83.338 51.8309C82.5087 54.153 81.7107 56.1104 81.1231 58.1403C80.796 59.2686 80.1146 59.0012 79.427 59.076C78.7394 59.1485 78.3789 58.9129 78.1247 58.1653C77.0996 55.1635 76.0244 52.1821 74.9242 49.212C74.6534 48.478 74.6013 48.2197 75.4931 48.1653C76.662 48.0951 77.2933 48.4326 77.6517 49.733C78.1456 51.5251 78.8686 53.2423 79.5124 55.0457C79.9604 54.8032 80.0125 54.3773 80.1417 54.0284C80.7189 52.4539 81.3523 50.8975 81.8169 49.2822C82.1003 48.3012 82.6171 48.1925 83.4214 48.1698C84.2152 48.1472 84.5715 48.4349 84.832 49.2369C85.48 51.2215 86.2218 53.1675 87.0115 55.3628C87.6928 53.5187 88.3033 51.8626 88.9118 50.2065C89.0264 49.8916 89.1285 49.5722 89.2431 49.2573C89.5744 48.3511 90.9767 47.7824 91.7726 48.2174C92.1206 48.4077 91.9247 48.6683 91.8476 48.8857C90.7079 52.0801 89.5473 55.2654 88.42 58.4666C88.0408 59.5404 87.2407 58.897 86.6406 59.0533C86.1259 59.1893 85.8426 58.9265 85.6529 58.3692C84.9487 56.2939 84.1944 54.2346 83.338 51.8309Z" fill="white"/>
<path d="M22.1353 58.1195C21.4685 59.1571 20.5725 59.1072 19.6599 59.071C18.7952 59.037 17.9263 59.0891 17.0616 59.0506C15.7697 58.994 14.7487 57.9201 14.73 56.5313C14.6966 54.0076 14.73 51.4815 14.7091 48.9578C14.7029 48.3665 14.8925 48.2124 15.428 48.1897C18.2826 48.0697 18.2826 48.0538 18.2826 51.1553C18.2826 52.5123 18.3284 53.8716 18.268 55.2241C18.2263 56.1394 18.5597 56.3818 19.3536 56.3909C22.2103 56.4203 22.2103 56.4453 22.2124 53.3415C22.2124 51.9097 22.2436 50.4779 22.2144 49.0461C22.2019 48.4299 22.3603 48.2056 22.9687 48.1852C25.8546 48.0878 25.8546 48.0651 25.8587 51.2187C25.8608 53.5545 25.8442 55.8902 25.8692 58.2282C25.8754 58.8399 25.7421 59.1276 25.1211 59.08C24.4314 59.0257 23.7334 59.0279 23.0437 59.08C22.4416 59.1231 22.0915 58.969 22.1353 58.1195Z" fill="white"/>
<path d="M46.0804 16.6926C48.1536 16.7175 49.2746 19.0396 48.0557 21.0242C46.8596 22.9748 46.7263 24.9843 47.2305 27.1637C47.4785 28.2421 48.1432 29.0033 48.7578 29.8121C49.7351 31.0898 49.7747 32.533 49.2037 33.9512C48.6349 35.3603 47.4368 36.0105 46.0887 36.0083C44.6489 36.006 43.457 35.3014 42.8945 33.7473C42.3923 32.3585 42.4402 30.9652 43.3862 29.8166C45.7053 27.0029 45.7553 24.069 44.0259 20.9064C42.9445 18.9263 44.0821 16.6699 46.0804 16.6926Z" fill="white"/>
<path d="M60.59 44.5514C60.1232 45.7068 59.7128 46.7308 59.2939 47.7526C57.8812 51.1894 56.4414 54.6148 55.0683 58.0697C54.7557 58.8558 54.3619 59.2093 53.5931 59.0665C53.4576 59.0416 53.3118 59.0371 53.1784 59.0665C52.0178 59.3248 51.5115 58.7176 51.0677 57.5804C49.482 53.5296 47.788 49.5287 46.1024 45.5256C45.794 44.7938 45.7502 44.5084 46.6462 44.531C48.4277 44.5786 48.4173 44.5356 49.1674 46.3661C50.4593 49.522 51.7678 52.671 53.1597 56.0398C54.2828 53.3529 55.3225 50.8745 56.356 48.3937C56.7415 47.4671 57.179 46.5587 57.477 45.6004C57.7458 44.7327 58.2 44.4223 59.0127 44.5378C59.4815 44.6058 59.967 44.5514 60.59 44.5514Z" fill="white"/>
<path d="M70.2456 59.0649C69.308 59.0649 68.3704 59.0808 67.4348 59.0627C65.8679 59.031 64.8927 58.0002 64.8698 56.3146C64.8448 54.5792 64.8386 52.8439 64.8636 51.1085C64.8907 49.3482 65.9304 48.2403 67.5557 48.2132C68.9434 48.1905 70.3332 48.1882 71.7209 48.2132C73.3461 48.2426 74.3775 49.3686 74.415 51.1289C74.4338 52.0713 74.3942 53.016 74.4296 53.9585C74.4525 54.5588 74.2421 54.731 73.7045 54.722C71.8646 54.6925 70.0248 54.7356 68.1849 54.697C67.5369 54.6835 67.2264 54.8352 67.2785 55.6236C67.3264 56.3214 67.3389 56.8878 68.2162 56.8629C69.881 56.8198 71.55 56.9036 73.2128 56.8289C74.0483 56.7904 74.1983 57.137 74.1629 57.9367C74.1316 58.6345 74.1837 59.1782 73.2628 59.0899C72.2647 58.9902 71.252 59.0649 70.2456 59.0649ZM69.5518 52.6354C69.5518 52.6377 69.5518 52.6377 69.5518 52.64C70.0706 52.64 70.5915 52.6015 71.1041 52.649C71.7292 52.7079 72.0001 52.4791 71.9292 51.7723C71.8688 51.1674 72.0834 50.4152 71.1229 50.4424C70.2248 50.4673 69.3247 50.49 68.4308 50.4266C67.5744 50.3654 67.3098 50.7256 67.2598 51.6499C67.2014 52.7419 67.7598 52.6717 68.4099 52.6377C68.7913 52.6196 69.1726 52.6354 69.5518 52.6354Z" fill="white"/>
<path d="M63.0892 19.8957C63.2476 19.83 63.4622 19.6578 63.5559 19.7167C64.206 20.1109 64.7249 20.1834 65.0082 19.2477C65.027 19.1888 65.2645 19.2092 65.4 19.1934C65.8959 21.1326 65.1624 22.6619 63.133 23.9396C60.47 25.6183 57.5134 26.2572 54.5337 26.7647C52.9293 27.0365 51.3103 27.2291 49.6767 27.3061C48.4474 27.365 48.6037 26.4747 48.4995 25.6795C48.389 24.8231 48.6703 24.472 49.5038 24.4743C51.5187 24.4811 53.5086 24.1661 55.4797 23.7334C56.2902 23.559 57.1008 23.3845 57.9113 23.2101C59.3178 22.8182 60.6763 22.2903 61.9369 21.4951C62.5141 21.1326 63.0538 20.7248 63.0892 19.8957Z" fill="white"/>
<path d="M30.504 49.5838C31.4146 47.9186 32.5731 48.2358 33.6524 48.195C34.1671 48.1746 34.3754 48.3196 34.3942 48.9404C34.4546 50.891 34.4838 50.8819 32.6981 50.8865C30.3519 50.891 30.4811 50.5557 30.4853 53.3332C30.4873 54.9893 30.4686 56.6454 30.4978 58.3015C30.5082 58.886 30.3332 59.0581 29.7893 59.0808C26.8889 59.2122 26.8889 59.2281 26.8889 56.0586C26.8889 53.7999 26.9201 51.5412 26.8722 49.2847C26.8555 48.4714 27.0181 48.084 27.8349 48.1928C28.3474 48.2607 28.8725 48.2268 29.3913 48.2018C30.0289 48.1679 30.6353 48.1407 30.504 49.5838Z" fill="white"/>
<path d="M27.0527 21.8766C27.6466 21.5504 26.6839 20.6397 27.5132 20.4109C28.0154 20.2727 28.478 20.7371 28.9884 20.5581C29.0197 20.5468 29.0489 20.5264 29.0801 20.5083C30.5053 22.0987 32.4035 22.6175 34.2663 23.2178C35.0519 23.3923 35.8353 23.5667 36.6209 23.7434C38.6295 24.1399 40.6444 24.4616 42.6905 24.482C43.324 24.4888 43.8657 24.6202 43.6657 25.4743C43.4969 26.1924 43.9053 27.3682 42.5488 27.2889C38.2524 27.0329 34.0121 26.4575 30.0365 24.5228C28.8405 23.9383 27.6862 23.2405 27.0527 21.8766Z" fill="white"/>
<path d="M50.0775 65.551C50.0775 64.7604 50.1275 63.9652 50.0629 63.179C49.9963 62.3431 50.3359 62.1437 51.0214 62.1822C51.8861 62.2275 52.7529 62.1958 53.6197 62.2003C55.4575 62.2094 55.8659 62.6806 55.5763 64.6448C55.4825 65.2837 55.47 65.8116 55.6867 66.455C56.2555 68.1473 55.5929 69.0988 53.9698 69.1101C52.93 69.1169 51.8903 69.0694 50.8505 69.1101C50.2505 69.1351 50.0483 68.8926 50.0692 68.2628C50.1004 67.3589 50.0775 66.455 50.0775 65.551ZM52.6654 65.0345C53.0884 65.0345 53.3988 65.0209 53.7072 65.0368C54.3052 65.0707 54.4615 64.7173 54.4761 64.1374C54.4948 63.3263 53.9844 63.2674 53.5155 63.4056C52.7738 63.6253 51.5986 62.6444 51.3215 64.0875C51.0547 65.4853 52.2028 64.8714 52.6654 65.0345ZM52.9404 67.8347C52.9404 67.8369 52.9404 67.8392 52.9404 67.8415C53.1488 67.8415 53.3551 67.8347 53.5635 67.8437C54.099 67.8664 54.5782 67.9411 54.574 67.0327C54.5699 66.088 54.0406 66.2669 53.5343 66.2692C53.0509 66.2715 52.5654 66.2919 52.082 66.2556C51.5319 66.2148 51.2673 66.3711 51.2694 67.0553C51.2714 67.7576 51.5923 67.8709 52.1112 67.8392C52.3862 67.8211 52.6633 67.8347 52.9404 67.8347Z" fill="white"/>
<path d="M61.204 53.5161C61.204 52.0458 61.2311 50.5755 61.1915 49.1051C61.1728 48.4436 61.3124 48.1582 61.9833 48.1876C64.092 48.276 63.6711 47.9293 63.694 50.0227C63.7232 52.6982 63.6752 55.3761 63.7148 58.0516C63.7252 58.8196 63.5544 59.1889 62.8022 59.0711C62.5647 59.0326 62.3146 59.0349 62.075 59.0711C61.4124 59.1685 61.1603 58.9216 61.1853 58.1536C61.2415 56.6085 61.204 55.0612 61.204 53.5161Z" fill="white"/>
<path d="M67.7526 62.2019C68.2381 62.2019 68.7257 62.1974 69.2112 62.2019C69.6217 62.2042 70.0946 62.1045 70.1051 62.8091C70.1176 63.5046 69.6717 63.4502 69.2404 63.4457C68.4069 63.4366 67.5734 63.4593 66.74 63.4298C66.1649 63.4094 65.9294 63.645 65.9419 64.2862C65.9524 64.9296 66.2774 65.0157 66.7504 65.0066C67.4797 64.9908 68.2089 64.984 68.9382 65.0179C69.7592 65.0565 70.2155 65.5186 70.1967 66.4543C70.1884 66.8689 70.1884 67.2834 70.1884 67.7003C70.1884 68.5793 69.7446 69.0528 68.9799 69.0868C67.7672 69.1366 66.5504 69.1094 65.3356 69.114C64.9543 69.1162 64.6563 69.0347 64.6417 68.5046C64.6251 67.8906 64.9835 67.8476 65.3939 67.8476C66.2941 67.8476 67.1963 67.8498 68.0964 67.8476C68.5819 67.8476 68.9987 67.7819 68.9882 67.066C68.9778 66.384 68.5986 66.264 68.0964 66.2617C67.3672 66.2572 66.6379 66.2526 65.9086 66.2458C65.0439 66.2368 64.6584 65.7112 64.6292 64.8208C64.6167 64.4448 64.6355 64.0664 64.6397 63.6881C64.648 62.723 65.0876 62.2178 65.9836 62.2087C66.5733 62.1974 67.163 62.2019 67.7526 62.2019Z" fill="white"/>
<path d="M38.1175 62.2223C38.5801 62.134 38.8739 62.3175 39.076 62.8204C39.7949 64.6147 40.5637 66.3863 41.2805 68.1806C41.3805 68.4298 41.7264 68.8421 41.2701 69.037C40.8867 69.2001 40.4596 69.1593 40.2074 68.6382C39.9949 68.1965 39.997 67.476 39.3865 67.4534C38.4572 67.4194 37.5154 67.4692 36.5923 67.5893C36.2485 67.6346 36.1172 68.1149 36.0422 68.4842C35.9026 69.1593 35.4255 69.2046 34.9941 69.0483C34.3357 68.8104 34.8587 68.3596 34.9733 68.0673C35.6401 66.3705 36.3714 64.7053 37.032 63.0039C37.2507 62.4398 37.5175 62.1091 38.1175 62.2223ZM38.0884 63.5137C37.8133 64.1321 37.6258 64.5331 37.4529 64.9409C36.9257 66.1802 36.9611 66.1915 38.2259 66.2277C39.0093 66.2504 39.2594 66.0374 38.8593 65.2287C38.6155 64.7393 38.4072 64.2273 38.0884 63.5137Z" fill="white"/>
<path d="M21.9266 65.5435C21.9246 64.678 21.9371 63.8104 21.9204 62.9449C21.91 62.4307 22.0683 62.2019 22.5809 62.2041C23.1227 62.2064 23.1956 62.4986 23.1914 62.9857C23.181 64.2657 23.2352 65.548 23.1977 66.8258C23.1748 67.5802 23.4811 67.8498 24.1145 67.8362C24.7729 67.8203 25.4313 67.8158 26.0877 67.7841C26.5086 67.7637 26.7336 67.9245 26.7586 68.4139C26.7836 68.9123 26.569 69.0981 26.146 69.0958C24.9334 69.089 23.7207 69.0822 22.508 69.0845C22.0496 69.0845 21.9183 68.8194 21.9225 68.3686C21.9371 67.4261 21.9287 66.4837 21.9266 65.5435Z" fill="white"/>
<path d="M62.4941 46.6224C61.7294 46.7266 61.1793 46.8037 61.1606 45.6029C61.1418 44.3501 61.7836 44.5585 62.4524 44.5495C63.1421 44.5404 63.7505 44.3909 63.7422 45.6165C63.736 46.8422 63.1692 46.7402 62.4941 46.6224Z" fill="white"/>
</svg>
