<svg width="34" height="33" viewBox="0 0 34 33" fill="none" xmlns="http://www.w3.org/2000/svg">
<circle cx="17.0291" cy="16.1814" r="16.0799" fill="#021443"/>
<path d="M12.687 19.6616C12.4494 19.8992 12.4494 20.2844 12.687 20.522C12.9246 20.7596 13.3098 20.7596 13.5474 20.522L12.687 19.6616ZM21.5482 12.2692C21.5482 11.9331 21.2758 11.6607 20.9398 11.6607L15.464 11.6607C15.128 11.6607 14.8556 11.9331 14.8556 12.2692C14.8556 12.6052 15.128 12.8776 15.464 12.8776H20.3314V17.745C20.3314 18.081 20.6038 18.3534 20.9398 18.3534C21.2758 18.3534 21.5482 18.081 21.5482 17.745L21.5482 12.2692ZM13.5474 20.522L21.37 12.6994L20.5096 11.8389L12.687 19.6616L13.5474 20.522Z" fill="#FFFFFD"/>
</svg>
