<svg width="500" height="589" viewBox="0 0 500 589" fill="none" xmlns="http://www.w3.org/2000/svg">
<path d="M495.291 175.547C494.561 175.547 493.84 175.718 493.182 176.047C492.524 176.377 491.945 176.857 491.489 177.452L453.865 148.483C454.323 147.744 454.52 146.86 454.42 145.986C454.32 145.112 453.93 144.301 453.319 143.695C452.707 143.089 451.911 142.725 451.069 142.666C450.228 142.608 449.393 142.858 448.709 143.374L395.81 76.2102C396.351 75.6987 396.729 75.028 396.896 74.287C397.063 73.5459 397.01 72.7694 396.745 72.0603C396.48 71.3512 396.014 70.743 395.41 70.3162C394.806 69.8894 394.092 69.6641 393.363 69.6702C392.985 69.6758 392.611 69.741 392.252 69.8634L378.719 33.6085C379.524 33.2481 380.221 32.6689 380.739 31.9312C381.256 31.1936 381.575 30.3245 381.661 29.4147C381.747 28.5048 381.597 27.5876 381.228 26.7586C380.858 25.9297 380.283 25.2193 379.56 24.7018C378.838 24.1842 377.996 23.8783 377.122 23.816C376.248 23.7537 375.374 23.9373 374.592 24.3477C373.809 24.7581 373.146 25.3801 372.672 26.149C372.198 26.9179 371.93 27.8054 371.897 28.7189H317.14C317.088 27.7918 316.709 26.9174 316.077 26.2636C315.445 25.6099 314.604 25.223 313.715 25.1773C312.826 25.1316 311.952 25.4302 311.262 26.0159C310.571 26.6016 310.112 27.4329 309.973 28.3503L227.063 19.8966C227.067 19.847 227.067 19.7971 227.063 19.7474C227.062 18.8561 226.758 17.994 226.206 17.3138C225.654 16.6336 224.89 16.1792 224.048 16.0309C223.206 15.8827 222.34 16.0502 221.605 16.5039C220.87 16.9576 220.312 17.6681 220.031 18.5097L178.563 6.28132C178.759 5.41429 178.734 4.50889 178.492 3.65494C178.249 2.80098 177.796 2.02816 177.179 1.41313C176.561 0.798104 175.8 0.362254 174.972 0.148818C174.143 -0.0646171 173.275 -0.048218 172.454 0.196387C171.634 0.440991 170.889 0.905299 170.293 1.54325C169.697 2.1812 169.272 2.97062 169.058 3.83319C168.845 4.69577 168.852 5.60151 169.078 6.46057C169.303 7.31963 169.741 8.10215 170.346 8.7305L139.106 44.3445C138.471 43.7831 137.667 43.4724 136.835 43.4667C136.166 43.4634 135.508 43.6545 134.937 44.0187C134.366 44.3829 133.903 44.9057 133.6 45.5288C133.297 46.1519 133.166 46.8506 133.222 47.5468C133.278 48.243 133.518 48.9093 133.916 49.4711L69.5614 104.652C68.9787 103.999 68.1928 103.582 67.3434 103.475C66.494 103.369 65.636 103.581 64.9218 104.072C64.2077 104.564 63.6836 105.304 63.4428 106.161C63.2019 107.017 63.2598 107.935 63.6062 108.752L27.2021 128.415C26.5866 127.939 25.8726 127.62 25.1174 127.484C24.3623 127.348 23.5871 127.399 22.8543 127.633C22.1215 127.867 21.4516 128.277 20.8984 128.831C20.3452 129.384 19.9242 130.065 19.6693 130.82C19.4144 131.574 19.3328 132.38 19.4308 133.173C19.5289 133.966 19.8041 134.724 20.2341 135.386C20.6642 136.048 21.2371 136.595 21.9068 136.984C22.5765 137.373 23.3243 137.592 24.0899 137.624V186.783C23.202 186.839 22.365 187.235 21.7398 187.895C21.1145 188.556 20.7451 189.434 20.7023 190.361C20.6596 191.289 20.9465 192.2 21.5081 192.92C22.0697 193.64 22.8663 194.118 23.7451 194.262L15.6366 280.791H15.4936C14.609 280.793 13.7557 281.133 13.0951 281.747C12.4346 282.361 12.0126 283.207 11.909 284.124C11.8054 285.041 12.0273 285.965 12.5329 286.723C13.0384 287.481 13.7925 288.019 14.6525 288.235L5.55985 339.211C5.33391 339.18 5.10642 339.163 4.87853 339.159C4.06363 339.162 3.26232 339.377 2.54727 339.785C1.83223 340.193 1.22607 340.781 0.783776 341.495C0.341485 342.209 0.0770526 343.027 0.014462 343.875C-0.0481287 344.723 0.093106 345.574 0.42535 346.351C0.757593 347.127 1.27034 347.805 1.91708 348.323C2.56382 348.84 3.3241 349.181 4.12896 349.314C4.93382 349.447 5.75779 349.368 6.52615 349.085C7.29452 348.802 7.98296 348.323 8.52903 347.691L41.9724 376.564C41.4585 377.289 41.2111 378.183 41.2754 379.082C41.3396 379.982 41.7111 380.828 42.3223 381.465C42.9335 382.103 43.7438 382.491 44.6057 382.558C45.4677 382.625 46.3241 382.367 47.0191 381.831L96.8477 445.149C96.2115 445.753 95.8028 446.574 95.6953 447.465C95.5878 448.355 95.7885 449.256 96.2613 450.006C96.7341 450.756 97.4478 451.304 98.274 451.553C99.1001 451.803 99.9844 451.736 100.767 451.364L121.207 492.711C120.459 493.158 119.837 493.803 119.404 494.581C118.971 495.359 118.743 496.242 118.742 497.142C118.742 498.041 118.969 498.925 119.4 499.704C119.832 500.482 120.453 501.128 121.201 501.576C121.948 502.024 122.796 502.258 123.658 502.254C124.52 502.251 125.366 502.01 126.11 501.555C126.854 501.101 127.47 500.45 127.895 499.668C128.321 498.885 128.541 498 128.533 497.1C128.533 497.039 128.533 496.968 128.533 496.907L175.586 492.922C175.711 493.817 176.141 494.635 176.796 495.226C177.452 495.818 178.29 496.143 179.156 496.143C180.023 496.143 180.861 495.818 181.516 495.226C182.172 494.635 182.602 493.817 182.727 492.922L259.043 500.726C259.038 500.784 259.038 500.843 259.043 500.901C259.033 501.839 259.358 502.747 259.955 503.448C260.552 504.149 261.377 504.594 262.271 504.694C263.164 504.795 264.061 504.545 264.788 503.993C265.514 503.441 266.018 502.627 266.201 501.709L326.333 512.506C326.302 512.718 326.288 512.932 326.291 513.147C326.289 514.023 326.503 514.884 326.912 515.649C327.321 516.413 327.911 517.055 328.626 517.513C329.341 517.971 330.157 518.23 330.995 518.264C331.834 518.298 332.666 518.107 333.413 517.709C334.161 517.31 334.797 516.718 335.262 515.989C335.727 515.26 336.004 514.419 336.068 513.546C336.131 512.673 335.979 511.797 335.625 511.003C335.271 510.21 334.727 509.524 334.046 509.012L354.057 477.313C354.601 477.654 355.222 477.836 355.857 477.84C356.526 477.843 357.183 477.652 357.755 477.288C358.326 476.924 358.789 476.401 359.092 475.778C359.395 475.155 359.525 474.456 359.47 473.76C359.414 473.064 359.173 472.398 358.776 471.836L423.13 416.637C423.624 417.195 424.268 417.585 424.977 417.756C425.687 417.926 426.429 417.869 427.107 417.592C427.785 417.315 428.367 416.831 428.777 416.203C429.187 415.576 429.406 414.833 429.405 414.074C429.404 413.527 429.286 412.987 429.06 412.494L476.609 385.983C477.047 386.752 477.67 387.388 478.417 387.827C479.163 388.266 480.007 388.493 480.864 388.484C481.721 388.476 482.561 388.233 483.3 387.78C484.039 387.327 484.651 386.679 485.074 385.902C485.498 385.124 485.719 384.244 485.715 383.35C485.71 382.456 485.481 381.578 485.05 380.805C484.619 380.032 484.001 379.391 483.257 378.945C482.514 378.5 481.672 378.266 480.815 378.267C480.493 378.266 480.171 378.301 479.856 378.372L469.468 334.357C470.251 334.111 470.93 333.593 471.394 332.891C471.857 332.188 472.078 331.341 472.019 330.49C471.96 329.639 471.626 328.834 471.07 328.208C470.515 327.582 469.772 327.171 468.964 327.045L477.038 240.516H477.181C478.02 240.512 478.832 240.204 479.478 239.646C480.124 239.087 480.564 238.312 480.724 237.453C480.884 236.593 480.753 235.703 480.354 234.933C479.955 234.163 479.312 233.561 478.536 233.23L493.937 185.554C494.38 185.684 494.839 185.752 495.299 185.756C496.564 185.701 497.759 185.139 498.635 184.186C499.511 183.233 500 181.963 500 180.643C500 179.322 499.511 178.052 498.635 177.099C497.759 176.146 496.564 175.584 495.299 175.529L495.291 175.547ZM450.383 150.089L444.899 234.362C444.476 234.366 444.057 234.45 443.662 234.608L416.797 169.709C417.398 169.399 417.904 168.92 418.258 168.326C418.611 167.732 418.799 167.046 418.799 166.347C418.798 165.8 418.68 165.26 418.454 164.767L447.792 148.369C448.073 148.842 448.451 149.243 448.899 149.544C449.347 149.845 449.854 150.037 450.383 150.107V150.089ZM121.24 424.494C121.239 423.975 121.135 423.462 120.934 422.987C120.732 422.513 120.439 422.087 120.071 421.737L150.125 383.49C150.48 383.877 150.91 384.181 151.387 384.38C151.863 384.58 152.376 384.671 152.889 384.646C153.402 384.622 153.904 384.484 154.362 384.241C154.819 383.997 155.222 383.654 155.542 383.235L194.89 426.609C194.36 427.201 194.026 427.955 193.939 428.76L121.24 424.494ZM404.701 314.377L361.804 355.1C361.504 354.792 361.153 354.543 360.769 354.363L378.349 306.784C378.753 306.927 379.175 307.004 379.602 307.012C380.431 307.011 381.239 306.741 381.914 306.239C382.589 305.737 383.098 305.029 383.37 304.212L404.592 310.91C404.31 311.448 404.162 312.052 404.163 312.666C404.188 313.267 404.349 313.854 404.634 314.377H404.701ZM398.09 393.725L314.482 388.704C314.468 388.334 314.376 387.971 314.212 387.642L356.37 359.937C356.679 360.395 357.083 360.775 357.552 361.048C358.021 361.322 358.542 361.482 359.078 361.517C359.614 361.553 360.15 361.462 360.648 361.253C361.146 361.043 361.593 360.719 361.955 360.306L398.754 391.908C398.383 392.442 398.154 393.069 398.09 393.725ZM322.388 415.513L265.124 413.214C265.125 412.569 265.005 411.931 264.771 411.335L309.982 390.012C310.189 390.403 310.492 390.728 310.86 390.955C311.229 391.182 311.648 391.302 312.076 391.303C312.4 391.296 312.72 391.225 313.018 391.092L324.079 412.652C323.602 412.96 323.201 413.38 322.908 413.878C322.614 414.376 322.436 414.939 322.388 415.522V415.513ZM261.44 467.771L207.81 401.626C208.292 401.473 208.715 401.166 209.021 400.748L255.426 412.274C255.287 413.014 255.306 413.777 255.483 414.507C255.66 415.238 255.99 415.919 256.45 416.501C256.909 417.082 257.486 417.551 258.139 417.872C258.793 418.193 259.506 418.359 260.229 418.358H260.279L262.761 466.762C262.25 466.989 261.798 467.338 261.44 467.78V467.771ZM197.514 425.407C196.665 425.403 195.842 425.714 195.193 426.285L155.727 382.875C155.994 382.423 156.169 381.918 156.24 381.392L204.655 399.51C204.704 400.111 204.961 400.673 205.379 401.091L198.296 425.521C198.029 425.456 197.755 425.421 197.48 425.415L197.514 425.407ZM117.994 420.754L122.082 331.838C122.875 331.739 123.62 331.39 124.218 330.837L151.134 377.494C150.526 377.803 150.013 378.283 149.653 378.88C149.294 379.478 149.101 380.168 149.099 380.874C149.102 381.694 149.365 382.49 149.847 383.139L119.735 421.456C119.212 421.067 118.6 420.828 117.96 420.763L117.994 420.754ZM97.9832 339.993L100.187 281.888C100.777 281.874 101.355 281.708 101.869 281.406L120.845 323.691C119.947 323.876 119.138 324.381 118.557 325.119C117.975 325.857 117.657 326.783 117.657 327.738C117.664 328.131 117.723 328.521 117.834 328.897L100.448 341.424C100.142 341.028 99.7639 340.7 99.3347 340.46C98.9055 340.221 98.4344 340.074 97.9495 340.028L97.9832 339.993ZM48.0621 280.747L113.342 215.155C113.496 215.291 113.665 215.406 113.847 215.497L112.838 218.517L100.507 274.4C100.38 274.4 100.263 274.4 100.136 274.4C99.3312 274.403 98.5498 274.686 97.9159 275.204C97.2821 275.722 96.8321 276.447 96.6374 277.262L48.9033 282.573C48.7892 281.895 48.4982 281.263 48.0621 280.747ZM87.5952 207.21L128.474 165.724C128.987 166.189 129.585 166.541 130.232 166.76L115.302 211.196C115.132 211.147 114.957 211.12 114.781 211.117C114.279 211.12 113.793 211.3 113.401 211.629C113.01 211.957 112.738 212.414 112.627 212.925L88.4364 209.897C88.441 209.821 88.441 209.744 88.4364 209.668C88.4479 208.77 88.1494 207.898 87.5952 207.21ZM92.9785 125.088L178.437 132.55C178.44 132.868 178.505 133.182 178.631 133.472L136.28 158.929C135.881 158.219 135.332 157.614 134.673 157.161C134.014 156.709 133.264 156.421 132.481 156.319C131.699 156.218 130.904 156.307 130.16 156.578C129.415 156.85 128.74 157.297 128.188 157.885L92.499 126.941C92.7997 126.38 92.9589 125.749 92.9617 125.106L92.9785 125.088ZM170.362 107.216C170.362 106.772 170.285 106.332 170.135 105.916L229.385 110.437C229.385 110.49 229.385 110.543 229.385 110.595C229.389 111.163 229.492 111.725 229.687 112.254L182.584 131.488C182.337 130.967 181.908 130.565 181.385 130.365C180.863 130.164 180.286 130.179 179.775 130.408L169.261 109.911C169.599 109.557 169.866 109.137 170.047 108.674C170.228 108.211 170.318 107.715 170.312 107.216H170.362ZM231.042 58.1091C231.549 58.1069 232.051 57.9933 232.514 57.7755L288.179 121.243C288.047 121.401 287.935 121.575 287.843 121.761L286.758 121.322L238.359 111.218C238.399 111.013 238.421 110.805 238.427 110.595C238.426 109.387 237.98 108.226 237.181 107.352C236.383 106.478 235.293 105.957 234.137 105.899L230.276 58.0213C230.511 58.0736 230.751 58.103 230.991 58.1091H231.042ZM295.237 95.9089C296.083 95.9105 296.902 95.5996 297.55 95.0311L338.252 140.415C337.979 140.814 337.785 141.264 337.68 141.741L291.889 123.394C291.943 123.194 291.971 122.987 291.973 122.78C291.972 122.282 291.816 121.798 291.527 121.402C291.239 121.006 290.834 120.719 290.375 120.585L294.757 95.8563C294.899 95.8818 295.042 95.8994 295.186 95.9089H295.237ZM376.229 103.16L369.147 189.101H369.105C368.661 189.102 368.225 189.216 367.834 189.434L342.887 145.955C343.358 145.697 343.768 145.333 344.087 144.89C344.407 144.446 344.628 143.934 344.734 143.39C344.84 142.846 344.829 142.285 344.702 141.746C344.574 141.207 344.333 140.705 343.997 140.275L374.589 102.458C375.07 102.832 375.634 103.074 376.229 103.16ZM394.347 181.288C394.439 181.288 394.524 181.288 394.616 181.288L390.764 240.481C390.341 240.482 389.923 240.562 389.527 240.718L370.459 194.666C371.105 194.322 371.6 193.732 371.839 193.017C372.079 192.303 372.046 191.519 371.746 190.83L391.495 179.795C391.83 180.255 392.261 180.629 392.755 180.887C393.249 181.146 393.794 181.283 394.347 181.288ZM359.28 353.977C358.649 353.972 358.028 354.14 357.48 354.465C356.931 354.79 356.473 355.259 356.153 355.826C355.833 356.393 355.661 357.039 355.655 357.697C355.648 358.355 355.808 359.004 356.118 359.577L313.96 387.273C313.765 387.01 313.522 386.789 313.245 386.624L333.584 341.16C334.274 341.458 335.024 341.573 335.767 341.496C336.51 341.419 337.223 341.151 337.843 340.717C338.463 340.282 338.971 339.695 339.321 339.007C339.671 338.318 339.853 337.55 339.85 336.771C339.856 335.833 339.589 334.914 339.085 334.138L376.498 305.388C376.89 305.894 377.388 306.299 377.953 306.573L360.407 354.223C360.048 354.074 359.667 353.99 359.28 353.977ZM260.195 408.131C259.129 408.133 258.092 408.497 257.243 409.168C256.393 409.84 255.776 410.782 255.485 411.853L209.223 400.353C209.381 400.02 209.464 399.654 209.467 399.282C209.462 399.062 209.431 398.844 209.374 398.633L253.609 381.954C253.841 382.472 254.235 382.892 254.727 383.146C255.218 383.399 255.778 383.47 256.313 383.348C256.849 383.225 257.328 382.916 257.673 382.471C258.018 382.026 258.207 381.472 258.21 380.9C258.209 380.762 258.195 380.623 258.168 380.488L309.654 388.634C309.649 388.687 309.649 388.739 309.654 388.792C309.657 389.073 309.705 389.352 309.797 389.617L264.586 410.94C264.178 410.098 263.555 409.39 262.787 408.895C262.018 408.399 261.132 408.135 260.229 408.131H260.195ZM156.273 380.918C156.273 380.918 156.273 380.874 156.273 380.847C156.273 379.844 155.892 378.882 155.212 378.172C154.532 377.463 153.61 377.064 152.648 377.064C152.241 377.071 151.837 377.148 151.454 377.292L124.521 330.521C125.087 329.866 125.435 329.038 125.513 328.159L170.632 352.326C170.427 352.701 170.317 353.124 170.312 353.555C170.317 354.052 170.462 354.535 170.729 354.946C170.996 355.356 171.373 355.675 171.814 355.863C172.254 356.05 172.737 356.098 173.203 356C173.669 355.902 174.097 355.662 174.433 355.311L205.438 397.447C205.001 397.869 204.732 398.445 204.681 399.063L156.273 380.918ZM100.885 274.436L113.199 218.614L114.209 215.62C114.379 215.666 114.554 215.69 114.73 215.69C114.874 215.69 115.018 215.675 115.159 215.646L130.686 269.476C130.296 269.705 129.982 270.053 129.787 270.474C129.592 270.896 129.527 271.369 129.598 271.831C129.67 272.292 129.875 272.72 130.187 273.055C130.499 273.391 130.902 273.618 131.342 273.707L122.317 323.7C122.07 323.651 121.82 323.625 121.568 323.621C121.459 323.621 121.358 323.621 121.249 323.621L102.231 281.212C102.801 280.791 103.242 280.205 103.499 279.526C103.757 278.848 103.82 278.106 103.681 277.391C103.542 276.676 103.207 276.019 102.716 275.499C102.226 274.979 101.602 274.618 100.919 274.462L100.885 274.436ZM131.78 167.005C133.143 167.005 134.45 166.44 135.414 165.434C136.378 164.428 136.919 163.064 136.919 161.642C136.921 160.835 136.745 160.04 136.406 159.315L178.765 133.858C178.948 134.12 179.18 134.341 179.447 134.508L158.99 180.208C158.457 179.977 157.885 179.858 157.308 179.857C156.52 179.854 155.744 180.068 155.061 180.479C154.378 180.889 153.811 181.481 153.418 182.195C153.025 182.908 152.82 183.717 152.823 184.54C152.827 185.363 153.039 186.17 153.439 186.88L116.429 211.977C116.22 211.695 115.949 211.469 115.639 211.319L130.569 166.865C130.975 166.974 131.393 167.03 131.813 167.032L131.78 167.005ZM233.809 115.292C234.832 115.293 235.826 114.931 236.626 114.266C237.427 113.601 237.988 112.672 238.216 111.631L286.556 121.717L287.608 122.139C287.554 122.339 287.526 122.546 287.523 122.753C287.523 122.919 287.54 123.083 287.574 123.245L239.899 139.222C239.557 138.31 238.931 137.545 238.121 137.051C237.312 136.557 236.366 136.363 235.437 136.5C234.508 136.638 233.651 137.098 233.005 137.807C232.358 138.516 231.96 139.432 231.874 140.407L182.752 132.62C182.752 132.62 182.752 132.541 182.752 132.497C182.747 132.286 182.716 132.077 182.66 131.874L229.763 112.632C230.129 113.437 230.707 114.117 231.43 114.592C232.152 115.068 232.989 115.319 233.842 115.318L233.809 115.292ZM341.154 146.35C341.606 146.348 342.054 146.259 342.474 146.086L367.439 189.583C367.093 189.843 366.806 190.179 366.598 190.567L321.345 168.524C321.429 168.279 321.475 168.021 321.48 167.76C321.48 167.15 321.248 166.565 320.834 166.134C320.421 165.703 319.861 165.46 319.276 165.46C318.904 165.463 318.539 165.566 318.216 165.759L291.165 124.5C291.398 124.297 291.587 124.046 291.721 123.763L337.604 142.145C337.582 142.281 337.568 142.419 337.562 142.557C337.558 143.057 337.648 143.553 337.828 144.016C338.009 144.479 338.275 144.9 338.612 145.255C338.949 145.611 339.35 145.892 339.792 146.085C340.234 146.277 340.709 146.376 341.187 146.376L341.154 146.35ZM125.539 327.677C125.535 327.494 125.518 327.312 125.488 327.132L149.46 312.332C149.789 312.965 150.274 313.494 150.866 313.863C151.459 314.233 152.135 314.428 152.825 314.43C153.355 314.43 153.88 314.314 154.364 314.088L172.028 351.159C171.581 351.305 171.184 351.583 170.884 351.958L125.539 327.677ZM231.866 140.907C231.88 141.955 232.254 142.963 232.919 143.749C233.584 144.535 234.496 145.046 235.491 145.191L237.476 156.138C237.2 156.221 236.943 156.361 236.719 156.55C236.495 156.738 236.309 156.971 236.172 157.235L182.643 133.226C182.645 133.179 182.645 133.132 182.643 133.086L231.866 140.907ZM358.809 249.101C358.801 249.227 358.801 249.353 358.809 249.479C358.808 250.032 359.013 250.564 359.381 250.962L338.252 287.305C338.149 287.252 338.042 287.208 337.932 287.173L344.468 252.735C344.907 252.803 345.354 252.772 345.78 252.644C346.206 252.515 346.601 252.293 346.938 251.992C347.274 251.69 347.545 251.317 347.731 250.897C347.917 250.477 348.015 250.02 348.017 249.557L358.809 249.101ZM375.85 304.133L325.223 325.868C325.016 325.486 324.702 325.18 324.323 324.99L336.671 291.632C336.862 291.692 337.06 291.725 337.259 291.729C337.697 291.73 338.125 291.595 338.488 291.34C338.85 291.085 339.132 290.722 339.295 290.298L375.75 301.815C375.666 302.148 375.621 302.49 375.615 302.834C375.626 303.277 375.705 303.716 375.85 304.133ZM331.203 338.702L296.961 356.593C296.906 356.508 296.844 356.429 296.776 356.356L322.127 328.598C322.488 328.899 322.936 329.063 323.398 329.064C323.675 329.063 323.95 329.004 324.206 328.891C324.461 328.778 324.693 328.613 324.886 328.405L331.674 334.023C331.206 334.69 330.916 335.474 330.833 336.296C330.75 337.118 330.878 337.949 331.203 338.702ZM309.931 387.651L257.781 365.705C257.879 365.363 257.93 365.008 257.932 364.651L293.26 358.392C293.379 358.849 293.639 359.253 293.999 359.541C294.359 359.83 294.799 359.987 295.253 359.99C295.543 359.988 295.829 359.925 296.095 359.806L310.705 386.703C310.377 386.948 310.111 387.274 309.931 387.651ZM255.603 378.39C255.208 378.427 254.828 378.565 254.496 378.791C254.165 379.018 253.892 379.326 253.702 379.689L217.634 363.264C217.684 363.12 217.718 362.969 217.735 362.817L250.009 364.634C250.011 365.724 250.428 366.769 251.167 367.539C251.907 368.309 252.909 368.742 253.954 368.742C254.535 368.742 255.109 368.61 255.636 368.356L255.603 378.39ZM207.036 396.763C206.766 396.763 206.498 396.814 206.245 396.912L183.593 344.136C183.9 343.957 184.167 343.712 184.376 343.416L213.159 361.368C213.001 361.71 212.917 362.085 212.915 362.465C212.918 362.997 213.083 363.513 213.385 363.941C213.687 364.368 214.112 364.685 214.597 364.844L207.406 396.798C207.283 396.776 207.16 396.764 207.036 396.763ZM172.692 351.036C172.597 351.027 172.501 351.027 172.406 351.036L154.734 313.842H154.886L180.624 340.388C180.257 340.832 180.054 341.399 180.052 341.985C180.053 342.323 180.117 342.656 180.243 342.967C180.369 343.277 180.553 343.559 180.784 343.794L174.476 351.87C174.255 351.612 173.986 351.405 173.685 351.261C173.384 351.117 173.057 351.041 172.726 351.036H172.692ZM124.866 325.508L145.633 274.857C145.958 275.021 146.315 275.108 146.676 275.111C146.786 275.111 146.886 275.111 146.987 275.111L152.463 306.424C151.513 306.522 150.631 306.985 149.989 307.723C149.347 308.461 148.991 309.422 148.989 310.418C148.989 310.952 149.092 311.481 149.292 311.972L125.429 326.702C125.313 326.278 125.135 325.875 124.899 325.508H124.866ZM132.184 269.23L135.17 218.938C135.288 218.932 135.406 218.918 135.523 218.895L146.012 270.169C145.632 270.267 145.28 270.459 144.987 270.729C144.694 271 144.468 271.341 144.329 271.723L133.832 272.206C133.913 271.975 133.955 271.732 133.958 271.486C133.96 270.959 133.788 270.447 133.471 270.036C133.154 269.625 132.711 269.341 132.217 269.23H132.184ZM116.9 213.11L168.344 200.477L136.717 215.014C136.478 214.763 136.186 214.573 135.865 214.459C135.543 214.346 135.201 214.312 134.865 214.361C134.528 214.409 134.208 214.539 133.928 214.739C133.648 214.939 133.416 215.205 133.252 215.515L116.951 213.469C116.951 213.469 116.951 213.469 116.951 213.417C116.953 213.314 116.948 213.211 116.934 213.11H116.9ZM161.783 184.545C161.783 184.25 161.754 183.956 161.699 183.667L199.045 174.133C199.045 174.133 199.045 174.204 199.045 174.247C199.049 174.499 199.091 174.748 199.171 174.985L172.062 198.142C171.69 197.746 171.193 197.505 170.663 197.465C170.133 197.424 169.608 197.587 169.185 197.923L160.479 187.898C160.906 187.461 161.244 186.939 161.474 186.363C161.703 185.787 161.82 185.168 161.817 184.545H161.783ZM182.483 133.63L236.004 157.586C235.93 157.809 235.891 158.043 235.886 158.28C235.891 158.491 235.922 158.7 235.979 158.903L202.738 172.509C202.336 172.125 201.811 171.911 201.266 171.912H201.055L181.802 134.437C182.101 134.231 182.346 133.95 182.517 133.621L182.483 133.63ZM236.013 145.226C236.566 145.225 237.115 145.109 237.626 144.886C238.137 144.663 238.6 144.337 238.99 143.927L273.779 165.539L240.235 158.517C240.24 158.441 240.24 158.364 240.235 158.288C240.235 157.678 240.003 157.093 239.59 156.662C239.176 156.231 238.616 155.988 238.031 155.988H237.829L235.861 145.165L236.013 145.226ZM289.761 125.106C289.958 125.101 290.153 125.068 290.341 125.009L310.057 178.654C309.633 178.878 309.288 179.238 309.073 179.681L276.219 166.514L289.273 125.053C289.433 125.089 289.597 125.106 289.761 125.106ZM319.276 170.087C319.38 170.096 319.484 170.096 319.587 170.087L329.361 211.758C329.285 211.781 329.211 211.813 329.143 211.854L312.32 182.569C312.592 182.364 312.814 182.096 312.971 181.786C313.127 181.476 313.212 181.133 313.22 180.783C313.229 180.433 313.159 180.085 313.018 179.768C312.876 179.451 312.666 179.172 312.404 178.953L318.225 169.841C318.553 170.001 318.914 170.076 319.276 170.06V170.087ZM296.473 356.048C296.113 355.746 295.665 355.581 295.203 355.583C294.961 355.584 294.722 355.632 294.496 355.724L287.153 339.984C287.524 339.68 287.781 339.251 287.883 338.771C287.984 338.291 287.922 337.789 287.708 337.35L321.463 327.694C321.549 327.922 321.671 328.133 321.825 328.317L296.473 356.048ZM217.76 362.378C217.748 361.923 217.617 361.481 217.381 361.099C217.145 360.717 216.814 360.409 216.423 360.209L221.335 346.849C221.57 346.934 221.818 346.978 222.067 346.98C222.474 346.979 222.875 346.87 223.231 346.662C223.587 346.455 223.887 346.157 224.102 345.795L250.623 362.369C250.282 362.918 250.071 363.544 250.009 364.195L217.76 362.378ZM155.214 313.543C155.886 313.001 156.365 312.24 156.575 311.382C156.786 310.523 156.715 309.615 156.374 308.803L169.059 303.589C169.415 303.9 169.864 304.071 170.329 304.071C170.452 304.08 170.576 304.08 170.699 304.071L181.533 339.659C181.303 339.761 181.09 339.9 180.902 340.072L155.214 313.543ZM327.881 213.856C327.881 214.157 327.938 214.455 328.049 214.734L323.238 217.42C322.913 216.859 322.455 216.396 321.909 216.074C321.362 215.753 320.745 215.584 320.117 215.585C319.897 215.586 319.677 215.609 319.461 215.655L311.756 182.815L311.975 182.719L328.798 212.003C328.515 212.214 328.284 212.492 328.125 212.814C327.965 213.136 327.882 213.493 327.881 213.856ZM184.889 341.863C184.885 341.535 184.819 341.211 184.695 340.909C184.57 340.608 184.391 340.335 184.165 340.107L198.094 322.392C198.549 322.659 199.061 322.801 199.583 322.805C200.343 322.804 201.076 322.507 201.636 321.971L220.401 342.661C220.086 342.995 219.867 343.415 219.77 343.873L184.889 341.863ZM308.812 180.682C308.814 181.273 309.038 181.84 309.435 182.262L294.353 200.908C294.049 200.742 293.712 200.655 293.369 200.653C292.991 200.654 292.619 200.76 292.293 200.96L273.72 180.261C274.381 179.541 274.8 178.617 274.915 177.627L308.812 180.682ZM341.961 250.909L305.01 272.855C304.944 272.77 304.871 272.691 304.792 272.618L316.383 255.184C316.837 255.486 317.36 255.654 317.897 255.673C318.435 255.692 318.967 255.56 319.44 255.291C319.912 255.022 320.306 254.626 320.582 254.144C320.858 253.663 321.006 253.112 321.009 252.551C321.009 252.551 321.009 252.472 321.009 252.428L341.751 250.075C341.8 250.362 341.879 250.641 341.987 250.909H341.961ZM324.794 287.243L303.766 307.223C303.44 306.918 303.031 306.727 302.596 306.679L303.951 275.269C304.17 275.26 304.385 275.2 304.578 275.092C304.772 274.984 304.94 274.831 305.069 274.646L324.516 285.18C324.419 285.434 324.367 285.705 324.365 285.979C324.375 286.438 324.525 286.881 324.794 287.243ZM321.429 326.246L276.437 314.658C276.437 314.562 276.437 314.465 276.437 314.369C276.441 314.325 276.441 314.281 276.437 314.237L300.401 309.374C300.516 309.837 300.775 310.248 301.137 310.541C301.499 310.835 301.944 310.996 302.403 310.998C302.953 310.999 303.481 310.775 303.875 310.374L321.69 325.693C321.576 325.862 321.488 326.048 321.429 326.246ZM283.974 337.368L256.292 336.262C256.27 335.502 256.02 334.768 255.577 334.164L273.317 316.23C273.663 316.454 274.066 316.563 274.473 316.543C274.881 316.522 275.272 316.373 275.596 316.115L285.059 336.306C284.586 336.511 284.201 336.889 283.974 337.368ZM253.954 360.508C253.485 360.509 253.021 360.598 252.583 360.771L231.731 326.535C232.067 326.307 232.354 326.008 232.572 325.658L249.757 334.673C249.484 335.193 249.34 335.775 249.336 336.367C249.336 337.336 249.705 338.265 250.361 338.949C251.017 339.634 251.907 340.019 252.835 340.019C252.971 340.013 253.105 339.998 253.239 339.975L254.29 360.543L253.954 360.508ZM222.1 341.933C221.599 341.933 221.11 342.099 220.704 342.407L201.896 321.681C202.225 321.284 202.45 320.807 202.552 320.294L227.408 323.955C227.408 323.955 227.408 324.016 227.408 324.051C227.411 324.585 227.553 325.107 227.82 325.562C228.087 326.017 228.468 326.387 228.922 326.632L222.765 342.047C222.55 341.973 222.326 341.934 222.1 341.933ZM183.408 339.642L199.701 290.597H199.869H200.046L199.785 316.475H199.558C198.917 316.474 198.292 316.683 197.772 317.073C197.251 317.463 196.861 318.015 196.658 318.649C196.454 319.283 196.446 319.968 196.636 320.606C196.826 321.245 197.204 321.805 197.716 322.208L183.82 339.87C183.715 339.786 183.603 339.712 183.484 339.65L183.408 339.642ZM172.247 301.649C172.19 301.286 172.041 300.946 171.814 300.665C171.588 300.383 171.292 300.171 170.96 300.051L173.769 270.968C174.071 270.938 174.365 270.845 174.632 270.694C174.9 270.543 175.135 270.338 175.325 270.09L198.624 287.41C198.285 287.764 198.095 288.244 198.094 288.744C198.096 288.899 198.118 289.053 198.162 289.201L172.247 301.649ZM148.157 270.652L178.934 241.279C179.138 241.468 179.384 241.604 179.648 241.674L174.232 266.307C174.027 266.24 173.815 266.205 173.601 266.201C172.991 266.201 172.406 266.454 171.974 266.903C171.542 267.352 171.298 267.961 171.296 268.598C171.292 268.683 171.292 268.768 171.296 268.852L148.729 271.381C148.583 271.103 148.389 270.856 148.157 270.652ZM168.117 235.714C168.071 235.453 167.98 235.203 167.847 234.977L195.865 224.592C196.023 224.911 196.221 225.206 196.454 225.47L181.314 238.637C181.125 238.442 180.896 238.294 180.644 238.206C180.392 238.118 180.123 238.091 179.86 238.129C179.596 238.166 179.345 238.266 179.124 238.421C178.904 238.576 178.721 238.782 178.589 239.023L168.117 235.714ZM172.718 199.793L211.241 197.44C211.297 197.802 211.436 198.145 211.645 198.44C211.854 198.735 212.128 198.973 212.444 199.134L201.291 219.5C200.683 219.095 199.977 218.879 199.255 218.877C198.718 218.877 198.186 218.998 197.697 219.231C197.208 219.464 196.773 219.805 196.421 220.229L172.381 200.916C172.582 200.584 172.698 200.203 172.718 199.81V199.793ZM208.987 183.992L238.157 186.265C238.167 186.489 238.206 186.711 238.275 186.924L215.447 196.211C215.258 195.678 214.881 195.24 214.394 194.987C213.906 194.734 213.344 194.685 212.823 194.85L208.045 185.528C208.289 185.357 208.498 185.137 208.66 184.881C208.822 184.624 208.933 184.337 208.987 184.035V183.992ZM238.898 160.386L260.532 204.498C260.41 204.553 260.295 204.621 260.187 204.7L242.052 187.599C242.311 187.265 242.475 186.861 242.524 186.434C242.573 186.006 242.506 185.573 242.331 185.184C242.155 184.795 241.878 184.465 241.531 184.232C241.184 184 240.782 183.874 240.37 183.869L238.486 160.509C238.625 160.497 238.763 160.471 238.898 160.43V160.386ZM270.575 181.621C271.622 181.617 272.633 181.221 273.426 180.507L291.931 201.171C291.534 201.526 291.271 202.018 291.191 202.558L263.534 205.867C263.437 205.568 263.283 205.292 263.08 205.056C262.878 204.821 262.632 204.631 262.357 204.498L269.431 181.455C269.801 181.58 270.186 181.651 270.575 181.665V181.621ZM309.78 182.499C309.913 182.595 310.057 182.675 310.209 182.736L297.482 227.102C297.239 227.05 296.991 227.023 296.742 227.023C296.65 227.023 296.557 227.023 296.465 227.023L293.84 205.077C294.251 204.989 294.63 204.779 294.93 204.473C295.23 204.167 295.44 203.777 295.535 203.35C295.63 202.924 295.605 202.477 295.465 202.065C295.324 201.652 295.072 201.29 294.74 201.022L309.78 182.499ZM316.155 255.026L304.607 272.443C304.434 272.339 304.242 272.274 304.044 272.251C303.846 272.228 303.646 272.248 303.455 272.31C303.265 272.372 303.089 272.474 302.938 272.61C302.788 272.746 302.665 272.913 302.58 273.101L298.475 271.758C298.475 271.662 298.475 271.574 298.475 271.486C298.479 270.973 298.314 270.475 298.008 270.073C297.701 269.672 297.272 269.393 296.793 269.283L296.868 234.704C297.355 234.689 297.834 234.571 298.276 234.358C298.718 234.146 299.115 233.842 299.442 233.467L315.76 250.409C315.474 250.729 315.256 251.108 315.12 251.523C314.984 251.937 314.933 252.376 314.971 252.812C315.009 253.248 315.135 253.671 315.341 254.052C315.546 254.434 315.827 254.766 316.164 255.026H316.155ZM252.802 332.707C252.205 332.709 251.619 332.872 251.101 333.18C250.582 333.487 250.148 333.929 249.841 334.462L232.656 325.447C232.871 325.028 232.986 324.561 232.993 324.086C232.992 323.855 232.961 323.624 232.9 323.402L254.98 315.545C255.171 315.857 255.447 316.103 255.772 316.252C256.097 316.402 256.457 316.447 256.807 316.383C257.156 316.32 257.48 316.149 257.737 315.894C257.995 315.638 258.174 315.309 258.252 314.948L272.316 314.606C272.346 314.894 272.432 315.173 272.568 315.427C272.704 315.68 272.887 315.902 273.106 316.08L255.443 333.953C255.114 333.56 254.708 333.245 254.252 333.029C253.797 332.814 253.302 332.704 252.802 332.707ZM200.037 316.475L200.332 290.535C200.714 290.436 201.054 290.208 201.299 289.886L228.148 322.058C227.754 322.509 227.504 323.077 227.433 323.682L202.586 320.022C202.595 319.887 202.595 319.752 202.586 319.618C202.588 318.864 202.332 318.133 201.865 317.558C201.398 316.982 200.751 316.598 200.037 316.475ZM175.519 269.95C175.758 269.559 175.886 269.105 175.889 268.642C175.887 268.225 175.779 267.816 175.577 267.457L189.178 254.623C189.685 255.052 190.317 255.287 190.97 255.29C191.179 255.289 191.388 255.265 191.593 255.22L199.701 286.927C199.394 286.964 199.103 287.089 198.86 287.287L175.519 269.95ZM196.622 225.75C197.091 226.226 197.671 226.565 198.305 226.734L191.769 249.452C191.498 249.356 191.214 249.306 190.928 249.303C190.26 249.307 189.614 249.555 189.103 250.005L181.499 240.981C181.701 240.677 181.81 240.315 181.81 239.945C181.813 239.555 181.692 239.175 181.465 238.865L196.622 225.75ZM293.395 205.297H293.596L296.212 227.243C295.341 227.374 294.545 227.833 293.975 228.533L263.509 207.518C263.6 207.265 263.649 206.998 263.652 206.728C263.651 206.572 263.637 206.416 263.61 206.262L291.199 202.979C291.199 202.979 291.199 203.032 291.199 203.058C291.225 203.648 291.467 204.205 291.876 204.614C292.285 205.022 292.829 205.251 293.395 205.253V205.297ZM275.672 312.683C275.305 312.373 274.848 312.203 274.377 312.2H274.2L269.624 300.727C270.259 300.503 270.811 300.077 271.202 299.508C271.593 298.94 271.803 298.258 271.803 297.558C271.801 297.065 271.691 296.578 271.483 296.136L284.588 290.728C284.869 291.393 285.346 291.947 285.951 292.308L275.672 312.683ZM258.294 314.72C258.294 314.667 258.294 314.606 258.294 314.544C258.293 314.055 258.109 313.586 257.781 313.236L266.47 300.165C266.855 300.529 267.323 300.784 267.83 300.907C268.336 301.03 268.864 301.016 269.363 300.867L273.922 312.279C273.454 312.374 273.031 312.634 272.724 313.016C272.418 313.399 272.247 313.879 272.24 314.377L258.294 314.72ZM230.2 321.189C229.508 321.189 228.841 321.462 228.333 321.953L201.417 289.745C201.501 289.604 201.563 289.45 201.602 289.289L230.495 302.834C230.422 303.072 230.382 303.321 230.377 303.571C230.375 304.116 230.545 304.646 230.86 305.08C231.175 305.514 231.618 305.828 232.121 305.973C232.624 306.119 233.158 306.088 233.642 305.886C234.127 305.683 234.534 305.32 234.801 304.853L254.686 314.184C254.673 314.304 254.673 314.424 254.686 314.544C254.686 314.826 254.747 315.105 254.862 315.361L232.833 323.165C232.656 322.58 232.306 322.069 231.833 321.706C231.359 321.343 230.788 321.147 230.2 321.145V321.189ZM191.828 255.141C192.279 254.995 192.687 254.734 193.016 254.381C193.345 254.028 193.585 253.595 193.712 253.122L212.082 255.983C212.049 256.157 212.032 256.333 212.032 256.51C212.032 257.027 212.166 257.535 212.419 257.98C212.672 258.425 213.035 258.791 213.47 259.038L200.71 287.076C200.473 286.948 200.212 286.876 199.945 286.866L191.828 255.141ZM293.445 232.571L279.474 241.859C279.262 241.551 278.982 241.3 278.659 241.126C278.336 240.952 277.978 240.86 277.615 240.858C277.327 240.861 277.042 240.918 276.774 241.025L262.719 208.501C263.013 208.271 263.25 207.969 263.408 207.623L293.815 228.595C293.413 229.145 293.166 229.8 293.1 230.489C293.035 231.177 293.154 231.871 293.445 232.492V232.571ZM257.613 313.061C257.292 312.802 256.899 312.661 256.494 312.657H256.385L254.282 296.417C254.635 296.29 254.957 296.083 255.224 295.811C255.667 295.341 255.925 294.714 255.947 294.055L265.452 296.759C265.389 297.026 265.355 297.3 265.351 297.575C265.351 298.466 265.686 299.32 266.285 299.954L257.613 313.061ZM193.687 251.445L217.617 240.033C217.783 240.302 218.001 240.533 218.257 240.708C218.514 240.883 218.803 241 219.106 241.051L215.447 253.71C215.233 253.651 215.012 253.618 214.791 253.613C214.187 253.614 213.6 253.821 213.12 254.203C212.64 254.585 212.293 255.121 212.133 255.729L193.754 252.823C193.795 252.636 193.815 252.444 193.813 252.252C193.816 251.965 193.779 251.678 193.704 251.401L193.687 251.445ZM236.492 207.553C236.579 207.562 236.666 207.562 236.753 207.553L240.958 225.601C240.352 225.772 239.816 226.147 239.433 226.667C239.05 227.187 238.841 227.825 238.839 228.481C238.837 228.872 238.912 229.261 239.058 229.622L221.394 237.935C221.261 237.623 221.066 237.345 220.822 237.118L235.718 207.386C235.955 207.502 236.214 207.556 236.475 207.544L236.492 207.553ZM259.943 208.317C260.277 208.642 260.701 208.849 261.154 208.907C261.607 208.965 262.067 208.872 262.466 208.641L276.53 241.121C276.081 241.367 275.721 241.758 275.504 242.236L244.424 229.376C244.512 229.092 244.56 228.796 244.567 228.498C244.569 227.741 244.292 227.011 243.793 226.461L259.943 208.317ZM265.511 296.522L255.939 293.792C255.915 293.132 255.654 292.505 255.207 292.036C254.775 291.595 254.205 291.33 253.601 291.29L252.288 281.011C252.693 280.957 253.075 280.786 253.392 280.518C253.708 280.25 253.947 279.894 254.08 279.492L264.233 282.599C264.224 282.705 264.224 282.81 264.233 282.915C264.231 283.177 264.28 283.436 264.375 283.677C264.47 283.919 264.61 284.139 264.786 284.324C264.963 284.509 265.173 284.656 265.404 284.756C265.635 284.857 265.883 284.908 266.133 284.908H266.251L267.597 294.389C267.117 294.549 266.68 294.825 266.32 295.194C265.961 295.563 265.689 296.015 265.528 296.513L265.511 296.522ZM232.774 301.043C232.466 301.045 232.16 301.107 231.874 301.227L221.604 280.027C222.045 279.755 222.388 279.338 222.58 278.842L251.397 292.352C251.175 292.664 251.023 293.024 250.95 293.405C250.877 293.786 250.886 294.179 250.976 294.556L234.995 302.658C234.828 302.187 234.528 301.779 234.135 301.489C233.741 301.199 233.273 301.04 232.791 301.034L232.774 301.043ZM219.442 241.06C220.019 241.058 220.571 240.817 220.977 240.391C221.384 239.965 221.612 239.388 221.612 238.786C221.608 238.575 221.577 238.366 221.52 238.163L239.184 229.824C239.305 230.077 239.461 230.31 239.646 230.517L216.574 254.324C216.317 254.088 216.017 253.909 215.691 253.797L219.358 241.051L219.442 241.06ZM266.091 280.94C265.684 280.942 265.289 281.08 264.963 281.334C264.637 281.589 264.399 281.946 264.283 282.354L254.139 279.237C254.173 279.073 254.19 278.905 254.189 278.737C254.186 278.33 254.082 277.931 253.887 277.578L266.588 269.844C266.714 270.053 266.882 270.231 267.079 270.367C267.276 270.503 267.498 270.594 267.732 270.634L266.251 280.949L266.091 280.94ZM251.616 292.045L251.548 292.133L222.639 278.579C222.702 278.362 222.736 278.138 222.74 277.912C222.74 277.912 222.74 277.859 222.74 277.833L249.773 278.711C249.773 279.321 250.006 279.906 250.419 280.337C250.832 280.768 251.393 281.011 251.977 281.011L253.306 291.246C252.666 291.279 252.061 291.564 251.616 292.045ZM216.793 254.482L239.84 230.684C240.086 230.919 240.371 231.106 240.681 231.237L231.605 256.782C231.406 256.718 231.199 256.686 230.991 256.686C230.513 256.685 230.048 256.846 229.665 257.143C229.282 257.44 229.001 257.859 228.863 258.336L217.583 256.58C217.583 256.58 217.583 256.528 217.583 256.501C217.585 255.746 217.301 255.02 216.793 254.482ZM262.399 251.656C262.391 251.767 262.391 251.878 262.399 251.989C262.4 252.43 262.519 252.862 262.744 253.236L252.844 261.233C252.389 260.656 251.815 260.193 251.166 259.879C250.517 259.564 249.808 259.406 249.092 259.416C248.589 259.415 248.089 259.501 247.612 259.67L245.829 251.875C246.254 251.68 246.62 251.366 246.886 250.968C247.152 250.57 247.307 250.103 247.334 249.619L262.399 251.656ZM266.487 269.616L253.76 277.359C253.558 277.071 253.293 276.838 252.987 276.678C252.682 276.518 252.344 276.435 252.002 276.437C251.83 276.44 251.658 276.46 251.489 276.498L249.807 269.256C250.65 269.119 251.443 268.747 252.101 268.18C252.76 267.614 253.26 266.872 253.55 266.035L266.344 268.545C266.331 268.662 266.331 268.78 266.344 268.896C266.342 269.144 266.391 269.389 266.487 269.616ZM244.802 252.059C245.089 252.06 245.373 252.009 245.644 251.91L247.427 259.705C246.683 260.006 246.023 260.498 245.509 261.134C244.995 261.771 244.642 262.532 244.483 263.348L233.228 259.442C233.255 259.309 233.269 259.174 233.271 259.038C233.273 258.571 233.138 258.115 232.884 257.73L242.758 250.918C242.985 251.268 243.289 251.556 243.645 251.758C244.001 251.96 244.398 252.069 244.802 252.077V252.059ZM233.111 259.714L244.382 263.629C244.345 263.867 244.325 264.108 244.323 264.349C244.323 265.667 244.825 266.931 245.717 267.862C246.61 268.794 247.821 269.318 249.084 269.318H249.563L251.245 276.604C250.928 276.718 250.64 276.907 250.404 277.157L232.825 260.381C232.953 260.176 233.05 259.951 233.111 259.714ZM242.237 249.408C242.239 249.864 242.355 250.312 242.573 250.707L232.665 257.537C232.437 257.257 232.149 257.038 231.824 256.896L240.975 231.325C241.224 231.402 241.481 231.443 241.741 231.448C241.896 231.444 242.051 231.426 242.203 231.395L244.592 246.775C243.955 246.824 243.36 247.122 242.926 247.611C242.492 248.1 242.252 248.742 242.254 249.408H242.237ZM230.974 261.382C231.292 261.383 231.607 261.313 231.897 261.177C232.188 261.041 232.446 260.841 232.656 260.592L250.253 277.332C250.009 277.663 249.858 278.058 249.816 278.474L222.731 277.596C222.678 277.216 222.54 276.854 222.33 276.539C222.12 276.223 221.843 275.963 221.52 275.779L229.889 261.101C230.227 261.294 230.607 261.391 230.991 261.382H230.974ZM266.428 268.291L253.643 265.78C253.779 265.316 253.847 264.834 253.845 264.349C253.845 263.306 253.53 262.289 252.945 261.443L262.836 253.446C263.049 253.731 263.32 253.962 263.631 254.122C263.941 254.282 264.282 254.366 264.628 254.368C264.758 254.367 264.888 254.352 265.015 254.324L267.664 267.158C267.386 267.223 267.127 267.362 266.914 267.56C266.701 267.758 266.539 268.009 266.445 268.291H266.428ZM262.424 251.401L247.326 249.312C247.308 248.625 247.035 247.974 246.563 247.495C246.092 247.016 245.46 246.748 244.802 246.748L242.447 231.325C242.947 231.193 243.403 230.923 243.768 230.543L263.004 250.321C262.731 250.625 262.537 250.996 262.441 251.401H262.424ZM217.541 256.852L228.779 258.608C228.697 259.041 228.736 259.489 228.893 259.899C229.05 260.309 229.317 260.662 229.662 260.917L221.251 275.612C220.812 275.419 220.326 275.376 219.863 275.489L215.699 259.214C216.191 259.043 216.626 258.73 216.955 258.313C217.284 257.895 217.493 257.389 217.558 256.852H217.541ZM266.495 280.975L267.984 270.661C268.409 270.662 268.819 270.495 269.131 270.194C269.443 269.893 269.634 269.479 269.666 269.037L294.143 271.302C294.139 271.363 294.139 271.425 294.143 271.486C294.145 271.716 294.181 271.944 294.252 272.162L267.891 282.24C267.782 281.924 267.599 281.643 267.358 281.422C267.116 281.201 266.825 281.047 266.512 280.975H266.495ZM294.202 271.038L269.7 268.773C269.674 268.326 269.486 267.906 269.173 267.6C268.86 267.293 268.447 267.122 268.018 267.123H267.917L265.259 254.254C265.818 254.084 266.293 253.698 266.588 253.174L294.513 270.239C294.364 270.482 294.264 270.754 294.219 271.038H294.202ZM264.628 249.601C264.097 249.605 263.585 249.804 263.181 250.163L243.911 230.35C244.1 230.126 244.253 229.871 244.365 229.595L275.436 242.456C275.356 242.699 275.313 242.954 275.31 243.211C275.315 243.62 275.419 244.022 275.613 244.378L266.403 250.523C266.195 250.242 265.929 250.013 265.624 249.853C265.32 249.694 264.985 249.608 264.645 249.601H264.628ZM214.816 259.416C215.049 259.415 215.281 259.383 215.506 259.319L219.653 275.586C219.184 275.748 218.775 276.059 218.486 276.477C218.196 276.894 218.039 277.396 218.038 277.912C218.039 278.156 218.076 278.399 218.147 278.632L201.324 287.673C201.202 287.488 201.048 287.328 200.87 287.199L213.639 259.161C214.009 259.335 214.41 259.422 214.816 259.416ZM201.509 287.91L218.248 278.895C218.428 279.338 218.729 279.715 219.113 279.981C219.498 280.246 219.949 280.388 220.41 280.387C220.753 280.387 221.092 280.306 221.402 280.15L231.672 301.35C231.193 301.612 230.814 302.036 230.596 302.553L201.678 288.99C201.682 288.911 201.682 288.832 201.678 288.753C201.685 288.46 201.627 288.168 201.509 287.902V287.91ZM235.096 302.913L251.077 294.81C251.2 295.178 251.401 295.511 251.666 295.785C251.974 296.103 252.356 296.334 252.774 296.454C253.193 296.574 253.634 296.579 254.055 296.469L256.149 312.657C255.84 312.721 255.553 312.87 255.317 313.087C255.081 313.305 254.904 313.583 254.803 313.895L234.961 304.589C235.116 304.262 235.197 303.901 235.197 303.536C235.19 303.322 235.156 303.109 235.096 302.904V302.913ZM268.573 294.222C268.323 294.223 268.075 294.255 267.833 294.319L266.478 284.873C266.913 284.784 267.303 284.539 267.584 284.182C267.865 283.825 268.018 283.377 268.018 282.915C268.019 282.761 267.999 282.607 267.959 282.459L294.37 272.408C294.461 272.62 294.583 272.815 294.732 272.987L270.6 294.977C270.03 294.484 269.313 294.214 268.573 294.213V294.222ZM294.648 270.038L266.756 252.955C266.891 252.653 266.96 252.323 266.958 251.989C266.957 251.539 266.835 251.097 266.604 250.716L275.79 244.571C276.126 245.067 276.632 245.41 277.204 245.527C277.775 245.645 278.368 245.529 278.86 245.203L295.295 269.511C295.066 269.645 294.861 269.82 294.69 270.029L294.648 270.038ZM259.749 208.123L243.65 226.233C243.129 225.734 242.448 225.455 241.741 225.452C241.623 225.452 241.514 225.452 241.404 225.452L237.199 207.351C237.463 207.222 237.686 207.018 237.842 206.761C237.999 206.504 238.082 206.207 238.082 205.902C238.086 205.841 238.086 205.779 238.082 205.718L259.32 206.297C259.312 206.394 259.312 206.491 259.32 206.587C259.293 207.139 259.461 207.683 259.791 208.115L259.749 208.123ZM235.533 207.246L220.645 236.96C220.286 236.697 219.857 236.556 219.417 236.557C218.867 236.558 218.338 236.778 217.937 237.171L202.359 225.127C202.787 224.473 203.016 223.699 203.015 222.906C203.01 222.476 202.939 222.049 202.805 221.642L235.003 206.464C235.119 206.764 235.318 207.021 235.575 207.202L235.533 207.246ZM199.213 226.865C199.79 226.865 200.36 226.726 200.878 226.46C201.395 226.194 201.847 225.807 202.199 225.329L217.769 237.364C217.429 237.767 217.241 238.285 217.239 238.822C217.243 239.166 217.321 239.504 217.466 239.813L193.586 251.225C193.444 250.852 193.23 250.512 192.958 250.227C192.686 249.942 192.362 249.717 192.005 249.566L198.54 226.83C198.778 226.852 199.018 226.849 199.255 226.821L199.213 226.865ZM287.532 285.979C287.005 285.972 286.484 286.099 286.015 286.349C285.545 286.599 285.141 286.964 284.837 287.413C284.533 287.863 284.339 288.383 284.27 288.928C284.202 289.474 284.262 290.028 284.445 290.544L271.306 295.969C271.157 295.683 270.967 295.423 270.743 295.197L294.858 273.25C295.017 273.399 295.195 273.523 295.388 273.619L288.945 286.365C288.53 286.118 288.067 285.971 287.591 285.935L287.532 285.979ZM296.28 269.3C295.99 269.3 295.704 269.363 295.438 269.484L279.036 245.081C279.468 244.732 279.763 244.232 279.868 243.674C279.974 243.115 279.881 242.536 279.608 242.043L293.563 232.764C293.869 233.332 294.31 233.808 294.843 234.148C295.376 234.488 295.984 234.679 296.608 234.704L296.549 269.247L296.28 269.3ZM259.27 206.139L237.939 205.551C237.865 205.3 237.734 205.072 237.556 204.885C237.379 204.699 237.161 204.56 236.921 204.48L240.058 188.556H240.286C240.573 188.557 240.858 188.499 241.123 188.384C241.389 188.27 241.63 188.101 241.833 187.889L260.027 204.91C259.684 205.213 259.437 205.617 259.32 206.069L259.27 206.139ZM239.697 188.398L236.559 204.331H236.475C236.252 204.333 236.031 204.385 235.829 204.486C235.627 204.586 235.449 204.731 235.306 204.91L215.531 197.554C215.558 197.404 215.572 197.251 215.573 197.098C215.571 196.896 215.542 196.695 215.489 196.501L238.309 187.178C238.444 187.473 238.637 187.734 238.876 187.945C239.116 188.155 239.395 188.31 239.697 188.398ZM213.403 199.389C213.841 199.391 214.269 199.258 214.633 199.004C214.998 198.751 215.281 198.389 215.447 197.967L235.113 205.279C235.025 205.487 234.979 205.711 234.978 205.938C234.97 206.01 234.97 206.084 234.978 206.157L202.754 221.344C202.484 220.673 202.041 220.093 201.476 219.667L212.663 199.248C212.899 199.342 213.15 199.389 213.403 199.389ZM180.12 241.736C180.535 241.737 180.937 241.578 181.247 241.288L188.884 250.269C188.399 250.814 188.13 251.53 188.13 252.274C188.13 253.018 188.399 253.735 188.884 254.28L175.333 267.053C175.107 266.763 174.819 266.531 174.492 266.377L179.934 241.718L180.12 241.736ZM275.907 312.841L286.22 292.431C286.753 292.713 287.352 292.831 287.947 292.774C288.542 292.716 289.109 292.485 289.584 292.106L301.057 307.205C300.838 307.406 300.662 307.653 300.542 307.93C300.421 308.207 300.359 308.508 300.359 308.812C300.354 308.905 300.354 308.999 300.359 309.093L276.454 313.956C276.366 313.538 276.161 313.156 275.865 312.859L275.907 312.841ZM302.395 306.644C301.978 306.648 301.573 306.786 301.234 307.039L289.761 291.94C290.124 291.623 290.416 291.227 290.616 290.779C290.817 290.332 290.921 289.844 290.922 289.35C290.916 288.746 290.758 288.154 290.462 287.634C290.167 287.115 289.745 286.686 289.239 286.392L295.699 273.61C295.908 273.684 296.126 273.723 296.347 273.724C296.801 273.722 297.242 273.571 297.609 273.292C297.976 273.013 298.25 272.621 298.391 272.171L302.462 273.505C302.458 273.584 302.458 273.663 302.462 273.742C302.465 274.11 302.595 274.464 302.828 274.74C303.062 275.016 303.383 275.195 303.732 275.243L302.395 306.644ZM318.006 249.356C317.246 249.371 316.519 249.685 315.97 250.233L299.56 233.265C300.092 232.599 300.389 231.762 300.401 230.895C300.398 230.302 300.26 229.718 299.997 229.192L316.887 221.194C317.16 221.738 317.556 222.205 318.039 222.555C318.522 222.905 319.079 223.128 319.663 223.205L318.006 249.356ZM316.492 219.404C316.493 219.875 316.578 220.343 316.744 220.782L299.838 228.788C299.37 228.066 298.677 227.536 297.878 227.287L310.604 182.912C310.745 182.944 310.889 182.958 311.033 182.956C311.142 182.956 311.243 182.956 311.344 182.956L319.049 215.805C318.304 216.041 317.65 216.519 317.183 217.17C316.716 217.82 316.459 218.608 316.45 219.421L316.492 219.404ZM269.027 181.358L261.961 204.393C261.794 204.347 261.622 204.324 261.448 204.322C261.275 204.327 261.104 204.351 260.935 204.393L239.276 160.22C239.524 160.054 239.738 159.839 239.907 159.588L266.621 175.002C266.343 175.578 266.184 176.209 266.156 176.853C266.128 177.497 266.231 178.14 266.458 178.74C266.685 179.339 267.032 179.882 267.475 180.332C267.917 180.782 268.446 181.128 269.027 181.349V181.358ZM238.065 160.588L239.949 183.921C239.505 184.004 239.095 184.228 238.777 184.562C238.46 184.897 238.249 185.326 238.174 185.791L209.021 183.561C209.012 183.144 208.893 182.736 208.676 182.385L236.475 159.868C236.678 160.097 236.924 160.279 237.198 160.403C237.471 160.527 237.767 160.59 238.065 160.588ZM206.825 185.949C207.114 185.949 207.4 185.889 207.667 185.774L212.419 195.044C212.061 195.226 211.759 195.508 211.544 195.858C211.328 196.207 211.209 196.612 211.199 197.027L172.684 199.371C172.668 199.258 172.642 199.147 172.608 199.038L204.891 184.738C205.077 185.105 205.355 185.412 205.696 185.625C206.037 185.839 206.428 185.951 206.825 185.949ZM170.522 202.022C170.824 202.021 171.123 201.955 171.399 201.829C171.676 201.702 171.924 201.517 172.129 201.285L196.151 220.598C195.699 221.261 195.458 222.057 195.462 222.871C195.466 223.33 195.546 223.784 195.697 224.214L167.578 234.634C167.308 234.333 166.961 234.12 166.577 234.02L170.455 202.022H170.522ZM166.039 238.347C166.589 238.348 167.117 238.124 167.511 237.724C167.906 237.324 168.135 236.779 168.15 236.206L178.437 239.445C178.391 239.601 178.365 239.764 178.362 239.928C178.363 240.295 178.471 240.653 178.673 240.955L147.82 270.397L147.677 270.318L164.979 238.058C165.302 238.249 165.668 238.349 166.039 238.347ZM148.922 271.802L171.397 269.283C171.528 269.74 171.787 270.145 172.141 270.447C172.495 270.749 172.927 270.934 173.382 270.977L170.581 299.946H170.329C169.84 299.944 169.368 300.135 169.008 300.481L148.594 274.084C148.894 273.656 149.055 273.14 149.057 272.61C149.056 272.334 149.011 272.061 148.922 271.802ZM172.305 302.131L198.313 289.613C198.53 290.03 198.891 290.344 199.322 290.491L183.047 339.484C182.855 339.428 182.657 339.398 182.458 339.396C182.282 339.397 182.107 339.421 181.936 339.466L171.103 303.887C171.437 303.736 171.726 303.493 171.938 303.184C172.15 302.875 172.277 302.511 172.305 302.131ZM223.152 342.205L229.3 326.808C229.588 326.92 229.893 326.98 230.2 326.983C230.601 326.979 230.997 326.887 231.361 326.711L252.196 360.947C251.704 361.204 251.268 361.566 250.917 362.009L224.329 345.444C224.448 345.144 224.508 344.821 224.506 344.496C224.511 344.02 224.386 343.551 224.147 343.146C223.907 342.74 223.562 342.414 223.152 342.205ZM254.677 360.578L253.617 339.896C254.323 339.717 254.957 339.313 255.432 338.74C255.906 338.168 256.198 337.455 256.267 336.701L283.822 337.807C283.786 337.971 283.766 338.139 283.764 338.307C283.764 338.565 283.81 338.821 283.898 339.062L257.133 362.211C256.544 361.36 255.665 360.776 254.677 360.578ZM285.841 336.139C285.659 336.143 285.479 336.17 285.303 336.218L275.798 315.949C276.079 315.666 276.28 315.307 276.378 314.913L321.354 326.5C321.341 326.632 321.341 326.764 321.354 326.895C321.341 327.015 321.341 327.136 321.354 327.255L287.473 336.973C287.279 336.714 287.032 336.504 286.749 336.36C286.466 336.215 286.156 336.14 285.841 336.139ZM323.347 324.727C322.816 324.735 322.31 324.959 321.934 325.35L304.11 310.032C304.343 309.678 304.467 309.259 304.464 308.829C304.461 308.364 304.317 307.912 304.052 307.539L325.08 287.568C325.372 287.838 325.73 288.018 326.114 288.086L323.347 324.727ZM326.476 283.785C326.13 283.783 325.789 283.872 325.485 284.044C325.181 284.215 324.923 284.464 324.735 284.768L305.28 274.234C305.34 274.077 305.372 273.911 305.372 273.742C305.369 273.553 305.335 273.366 305.271 273.189L342.214 251.243C342.473 251.644 342.811 251.982 343.206 252.235L327.225 283.899C326.984 283.812 326.73 283.773 326.476 283.785ZM341.692 249.479C341.688 249.522 341.688 249.566 341.692 249.61L320.941 251.972C320.828 251.325 320.524 250.731 320.071 250.273C319.619 249.815 319.041 249.516 318.418 249.417L320.1 223.249C320.904 223.249 321.685 222.971 322.321 222.459L342.617 247.126C342.316 247.431 342.076 247.797 341.913 248.201C341.749 248.605 341.666 249.04 341.667 249.479H341.692ZM308.888 180.252L274.999 177.223C274.999 177.162 274.999 177.109 274.999 177.048C274.998 176.252 274.799 175.471 274.421 174.78C274.044 174.089 273.501 173.512 272.846 173.106L276.05 166.882L308.922 180.05L308.888 180.252ZM272.492 172.896C271.51 172.395 270.383 172.298 269.334 172.623C268.286 172.948 267.393 173.672 266.832 174.651L240.126 159.228C240.159 159.145 240.187 159.06 240.21 158.973L273.788 165.996L275.672 166.751L272.492 172.896ZM236.257 159.526L208.424 182.078C208.12 181.733 207.721 181.496 207.283 181.398C206.844 181.301 206.388 181.348 205.976 181.534L202.965 175.661C203.278 175.271 203.456 174.783 203.469 174.274C203.483 173.766 203.332 173.268 203.04 172.861L236.139 159.342C236.166 159.407 236.2 159.468 236.24 159.526H236.257ZM201.282 176.504C201.789 176.505 202.28 176.322 202.67 175.986L205.623 181.735C205.319 181.944 205.07 182.228 204.898 182.562C204.727 182.896 204.637 183.27 204.638 183.649C204.639 183.882 204.676 184.113 204.748 184.334L172.465 198.634C172.437 198.564 172.403 198.496 172.364 198.432L199.39 175.354C199.578 175.7 199.851 175.989 200.18 176.19C200.509 176.392 200.884 176.5 201.266 176.504H201.282ZM170.06 201.961L166.182 233.958H166.039C165.633 233.963 165.236 234.088 164.895 234.318L137.331 217.104C137.358 216.962 137.372 216.818 137.373 216.674C137.375 216.223 137.246 215.782 137.003 215.409L168.613 200.872C168.764 201.146 168.967 201.384 169.21 201.571C169.453 201.759 169.731 201.891 170.026 201.961H170.06ZM137.256 217.508L164.592 234.573C164.197 234.989 163.973 235.55 163.97 236.135C163.97 236.454 164.037 236.768 164.167 237.056C164.296 237.344 164.484 237.599 164.718 237.803L147.315 270.169C147.112 270.113 146.903 270.084 146.693 270.081H146.516L135.96 218.78C136.242 218.669 136.5 218.498 136.717 218.28C136.934 218.061 137.105 217.798 137.222 217.508H137.256ZM148.367 274.4L168.781 300.78C168.529 301.132 168.394 301.56 168.394 302C168.395 302.45 168.537 302.888 168.798 303.246L156.181 308.417C155.852 307.797 155.371 307.279 154.787 306.916C154.203 306.554 153.538 306.36 152.858 306.354L147.374 274.989C147.728 274.872 148.051 274.671 148.316 274.4H148.367ZM184.889 342.301L219.745 344.347C219.745 344.391 219.745 344.426 219.745 344.461C219.745 344.919 219.866 345.369 220.095 345.761C220.323 346.152 220.65 346.471 221.04 346.682L216.086 360.06C215.872 359.987 215.648 359.948 215.422 359.946C215.04 359.946 214.664 360.04 214.325 360.222C213.985 360.404 213.692 360.667 213.47 360.991L184.678 343.048C184.77 342.81 184.824 342.558 184.838 342.301H184.889ZM257.411 362.588L284.142 339.466C284.328 339.776 284.586 340.032 284.891 340.21C285.197 340.388 285.541 340.482 285.892 340.484C286.226 340.483 286.556 340.396 286.85 340.23L294.16 355.917C293.858 356.111 293.61 356.382 293.437 356.705C293.265 357.027 293.175 357.391 293.176 357.76C293.172 357.807 293.172 357.854 293.176 357.901L257.848 364.151C257.791 363.6 257.625 363.068 257.36 362.588H257.411ZM323.818 324.762L326.476 288.121C326.879 288.111 327.27 287.98 327.603 287.744C327.936 287.507 328.196 287.174 328.352 286.787L335.081 288.911C335.047 289.061 335.03 289.214 335.03 289.368C335.033 289.793 335.148 290.209 335.363 290.57C335.578 290.931 335.885 291.223 336.25 291.413L323.919 324.771L323.818 324.762ZM337.276 287.068C336.839 287.068 336.412 287.204 336.049 287.459C335.686 287.713 335.405 288.076 335.241 288.499L328.512 286.365C328.539 286.23 328.553 286.091 328.554 285.953C328.554 285.594 328.469 285.241 328.306 284.925C328.143 284.61 327.907 284.341 327.62 284.144L343.602 252.489C343.752 252.553 343.907 252.605 344.064 252.648L337.529 287.094C337.44 287.078 337.35 287.069 337.259 287.068H337.276ZM342.954 246.845L322.683 222.178C323.242 221.627 323.618 220.904 323.758 220.115C323.897 219.326 323.791 218.511 323.456 217.788L328.268 215.102C328.531 215.525 328.924 215.842 329.383 216.001C329.841 216.16 330.337 216.153 330.791 215.98L343.408 246.503C343.241 246.601 343.084 246.716 342.937 246.845H342.954ZM344.846 246.178C344.487 246.18 344.131 246.249 343.795 246.38L331.178 215.866C331.654 215.593 332.017 215.147 332.197 214.612C332.377 214.078 332.362 213.493 332.154 212.969L366.741 193.657C367.01 194.09 367.38 194.443 367.818 194.684L345.948 246.406C345.592 246.258 345.213 246.181 344.83 246.178H344.846ZM366.522 193.253L331.927 212.565C331.725 212.25 331.453 211.992 331.133 211.813C330.813 211.634 330.456 211.539 330.093 211.538C329.989 211.53 329.885 211.53 329.782 211.538L319.999 169.92C320.488 169.741 320.9 169.386 321.16 168.919L366.447 190.988C366.322 191.327 366.256 191.687 366.253 192.05C366.254 192.465 366.34 192.875 366.506 193.253H366.522ZM317.905 169.551L312.068 178.654C311.751 178.471 311.395 178.375 311.033 178.373C310.834 178.376 310.636 178.406 310.444 178.461L290.737 124.834L290.821 124.79L317.871 166.048C317.622 166.261 317.42 166.529 317.282 166.832C317.144 167.136 317.072 167.468 317.072 167.804C317.072 168.14 317.144 168.472 317.282 168.776C317.42 169.08 317.622 169.347 317.871 169.56L317.905 169.551ZM288.878 124.886L275.84 166.277L239.293 143.541C239.895 142.776 240.225 141.818 240.227 140.828C240.225 140.426 240.165 140.027 240.05 139.643L287.734 123.666C287.953 124.21 288.362 124.646 288.878 124.886ZM180.591 134.824C180.879 134.824 181.165 134.764 181.432 134.648L200.609 172.027C200.255 172.141 199.933 172.348 199.676 172.627C199.419 172.907 199.233 173.25 199.137 173.624L161.615 183.21C161.445 182.611 161.161 182.054 160.781 181.572C160.401 181.089 159.932 180.691 159.402 180.401L179.859 134.683C180.093 134.775 180.341 134.823 180.591 134.824ZM157.316 189.25C158.364 189.246 159.376 188.857 160.176 188.153L168.899 198.186C168.54 198.61 168.342 199.157 168.344 199.722C168.335 199.825 168.335 199.927 168.344 200.03L116.833 212.679C116.797 212.57 116.752 212.465 116.698 212.363L153.658 187.275C154.073 187.883 154.622 188.379 155.259 188.721C155.895 189.063 156.601 189.241 157.316 189.241V189.25ZM116.942 213.917L133.117 215.945C133.015 216.254 132.979 216.583 133.011 216.909C133.043 217.235 133.142 217.549 133.302 217.83C133.462 218.112 133.679 218.354 133.938 218.539C134.196 218.724 134.49 218.849 134.799 218.903L131.813 269.195C131.578 269.199 131.345 269.243 131.124 269.327L115.596 215.524C115.925 215.386 116.216 215.167 116.445 214.886C116.673 214.604 116.833 214.269 116.909 213.908L116.942 213.917ZM131.847 273.795C132.229 273.795 132.604 273.69 132.934 273.491C133.265 273.293 133.54 273.007 133.731 272.662L144.304 272.179C144.282 272.319 144.268 272.46 144.262 272.601C144.263 273 144.356 273.392 144.531 273.746C144.707 274.101 144.96 274.406 145.272 274.637L124.605 325.113C124.12 324.52 123.485 324.081 122.771 323.849L131.805 273.812L131.847 273.795ZM174.745 352.186L181.104 344.04C181.504 344.321 181.975 344.471 182.458 344.47C182.728 344.469 182.996 344.419 183.249 344.32L205.9 397.096L205.774 397.167L174.711 355.03C174.991 354.61 175.141 354.111 175.14 353.599C175.146 353.095 175.009 352.6 174.745 352.177V352.186ZM207.818 396.903L215.018 364.959C215.133 364.968 215.248 364.968 215.363 364.959C215.795 364.958 216.218 364.835 216.589 364.603C216.959 364.371 217.262 364.039 217.466 363.642L253.533 380.066C253.445 380.323 253.4 380.593 253.399 380.865C253.404 381.082 253.435 381.297 253.491 381.506L209.256 398.185C209.111 397.88 208.909 397.609 208.662 397.388C208.415 397.166 208.128 396.998 207.818 396.894V396.903ZM256.023 378.398V368.128C256.751 367.653 257.312 366.944 257.621 366.109L309.771 388.055C309.768 388.098 309.768 388.142 309.771 388.186L258.101 380.005C257.938 379.557 257.656 379.167 257.288 378.88C256.92 378.594 256.481 378.424 256.023 378.39V378.398ZM312.076 386.299C311.731 386.301 311.39 386.378 311.075 386.527L296.406 359.49C296.676 359.291 296.897 359.029 297.051 358.723C297.204 358.418 297.286 358.079 297.289 357.734C297.284 357.47 297.236 357.208 297.146 356.961L331.405 339.062C331.832 339.859 332.472 340.509 333.247 340.932L312.9 386.404C312.635 386.312 312.356 386.267 312.076 386.273V386.299ZM335.35 332.075C334.703 332.076 334.064 332.222 333.476 332.504C332.889 332.786 332.366 333.196 331.943 333.707L325.147 328.089C325.362 327.741 325.476 327.336 325.475 326.922C325.471 326.713 325.44 326.507 325.383 326.307L376.002 304.572C376.081 304.747 376.171 304.917 376.271 305.081L338.858 333.839C338.439 333.285 337.907 332.836 337.3 332.526C336.692 332.216 336.026 332.053 335.35 332.048V332.075ZM375.876 301.35L339.421 289.842C339.448 289.691 339.462 289.538 339.463 289.385C339.463 289.028 339.382 288.676 339.227 288.357C339.072 288.038 338.847 287.762 338.572 287.55L359.667 251.278C360.017 251.527 360.43 251.662 360.853 251.664C361.1 251.663 361.345 251.615 361.576 251.524L378.079 298.927C377.574 299.15 377.118 299.479 376.739 299.892C376.36 300.306 376.066 300.796 375.876 301.333V301.35ZM360.853 247.301C360.439 247.303 360.034 247.433 359.691 247.676C359.348 247.918 359.082 248.261 358.927 248.662L347.95 249.127C347.896 248.588 347.714 248.071 347.42 247.624C347.126 247.176 346.73 246.812 346.268 246.564L368.137 194.842C368.241 194.885 368.348 194.92 368.457 194.947L360.887 247.301H360.853ZM379.636 298.585C379.242 298.591 378.851 298.656 378.475 298.778L361.955 251.313C362.31 251.086 362.591 250.752 362.761 250.356C362.931 249.959 362.983 249.519 362.909 249.091C362.836 248.663 362.64 248.269 362.348 247.959C362.057 247.649 361.682 247.438 361.274 247.354L368.894 195.008H369.105C369.423 195.004 369.738 194.945 370.038 194.833L389.107 240.884C388.443 241.223 387.895 241.767 387.537 242.442C387.179 243.117 387.029 243.89 387.107 244.657C387.185 245.424 387.488 246.148 387.973 246.729C388.459 247.31 389.104 247.722 389.822 247.907L380.199 298.646C380.013 298.608 379.825 298.588 379.636 298.585ZM382.378 299.726C381.882 299.239 381.273 298.894 380.611 298.725L390.234 248.004C390.398 248.031 390.564 248.048 390.73 248.056C391.69 248.054 392.61 247.654 393.288 246.945C393.966 246.236 394.347 245.275 394.347 244.273C394.347 244.211 394.347 244.15 394.347 244.089L441.316 238.751C441.435 239.419 441.726 240.041 442.157 240.551L382.378 299.726ZM441.257 238.119C441.257 238.181 441.257 238.242 441.257 238.304L394.288 243.615C394.159 242.817 393.787 242.085 393.228 241.525C392.669 240.966 391.953 240.609 391.184 240.507L395.037 181.288C395.764 181.14 396.431 180.764 396.946 180.208L442.367 235.442C442.018 235.788 441.739 236.203 441.546 236.662C441.352 237.122 441.248 237.617 441.24 238.119H441.257ZM390.747 177.548C390.747 178.216 390.922 178.872 391.252 179.444L371.527 190.461C371.312 190.106 371.026 189.804 370.69 189.573C370.353 189.343 369.973 189.191 369.576 189.127L376.666 103.186H376.767C376.988 103.185 377.207 103.161 377.423 103.116L393.994 173.8C393.102 173.889 392.274 174.321 391.671 175.013C391.068 175.704 390.732 176.604 390.73 177.539L390.747 177.548ZM374.278 102.15L343.736 139.898C343.066 139.201 342.159 138.809 341.213 138.809C340.706 138.811 340.206 138.923 339.743 139.139C339.281 139.356 338.868 139.671 338.53 140.064L297.836 94.7151C298.351 94.148 298.684 93.4266 298.786 92.6521L373.167 99.2974C373.163 99.3324 373.163 99.3678 373.167 99.4027C373.162 99.9128 373.257 100.418 373.445 100.889C373.633 101.36 373.91 101.786 374.261 102.142L374.278 102.15ZM294.37 95.7948L289.988 120.515H289.803C289.325 120.519 288.861 120.685 288.482 120.989L232.884 57.5999C233.196 57.4116 233.48 57.1748 233.725 56.8977L291.99 90.5365C291.753 91.0423 291.629 91.5976 291.628 92.1606C291.634 92.9906 291.901 93.7956 292.389 94.451C292.877 95.1064 293.559 95.5756 294.328 95.786L294.37 95.7948ZM229.839 57.8896L233.7 105.899C232.636 105.946 231.623 106.384 230.839 107.136C230.056 107.888 229.552 108.905 229.418 110.007L169.925 105.469C169.651 104.913 169.249 104.436 168.756 104.082L227.87 56.1515C228.289 56.9536 228.974 57.5686 229.797 57.8808L229.839 57.8896ZM166.754 110.999C167.553 110.995 168.328 110.714 168.958 110.2L179.43 130.619C179.174 130.786 178.954 131.006 178.783 131.266C178.613 131.526 178.495 131.819 178.437 132.129L92.928 124.649C92.8995 124.408 92.8488 124.17 92.7766 123.938L163.146 106.548C163.102 106.771 163.079 106.997 163.078 107.224C163.083 108.217 163.461 109.168 164.131 109.873C164.801 110.577 165.71 110.979 166.661 110.99L166.754 110.999ZM89.37 128.863C89.9313 128.863 90.4848 128.726 90.9859 128.462C91.487 128.199 91.9218 127.816 92.2551 127.344L127.894 158.244C127.081 159.267 126.66 160.569 126.713 161.897C126.766 163.224 127.288 164.485 128.18 165.434L87.3177 206.903C86.7587 206.364 86.0475 206.029 85.2905 205.946L89.3532 128.863H89.37ZM84.8868 213.461C85.7351 213.459 86.5558 213.146 87.2049 212.577C87.854 212.007 88.2901 211.216 88.4364 210.344L112.602 213.373C112.602 213.373 112.602 213.373 112.602 213.426C112.603 213.944 112.775 214.447 113.09 214.848L47.8014 280.44C47.6473 280.288 47.4813 280.15 47.3051 280.027L83.3139 213.066C83.7928 213.313 84.3188 213.445 84.8532 213.452L84.8868 213.461ZM48.9033 283.012L96.5449 277.675C96.5225 277.829 96.5085 277.984 96.5028 278.14C96.5037 279.069 96.8328 279.965 97.4272 280.657C98.0216 281.348 98.8395 281.787 99.7243 281.888L97.529 340.001C96.7316 340.019 95.9624 340.312 95.3421 340.835L47.8771 285.856C48.5442 285.156 48.9216 284.21 48.9285 283.223C48.9255 283.152 48.917 283.081 48.9033 283.012ZM101.222 343.776C101.22 343.084 101.034 342.406 100.683 341.819L117.968 329.371C118.269 330.118 118.774 330.756 119.42 331.204C120.067 331.652 120.826 331.891 121.602 331.89H121.661L117.548 420.737C117.325 420.742 117.103 420.765 116.883 420.807L98.7066 347.367C99.436 347.123 100.073 346.644 100.525 345.999C100.976 345.354 101.221 344.576 101.222 343.776ZM198.725 425.652L205.757 401.389C206.148 401.653 206.604 401.794 207.069 401.793H207.347L261.179 468.158C261.095 468.298 261.019 468.456 260.944 468.614L200.685 430.963C200.924 430.49 201.062 429.969 201.092 429.435C201.121 428.901 201.041 428.366 200.856 427.867C200.671 427.368 200.386 426.916 200.02 426.542C199.654 426.168 199.215 425.879 198.734 425.696L198.725 425.652ZM264.233 466.437C263.887 466.441 263.543 466.5 263.215 466.613L260.742 418.331C261.885 418.216 262.952 417.685 263.758 416.831C264.564 415.978 265.056 414.855 265.149 413.661L322.405 415.961C322.418 416.736 322.662 417.488 323.103 418.112L266.369 467.183C265.751 466.704 265.003 466.443 264.233 466.437ZM326.014 412.107C325.491 412.11 324.974 412.23 324.499 412.459L313.439 390.899C313.723 390.701 313.964 390.442 314.146 390.139C314.327 389.837 314.444 389.497 314.49 389.143L398.09 394.156C398.092 394.421 398.12 394.686 398.174 394.946L329.428 414.662C329.185 413.909 328.719 413.257 328.098 412.798C327.477 412.339 326.732 412.097 325.971 412.107H326.014ZM401.715 390.39C401.217 390.388 400.724 390.495 400.268 390.704C399.812 390.912 399.402 391.218 399.066 391.601L362.266 359.999C362.743 359.331 362.991 358.516 362.971 357.683C362.951 356.851 362.664 356.05 362.157 355.408L404.895 314.781C405.173 315.199 405.53 315.552 405.943 315.821C406.357 316.09 406.819 316.268 407.3 316.344L401.783 390.407L401.715 390.39ZM407.855 308.829C407.268 308.829 406.69 308.978 406.171 309.264C405.652 309.55 405.208 309.965 404.878 310.471L383.572 303.747C383.65 303.428 383.69 303.101 383.69 302.772C383.686 301.771 383.337 300.805 382.706 300.051L442.426 240.867C442.609 241.05 442.812 241.209 443.031 241.341L408.907 309.022C408.555 308.898 408.185 308.833 407.813 308.829H407.855ZM442.72 235.091L397.299 179.787C397.789 179.135 398.055 178.332 398.056 177.504C398.049 177.079 397.975 176.658 397.838 176.258L412.137 168.252C412.56 169.004 413.225 169.575 414.014 169.863C414.802 170.151 415.664 170.137 416.443 169.823L443.309 234.722C443.086 234.833 442.874 234.968 442.678 235.126L442.72 235.091ZM411.598 166.285C411.599 166.835 411.717 167.378 411.943 167.874L397.644 175.845C397.352 175.22 396.899 174.691 396.337 174.317C395.774 173.944 395.123 173.74 394.456 173.73L377.785 103.002C377.995 102.939 378.198 102.854 378.391 102.747L413.112 163.195C412.618 163.546 412.214 164.019 411.937 164.572C411.66 165.125 411.517 165.741 411.523 166.364L411.598 166.285ZM373.251 98.8322L298.879 92.1957C298.879 92.1957 298.879 92.1254 298.879 92.0903C298.877 91.447 298.718 90.8148 298.416 90.2539C298.115 89.693 297.68 89.2221 297.154 88.8862L304.582 74.4633C305.057 74.6997 305.577 74.8226 306.104 74.8232C306.8 74.8234 307.481 74.6139 308.066 74.22C308.651 73.826 309.115 73.2643 309.401 72.6022L373.378 98.2352C373.296 98.4404 373.228 98.6517 373.176 98.8673L373.251 98.8322ZM304.22 74.2526L296.793 88.6667C295.996 88.2734 295.09 88.1992 294.244 88.4582C293.399 88.7171 292.675 89.2912 292.208 90.0713L233.952 56.5114C234.154 56.211 234.31 55.8792 234.414 55.5282L301.705 69.5737L302.605 69.9336C302.338 70.7383 302.345 71.6146 302.625 72.4144C302.906 73.2142 303.442 73.8883 304.144 74.3228L304.22 74.2526ZM227.635 55.7565L168.344 103.845C167.843 103.578 167.29 103.436 166.729 103.432C166.477 103.431 166.226 103.458 165.98 103.511L157.628 87.2271C157.988 86.8751 158.276 86.4497 158.473 85.9771C158.669 85.5045 158.771 84.9947 158.772 84.4794C158.769 84.1838 158.736 83.8894 158.671 83.6016L227.584 55.4317C227.584 55.5458 227.601 55.6511 227.635 55.7565ZM155.121 88.2366C155.892 88.2353 156.641 87.9735 157.258 87.4904L165.534 103.616C165.003 103.808 164.521 104.126 164.127 104.544C163.732 104.963 163.437 105.472 163.263 106.03L92.6084 123.482C92.5303 123.303 92.4403 123.13 92.3392 122.964L152.362 86.8935C152.701 87.3137 153.123 87.6516 153.599 87.8836C154.076 88.1156 154.595 88.236 155.121 88.2366ZM88.899 128.784L84.8363 205.867C84.288 205.87 83.7474 206.003 83.2561 206.257C82.7647 206.511 82.3356 206.879 82.0017 207.333L68.9474 197.967C69.0184 197.68 69.0551 197.385 69.0567 197.089C69.0543 196.266 68.7941 195.466 68.3157 194.811C67.8374 194.157 67.1672 193.684 66.4072 193.463L88.184 128.617C88.4148 128.709 88.6546 128.774 88.899 128.81V128.784ZM65.4315 200.846C66.1662 200.841 66.8821 200.603 67.4833 200.162C68.0845 199.721 68.5425 199.099 68.796 198.379L81.7494 207.693C81.3989 208.278 81.2124 208.953 81.2111 209.642C81.2137 210.276 81.3692 210.9 81.6631 211.455C81.9571 212.011 82.3801 212.48 82.8933 212.82L46.8846 279.782C46.6992 279.694 46.5081 279.621 46.3126 279.562L63.2445 202.83L64.0436 200.6C64.4847 200.785 64.9562 200.878 65.4315 200.872V200.846ZM47.5659 286.111L95.0224 341.09C94.3614 341.794 93.9876 342.738 93.9794 343.724C93.9823 344.019 94.0162 344.314 94.0804 344.601L78.8223 349.359C78.5284 348.72 78.068 348.18 77.4938 347.801C76.9196 347.423 76.2548 347.22 75.5755 347.217C75.1713 347.222 74.7705 347.296 74.3895 347.437L47.0275 286.462C47.2164 286.372 47.3966 286.263 47.5659 286.137V286.111ZM79.1839 351.036C79.1791 350.617 79.108 350.202 78.9737 349.807L94.1981 345.058C94.4475 345.783 94.9036 346.41 95.5052 346.856C96.1068 347.302 96.8249 347.544 97.5626 347.551C97.7969 347.55 98.0306 347.526 98.2608 347.481L116.48 420.938C116.281 421.004 116.09 421.089 115.908 421.193L77.712 354.916L77.4344 354.284C77.9715 353.948 78.4153 353.472 78.7221 352.902C79.029 352.333 79.1881 351.689 79.1839 351.036ZM121.148 424.933L193.847 429.199C193.855 429.967 194.087 430.715 194.512 431.342C194.938 431.969 195.536 432.447 196.227 432.71L191.719 448.257C191.444 448.183 191.161 448.145 190.878 448.143C190.162 448.138 189.461 448.353 188.863 448.763C188.264 449.172 187.795 449.756 187.513 450.443L121.005 425.547C121.076 425.349 121.127 425.143 121.156 424.933H121.148ZM192.122 448.406L196.631 432.86C196.906 432.934 197.188 432.972 197.472 432.974C198.063 432.973 198.645 432.821 199.167 432.532C199.688 432.243 200.135 431.825 200.466 431.315L260.767 469C260.767 469 260.767 469 260.767 469.062L194.419 452.593C194.456 452.376 194.475 452.156 194.478 451.935C194.478 451.167 194.253 450.418 193.834 449.787C193.414 449.156 192.82 448.675 192.131 448.406H192.122ZM266.655 467.464L323.33 418.445C323.667 418.826 324.076 419.129 324.53 419.338C324.985 419.546 325.475 419.655 325.971 419.657C326.498 419.652 327.017 419.529 327.494 419.297L334.837 433.615C334.309 433.949 333.873 434.419 333.569 434.98C333.266 435.541 333.106 436.174 333.104 436.819C333.106 437.284 333.189 437.745 333.348 438.179L267.647 469.158C267.473 468.509 267.13 467.922 266.655 467.464ZM336.721 433.044C336.197 433.045 335.68 433.168 335.207 433.404L327.864 419.086C328.392 418.75 328.828 418.278 329.132 417.716C329.435 417.153 329.595 416.519 329.597 415.873C329.595 415.608 329.566 415.343 329.513 415.083L398.258 395.367C398.325 395.576 398.409 395.779 398.51 395.973L339.631 434.598C339.297 434.12 338.859 433.73 338.353 433.462C337.848 433.194 337.288 433.053 336.721 433.053V433.044ZM402.178 390.434L407.696 316.37H407.83C408.723 316.37 409.583 316.025 410.245 315.4C410.908 314.776 411.324 313.917 411.413 312.99L426.116 317.634C426.049 317.922 426.013 318.216 426.007 318.512C426.008 319.237 426.21 319.946 426.587 320.555C426.965 321.164 427.502 321.646 428.135 321.944L402.767 390.583C402.575 390.516 402.378 390.466 402.178 390.434ZM429.615 314.72C428.879 314.726 428.161 314.967 427.56 315.411C426.958 315.855 426.502 316.481 426.251 317.204L411.43 312.56C411.421 311.841 411.215 311.141 410.836 310.54C410.458 309.94 409.923 309.465 409.294 309.172L443.36 241.578C443.55 241.665 443.747 241.736 443.948 241.789L430.103 314.825C429.943 314.777 429.78 314.742 429.615 314.72ZM413.474 162.985L378.786 102.537C379.266 102.201 379.661 101.75 379.939 101.222C380.217 100.694 380.369 100.103 380.382 99.5007C380.395 98.8981 380.269 98.3011 380.015 97.76C379.761 97.2189 379.385 96.7496 378.921 96.3917L391.538 76.6403C392.088 76.9874 392.719 77.1724 393.363 77.1758C393.583 77.1698 393.802 77.1463 394.019 77.1056L414.08 162.721C413.87 162.787 413.667 162.875 413.474 162.985ZM391.193 76.4121L378.576 96.1635C377.94 95.7607 377.198 95.5777 376.456 95.6408C375.715 95.7038 375.011 96.0097 374.446 96.5146L316.13 31.5544C316.305 31.3603 316.458 31.1452 316.584 30.9136L390.082 71.8385C389.727 72.619 389.643 73.5046 389.845 74.3427C390.048 75.1808 390.525 75.9189 391.193 76.4296V76.4121ZM313.506 32.7131C314.349 32.7134 315.166 32.4025 315.811 31.8353L374.135 96.7955C373.852 97.1008 373.622 97.4541 373.453 97.8402L309.468 72.2072C309.593 71.8406 309.658 71.455 309.662 71.066C309.661 70.2217 309.388 69.4023 308.888 68.7387C308.388 68.0751 307.689 67.6057 306.903 67.4054L313.06 32.6517C313.207 32.6809 313.356 32.7014 313.506 32.7131ZM302.739 69.5298L301.823 69.1611L234.532 55.1156C234.586 54.859 234.615 54.5971 234.616 54.3344C234.619 53.6843 234.461 53.0446 234.156 52.4776C233.851 51.9106 233.411 51.4359 232.878 51.0998C232.345 50.7636 231.737 50.5776 231.115 50.5598C230.492 50.5421 229.876 50.6933 229.326 50.9986L224.279 23.408C225.142 23.1854 225.897 22.6385 226.398 21.8718L302.815 69.363L302.739 69.5298ZM223.429 23.5221C223.584 23.5166 223.739 23.5019 223.892 23.4782L228.939 51.218C228.512 51.5285 228.154 51.9316 227.889 52.3998C227.625 52.8679 227.461 53.3901 227.408 53.9306L140.443 47.2853C140.447 47.268 140.447 47.2499 140.443 47.2326C140.441 46.9365 140.404 46.6418 140.334 46.3548L220.031 21.0554C220.287 21.7808 220.75 22.4066 221.358 22.8478C221.966 23.2891 222.689 23.5245 223.429 23.5221ZM140.41 47.7242L227.374 54.3695C227.375 54.5908 227.397 54.8114 227.441 55.0279L158.511 83.1978C158.262 82.4731 157.805 81.8456 157.204 81.3998C156.602 80.9541 155.884 80.7115 155.146 80.7047C154.863 80.7071 154.581 80.7424 154.305 80.8101L138.719 50.4894C139.182 50.1914 139.575 49.7879 139.868 49.309C140.161 48.8301 140.346 48.2884 140.41 47.7242ZM152.093 86.5424L92.0869 122.639C91.7491 122.221 91.3282 121.884 90.8532 121.652C90.3783 121.42 89.8607 121.299 89.3364 121.296C88.3953 121.288 87.4889 121.666 86.813 122.35L69.9315 109.305C70.3216 108.694 70.5294 107.976 70.5287 107.242C70.5278 107.012 70.5053 106.783 70.4614 106.557L151.731 85.8138C151.823 86.0711 151.945 86.3158 152.093 86.5424ZM66.9119 110.99C67.4413 110.989 67.964 110.866 68.4424 110.629C68.9208 110.392 69.3431 110.048 69.6792 109.621L86.5607 122.674C86.0514 123.309 85.7571 124.101 85.7237 124.928C85.6902 125.755 85.9194 126.571 86.3756 127.248L26.7395 187.775C26.5692 187.609 26.3831 187.462 26.1843 187.336L65.3978 110.639C65.8723 110.869 66.3888 110.989 66.9119 110.99ZM27.0339 188.091L86.6532 127.59C86.9784 127.959 87.3699 128.257 87.8055 128.468L66.0034 193.349C65.817 193.318 65.6287 193.301 65.4399 193.297C64.8274 193.293 64.2243 193.453 63.6871 193.76C63.15 194.067 62.6967 194.512 62.3698 195.052L27.8834 190.733C27.8876 190.654 27.8876 190.575 27.8834 190.496C27.8828 189.615 27.5817 188.762 27.0339 188.091ZM63.6567 200.381L62.8576 202.76L45.9257 279.501C45.4119 279.405 44.8843 279.427 44.3797 279.566C43.8752 279.706 43.406 279.959 43.0052 280.308C42.6044 280.657 42.2816 281.093 42.0596 281.586C41.8376 282.079 41.7217 282.617 41.72 283.161L19.102 284.197C19.0522 283.645 18.8853 283.111 18.6132 282.634C18.3411 282.157 17.9708 281.75 17.5291 281.441L63.2025 200.065C63.3419 200.179 63.4911 200.278 63.6483 200.363L63.6567 200.381ZM19.1189 284.654L41.7368 283.618C41.8215 284.506 42.2068 285.333 42.8235 285.951C43.4402 286.569 44.2479 286.937 45.1014 286.989L44.6976 375.027C43.9996 375.067 43.3277 375.317 42.763 375.747L42.0481 374.869L16.8142 288.139C17.4926 287.862 18.075 287.378 18.4848 286.75C18.8947 286.122 19.1128 285.379 19.1104 284.618L19.1189 284.654ZM45.1014 375.071L45.5387 286.954C45.9312 286.938 46.3181 286.852 46.6827 286.699L74.0362 347.648C73.5702 347.878 73.1573 348.211 72.8255 348.623C72.4938 349.036 72.251 349.518 72.1137 350.036C71.9765 350.555 71.9479 351.099 72.03 351.631C72.1121 352.162 72.3029 352.669 72.5895 353.116L47.4397 376.169C46.8193 375.5 45.9828 375.096 45.0929 375.036L45.1014 375.071ZM77.0643 354.512L77.3419 355.144L115.538 421.421C115.086 421.741 114.709 422.163 114.436 422.657C114.164 423.15 114.003 423.702 113.964 424.27C113.926 424.839 114.013 425.409 114.217 425.937C114.421 426.465 114.737 426.938 115.142 427.32L101.423 444.877C100.807 444.411 100.065 444.159 99.3038 444.157C99.0723 444.159 98.8414 444.182 98.614 444.228L76.7447 354.609L77.0643 354.512ZM101.743 445.176L115.462 427.619C116.113 428.116 116.907 428.368 117.713 428.335C118.52 428.301 119.291 427.984 119.903 427.435L176.528 489.849C176.358 490.039 176.209 490.248 176.082 490.472L102.584 449.547C102.81 449.054 102.928 448.514 102.929 447.967C102.936 447.435 102.834 446.907 102.629 446.42C102.425 445.932 102.122 445.496 101.743 445.141V445.176ZM179.127 488.638C178.277 488.631 177.454 488.942 176.805 489.515L120.214 427.083C120.506 426.759 120.742 426.385 120.912 425.977L187.429 450.864C187.322 451.207 187.265 451.565 187.261 451.926C187.267 452.695 187.498 453.444 187.923 454.072C188.349 454.699 188.948 455.176 189.641 455.438L180.002 488.682C179.726 488.619 179.443 488.593 179.161 488.603L179.127 488.638ZM194.267 453.059L260.574 469.518C260.523 469.76 260.497 470.008 260.498 470.256C260.498 471.259 260.88 472.221 261.56 472.931C262.24 473.641 263.162 474.039 264.123 474.039C264.378 474.037 264.631 474.008 264.88 473.951L262.962 497.223C262.836 497.223 262.71 497.179 262.576 497.179C262.037 497.182 261.506 497.31 261.022 497.555C260.537 497.799 260.111 498.154 259.775 498.592L193.948 453.822C194.108 453.574 194.238 453.306 194.335 453.024L194.267 453.059ZM263.383 497.284L265.309 473.811C265.952 473.577 266.517 473.158 266.94 472.601C267.363 472.045 267.626 471.374 267.698 470.668L352.156 474.18C352.159 474.455 352.193 474.729 352.257 474.996L269.153 501.375L266.184 501.068C266.184 501.068 266.184 500.998 266.184 500.954C266.192 500.106 265.927 499.28 265.431 498.608C264.935 497.936 264.238 497.458 263.45 497.249L263.383 497.284ZM352.181 473.749L267.74 470.238C267.738 470.041 267.718 469.844 267.681 469.65L333.466 438.627C333.769 439.237 334.226 439.748 334.788 440.106C335.35 440.463 335.996 440.653 336.654 440.655C337.209 440.647 337.755 440.509 338.252 440.251L353.956 470.861C353.478 471.165 353.075 471.581 352.778 472.077C352.482 472.572 352.3 473.133 352.248 473.714L352.181 473.749ZM339.884 434.984L398.763 396.359C399.076 396.823 399.485 397.206 399.96 397.481C400.436 397.755 400.965 397.914 401.507 397.944C402.05 397.975 402.592 397.876 403.093 397.656C403.593 397.437 404.04 397.101 404.398 396.675L422.828 411.932C422.4 412.567 422.171 413.324 422.171 414.1C422.172 414.33 422.195 414.559 422.239 414.785L340.203 435.73C340.124 435.47 340.017 435.22 339.884 434.984ZM425.729 410.325C425.221 410.327 424.719 410.441 424.257 410.661C423.794 410.88 423.381 411.2 423.046 411.598L404.634 396.359C405.087 395.688 405.316 394.881 405.288 394.062C405.259 393.242 404.973 392.454 404.474 391.82L465.834 333.488C466.033 333.683 466.25 333.857 466.482 334.006L427.269 410.703C426.789 410.46 426.263 410.331 425.729 410.325ZM465.565 333.154L404.163 391.487C403.86 391.184 403.51 390.938 403.128 390.758L428.48 322.137C428.836 322.26 429.207 322.325 429.582 322.331C430.317 322.324 431.033 322.083 431.634 321.641C432.236 321.199 432.693 320.576 432.946 319.855L464.792 329.906C464.653 330.468 464.646 331.056 464.77 331.621C464.895 332.186 465.147 332.712 465.506 333.154H465.565ZM430.524 314.878L444.369 241.859C444.533 241.889 444.699 241.907 444.865 241.911C445.814 241.912 446.725 241.522 447.402 240.828C448.079 240.133 448.467 239.189 448.482 238.198L473.59 237.136C473.635 237.682 473.796 238.211 474.061 238.685C474.326 239.158 474.687 239.565 475.121 239.875L431.306 315.22C431.058 315.076 430.796 314.962 430.524 314.878ZM473.556 236.68L448.44 237.751C448.362 236.902 448.01 236.107 447.441 235.496C446.872 234.885 446.121 234.494 445.311 234.388L450.787 150.116H450.829C451.112 150.109 451.394 150.071 451.67 150.002L475.911 233.177C475.223 233.44 474.629 233.917 474.208 234.543C473.787 235.169 473.559 235.915 473.556 236.68ZM448.381 143.628C448.013 143.98 447.72 144.407 447.518 144.883C447.317 145.359 447.213 145.873 447.212 146.394C447.232 146.929 447.364 147.453 447.599 147.93L418.26 164.328C417.939 163.776 417.487 163.319 416.948 163.003C416.409 162.686 415.8 162.519 415.182 162.52C414.964 162.521 414.747 162.544 414.534 162.59L394.423 77.0002C394.806 76.8805 395.167 76.6935 395.491 76.4472L448.381 143.628ZM391.857 69.9951C391.2 70.3089 390.648 70.823 390.276 71.4698L316.786 30.5097C316.975 30.0847 317.083 29.6257 317.106 29.1579H371.897C371.923 29.9511 372.126 30.7271 372.49 31.424C372.854 32.1208 373.369 32.719 373.995 33.1711C374.62 33.6231 375.338 33.9163 376.091 34.0273C376.844 34.1383 377.611 34.0641 378.332 33.8104L391.857 69.9951ZM309.897 28.7892C309.897 28.8418 309.897 28.8857 309.897 28.9296C309.898 29.775 310.171 30.5957 310.671 31.2608C311.171 31.9258 311.87 32.397 312.656 32.599L306.499 67.3528C306.349 67.326 306.197 67.3085 306.045 67.3001C305.453 67.3012 304.871 67.4539 304.349 67.7447C303.827 68.0355 303.381 68.4555 303.051 68.968L226.626 21.5206C226.807 21.1612 226.929 20.7725 226.987 20.3707L309.897 28.7892ZM173.803 10.2228C174.832 10.2227 175.836 9.88307 176.669 9.2525C177.503 8.62194 178.125 7.73262 178.446 6.71146L219.897 18.931C219.836 19.1985 219.805 19.4725 219.804 19.7474C219.807 20.0435 219.844 20.3382 219.913 20.6252L140.216 45.9246C140.044 45.4303 139.774 44.9789 139.426 44.5991L170.648 9.02019C171.531 9.796 172.648 10.2219 173.803 10.2228ZM134.185 49.7871C134.521 50.1729 134.93 50.4815 135.386 50.6931C135.842 50.9047 136.336 51.0147 136.835 51.0161C137.358 51.0103 137.875 50.8876 138.349 50.6562L153.885 80.9417C153.19 81.202 152.589 81.6781 152.162 82.3059C151.735 82.9337 151.502 83.6831 151.496 84.4531C151.499 84.7492 151.535 85.0439 151.605 85.3309L70.3521 106.074C70.2403 105.674 70.0639 105.297 69.8306 104.959L134.185 49.7871ZM63.8081 109.138C64.1129 109.67 64.5373 110.115 65.0446 110.437L25.8143 187.125C25.4027 186.932 24.9609 186.819 24.5105 186.792V137.633C25.484 137.591 26.4233 137.247 27.2079 136.644C27.9925 136.041 28.5866 135.208 28.9139 134.25C29.2412 133.292 29.2867 132.254 29.0447 131.269C28.8026 130.285 28.284 129.398 27.5554 128.723L63.8081 109.138ZM24.1572 194.289H24.3002C25.1495 194.288 25.9714 193.975 26.6219 193.405C27.2724 192.836 27.7101 192.045 27.8582 191.172L62.1511 195.474C61.8368 196.178 61.74 196.967 61.8741 197.731C62.0082 198.496 62.3666 199.198 62.8997 199.74L17.1338 281.169C16.7958 280.987 16.4324 280.863 16.0571 280.8L24.1572 194.289ZM8.78138 347.349C9.27178 346.671 9.59257 345.877 9.71473 345.037C9.83689 344.197 9.75656 343.339 9.48102 342.54C9.20547 341.741 8.7434 341.026 8.13659 340.46C7.52978 339.894 6.79739 339.495 6.00564 339.299L15.073 288.305C15.2207 288.329 15.3695 288.344 15.5188 288.349C15.8026 288.347 16.085 288.309 16.36 288.235L41.6527 375.01V375.054L42.4266 376.028L42.2331 376.23L8.78138 347.349ZM47.3219 381.585C47.9941 380.948 48.4084 380.068 48.4803 379.124C48.5522 378.179 48.2763 377.242 47.7089 376.502L72.8166 353.485C73.1529 353.909 73.5743 354.251 74.0511 354.486C74.5278 354.721 75.0482 354.844 75.5755 354.846C75.8362 354.845 76.0958 354.813 76.3493 354.749L98.2187 444.359C97.8485 444.479 97.4992 444.659 97.1841 444.895L47.3219 381.585ZM128.499 496.582C128.352 495.347 127.777 494.21 126.884 493.386C125.99 492.562 124.839 492.106 123.646 492.105C122.934 492.107 122.232 492.268 121.585 492.579L101.146 451.224C101.652 450.912 102.077 450.475 102.382 449.951L175.914 490.806C175.688 491.296 175.57 491.833 175.569 492.377C175.569 492.377 175.569 492.439 175.569 492.474L128.499 496.582ZM182.769 492.597C182.769 492.597 182.769 492.5 182.769 492.447C182.766 491.679 182.537 490.93 182.113 490.302C181.689 489.674 181.09 489.197 180.397 488.936L190.028 455.692C190.303 455.765 190.585 455.803 190.869 455.806C191.435 455.805 191.993 455.664 192.497 455.396C193.001 455.128 193.438 454.739 193.771 454.261L259.573 499.031C259.316 499.46 259.141 499.937 259.06 500.436L182.769 492.597ZM333.668 508.872C332.908 508.387 332.035 508.131 331.144 508.135C330.026 508.134 328.94 508.534 328.07 509.267C327.199 510 326.595 511.022 326.358 512.164L268.657 501.7L269.262 501.761L352.45 475.365C352.686 476.063 353.113 476.673 353.678 477.12L333.668 508.872ZM358.49 471.599C358.151 471.215 357.74 470.908 357.283 470.698C356.826 470.488 356.331 470.379 355.832 470.379C355.309 470.381 354.792 470.501 354.318 470.73L338.614 440.119C339.142 439.782 339.579 439.308 339.882 438.744C340.186 438.18 340.345 437.544 340.346 436.898C340.345 436.671 340.323 436.444 340.279 436.222L422.314 415.276C422.43 415.675 422.606 416.051 422.836 416.391L358.49 471.599ZM479.419 378.548C478.404 378.858 477.512 379.503 476.877 380.386C476.242 381.268 475.897 382.342 475.894 383.446C475.893 384.212 476.06 384.969 476.382 385.658L428.833 412.16C428.535 411.647 428.122 411.216 427.63 410.905L466.852 334.217C467.327 334.445 467.843 334.565 468.366 334.568C468.587 334.567 468.806 334.543 469.022 334.497L479.419 378.548ZM468.484 327.045H468.341C467.605 327.052 466.888 327.294 466.287 327.738C465.685 328.182 465.228 328.807 464.977 329.529L433.123 319.469C433.196 319.182 433.236 318.887 433.241 318.591C433.24 317.979 433.096 317.376 432.822 316.834C432.548 316.293 432.152 315.829 431.668 315.483L475.482 240.103C475.835 240.297 476.216 240.43 476.609 240.498L468.484 327.045ZM478.098 233.168C477.51 232.994 476.886 232.994 476.298 233.168L452.057 149.993C452.648 149.76 453.172 149.373 453.579 148.869L491.237 177.776C490.824 178.412 490.555 179.137 490.449 179.897C490.342 180.657 490.402 181.432 490.622 182.165C490.843 182.897 491.219 183.568 491.723 184.128C492.227 184.687 492.846 185.121 493.533 185.396L478.098 233.168Z" fill="#1E1E1E"/>
<path d="M170.184 584H91V588.661H170.184V584Z" fill="#1FB3E9"/>
<path d="M249.367 584H170.184V588.661H249.367V584Z" fill="#E6E6E6"/>
<path d="M328.551 584H249.367V588.661H328.551V584Z" fill="#32CC2E"/>
<path d="M407.733 584H328.549V588.661H407.733V584Z" fill="#414141"/>
</svg>
