<svg width="72" height="71" viewBox="0 0 72 71" fill="none" xmlns="http://www.w3.org/2000/svg">
<circle cx="35.8267" cy="35.2832" r="33.7583" fill="#4EC3CC" stroke="white" stroke-width="3"/>
<path d="M43.748 44.2859C43.2825 44.0294 42.928 43.8035 42.4915 43.7775C41.9923 43.7476 41.5336 43.8456 41.1079 44.1159C40.1906 44.6979 39.2648 44.6971 38.3399 44.129C37.5481 43.6427 36.7602 43.642 35.9662 44.1313C35.0581 44.691 34.1385 44.6986 33.2288 44.1381C32.421 43.6397 31.6292 43.645 30.823 44.1435C29.9271 44.6971 29.0205 44.6818 28.1177 44.1489C28.0082 44.0838 27.9033 44.0064 27.7862 43.9597C27.5534 43.8656 27.2203 43.6619 27.0802 43.8296C26.888 44.06 26.9393 44.4383 27.084 44.7377C27.2609 45.1022 27.5787 45.2729 27.9722 45.3066C28.1246 45.3196 28.2785 45.3112 28.4317 45.3112C33.3444 45.3112 38.2572 45.3112 43.1699 45.3112C43.3606 45.3112 43.5551 45.3166 43.7419 45.2867C43.8683 45.2668 43.9249 45.2745 43.9525 45.4115C43.98 45.544 43.9732 45.642 43.8208 45.6657C43.7082 45.6833 43.5926 45.6902 43.4785 45.6902C38.3491 45.691 33.2196 45.6925 28.0894 45.6902C26.999 45.6902 26.4248 44.8939 26.6407 43.727C27.1254 41.1151 27.6009 38.5018 28.0833 35.8892C28.2333 35.0768 28.3949 34.2667 28.5435 33.4543C28.5771 33.269 28.6216 33.1893 28.8398 33.2636C29.4914 33.4849 30.0863 33.3195 30.6568 32.9681C31.5282 32.4328 32.424 32.4244 33.2885 32.9642C34.1124 33.4788 34.9019 33.4818 35.7235 32.9719C36.6056 32.4252 37.506 32.4282 38.3881 32.9795C39.1944 33.4834 39.9815 33.4773 40.7909 32.9757C41.6117 32.4665 41.637 32.4826 41.7764 33.4183C41.833 33.7988 42.1194 34.269 41.8759 34.5362C41.6569 34.7767 41.2335 34.9168 40.8843 35.0676C40.0788 35.4145 39.2909 35.3632 38.5458 34.9053C37.7036 34.3877 36.8781 34.3701 36.0297 34.8915C35.1331 35.442 34.2158 35.4306 33.3214 34.8892C32.4998 34.3915 31.6943 34.3693 30.8781 34.8808C30.2525 35.2728 29.5772 35.3816 28.8635 35.2031C28.6721 35.1557 28.5871 35.1894 28.5779 35.3884C28.5748 35.4512 28.5549 35.5133 28.5442 35.5768C28.437 36.2384 28.5205 36.3486 29.2012 36.4199C29.7089 36.4735 30.1913 36.4022 30.6308 36.1205C31.5971 35.5033 32.5603 35.5148 33.5389 36.112C34.2885 36.5699 35.0642 36.5684 35.8153 36.112C36.7916 35.5179 37.7449 35.5102 38.7243 36.1159C39.4716 36.5784 40.2465 36.5539 41.0045 36.1128C41.3131 35.9329 41.6217 35.7682 41.9854 35.7123C42.1661 35.6848 42.2113 35.7468 42.2365 35.8946C42.3192 36.3839 42.3966 36.8739 42.4961 37.3594C42.5329 37.537 42.4846 37.5761 42.3185 37.5891C41.9188 37.6205 41.5574 37.7698 41.2128 37.9758C40.3123 38.5141 39.4004 38.5202 38.5045 37.9735C37.6706 37.4643 36.859 37.4673 36.0251 37.9758C35.1293 38.5217 34.2158 38.5186 33.3176 37.9704C32.5871 37.5248 31.8199 37.403 31.0779 37.8601C30.0994 38.4627 29.133 38.5439 28.1001 37.9765C28.0871 38.0554 28.0725 38.1128 28.068 38.171C28.0457 38.4421 27.8091 38.782 28.0013 38.9628C28.2961 39.2407 28.6882 39.4467 29.1193 39.4972C29.6775 39.5631 30.2004 39.4834 30.6913 39.1726C31.6055 38.5952 32.5397 38.5922 33.4646 39.1588C34.2847 39.6611 35.0918 39.645 35.9095 39.1481C36.8062 38.6036 37.7189 38.596 38.6155 39.1427C39.4478 39.6504 40.2679 39.6641 41.0941 39.1442C41.5145 38.8801 41.9731 38.7514 42.4685 38.7399C42.6569 38.7361 42.7626 38.7782 42.7924 39.0064C42.8545 39.485 42.9555 39.9582 43.0535 40.4314C43.098 40.645 43.1003 40.7622 42.8154 40.7177C42.2136 40.6243 41.6669 40.7775 41.1423 41.0968C40.2985 41.6106 39.4187 41.6136 38.5757 41.0991C37.6898 40.5577 36.8399 40.5615 35.9555 41.1006C35.1109 41.6152 34.2296 41.6106 33.3873 41.0983C32.5167 40.5684 31.6798 40.5539 30.8061 41.0868C29.9056 41.6366 28.9945 41.583 28.0963 41.047C27.6062 40.7545 27.6024 40.7614 27.4898 41.289C27.463 41.413 27.4401 41.5386 27.414 41.6626C27.3957 41.7522 27.3704 41.8617 27.4845 41.8885C28.0373 42.0171 28.4592 42.4322 29.0136 42.5639C29.5687 42.6963 30.0871 42.6198 30.5557 42.3265C31.5779 41.6879 32.5764 41.6856 33.604 42.3196C34.3161 42.7583 35.0642 42.7415 35.7748 42.3051C36.7763 41.6902 37.7526 41.6856 38.7564 42.3051C39.4938 42.7606 40.2641 42.7499 40.993 42.2805C41.5711 41.9084 42.1898 41.8073 42.8552 41.8663C43.1638 41.8939 43.3614 41.9934 43.4058 42.3594C43.48 42.975 43.6156 43.5822 43.7419 44.2882L43.748 44.2859Z" fill="white"/>
<path d="M47.7545 27.4727C47.6895 28.7843 47.0072 30.0316 45.7966 30.9903C45.5577 31.1794 45.5087 31.3594 45.5608 31.6373C45.9161 33.5363 46.2584 35.4367 46.606 37.3365C47.0631 39.8357 47.5294 42.3334 47.9697 44.835C48.0486 45.2814 48.2094 45.7278 48.1244 46.1941C47.9751 47.0172 47.3242 47.5356 46.3679 47.603C45.3012 47.6788 44.6481 47.1206 44.4658 46.0647C44.1136 44.0241 43.7239 41.9904 43.354 39.9536C42.9842 37.9153 42.6205 35.8763 42.2545 33.8372C42.1649 33.3372 42.0523 32.8395 41.9972 32.3349C41.9559 31.9604 41.7644 31.8188 41.4268 31.7024C40.0807 31.2369 39.0493 30.3892 38.4597 29.0676C37.6963 27.3555 38.1541 25.1939 39.5263 23.9428C39.6718 23.8103 39.8219 23.6947 40.037 23.7659C40.2506 23.8363 40.3019 24.0071 40.3372 24.2085C40.5393 25.3601 40.7506 26.5102 40.9597 27.6603C41.1044 28.4558 41.766 28.9428 42.5707 28.8302C42.9482 28.7774 43.3226 28.7001 43.6948 28.6197C44.4536 28.4551 44.8778 27.8348 44.7438 27.0615C44.5485 25.9344 44.3364 24.8103 44.1289 23.6855C44.0868 23.4581 44.0156 23.2245 44.2323 23.0484C44.4513 22.87 44.6848 22.9412 44.9153 23.04C46.6045 23.7613 47.753 25.4535 47.7538 27.4734L47.7545 27.4727ZM46.1458 47.2255C46.377 47.2408 46.6274 47.1842 46.8702 47.113C47.4735 46.9361 47.8449 46.3396 47.7354 45.7209C47.5202 44.508 47.2944 43.2967 47.0792 42.0838C47.0524 41.9322 47.0256 41.8618 46.8395 41.8993C46.0554 42.0578 45.2683 42.204 44.4796 42.3411C44.2407 42.3824 44.2032 42.5111 44.2407 42.7148C44.4582 43.8878 44.6619 45.0639 44.8939 46.2347C45.0179 46.8595 45.5003 47.2263 46.145 47.2255H46.1458Z" fill="white"/>
<path d="M44.8204 47.6099C44.6596 47.6099 44.5363 47.6099 44.4138 47.6099C37.9826 47.6099 31.5515 47.5907 25.1211 47.6267C23.9481 47.6336 23.347 46.6688 23.5407 45.7002C24.177 42.5103 24.7291 39.3035 25.3125 36.1029C25.5683 34.7031 25.8057 33.2996 26.0844 31.9053C26.2758 30.9481 27.0599 30.3065 28.0316 30.269C28.5798 30.2475 29.1288 30.2521 29.6771 30.2659C29.9236 30.272 30.0055 30.2 30.004 29.9443C29.9941 28.1832 30.0033 26.4228 29.9964 24.6617C29.9941 23.9802 29.468 23.3952 28.8585 23.3324C27.7245 23.2161 27.3018 23.7628 27.1357 24.3929C27.092 24.5599 27.1893 24.9052 26.8776 24.8432C26.5836 24.7842 26.7299 24.4879 26.7689 24.2926C26.9305 23.4879 27.5813 22.9542 28.3899 22.9465C29.7322 22.9335 30.3815 23.5767 30.3823 24.9197C30.3823 25.5576 30.3899 26.1962 30.3784 26.834C30.3739 27.0637 30.4114 27.1724 30.684 27.1702C32.1005 27.1564 33.5163 27.1594 34.9329 27.1686C35.1526 27.1702 35.2146 27.1012 35.2116 26.8861C35.2001 26.1204 35.2185 25.3547 35.2031 24.5897C35.1886 23.8883 34.6212 23.3439 33.9252 23.3317C32.9045 23.3133 32.5462 23.5935 32.3103 24.6043C32.2797 24.736 32.2605 24.8776 32.0875 24.8409C31.939 24.8087 31.919 24.6747 31.9259 24.5346C31.968 23.6701 32.7092 22.9557 33.5783 22.9465C34.6901 22.935 35.2874 23.3347 35.5454 24.2498C35.5883 24.4021 35.5891 24.5514 35.5891 24.7031C35.5906 27.0507 35.5898 29.3991 35.5898 31.7468C35.5898 31.7981 35.5875 31.8486 35.5898 31.8999C35.596 32.0385 35.5699 32.1809 35.4107 32.184C35.2276 32.187 35.2047 32.0347 35.2062 31.8823C35.2093 31.5247 35.207 31.1679 35.2062 30.8103C35.2062 30.3509 35.1932 29.8915 35.2108 29.432C35.2208 29.1763 35.1572 29.0775 34.877 29.0798C33.4864 29.0936 32.0952 29.0913 30.7046 29.0813C30.4588 29.0798 30.3677 29.1457 30.3761 29.4022C30.3938 29.9504 30.3823 30.4994 30.3807 31.0477C30.3807 31.197 30.4167 31.3938 30.1985 31.4022C29.9795 31.4106 29.9787 31.2169 30.001 31.0661C30.0523 30.7276 29.9267 30.6196 29.5859 30.6419C29.1288 30.6725 28.6679 30.6457 28.2084 30.6518C27.2192 30.6641 26.5668 31.2345 26.3922 32.21C25.808 35.4757 25.2184 38.7407 24.6272 42.0049C24.3891 43.3181 24.1395 44.629 23.8975 45.9414C23.7589 46.6933 24.2375 47.2247 25.056 47.2247C31.4106 47.2255 37.7652 47.227 44.119 47.2193C44.4138 47.2193 44.6412 47.2737 44.8173 47.6091L44.8204 47.6099Z" fill="white"/>
<path d="M39.0431 30.6476C38.2705 30.6476 37.599 30.6499 36.9275 30.6453C36.7981 30.6445 36.658 30.6215 36.6664 30.4424C36.6733 30.2907 36.7958 30.267 36.9145 30.2662C37.4734 30.2624 38.0332 30.2639 38.5921 30.2632C38.8126 30.2632 38.8693 30.4485 39.0431 30.6468V30.6476Z" fill="white"/>
<path d="M46.9818 45.5026C46.9834 45.9138 46.6074 46.2936 46.2023 46.2898C45.7896 46.286 45.429 45.91 45.4366 45.4919C45.4443 45.0792 45.7827 44.7408 46.1939 44.7354C46.6181 44.7301 46.9803 45.0823 46.9818 45.5026Z" fill="white"/>
</svg>
