<svg width="71" height="71" viewBox="0 0 71 71" fill="none" xmlns="http://www.w3.org/2000/svg">
<circle cx="35.4771" cy="35.2832" r="33.7583" fill="#4EC3CC" stroke="white" stroke-width="3"/>
<path d="M31.845 56.1667V48.9867C31.845 47.9488 32.0857 46.8306 31.7808 45.8908C31.2582 44.2696 31.3028 42.645 31.4936 41.0667C32.1553 35.5649 31.688 30.0506 31.836 24.5453C31.8589 24.2605 31.8092 23.9746 31.6916 23.7142C31.0888 25.3787 30.486 27.0432 29.8832 28.7077C29.2644 27.5735 28.7864 26.6015 28.2229 25.6759C27.0298 23.7249 26.6624 21.6847 27.3312 19.4679C27.9661 17.3742 29.2733 15.9814 31.408 15.3946C31.5401 15.3475 31.6673 15.2878 31.7879 15.2163H32.3229C33.5178 16.5467 33.541 18.2071 33.4982 19.8264C33.4643 21.0837 33.3466 22.3802 32.4567 23.4324C32.3425 23.5662 32.3372 23.8194 32.3372 24.0192C32.3289 28.1115 32.3289 32.2044 32.3372 36.2979C32.3542 36.4189 32.3817 36.5382 32.4192 36.6545C32.5976 36.437 32.7135 36.2979 32.8205 36.1391C33.0851 35.723 33.4561 35.3851 33.895 35.1603C34.3339 34.9355 34.8249 34.832 35.3172 34.8604C36.4747 34.8872 37.6357 34.905 38.7913 34.8497C40.218 34.7837 41.313 35.3848 41.7624 36.6652C42.2565 38.1455 42.6082 39.6694 42.8129 41.2165C42.9698 42.2597 42.8557 43.3476 42.8414 44.4141C42.8289 45.3468 42.449 45.8711 41.8266 45.7837C40.9956 45.666 40.9599 45.0561 40.9974 44.3749C41.1133 42.299 41.0616 40.2338 40.3001 38.2025C40.2876 38.4593 40.2626 38.7161 40.2626 38.9729C40.2626 44.0735 40.2626 49.1758 40.2234 54.2763C40.2234 54.8916 39.9148 55.5033 39.7472 56.1185M29.0165 21.7828L29.7299 20.1528L29.3928 20.0279C28.5171 20.4042 28.979 21.1515 29.0236 21.781L29.152 22.983H29.4909L29.696 21.5046L29.0165 21.7828ZM30.5217 23.2844L30.9711 21.7453L30.7214 21.6829C29.8636 22.4658 29.8386 22.7012 30.5431 23.2594L30.7321 24.1511L30.1276 24.2118L30.5645 25.5226L31.0317 25.3745L30.7107 24.1208L31.6809 23.4485L31.1013 22.6941C30.8748 22.9206 30.6982 23.1043 30.5217 23.2844ZM34.5575 56.131C34.3988 55.5211 34.1027 54.9094 34.0974 54.2941C34.0564 49.1044 34.0689 43.9165 34.0617 38.7286C34.0617 38.5503 34.0314 38.3719 34.0154 38.1936C33.7693 38.4643 33.6189 38.8082 33.5873 39.1727C33.4696 40.94 33.409 42.7145 33.2646 44.4801C33.2307 44.8992 32.9703 45.304 32.7866 45.7035C32.6582 45.9853 32.3568 46.2385 32.3515 46.5185C32.3122 48.268 32.3354 50.0175 32.3372 51.767V56.1364L34.5575 56.131ZM33.1558 19.4554C32.9917 18.5031 32.8669 17.5668 32.6528 16.6519C32.5904 16.388 32.2676 16.1847 32.0661 15.9529C31.8771 16.1633 31.5882 16.3434 31.515 16.5877C30.9342 18.4341 30.9342 20.4143 31.515 22.2607C31.5899 22.4997 31.886 22.6691 32.0804 22.8706C32.2694 22.6638 32.569 22.4819 32.6261 22.2429C32.8508 21.3298 32.9863 20.3953 33.1558 19.4554ZM37.2986 44.4515H37.0043C36.9562 44.7683 36.9246 45.0874 36.9098 45.4074C36.9098 48.2466 36.892 51.0858 36.9098 53.925C36.9098 54.7632 36.8688 55.5514 36.0466 56.1203H37.9174C37.7498 55.5104 37.4448 54.9023 37.4341 54.287C37.3824 51.3301 37.4127 48.3732 37.402 45.4164C37.3854 45.0931 37.3509 44.771 37.2986 44.4515ZM29.095 19.7319L29.3322 19.9405L30.8695 18.0216C29.803 18.0252 29.3928 18.4781 29.0914 19.739L29.095 19.7319ZM27.7645 20.8287C26.9157 21.4083 27.3847 22.1912 27.3811 23.0205C28.3638 22.3499 27.6897 21.5349 27.761 20.8358L27.7645 20.8287ZM28.1854 25.0482L28.5189 25.0196L28.0624 22.81C27.399 23.6072 27.4204 23.782 28.1819 25.0553L28.1854 25.0482ZM28.1854 18.0787L28.3852 18.2927L30.1008 16.6288C29.0468 16.6626 28.6491 17.4135 28.1819 18.0858L28.1854 18.0787ZM29.8547 25.0339C29.268 25.8008 29.9225 26.2341 30.2863 26.7709C30.8623 25.9167 30.8142 25.7259 29.8511 25.0428L29.8547 25.0339ZM29.498 18.2356C28.6634 18.3925 28.2389 19.1273 28.4904 20.1884L29.498 18.2356ZM27.3918 20.4452L27.7039 20.5772C27.9411 19.9173 28.1765 19.2557 28.4922 18.3694C27.4846 18.9721 27.5826 19.78 27.3793 20.4541L27.3918 20.4452ZM28.6866 23.996L28.9987 23.9514L28.7847 22.1234C28.1676 22.7636 28.1694 22.8528 28.6741 24.0049L28.6866 23.996ZM29.284 17.6667L29.4998 17.9752L30.98 16.9623L30.7214 16.5877L29.284 17.6667ZM28.2372 22.061L28.51 22.0842L28.5956 20.4595C27.8412 20.9267 28.0677 21.4974 28.2407 22.061H28.2372ZM29.7174 27.9926C30.4218 27.1615 29.9617 26.7442 29.5783 26.3269L29.3357 26.3804C29.4516 26.853 29.564 27.3309 29.7209 27.9926H29.7174Z" fill="white"/>
<path d="M41.5394 30.8283C40.2268 31.7824 38.7341 31.465 37.2236 31.4775L39.5812 32.0785C39.5464 32.4063 39.4452 32.7235 39.2837 33.0109C39.1223 33.2983 38.904 33.5497 38.6422 33.75C38.3804 33.9502 38.0805 34.095 37.7609 34.1756C37.4412 34.2562 37.1085 34.2708 36.7831 34.2186C36.4156 34.1605 36.0648 34.0248 35.7538 33.8206C35.4429 33.6164 35.179 33.3482 34.9797 33.0341C34.7805 32.7199 34.6504 32.3669 34.5982 31.9986C34.546 31.6303 34.5728 31.255 34.6769 30.8979C35.0585 29.5746 36.6529 28.7685 37.9512 29.209C38.8019 29.4997 39.6775 29.7155 40.5318 29.9955C40.8973 30.1389 41.2545 30.3027 41.6018 30.4859L41.5394 30.8283Z" fill="white"/>
</svg>
