<svg width="72" height="71" viewBox="0 0 72 71" fill="none" xmlns="http://www.w3.org/2000/svg">
<circle cx="36.1519" cy="35.2832" r="33.7583" fill="#4EC3CC" stroke="white" stroke-width="3"/>
<path d="M31.5585 48.2946C29.2227 48.2946 26.8868 48.2946 24.5509 48.2946C23.7548 48.2946 23.2603 47.787 23.2564 46.983C23.2564 45.1469 23.242 43.3107 23.2564 41.4745C23.2735 39.5282 24.1574 38.054 25.7785 37.0087C25.9766 36.8775 26.1917 36.7254 26.4461 36.85C26.7005 36.9746 26.6625 37.25 26.6625 37.4861C26.6625 40.5446 26.6625 43.6032 26.673 46.6669C26.673 46.903 26.5418 47.3227 26.871 47.3227C27.2002 47.3227 27.077 46.9096 27.0783 46.6761C27.0888 43.6176 27.0848 40.5591 27.0861 37.5018C27.0973 37.3271 27.0973 37.1519 27.0861 36.9772C27.0402 36.606 27.1779 36.3739 27.5583 36.3503C28.0055 36.3214 27.9518 36.6664 27.9518 36.9431C27.9518 37.9045 27.9518 38.8658 27.9596 39.8285C27.9596 40.0016 27.8665 40.2954 28.1564 40.2902C28.4187 40.2902 28.3688 40.0069 28.3688 39.818C28.3688 38.8344 28.3688 37.8507 28.3688 36.8683C28.3688 36.5982 28.3531 36.3319 28.7321 36.2965C29.0587 36.265 29.2253 36.3686 29.3538 36.7057C29.7473 37.7235 30.6444 38.3714 31.5939 38.3124C32.6432 38.2468 33.4183 37.7248 33.7619 36.707C33.9075 36.2755 34.1895 36.3057 34.5239 36.2873C34.8781 36.2677 35.0656 36.3791 35.1994 36.7306C35.6781 37.9923 36.4887 38.4986 37.8225 38.4225C37.8435 38.4225 37.8645 38.4134 37.8868 38.4134C38.6265 38.3911 40.1374 40.058 40.0089 40.7741C39.921 41.262 39.5865 41.5152 39.1065 41.3932C38.7524 41.304 38.553 41.4011 38.3196 41.645C37.328 42.6615 36.3116 43.6517 35.3135 44.6616C34.6105 45.3738 34.6118 45.9863 35.2938 46.7102C35.4735 46.9004 35.6598 47.0853 35.8486 47.2663C36.4873 47.8788 37.1838 47.8854 37.8094 47.2755C38.372 46.726 38.9216 46.162 39.479 45.6085C39.601 45.4879 39.7282 45.3265 39.9236 45.4079C40.119 45.4892 40.0666 45.7056 40.0679 45.8708C40.0679 46.1987 40.0679 46.5266 40.0508 46.8532C40.018 47.909 39.5879 48.3234 38.5137 48.3247C36.1975 48.3247 33.8804 48.3247 31.5625 48.3247L31.5585 48.2946ZM31.6805 41.2122C32.7297 41.2122 33.779 41.2056 34.8282 41.2122C35.1915 41.2122 35.4027 41.123 35.3896 40.6994C35.3673 39.9361 35.3896 39.1727 35.3778 38.4081C35.3778 38.2678 35.4197 38.0566 35.2178 38.0343C34.9791 38.0068 34.9555 38.2166 34.9555 38.3937C34.9555 38.9393 34.9161 39.4888 34.962 40.0305C35.0105 40.6036 34.8204 40.7846 34.2341 40.7741C32.3153 40.74 30.3952 40.7597 28.4751 40.765C28.2928 40.765 28.0134 40.7112 28.0147 40.984C28.016 41.2568 28.2928 41.2017 28.4764 41.203C29.5427 41.2109 30.6116 41.2083 31.6805 41.2083V41.2122ZM36.2552 40.3676C36.2552 40.9355 36.2552 41.5034 36.2552 42.0726C36.2552 42.226 36.2552 42.4149 36.4519 42.4306C36.6736 42.449 36.6578 42.2444 36.6578 42.1001C36.6578 41.0076 36.6578 39.9151 36.6578 38.8212C36.6578 38.6691 36.6578 38.4619 36.4703 38.4632C36.2368 38.4632 36.2513 38.6862 36.2513 38.8567C36.2526 39.359 36.2539 39.8613 36.2552 40.3636V40.3676Z" fill="white"/>
<path d="M31.8206 34.1932C29.2408 34.1932 27.8007 32.0003 27.6355 29.9595C27.5581 29.0125 28.467 28.1784 29.4179 28.1758C30.9235 28.1758 32.4292 28.1758 33.9348 28.1758C34.9684 28.1758 35.9022 29.1201 35.7173 30.1431C35.4549 31.6212 34.7913 32.9131 33.4496 33.7341C32.9289 34.0528 32.3439 34.2378 31.8206 34.1932Z" fill="white"/>
<path d="M42.0153 42.0658C41.2284 42.0422 40.6841 42.5524 40.7038 43.359C40.7127 43.4979 40.69 43.637 40.6373 43.7659C40.5846 43.8947 40.5033 44.0099 40.3995 44.1026C39.4499 45.0365 38.52 45.9926 37.5692 46.9264C37.0052 47.4799 36.638 47.4615 36.0556 46.8975C35.8982 46.7454 35.7443 46.5906 35.594 46.4333C35.0772 45.8968 35.0693 45.5073 35.6071 44.9722C36.5448 44.0252 37.4918 43.0875 38.4308 42.1419C38.5121 42.0424 38.6166 41.9643 38.735 41.9144C38.8534 41.8646 38.9822 41.8445 39.1102 41.8559C39.9313 41.9084 40.4637 41.4074 40.4218 40.5982C40.4034 40.1824 40.5437 39.8925 40.8769 39.747C41.21 39.6014 41.349 39.9726 41.5445 40.1522C41.8658 40.4486 42.1819 40.7516 42.4717 41.0782C42.6278 41.2526 42.9806 41.3982 42.7603 41.713C42.5963 41.9491 42.3799 42.2114 42.0153 42.0658ZM36.3114 45.7381C36.3914 45.7041 36.4668 45.66 36.5357 45.607C37.4013 44.7466 38.2647 43.8836 39.126 43.018C39.2073 42.938 39.2676 42.8383 39.1771 42.7347C39.0696 42.6035 38.9423 42.6389 38.8361 42.7412C38.5213 43.0429 38.2096 43.3489 37.901 43.6593C37.3615 44.1988 36.8233 44.7396 36.2865 45.2817C36.1946 45.3748 36.0923 45.4745 36.1553 45.6201C36.1697 45.6699 36.2471 45.6949 36.3114 45.7408V45.7381ZM39.8316 43.5767C39.8617 43.4272 39.808 43.359 39.7214 43.3275C39.5417 43.2619 39.4394 43.3996 39.3345 43.5033C38.5476 44.2849 37.7637 45.0692 36.9829 45.8562C36.8648 45.9755 36.672 46.1185 36.8268 46.2916C37.0314 46.5146 37.1718 46.2654 37.299 46.1408C38.0728 45.3775 38.84 44.6076 39.6086 43.8377C39.6978 43.7498 39.7752 43.6449 39.8316 43.5793V43.5767Z" fill="white"/>
<path d="M30.7283 24.4769C30.7283 23.9313 30.7283 23.3856 30.7283 22.84C30.7283 22.6945 30.7047 22.503 30.9224 22.4938C31.1401 22.4846 31.1336 22.6695 31.1349 22.8204C31.1349 23.1915 31.1349 23.5627 31.1349 23.9326C31.1349 24.1031 31.1165 24.3339 31.3539 24.3339C31.6162 24.3339 31.5362 24.0716 31.5467 23.926C31.569 23.6021 31.5467 23.2702 31.5467 22.9502C31.5467 22.6997 31.5375 22.4544 31.8995 22.4636C32.2392 22.4715 32.1959 22.7168 32.1946 22.9279C32.1946 23.2322 32.1579 23.5378 32.1776 23.846C32.1894 24.0375 32.1225 24.3549 32.4504 24.3326C32.7127 24.3142 32.655 24.0624 32.6432 23.8631C32.6248 23.5391 32.6222 23.2138 32.6248 22.8899C32.6248 22.722 32.6012 22.4964 32.853 22.503C33.1048 22.5095 33.0642 22.743 33.0615 22.9082C33.0537 23.387 33.0235 23.8657 33.0156 24.3431C33.0156 24.5136 33.0156 24.7366 33.2543 24.7287C33.493 24.7208 33.4707 24.5005 33.476 24.3352C33.4839 24.0965 33.4917 23.8552 33.476 23.6165C33.4445 23.164 33.556 23.0079 34.0229 23.2479C34.5704 23.5209 35.0553 23.9044 35.4472 24.3741C35.8391 24.8439 36.1294 25.3897 36.2998 25.9773C36.4165 26.3484 36.3339 26.5085 35.9312 26.5019C35.2991 26.4901 34.6656 26.4809 34.0334 26.5019C33.6163 26.5176 33.417 26.3839 33.476 25.9458C33.4879 25.8149 33.4879 25.6832 33.476 25.5523C33.476 25.4146 33.4314 25.2743 33.2701 25.2704C33.1088 25.2664 33.0838 25.4225 33.076 25.551C33.0642 25.7034 33.0642 25.8564 33.076 26.0088C33.1074 26.3865 32.9199 26.4822 32.5697 26.5006C30.7257 26.5898 30.7257 26.6042 30.7283 24.4769Z" fill="white"/>
<path d="M44.9 45.2189C45.2528 44.5855 44.719 44.2064 44.2757 43.7828C43.8979 43.4195 43.5425 43.0339 43.1595 42.6758C42.8762 42.4135 42.8408 42.1643 43.1595 41.9217C43.5215 41.6515 43.4782 41.4063 43.1517 41.1426C43.0205 41.0351 42.8723 40.8987 43.0546 40.7098C43.2369 40.521 43.3641 40.7098 43.4782 40.8174C44.1603 41.4928 44.8541 42.1591 45.5112 42.8581C45.8758 43.245 46.2259 43.4365 46.8043 43.3749C47.2869 43.3256 47.7708 43.4543 48.1651 43.7369C48.5593 44.0196 48.8366 44.4366 48.9448 44.9094C49.1769 45.8459 48.6641 46.8518 47.7369 47.2768C46.3938 47.8958 44.8751 46.8531 44.9 45.2189ZM47.0496 46.6275C47.3499 46.663 48.1329 46.0046 48.1684 45.6858C48.2484 44.9606 47.7264 44.3743 46.9211 44.2799C46.5984 44.2431 45.8102 44.8478 45.7564 45.173C45.6515 45.8485 46.2535 46.5318 47.0496 46.6275Z" fill="white"/>
<path d="M37.3948 33.9714C38.6775 33.7996 39.8526 34.9354 39.6021 36.1879C39.4985 36.702 39.631 36.9984 39.9785 37.3224C40.553 37.8562 41.0973 38.4241 41.6455 38.9854C41.7688 39.1166 42.0259 39.2294 41.8239 39.4589C41.6219 39.6884 41.458 39.4747 41.3491 39.3278C41.0592 38.9474 40.8022 39.0655 40.5779 39.3684C40.3156 39.7225 40.0979 39.6386 39.8539 39.3566C39.6821 39.1599 39.4696 38.9973 39.3031 38.7966C38.8126 38.2077 38.2879 37.8785 37.4276 37.9637C36.4203 38.0674 35.5127 37.1178 35.476 36.1525C35.476 36.0213 35.4314 35.8731 35.5638 35.7971C35.6963 35.721 35.796 35.8574 35.8904 35.9387C35.9062 35.9531 35.9193 35.9728 35.9363 35.9859C36.3298 36.281 36.579 36.9827 37.0577 36.8817C37.6282 36.7624 37.9443 36.0948 38.3994 35.6895C38.6211 35.4941 38.5542 35.2961 38.3588 35.1413C37.9745 34.8252 37.581 34.5196 37.1928 34.2101L37.3948 33.9714Z" fill="white"/>
<path d="M29.6722 35.4597V35.2603C29.6722 34.173 29.6722 34.1822 30.6978 34.4734C31.3864 34.6867 32.1249 34.6757 32.8068 34.4419C33.2554 34.2832 33.4862 34.3934 33.4783 34.8773C33.4705 35.3613 33.5347 35.8335 33.4219 36.3082C33.1806 37.3194 32.3609 37.9503 31.3903 37.8624C30.3922 37.7719 29.6919 36.9784 29.6735 35.9135C29.6709 35.7653 29.6722 35.6131 29.6722 35.4597Z" fill="white"/>
<path d="M31.5693 27.7585H26.8477C26.5526 27.7585 26.2208 27.8437 26.2287 27.3375C26.2365 26.8771 26.5356 26.944 26.811 26.944C29.9771 26.944 33.1436 26.944 36.3106 26.944C36.5729 26.944 36.8876 26.8587 36.8968 27.3309C36.9086 27.8398 36.5768 27.7545 36.283 27.7545C34.7135 27.7589 33.1423 27.7602 31.5693 27.7585Z" fill="white"/>
<path d="M30.2814 24.7957C30.2814 26.4916 30.2814 26.4916 28.5763 26.4916H27.8589C27.093 26.4916 27.0366 26.4181 27.2989 25.723C27.5057 25.1486 27.8282 24.6228 28.2465 24.1781C28.6647 23.7335 29.1698 23.3794 29.7305 23.1379C30.1318 22.9569 30.2945 23.0501 30.2814 23.4907C30.2682 23.9314 30.28 24.3603 30.2814 24.7957Z" fill="white"/>
<path d="M47.9518 30.484C47.9151 31.7011 46.8803 32.7045 45.7353 32.6337C45.3799 32.6114 44.252 31.4533 44.252 31.1057C44.252 29.8243 45.1595 28.9246 46.4331 28.9416C46.8488 28.9482 47.9636 30.0801 47.9518 30.484ZM46.0999 29.8138C45.8485 29.8145 45.6076 29.9146 45.4297 30.0922C45.2518 30.2699 45.1514 30.5107 45.1504 30.7621C45.1488 30.8868 45.1721 31.0105 45.2189 31.1261C45.2658 31.2417 45.3352 31.3467 45.4231 31.4352C45.5111 31.5236 45.6157 31.5936 45.7311 31.6411C45.8464 31.6885 45.97 31.7125 46.0947 31.7116C46.2196 31.7153 46.3439 31.6933 46.46 31.6473C46.5761 31.6012 46.6816 31.5319 46.77 31.4436C46.8584 31.3553 46.9278 31.2499 46.9741 31.1338C47.0204 31.0178 47.0424 30.8935 47.039 30.7686C47.0416 30.6439 47.0192 30.5198 46.9732 30.4038C46.9271 30.2878 46.8583 30.1822 46.7708 30.0932C46.6833 30.0042 46.5788 29.9337 46.4636 29.8857C46.3484 29.8377 46.2247 29.8133 46.0999 29.8138Z" fill="white"/>
<path d="M47.9935 34.4248C47.8557 34.9901 47.7233 35.4255 47.3652 35.7809C45.8963 37.2403 44.4352 38.7079 42.982 40.1838C42.7394 40.4304 42.5636 40.5773 42.2397 40.256C41.9157 39.9346 42.1295 39.7812 42.3341 39.5753C43.8096 38.0919 45.289 36.6112 46.7527 35.116C47.0859 34.7763 47.499 34.6465 47.9935 34.4248Z" fill="white"/>
<path d="M41.7801 30.0249C41.7801 30.5036 41.7801 30.9837 41.7801 31.4676C41.7926 31.5761 41.7926 31.6857 41.7801 31.7942C41.6896 32.1732 41.5781 32.6847 41.1663 32.6664C40.8043 32.6506 40.5472 32.164 40.5315 31.7798C40.483 30.6308 40.5105 29.4767 40.5 28.3251C40.5 27.8005 40.8699 27.8963 41.1859 27.8884C41.502 27.8805 41.8089 27.853 41.7906 28.3317C41.763 28.8917 41.7801 29.4583 41.7801 30.0249Z" fill="white"/>
<path d="M41.1167 26.3497H39.5429C38.8136 26.3497 38.7074 26.2186 38.8399 25.5156C38.9291 25.0434 39.2478 24.8952 39.6858 24.869C40.0872 24.8441 40.3823 24.8926 40.318 25.4067C40.2931 25.5995 40.4282 25.669 40.6039 25.6782C40.9537 25.6834 41.3034 25.6834 41.6532 25.6782C41.8499 25.6782 42.0164 25.6034 41.9942 25.3818C41.9443 24.9123 42.1935 24.8427 42.583 24.8572C43.0159 24.8768 43.3582 24.9883 43.467 25.4592C43.6323 26.174 43.4959 26.3405 42.7509 26.3418C42.2079 26.3497 41.6632 26.3523 41.1167 26.3497Z" fill="white"/>
<path d="M41.2105 26.8364H41.9293C42.1194 26.8364 42.2768 26.8692 42.2729 27.1171C42.269 27.365 42.1627 27.4817 41.9188 27.4804C41.3941 27.4804 40.8695 27.4804 40.3515 27.4804C40.1311 27.4804 40.0551 27.3492 40.0498 27.1446C40.0498 26.9177 40.1482 26.8338 40.362 26.8377C40.6439 26.8404 40.9299 26.8364 41.2105 26.8364Z" fill="white"/>
<path d="M27.2613 29.2983C26.902 28.4366 26.9885 28.152 27.5486 28.1729C27.8345 28.1847 27.9788 28.2385 27.7623 28.5389C27.601 28.7618 27.4568 28.9992 27.2613 29.2983Z" fill="white"/>
<path d="M36.064 29.3149C35.9328 29.0644 35.8109 28.8638 35.7073 28.6592C35.6364 28.5175 35.3715 28.3969 35.5368 28.2408C35.6443 28.1411 35.9027 28.1752 36.0876 28.1975C36.3302 28.225 36.2974 28.4415 36.2817 28.6015C36.2594 28.8257 36.3158 29.0776 36.064 29.3149Z" fill="white"/>
<path d="M46.9832 46.1463C46.4153 46.1463 46.2147 45.7686 46.2488 45.3357C46.2525 45.2485 46.2735 45.163 46.3107 45.084C46.3478 45.005 46.4004 44.9343 46.4652 44.8759C46.5301 44.8175 46.606 44.7727 46.6884 44.744C46.7708 44.7153 46.8581 44.7033 46.9452 44.7088C47.4252 44.7364 47.7059 45.0354 47.6666 45.5233C47.6338 45.9168 47.3557 46.1082 46.9832 46.1463Z" fill="white"/>
<path d="M46.6402 30.8013C46.6126 31.1383 46.433 31.3154 46.088 31.3062C45.709 31.2957 45.528 31.0872 45.545 30.7199C45.5414 30.6481 45.5533 30.5763 45.5802 30.5095C45.607 30.4428 45.6481 30.3826 45.7005 30.3334C45.7529 30.2841 45.8154 30.2468 45.8837 30.2241C45.952 30.2014 46.0244 30.1938 46.0959 30.2019C46.4697 30.2045 46.6376 30.4327 46.6402 30.8013Z" fill="white"/>
</svg>
