<svg width="194" height="103" viewBox="0 0 194 103" fill="none" xmlns="http://www.w3.org/2000/svg">
<rect x="23.8066" y="79.5703" width="98.4585" height="13.7171" rx="4.68828" fill="white"/>
<path d="M109.183 42.0298C111.923 39.2741 111.694 39.3564 110.335 35.5918C109.585 33.516 108.482 33.2477 106.646 33.3148C103.763 33.4215 103.104 32.6686 103.101 29.727C103.101 28.2547 103.071 26.7824 103.114 25.3101C103.165 23.5634 104.052 22.4874 105.769 22.7191C108.671 23.1093 109.826 21.8686 110.832 19.2532C111.649 17.1286 111.469 15.9611 109.82 14.5498C107.985 12.9799 108.082 11.5015 109.798 9.75486C110.865 8.66969 111.926 7.57536 113.036 6.52981C114.404 5.23735 115.837 5.14591 116.992 6.59687C118.632 8.6514 120.092 8.94098 122.628 7.77655C124.823 6.76758 125.591 5.77994 125.421 3.46632C125.253 1.17099 126.201 0.421116 128.536 0.415019C130.261 0.408923 131.99 0.393681 133.715 0.421115C135.376 0.448549 136.498 1.3173 136.236 2.93897C135.739 6.03295 137.3 7.18823 139.894 8.01431C142.311 8.78552 142.256 8.95013 144.07 7.14556C146.17 5.05751 147.185 5.05751 149.282 7.15166C150.288 8.15758 151.309 9.14521 152.291 10.1725C153.66 11.6021 153.788 12.8824 152.297 14.1017C150.258 15.766 149.834 17.3176 151.16 19.7684C152.639 22.4996 152.395 22.6337 155.495 22.6581C157.878 22.6764 158.561 23.3592 158.57 25.7551C158.577 27.4317 158.595 29.1052 158.561 30.7817C158.531 32.3516 157.659 33.4946 156.15 33.2691C152.992 32.7996 151.681 34.2415 150.828 37.0611C150.105 39.4479 149.84 39.3686 151.654 41.1884C153.937 43.4777 153.98 44.2123 151.681 46.4192C150.264 47.7788 149.136 49.4644 147.328 50.4003C145.963 50.6472 145.085 49.623 144.006 49.1322H143.981C143.896 48.9462 143.814 48.7633 143.728 48.5774C142.549 46.3674 141.226 44.3068 138.964 42.9869C137.132 41.917 135.105 41.4963 133.111 40.9446C136.766 40.0972 139.76 38.253 141.851 35.0828C144.957 30.3732 144.631 24.5023 140.982 19.7653C137.589 15.3606 132.008 14.0681 127.003 15.5191C121.199 17.2017 117.803 22.5118 117.763 27.7975C117.724 33.0527 120.617 38.4572 127.326 40.6428C124.665 41.0543 121.985 40.783 119.315 40.8166C118.05 40.8318 117.651 41.2677 117.675 42.4992C117.715 44.7214 117.611 46.9435 117.568 49.1657C116.111 50.2997 114.621 50.9764 112.987 49.4705C112.786 48.3427 112.642 47.1996 112.371 46.087C111.929 44.2702 110.378 43.2826 109.183 42.0328V42.0298Z" fill="#41A7B5"/>
<path d="M193.284 52.376C193.369 55.4914 193.315 55.5706 190.205 55.9273C189.199 56.0431 188.431 56.3449 188.319 57.5002C188.3 57.6983 188.239 57.9086 188.142 58.0793C187.093 59.8961 187.343 61.3074 189.215 62.4993C190.285 63.179 190.242 64.3313 189.474 65.3037C188.623 66.3767 187.709 67.4039 186.764 68.3916C185.679 69.5286 184.7 69.6383 183.627 68.4647C182.402 67.1296 181.442 67.0412 179.756 67.8703C177.884 68.7909 177.141 69.748 177.613 71.7934C177.86 72.8573 177.195 73.6376 176.077 73.8754C174.473 74.2107 172.846 74.2076 171.221 74.1558C170.303 74.1284 169.721 73.5736 169.544 72.6683C169.419 72.022 169.288 71.3636 169.273 70.7113C169.255 69.8639 168.922 69.367 168.066 69.2512C167.917 69.2298 167.761 69.1902 167.63 69.1201C165.664 68.0867 164.027 68.1508 162.634 70.1961C161.908 71.26 160.735 70.9856 159.799 70.2388C158.888 69.5103 158.022 68.7269 157.156 67.9435C155.842 66.7516 155.687 65.642 156.955 64.4197C158.251 63.1699 158.488 62.0329 157.33 60.6277C157.11 60.3625 156.955 60.0089 156.876 59.6705C156.592 58.4817 155.83 58.247 154.712 58.3537C151.895 58.6219 151.557 58.311 151.249 55.5432C151.163 54.7903 150.977 54.0434 150.956 53.2936C150.892 51.1872 151.441 50.5989 153.468 50.227C154.233 50.0868 155.309 50.5197 155.717 49.6844C156.312 48.4682 156.693 47.1269 157.004 45.801C157.156 45.1517 156.431 44.7828 155.986 44.3866C153.934 42.5546 153.904 41.9906 155.766 39.927C156.309 39.3234 156.812 38.6833 157.36 38.0858C158.635 36.6897 159.427 36.6379 160.893 37.7444C161.524 38.223 162.015 39.2807 162.832 39.043C164.173 38.6498 165.42 37.9121 166.673 37.2598C167.109 37.0311 166.889 36.5282 166.871 36.135C166.716 32.5685 167.014 32.2484 170.633 32.1052C171.139 32.0838 171.648 32.0472 172.151 31.9893C174.141 31.7607 174.894 32.3673 175.04 34.309C175.101 35.1016 174.86 36.1654 175.641 36.5526C176.894 37.1775 178.235 37.7597 179.655 37.8694C180.36 37.9243 180.652 37.0799 181.091 36.6074C182.682 34.9096 183.46 34.8577 185.173 36.391C185.892 37.0342 186.608 37.6774 187.334 38.3145C188.593 39.4179 188.654 40.2288 187.684 41.5944C187.172 42.3138 186.066 42.8685 186.352 43.8501C186.73 45.1456 187.441 46.3527 188.062 47.5689C188.239 47.9164 188.675 47.889 189.035 47.8159C192.586 47.0995 193.22 48.2487 193.287 51.7694C193.29 51.9737 193.287 52.1749 193.287 52.3791L193.284 52.376ZM172.272 43.1094C166.755 43.1033 162.283 47.5263 162.244 53.0314C162.204 58.5091 166.883 63.2004 172.312 63.1242C177.701 63.048 182.256 58.3994 182.243 52.9918C182.231 47.6787 177.628 43.1154 172.272 43.1094Z" fill="white"/>
<path d="M93.5051 59.4839C93.7185 62.9041 94.7518 64.1051 98.0897 64.5928C100.053 64.8794 102.037 64.8184 103.976 64.3398C105.689 63.9161 106.305 62.8675 106.137 60.8739C106.012 59.4169 105.006 58.4475 103.409 58.35C102.144 58.2738 100.876 58.2768 99.6077 58.2799C98.6628 58.2799 98.2787 57.8714 98.2177 56.9082C97.9342 52.4608 97.9129 52.473 102.312 52.1834C103.491 52.1072 104.671 51.8847 105.393 50.8208C106.418 49.3119 105.665 47.2848 103.869 46.8276C101.37 46.1936 98.8365 46.2759 96.3522 46.8947C95.2091 47.1781 94.3586 47.9737 94.2093 49.2113C94.0294 50.7019 93.2155 51.1317 91.8194 51.0068C90.6611 50.9062 89.4906 50.958 88.3231 50.9671C87.4421 50.9732 87.116 50.6775 87.1465 49.693C87.2166 47.5043 88.1006 45.6876 89.3229 43.9683C91.9566 41.3468 95.2853 40.5208 98.8396 40.3165C102.409 40.1093 105.881 40.5543 109.179 42.0297C110.374 43.2764 111.926 44.264 112.368 46.0838C112.639 47.1964 112.782 48.3365 112.983 49.4674C112.182 52.3937 109.969 53.5795 107.244 54.1861C106.719 54.3019 105.893 54.2714 105.945 55.1646C105.997 56.0577 106.838 55.7956 107.353 56.0028C107.539 56.079 107.747 56.1004 107.942 56.1522C110.286 56.7741 112.496 57.6946 113.005 60.3679C113.587 63.4223 113.057 66.2206 110.331 68.2385C108.128 69.8724 105.594 70.4455 102.942 70.7107C99.6778 71.0368 96.4436 70.8844 93.3588 69.72C90.1886 68.522 88.0091 66.3212 87.1465 62.9529C87.0093 62.4164 86.8111 61.8951 86.6404 61.3647C86.6404 61.1635 86.6557 60.9623 86.6313 60.7642C86.4149 58.984 86.4332 58.9536 88.2926 58.9383C89.5485 58.9261 90.8013 58.9292 92.0572 58.9353C92.6059 58.9353 93.185 58.8834 93.5082 59.487L93.5051 59.4839Z" fill="#BFDFFF"/>
<path d="M50.7808 61.0447C49.9151 67.254 45.8152 69.9304 40.1637 70.5156C37.7556 70.7656 35.3231 70.7321 32.9058 70.226C27.8884 69.1774 24.1634 65.7055 24.1878 59.2097C24.2122 53.5338 24.1512 47.861 24.1299 42.1852C24.1908 41.7462 24.2488 41.3042 24.3097 40.8653L24.3402 40.847C25.9619 40.8379 27.5897 40.8988 29.2052 40.7982C30.4885 40.7159 31.1439 41.0512 30.9153 42.4565C30.8513 42.8467 30.9427 43.2643 30.9641 43.6666C30.9671 48.2603 30.9702 52.8571 30.9732 57.4508C30.8879 57.9843 30.8726 58.5086 31.0951 59.0176C31.1043 59.1883 31.1134 59.3621 31.1226 59.5328C31.1043 59.5633 31.0647 59.5968 31.0708 59.6242C31.0829 59.6913 31.1165 59.7523 31.1439 59.8163C31.3695 62.642 32.668 64.1875 35.2773 64.6874C36.7832 64.977 38.3012 64.98 39.807 64.6874C42.1938 64.224 43.6448 62.7639 43.9222 60.429C44.1142 58.8195 44.2423 57.1948 44.2575 55.5731C44.2971 50.6989 44.2697 45.8278 44.2666 40.9537C46.1322 40.6672 48.0068 40.8836 49.8785 40.8348C51.0368 40.8043 50.8051 41.6822 50.8051 42.3437C50.8082 48.5774 50.7929 54.811 50.7838 61.0447H50.7808Z" fill="white"/>
<path d="M83.2971 42.7639C80.5384 46.562 77.7828 50.3632 75.021 54.1582C74.3809 55.0392 74.3321 55.9476 74.9631 56.8255C78.1242 61.2149 81.3035 65.5922 84.4798 69.9726L84.492 70.0976C82.5198 70.1341 80.5384 70.0945 78.5723 70.2347C77.2371 70.3292 76.4202 69.7958 75.7161 68.7472C73.7499 65.8117 71.7046 62.925 69.7445 59.9865C69.1196 59.0507 68.7813 59.1178 68.1686 60.0139C66.0287 63.1384 63.8096 66.211 61.6331 69.3111C61.3435 69.7226 61.1698 70.2317 60.5358 70.2042C58.1642 70.1098 55.7805 70.4268 53.415 70.0335H53.4455C55.7866 66.7414 58.1215 63.4432 60.4778 60.1603C61.2125 59.136 62.0172 58.1636 62.7549 57.1394C63.523 56.0756 63.523 54.9782 62.7488 53.9083C59.8408 49.8876 56.9297 45.87 54.0216 41.8494C53.6863 41.255 53.6132 40.813 54.5337 40.8221C56.445 40.8374 58.3593 40.8679 60.2675 40.8191C61.4533 40.7886 61.5325 41.9927 62.2641 42.4499C64.2942 45.3915 66.3427 48.3178 68.3362 51.2837C68.8758 52.0854 69.1654 51.8934 69.6135 51.238C71.6985 48.205 73.8109 45.1903 75.9111 42.1695C76.5726 40.9258 77.6486 40.7033 78.9533 40.8008C80.2518 40.8983 81.5656 40.8038 82.8703 40.8313C83.2971 40.8404 83.8671 40.624 84.1109 41.0904C84.3639 41.5781 83.7269 41.8342 83.5744 42.2365C83.5043 42.4194 83.3916 42.5901 83.3001 42.7669L83.2971 42.7639Z" fill="white"/>
<path d="M128.079 73.5057C126.308 73.2893 125.759 72.2163 126.03 70.5733C126.512 70.1862 127.085 70.3051 127.628 70.3112C129.691 70.3325 131.746 70.2624 133.791 69.9637C133.831 70.9482 133.867 71.9298 133.907 72.9144C134.075 73.335 134.227 73.7648 134.413 74.1794C135.757 77.2124 138.525 78.7731 141.906 78.4104C144.942 78.0842 147.359 75.5999 148.014 72.1432C148.508 69.5308 146.85 66.4216 144.213 65.0255C143.729 64.8121 143.244 64.6018 142.759 64.3884C143.479 63.0258 143.652 61.4407 144.497 60.1269C145.213 60.3921 145.926 60.6573 146.643 60.9225C147.518 61.8736 148.325 61.3432 148.969 60.6909C150.048 59.5966 150.919 59.9075 151.785 60.8982C152.218 61.395 152.614 61.9254 153.059 62.4101C153.937 63.3581 153.861 64.2573 152.858 65.0011C152.008 65.6321 151.712 66.2661 152.133 67.3269C152.547 68.3694 152.651 69.4516 154.242 69.3936C155.598 69.3418 156.242 70.2228 156.071 71.6067C156.022 72.009 155.946 72.4084 155.9 72.8107C155.605 75.3072 155.605 75.3499 153.145 75.2615C152.422 75.2371 152.081 75.5206 151.934 76.1089C151.697 77.0539 150.456 77.7702 151.389 78.9956C152.858 80.9282 152.825 80.9526 150.944 82.6078C150.639 82.8761 150.34 83.1504 150.048 83.4308C149.151 84.2874 148.243 84.4002 147.466 83.3333C146.634 82.1932 145.676 82.3639 144.509 82.7175C143.393 83.0559 142.967 83.6351 142.96 84.7721C142.957 85.8481 142.342 86.4486 141.199 86.3846C140.693 86.3572 140.183 86.3633 139.677 86.348C137.327 86.281 137.074 86.031 137.141 83.6808C137.187 82.0744 135.605 82.3213 134.855 81.6232C134.328 81.1325 133.886 81.4068 133.398 81.8061C131.658 83.2357 131.313 83.1931 129.832 81.4891C129.432 81.0319 129.012 80.5777 128.692 80.0656C128.256 79.3706 128.085 78.4104 128.826 78.0171C130.389 77.188 130.155 76.1028 129.649 74.8439C129.518 74.5147 129.42 74.1733 129.31 73.8349C129.219 73.7465 129.131 73.6551 129.039 73.5667C128.722 73.5454 128.402 73.524 128.085 73.4996L128.079 73.5057Z" fill="white"/>
<path d="M7.46548 42.188C7.44719 49.3941 7.44414 56.6001 7.38927 63.8092C7.38318 64.7969 7.68496 64.928 8.62077 64.8761C12.5713 64.6597 16.531 64.5865 20.4846 64.3976C21.5179 64.3488 21.7404 64.7207 21.7526 65.687C21.8014 70.3569 21.8288 70.3599 17.0766 70.4575C14.1351 70.5184 11.1904 70.5642 8.24888 70.619C6.45346 70.6007 4.66109 70.5794 2.86567 70.5611C1.16779 69.8478 0.707506 68.4578 0.710555 66.7569C0.716651 58.1547 0.701409 49.5526 0.695312 40.9504C2.64619 40.6639 4.60622 40.8986 6.56015 40.8224C7.63923 40.7797 7.34355 41.6149 7.47158 42.188H7.46548Z" fill="white"/>
<path d="M127.323 40.6425C129.256 40.6516 131.191 40.676 133.112 40.9442C135.108 41.496 137.132 41.9166 138.964 42.9866C141.226 44.3065 142.549 46.3671 143.726 48.5771C143.692 48.8148 143.762 49.0069 143.979 49.1318H144.003C144.296 51.9179 145.161 54.6553 144.689 57.5115C144.546 58.3711 144.092 59.2185 144.488 60.1238C143.643 61.4376 143.47 63.0227 142.75 64.3853C140.671 67.7079 137.62 69.4637 133.785 69.9636C131.743 70.2623 129.686 70.3324 127.622 70.3111C127.082 70.305 126.506 70.1861 126.025 70.5732C123.802 70.5489 121.577 70.4696 119.355 70.5184C118.108 70.5458 117.685 70.1038 117.694 68.854C117.739 62.9922 117.712 57.1335 117.697 51.2717C117.697 50.5676 117.605 49.8665 117.56 49.1623C117.602 46.9401 117.706 44.718 117.666 42.4958C117.645 41.2643 118.041 40.8284 119.306 40.8132C121.976 40.7796 124.656 41.0509 127.317 40.6394L127.323 40.6425ZM136.91 60.4652C136.998 60.386 137.084 60.3067 137.172 60.2275C138.077 57.2951 138.062 54.3108 137.315 51.3845C136.66 48.8209 134.986 47.1169 132.194 46.9066C130.582 46.7847 128.957 46.7694 127.335 46.7633C124.583 46.7542 124.586 46.7725 124.598 49.4732C124.598 49.7262 124.534 49.9762 124.534 50.2292C124.516 54.5364 124.507 58.8466 124.485 63.1538C124.482 63.9433 124.763 64.4097 125.631 64.3883C127.402 64.3487 129.176 64.3274 130.947 64.2999C133.792 64.5956 136.514 62.8459 136.943 60.4469L136.91 60.4591V60.4652Z" fill="#BFDFFF"/>
<path d="M53.7319 87.9154V88.6958H50.7476V84.1913H53.7319V84.9686H51.6904V86.0549H53.6164V86.7791H51.6904V87.9154H53.7319ZM59.8537 88.6958H58.9515V84.1913H59.7382L61.8422 87.1256H61.8671V84.1913H62.7693V88.6958H61.9889L59.8818 85.7459H59.8537V88.6958ZM72.0876 86.8041C72.0876 88.0309 71.3446 88.7738 70.0897 88.7738C68.7443 88.7738 67.9202 87.8935 67.9202 86.4295C67.9202 84.9873 68.7443 84.1133 70.0679 84.1133C71.1199 84.1133 71.9128 84.7345 72.047 85.646H71.1012C70.9638 85.1746 70.5798 84.8937 70.071 84.8937C69.3281 84.8937 68.8817 85.4587 68.8817 86.417C68.8817 87.3941 69.3562 87.9903 70.1054 87.9903C70.7203 87.9903 71.148 87.6126 71.1667 87.0538L71.1698 86.982H70.1896V86.2953H72.0876V86.8041ZM78.1937 88.6958H77.251V84.1913H78.1937V88.6958ZM84.3842 88.6958H83.482V84.1913H84.2687L86.3727 87.1256H86.3976V84.1913H87.2998V88.6958H86.5194L84.4123 85.7459H84.3842V88.6958ZM95.5755 87.9154V88.6958H92.5912V84.1913H95.5755V84.9686H93.5339V86.0549H95.46V86.7791H93.5339V87.9154H95.5755Z" fill="#1E1E1E"/>
<path d="M46.1195 100.035H45.7339V97.5504H46.1195V100.035ZM46.9528 100.035H46.5775V97.5504H46.9269L48.2147 99.3822H48.2285V97.5504H48.6038V100.035H48.256L46.9683 98.2046H46.9528V100.035ZM50.1378 97.509C50.8522 97.509 51.3016 98.0032 51.3016 98.7934C51.3016 99.5836 50.8522 100.076 50.1378 100.076C49.4216 100.076 48.974 99.5836 48.974 98.7934C48.974 98.0032 49.4216 97.509 50.1378 97.509ZM50.1378 97.8482C49.6661 97.8482 49.3682 98.2132 49.3682 98.7934C49.3682 99.3718 49.6661 99.7368 50.1378 99.7368C50.6095 99.7368 50.9056 99.3718 50.9056 98.7934C50.9056 98.2132 50.6095 97.8482 50.1378 97.8482ZM52.7082 100.035H52.2864L51.3997 97.5504H51.8181L52.4947 99.6008H52.505L53.1833 97.5504H53.5948L52.7082 100.035ZM55.2476 100.035L55.0203 99.3632H54.0734L53.8462 100.035H53.445L54.342 97.5504H54.7586L55.6556 100.035H55.2476ZM54.5417 97.9636L54.1715 99.0533H54.9222L54.552 97.9636H54.5417ZM56.5904 100.035H56.2048V97.8826H55.4438V97.5504H57.3497V97.8826H56.5904V100.035ZM58.0504 100.035H57.6647V97.5504H58.0504V100.035ZM59.5826 97.509C60.2971 97.509 60.7464 98.0032 60.7464 98.7934C60.7464 99.5836 60.2971 100.076 59.5826 100.076C58.8664 100.076 58.4188 99.5836 58.4188 98.7934C58.4188 98.0032 58.8664 97.509 59.5826 97.509ZM59.5826 97.8482C59.1109 97.8482 58.813 98.2132 58.813 98.7934C58.813 99.3718 59.1109 99.7368 59.5826 99.7368C60.0543 99.7368 60.3505 99.3718 60.3505 98.7934C60.3505 98.2132 60.0543 97.8482 59.5826 97.8482ZM61.4902 100.035H61.1149V97.5504H61.4643L62.7521 99.3822H62.7659V97.5504H63.1412V100.035H62.7934L61.5057 98.2046H61.4902V100.035ZM65.3139 100.035H64.3171V97.5504H65.3087C65.7495 97.5504 66.0387 97.7948 66.0387 98.1701C66.0387 98.4336 65.8442 98.6694 65.5962 98.7107V98.7245C65.9337 98.7624 66.1609 99.0017 66.1609 99.3322C66.1609 99.7695 65.8424 100.035 65.3139 100.035ZM64.7027 97.8654V98.6074H65.1348C65.4688 98.6074 65.6531 98.4697 65.6531 98.2235C65.6531 97.9928 65.4947 97.8654 65.2158 97.8654H64.7027ZM64.7027 99.7196H65.2347C65.5825 99.7196 65.7667 99.5767 65.7667 99.3081C65.7667 99.0396 65.5773 98.9018 65.2123 98.9018H64.7027V99.7196ZM67.5486 100.035H67.1629V99.0172L66.2883 97.5504H66.7187L67.3523 98.647H67.3644L67.9979 97.5504H68.4249L67.5486 99.0172V100.035ZM71.0349 100.035L70.8076 99.3632H69.8607L69.6335 100.035H69.2323L70.1293 97.5504H70.5459L71.4429 100.035H71.0349ZM70.329 97.9636L69.9588 99.0533H70.7095L70.3393 97.9636H70.329ZM72.0816 97.5504V99.1291C72.0816 99.4837 72.3054 99.7334 72.7014 99.7334C73.0974 99.7334 73.3229 99.4837 73.3229 99.1291V97.5504H73.7068V99.1618C73.7068 99.6972 73.3246 100.076 72.7014 100.076C72.0782 100.076 71.696 99.6972 71.696 99.1618V97.5504H72.0816ZM75.1668 100.035H74.7811V97.8826H74.0202V97.5504H75.926V97.8826H75.1668V100.035ZM77.1673 97.509C77.8818 97.509 78.3311 98.0032 78.3311 98.7934C78.3311 99.5836 77.8818 100.076 77.1673 100.076C76.4511 100.076 76.0035 99.5836 76.0035 98.7934C76.0035 98.0032 76.4511 97.509 77.1673 97.509ZM77.1673 97.8482C76.6956 97.8482 76.3977 98.2132 76.3977 98.7934C76.3977 99.3718 76.6956 99.7368 77.1673 99.7368C77.639 99.7368 77.9351 99.3718 77.9351 98.7934C77.9351 98.2132 77.639 97.8482 77.1673 97.8482ZM81.2131 100.035H80.8602V98.2063H80.8481L80.0992 100.016H79.8134L79.0628 98.2063H79.0507V100.035H78.6995V97.5504H79.1454L79.9494 99.5113H79.9632L80.7655 97.5504H81.2131V100.035ZM83.2894 100.035L83.0621 99.3632H82.1152L81.888 100.035H81.4868L82.3838 97.5504H82.8004L83.6974 100.035H83.2894ZM82.5835 97.9636L82.2134 99.0533H82.964L82.5938 97.9636H82.5835ZM84.6322 100.035H84.2466V97.8826H83.4856V97.5504H85.3915V97.8826H84.6322V100.035ZM86.0922 100.035H85.7065V97.5504H86.0922V100.035ZM87.6244 97.509C88.3389 97.509 88.7883 98.0032 88.7883 98.7934C88.7883 99.5836 88.3389 100.076 87.6244 100.076C86.9082 100.076 86.4606 99.5836 86.4606 98.7934C86.4606 98.0032 86.9082 97.509 87.6244 97.509ZM87.6244 97.8482C87.1527 97.8482 86.8549 98.2132 86.8549 98.7934C86.8549 99.3718 87.1527 99.7368 87.6244 99.7368C88.0962 99.7368 88.3923 99.3718 88.3923 98.7934C88.3923 98.2132 88.0962 97.8482 87.6244 97.8482ZM89.532 100.035H89.1567V97.5504H89.5062L90.7939 99.3822H90.8077V97.5504H91.183V100.035H90.8353L89.5475 98.2046H89.532V100.035Z" fill="white"/>
</svg>
