<svg width="124" height="66" viewBox="0 0 124 66" fill="none" xmlns="http://www.w3.org/2000/svg">
<rect x="15.2852" y="50.9106" width="63.003" height="8.77751" rx="3" fill="#1E1E1E"/>
<path d="M69.9167 26.8887C71.6702 25.1254 71.5239 25.178 70.654 22.7691C70.1741 21.4408 69.468 21.2691 68.2938 21.312C66.4486 21.3803 66.0273 20.8985 66.0253 19.0162C66.0253 18.0741 66.0058 17.132 66.0331 16.1899C66.0663 15.0722 66.6339 14.3836 67.732 14.5319C69.589 14.7816 70.3282 13.9877 70.9719 12.3141C71.4947 10.9546 71.3796 10.2075 70.3243 9.30439C69.1501 8.29986 69.2125 7.35383 70.3107 6.23616C70.9934 5.54177 71.6722 4.84152 72.3822 4.17247C73.258 3.34544 74.1747 3.28692 74.914 4.21539C75.9634 5.53006 76.8977 5.71536 78.5206 4.97025C79.925 4.32462 80.4165 3.69264 80.3073 2.21216C80.2 0.743393 80.8066 0.263555 82.3008 0.259654C83.4048 0.255753 84.5107 0.246 85.6148 0.263555C86.6778 0.28111 87.3956 0.837019 87.2279 1.87472C86.9099 3.85453 87.9086 4.59379 89.5685 5.1224C91.1153 5.61589 91.0802 5.72122 92.2408 4.56649C93.5847 3.23035 94.2343 3.23035 95.5763 4.57039C96.2199 5.21407 96.8734 5.84605 97.5015 6.50339C98.3773 7.4182 98.4592 8.23744 97.5054 9.01766C96.2004 10.0827 95.9293 11.0755 96.7778 12.6437C97.7238 14.3914 97.5678 14.4773 99.5515 14.4929C101.077 14.5046 101.514 14.9415 101.52 16.4746C101.524 17.5475 101.535 18.6183 101.514 19.6911C101.494 20.6957 100.936 21.4271 99.9709 21.2828C97.9501 20.9824 97.1114 21.905 96.5652 23.7093C96.1029 25.2366 95.9332 25.1858 97.0938 26.3503C98.5548 27.8152 98.5821 28.2853 97.1114 29.6975C96.2043 30.5674 95.4826 31.6461 94.3259 32.2449C93.4521 32.4029 92.8903 31.7475 92.1998 31.4335H92.1842C92.1296 31.3145 92.077 31.1975 92.0223 31.0785C91.2675 29.6643 90.4209 28.3457 88.9736 27.5011C87.8013 26.8165 86.5042 26.5473 85.2285 26.1943C87.5673 25.652 89.4827 24.4719 90.8208 22.4433C92.8084 19.4297 92.5997 15.673 90.2649 12.6418C88.0939 9.82324 84.5224 8.9962 81.3196 9.92467C77.6058 11.0014 75.4328 14.3992 75.4075 17.7815C75.3821 21.1443 77.2332 24.6026 81.5264 26.0012C79.8236 26.2645 78.109 26.0909 76.4003 26.1124C75.5908 26.1221 75.3353 26.401 75.3509 27.1891C75.3763 28.611 75.31 30.033 75.2827 31.4549C74.3503 32.1805 73.3965 32.6136 72.351 31.65C72.2222 30.9283 72.1306 30.1968 71.957 29.4849C71.6741 28.3223 70.6813 27.6904 69.9167 26.8906V26.8887Z" fill="#0C9CB0"/>
<path d="M123.732 33.5092C123.787 35.5026 123.752 35.5533 121.762 35.7816C121.118 35.8557 120.627 36.0488 120.555 36.7881C120.543 36.9148 120.504 37.0494 120.442 37.1587C119.771 38.3212 119.931 39.2243 121.128 39.987C121.813 40.4219 121.785 41.1593 121.294 41.7815C120.75 42.4681 120.165 43.1254 119.56 43.7574C118.865 44.485 118.239 44.5552 117.553 43.8042C116.769 42.9499 116.154 42.8933 115.076 43.4239C113.878 44.0129 113.402 44.6254 113.704 45.9342C113.862 46.615 113.437 47.1143 112.721 47.2664C111.695 47.481 110.654 47.4791 109.614 47.4459C109.027 47.4283 108.654 47.0733 108.541 46.494C108.461 46.0805 108.377 45.6592 108.368 45.2418C108.356 44.6995 108.143 44.3816 107.595 44.3075C107.5 44.2938 107.4 44.2684 107.316 44.2236C106.058 43.5623 105.011 43.6033 104.119 44.9121C103.655 45.5929 102.904 45.4173 102.305 44.9394C101.722 44.4732 101.168 43.972 100.614 43.4707C99.7734 42.708 99.674 41.998 100.485 41.2158C101.314 40.4161 101.467 39.6885 100.725 38.7893C100.585 38.6196 100.485 38.3934 100.435 38.1768C100.253 37.4161 99.7656 37.2659 99.0498 37.3342C97.2475 37.5059 97.0309 37.3069 96.8339 35.5358C96.7793 35.054 96.6603 34.5761 96.6467 34.0963C96.6057 32.7484 96.9568 32.372 98.2539 32.134C98.7435 32.0443 99.4321 32.3213 99.6935 31.7868C100.074 31.0085 100.318 30.1503 100.517 29.3018C100.614 28.8863 100.15 28.6503 99.8651 28.3967C98.5524 27.2245 98.5329 26.8636 99.7247 25.5431C100.072 25.1569 100.394 24.7473 100.745 24.3649C101.56 23.4716 102.067 23.4384 103.006 24.1465C103.409 24.4527 103.723 25.1296 104.246 24.9774C105.104 24.7258 105.902 24.2538 106.704 23.8363C106.983 23.6901 106.842 23.3682 106.831 23.1166C106.731 20.8344 106.922 20.6296 109.238 20.538C109.561 20.5243 109.887 20.5009 110.209 20.4638C111.483 20.3175 111.964 20.7057 112.058 21.9482C112.097 22.4553 111.943 23.1361 112.442 23.3838C113.244 23.7837 114.102 24.1562 115.011 24.2265C115.462 24.2616 115.649 23.7213 115.93 23.4189C116.948 22.3325 117.445 22.2993 118.542 23.2804C119.002 23.692 119.46 24.1036 119.925 24.5112C120.73 25.2173 120.769 25.7362 120.149 26.61C119.821 27.0704 119.113 27.4254 119.297 28.0535C119.538 28.8824 119.993 29.6549 120.391 30.4331C120.504 30.6555 120.783 30.6379 121.013 30.5911C123.285 30.1327 123.691 30.8681 123.734 33.121C123.736 33.2517 123.734 33.3804 123.734 33.5111L123.732 33.5092ZM110.287 27.5795C106.756 27.5756 103.895 30.4058 103.87 33.9285C103.844 37.4337 106.838 40.4356 110.312 40.3868C113.761 40.3381 116.675 37.3635 116.667 33.9032C116.659 30.5034 113.714 27.5834 110.287 27.5795Z" fill="#4EC3CC"/>
<path d="M59.8849 38.0575C60.0215 40.2461 60.6827 41.0146 62.8186 41.3267C64.0747 41.51 65.3445 41.471 66.5851 41.1648C67.6813 40.8936 68.0753 40.2226 67.968 38.947C67.8881 38.0146 67.2444 37.3943 66.2223 37.3319C65.4128 37.2832 64.6014 37.2851 63.7899 37.2871C63.1853 37.2871 62.9395 37.0257 62.9005 36.4093C62.7191 33.5634 62.7054 33.5712 65.5201 33.3859C66.2749 33.3372 67.0298 33.1948 67.4921 32.514C68.1475 31.5485 67.6657 30.2514 66.5168 29.9588C64.9174 29.5531 63.2964 29.6058 61.7067 30.0017C60.9753 30.1831 60.4311 30.6922 60.3355 31.4841C60.2204 32.438 59.6996 32.713 58.8063 32.633C58.065 32.5687 57.316 32.6018 56.569 32.6077C56.0053 32.6116 55.7965 32.4224 55.816 31.7923C55.8609 30.3918 56.4266 29.2293 57.2087 28.1292C58.894 26.4517 61.024 25.9231 63.2984 25.7924C65.5825 25.6598 67.8042 25.9446 69.9147 26.8886C70.6793 27.6864 71.6721 28.3184 71.955 29.4829C72.1286 30.1948 72.2202 30.9243 72.349 31.648C71.836 33.5205 70.4199 34.2793 68.6761 34.6675C68.3406 34.7416 67.812 34.7221 67.8451 35.2936C67.8783 35.8651 68.4167 35.6974 68.7463 35.83C68.8653 35.8788 68.9979 35.8924 69.1228 35.9256C70.6227 36.3235 72.0369 36.9126 72.3626 38.6232C72.7352 40.5777 72.3958 42.3683 70.652 43.6595C69.2417 44.705 67.6208 45.0717 65.9238 45.2414C63.8348 45.4501 61.7653 45.3526 59.7913 44.6075C57.7627 43.8409 56.3681 42.4326 55.816 40.2773C55.7283 39.934 55.6015 39.6004 55.4923 39.261C55.4923 39.1323 55.502 39.0035 55.4864 38.8768C55.3479 37.7376 55.3596 37.7181 56.5495 37.7084C57.3531 37.7006 58.1548 37.7025 58.9584 37.7064C59.3095 37.7064 59.6801 37.6733 59.8869 38.0595L59.8849 38.0575Z" fill="#385B7E"/>
<path d="M32.5459 39.0563C31.992 43.0296 29.3685 44.7422 25.7521 45.1167C24.2112 45.2766 22.6546 45.2552 21.1078 44.9314C17.8972 44.2604 15.5136 42.0387 15.5292 37.8821C15.5449 34.2501 15.5058 30.6201 15.4922 26.9882C15.5312 26.7073 15.5683 26.4245 15.6073 26.1436L15.6268 26.1319C16.6645 26.126 17.7061 26.1651 18.7399 26.1007C19.5611 26.048 19.9804 26.2626 19.8341 27.1618C19.7932 27.4115 19.8517 27.6787 19.8653 27.9362C19.8673 30.8757 19.8692 33.8171 19.8712 36.7566C19.8166 37.0979 19.8068 37.4334 19.9492 37.7592C19.9551 37.8684 19.9609 37.9796 19.9668 38.0888C19.9551 38.1083 19.9297 38.1298 19.9336 38.1473C19.9414 38.1902 19.9629 38.2293 19.9804 38.2702C20.1248 40.0784 20.9557 41.0673 22.6254 41.3872C23.589 41.5725 24.5603 41.5745 25.5239 41.3872C27.0512 41.0907 27.9797 40.1564 28.1572 38.6623C28.28 37.6324 28.362 36.5927 28.3717 35.555C28.3971 32.4361 28.3795 29.3191 28.3776 26.2002C29.5713 26.0168 30.7709 26.1553 31.9686 26.1241C32.7098 26.1046 32.5615 26.6664 32.5615 27.0896C32.5635 31.0785 32.5537 35.0674 32.5479 39.0563H32.5459Z" fill="#1E1E1E"/>
<path d="M53.3518 27.3585C51.5865 29.7889 49.8232 32.2212 48.056 34.6497C47.6464 35.2134 47.6152 35.7947 48.019 36.3564C50.0417 39.1652 52.0761 41.9662 54.1086 44.7692L54.1164 44.8492C52.8544 44.8726 51.5865 44.8472 50.3284 44.9369C49.4741 44.9974 48.9513 44.656 48.5008 43.9851C47.2426 42.1067 45.9338 40.2595 44.6796 38.3791C44.2797 37.7803 44.0632 37.8232 43.6712 38.3967C42.3019 40.396 40.8819 42.3622 39.4892 44.3459C39.3039 44.6092 39.1927 44.935 38.787 44.9174C37.2694 44.857 35.7441 45.0598 34.2305 44.8082H34.25C35.748 42.7016 37.2421 40.5911 38.7499 38.4903C39.22 37.8349 39.7349 37.2127 40.207 36.5573C40.6985 35.8766 40.6985 35.1744 40.2031 34.4897C38.3422 31.9169 36.4795 29.3461 34.6186 26.7733C34.4041 26.393 34.3573 26.1101 34.9463 26.116C36.1693 26.1257 37.3943 26.1452 38.6153 26.114C39.3741 26.0945 39.4248 26.865 39.8929 27.1576C41.192 29.0399 42.5028 30.9124 43.7785 32.8103C44.1237 33.3233 44.309 33.2004 44.5957 32.781C45.9299 30.8402 47.2817 28.9111 48.6256 26.9781C49.0489 26.1823 49.7374 26.0399 50.5722 26.1023C51.4032 26.1648 52.2439 26.1043 53.0787 26.1218C53.3518 26.1277 53.7165 25.9892 53.8726 26.2876C54.0345 26.5997 53.6268 26.7636 53.5293 27.021C53.4844 27.1381 53.4123 27.2473 53.3537 27.3604L53.3518 27.3585Z" fill="#1E1E1E"/>
<path d="M82.008 47.0299C80.8748 46.8915 80.5237 46.2049 80.6973 45.1535C81.0054 44.9058 81.3721 44.9819 81.7193 44.9858C83.0399 44.9994 84.3546 44.9546 85.6634 44.7634C85.6887 45.3934 85.7121 46.0215 85.7375 46.6515C85.8448 46.9207 85.9423 47.1957 86.0613 47.461C86.9215 49.4018 88.6926 50.4005 90.8558 50.1684C92.7985 49.9597 94.3453 48.37 94.7647 46.158C95.0807 44.4864 94.0196 42.4969 92.3323 41.6035C92.0222 41.467 91.7121 41.3324 91.4019 41.1958C91.8622 40.3239 91.9734 39.3096 92.5137 38.4689C92.9721 38.6386 93.4285 38.8083 93.8869 38.978C94.4467 39.5866 94.9636 39.2472 95.3752 38.8298C96.0657 38.1296 96.6236 38.3285 97.1775 38.9624C97.4545 39.2804 97.7081 39.6198 97.9928 39.9299C98.5546 40.5365 98.5058 41.112 97.8641 41.5879C97.3199 41.9917 97.1307 42.3974 97.3999 43.0762C97.6652 43.7433 97.7315 44.4357 98.7497 44.3986C99.6177 44.3655 100.029 44.9292 99.92 45.8147C99.8888 46.0722 99.84 46.3277 99.8108 46.5852C99.6216 48.1827 99.6216 48.21 98.0475 48.1535C97.5852 48.1379 97.3667 48.3193 97.2731 48.6957C97.1209 49.3004 96.3271 49.7588 96.9239 50.5429C97.8641 51.7796 97.8427 51.7952 96.6392 52.8543C96.4441 53.026 96.253 53.2015 96.0657 53.381C95.4922 53.9291 94.911 54.0012 94.4136 53.3185C93.8811 52.589 93.2686 52.6983 92.5215 52.9245C91.8076 53.141 91.5346 53.5117 91.5307 54.2392C91.5287 54.9278 91.1347 55.312 90.4032 55.2711C90.0794 55.2535 89.7537 55.2574 89.4299 55.2477C87.926 55.2047 87.7641 55.0448 87.807 53.5409C87.8363 52.513 86.824 52.671 86.3441 52.2243C86.0067 51.9102 85.7238 52.0858 85.4118 52.3413C84.298 53.2561 84.0776 53.2288 83.1296 52.1385C82.8741 51.8459 82.6049 51.5552 82.4001 51.2275C82.1212 50.7828 82.0119 50.1684 82.4859 49.9168C83.4866 49.3862 83.3364 48.6918 83.0126 47.8862C82.9287 47.6756 82.8663 47.4571 82.7961 47.2406C82.7375 47.184 82.681 47.1255 82.6225 47.069C82.4196 47.0553 82.2148 47.0417 82.0119 47.026L82.008 47.0299Z" fill="#4EC3CC"/>
<path d="M4.82828 26.99C4.81658 31.6011 4.81463 36.2122 4.77952 40.8253C4.77562 41.4572 4.96872 41.5411 5.56755 41.508C8.09547 41.3695 10.6292 41.3226 13.1591 41.2017C13.8204 41.1705 13.9627 41.4085 13.9705 42.0268C14.0018 45.0151 14.0193 45.017 10.9784 45.0794C9.0961 45.1184 7.21187 45.1477 5.32958 45.1828C4.1807 45.1711 3.03377 45.1574 1.88489 45.1457C0.798431 44.6893 0.503897 43.7999 0.505847 42.7114C0.509748 37.207 0.499995 31.7025 0.496094 26.198C1.74445 26.0147 2.99866 26.1649 4.24897 26.1161C4.93947 26.0888 4.75026 26.6232 4.83219 26.99H4.82828Z" fill="#1E1E1E"/>
<path d="M81.524 26.001C82.7607 26.0068 83.9993 26.0224 85.2281 26.1941C86.5057 26.5471 87.8009 26.8163 88.9732 27.501C90.4205 28.3455 91.267 29.6641 92.02 31.0783C91.9985 31.2304 92.0434 31.3533 92.1819 31.4333H92.1975C92.3847 33.2161 92.9387 34.9677 92.6363 36.7954C92.5447 37.3454 92.254 37.8877 92.5076 38.467C91.9673 39.3077 91.8561 40.322 91.3958 41.1939C90.0655 43.32 88.113 44.4435 85.6592 44.7634C84.3523 44.9545 83.0357 44.9994 81.7152 44.9858C81.3699 44.9819 81.0013 44.9058 80.6931 45.1535C79.2711 45.1379 77.8472 45.0872 76.4252 45.1184C75.6275 45.136 75.3563 44.8531 75.3622 44.0534C75.3915 40.3025 75.3739 36.5535 75.3641 32.8026C75.3641 32.352 75.3056 31.9034 75.2764 31.4528C75.3037 30.0308 75.37 28.6089 75.3446 27.1869C75.331 26.3989 75.5846 26.12 76.394 26.1102C78.1027 26.0887 79.8173 26.2623 81.5201 25.999L81.524 26.001ZM87.6585 38.6855C87.7151 38.6347 87.7697 38.584 87.8263 38.5333C88.4056 36.6569 88.3958 34.7473 87.9179 32.8747C87.4986 31.2343 86.4277 30.144 84.641 30.0094C83.6091 29.9313 82.5695 29.9216 81.5318 29.9177C79.7704 29.9118 79.7724 29.9235 79.7802 31.6517C79.7802 31.8136 79.7392 31.9736 79.7392 32.1355C79.7275 34.8916 79.7217 37.6497 79.708 40.4058C79.7061 40.911 79.8855 41.2095 80.4414 41.1958C81.5747 41.1705 82.7099 41.1568 83.8432 41.1393C85.6631 41.3285 87.4049 40.2088 87.68 38.6737L87.6585 38.6816V38.6855Z" fill="#385B7E"/>
<path d="M34.4345 56.4113V56.9106H32.5249V54.0282H34.4345V54.5256H33.1281V55.2208H34.3606V55.6842H33.1281V56.4113H34.4345ZM38.3518 56.9106H37.7745V54.0282H38.2778L39.6242 55.9059H39.6401V54.0282H40.2174V56.9106H39.7181L38.3697 55.023H38.3518V56.9106ZM46.1802 55.7002C46.1802 56.4852 45.7048 56.9606 44.9018 56.9606C44.0408 56.9606 43.5135 56.3973 43.5135 55.4605C43.5135 54.5376 44.0408 53.9783 44.8878 53.9783C45.5609 53.9783 46.0683 54.3758 46.1542 54.9591H45.5489C45.4611 54.6575 45.2154 54.4777 44.8898 54.4777C44.4144 54.4777 44.1287 54.8392 44.1287 55.4525C44.1287 56.0777 44.4323 56.4592 44.9117 56.4592C45.3052 56.4592 45.5789 56.2175 45.5909 55.86L45.5929 55.814H44.9657V55.3746H46.1802V55.7002ZM50.0874 56.9106H49.4842V54.0282H50.0874V56.9106ZM54.0487 56.9106H53.4714V54.0282H53.9748L55.3211 55.9059H55.3371V54.0282H55.9143V56.9106H55.415L54.0666 55.023H54.0487V56.9106ZM61.2099 56.4113V56.9106H59.3003V54.0282H61.2099V54.5256H59.9035V55.2208H61.136V55.6842H59.9035V56.4113H61.2099Z" fill="#FAFAFA"/>
<path d="M29.5622 64.0859H29.3155V62.4962H29.5622V64.0859ZM30.0954 64.0859H29.8553V62.4962H30.0789L30.903 63.6684H30.9118V62.4962H31.1519V64.0859H30.9294L30.1054 62.9149H30.0954V64.0859ZM32.1335 62.4698C32.5907 62.4698 32.8782 62.786 32.8782 63.2916C32.8782 63.7973 32.5907 64.1124 32.1335 64.1124C31.6752 64.1124 31.3888 63.7973 31.3888 63.2916C31.3888 62.786 31.6752 62.4698 32.1335 62.4698ZM32.1335 62.6868C31.8317 62.6868 31.6411 62.9204 31.6411 63.2916C31.6411 63.6618 31.8317 63.8954 32.1335 63.8954C32.4354 63.8954 32.6248 63.6618 32.6248 63.2916C32.6248 62.9204 32.4354 62.6868 32.1335 62.6868ZM33.7783 64.0859H33.5084L32.941 62.4962H33.2087L33.6417 63.8083H33.6483L34.0823 62.4962H34.3456L33.7783 64.0859ZM35.4032 64.0859L35.2578 63.6563H34.6519L34.5065 64.0859H34.2498L34.8238 62.4962H35.0904L35.6643 64.0859H35.4032ZM34.9515 62.7606L34.7147 63.458H35.195L34.9582 62.7606H34.9515ZM36.2625 64.0859H36.0157V62.7089H35.5288V62.4962H36.7483V62.7089H36.2625V64.0859ZM37.1967 64.0859H36.95V62.4962H37.1967V64.0859ZM38.1772 62.4698C38.6344 62.4698 38.9219 62.786 38.9219 63.2916C38.9219 63.7973 38.6344 64.1124 38.1772 64.1124C37.7189 64.1124 37.4325 63.7973 37.4325 63.2916C37.4325 62.786 37.7189 62.4698 38.1772 62.4698ZM38.1772 62.6868C37.8753 62.6868 37.6848 62.9204 37.6848 63.2916C37.6848 63.6618 37.8753 63.8954 38.1772 63.8954C38.4791 63.8954 38.6685 63.6618 38.6685 63.2916C38.6685 62.9204 38.4791 62.6868 38.1772 62.6868ZM39.3978 64.0859H39.1577V62.4962H39.3813L40.2053 63.6684H40.2142V62.4962H40.4543V64.0859H40.2318L39.4077 62.9149H39.3978V64.0859ZM41.8446 64.0859H41.2068V62.4962H41.8413C42.1233 62.4962 42.3084 62.6527 42.3084 62.8928C42.3084 63.0614 42.1839 63.2123 42.0253 63.2388V63.2476C42.2412 63.2718 42.3866 63.4249 42.3866 63.6365C42.3866 63.9163 42.1828 64.0859 41.8446 64.0859ZM41.4535 62.6978V63.1727H41.73C41.9438 63.1727 42.0616 63.0845 42.0616 62.927C42.0616 62.7794 41.9603 62.6978 41.7818 62.6978H41.4535ZM41.4535 63.8843H41.7939C42.0165 63.8843 42.1343 63.7929 42.1343 63.621C42.1343 63.4492 42.0132 63.361 41.7796 63.361H41.4535V63.8843ZM43.2746 64.0859H43.0278V63.4349L42.4682 62.4962H42.7436L43.149 63.198H43.1567L43.5621 62.4962H43.8353L43.2746 63.4349V64.0859ZM45.5054 64.0859L45.36 63.6563H44.7541L44.6087 64.0859H44.352L44.9259 62.4962H45.1926L45.7665 64.0859H45.5054ZM45.0537 62.7606L44.8169 63.458H45.2972L45.0604 62.7606H45.0537ZM46.1752 62.4962V63.5065C46.1752 63.7334 46.3184 63.8931 46.5718 63.8931C46.8252 63.8931 46.9695 63.7334 46.9695 63.5065V62.4962H47.2152V63.5274C47.2152 63.87 46.9706 64.1124 46.5718 64.1124C46.173 64.1124 45.9285 63.87 45.9285 63.5274V62.4962H46.1752ZM48.1494 64.0859H47.9026V62.7089H47.4157V62.4962H48.6352V62.7089H48.1494V64.0859ZM49.4295 62.4698C49.8867 62.4698 50.1742 62.786 50.1742 63.2916C50.1742 63.7973 49.8867 64.1124 49.4295 64.1124C48.9712 64.1124 48.6848 63.7973 48.6848 63.2916C48.6848 62.786 48.9712 62.4698 49.4295 62.4698ZM49.4295 62.6868C49.1277 62.6868 48.9371 62.9204 48.9371 63.2916C48.9371 63.6618 49.1277 63.8954 49.4295 63.8954C49.7314 63.8954 49.9209 63.6618 49.9209 63.2916C49.9209 62.9204 49.7314 62.6868 49.4295 62.6868ZM52.0184 64.0859H51.7926V62.916H51.7849L51.3056 64.0738H51.1228L50.6424 62.916H50.6347V64.0859H50.41V62.4962H50.6953L51.2098 63.751H51.2186L51.732 62.4962H52.0184V64.0859ZM53.347 64.0859L53.2016 63.6563H52.5957L52.4503 64.0859H52.1936L52.7675 62.4962H53.0341L53.6081 64.0859H53.347ZM52.8953 62.7606L52.6585 63.458H53.1388L52.9019 62.7606H52.8953ZM54.2063 64.0859H53.9595V62.7089H53.4726V62.4962H54.6921V62.7089H54.2063V64.0859ZM55.1405 64.0859H54.8937V62.4962H55.1405V64.0859ZM56.121 62.4698C56.5782 62.4698 56.8657 62.786 56.8657 63.2916C56.8657 63.7973 56.5782 64.1124 56.121 64.1124C55.6627 64.1124 55.3763 63.7973 55.3763 63.2916C55.3763 62.786 55.6627 62.4698 56.121 62.4698ZM56.121 62.6868C55.8191 62.6868 55.6286 62.9204 55.6286 63.2916C55.6286 63.6618 55.8191 63.8954 56.121 63.8954C56.4228 63.8954 56.6123 63.6618 56.6123 63.2916C56.6123 62.9204 56.4228 62.6868 56.121 62.6868ZM57.3416 64.0859H57.1015V62.4962H57.3251L58.1491 63.6684H58.158V62.4962H58.3981V64.0859H58.1756L57.3515 62.9149H57.3416V64.0859Z" fill="#1E1E1E"/>
</svg>
