<svg width="39" height="39" viewBox="0 0 39 39" fill="none" xmlns="http://www.w3.org/2000/svg">
<circle cx="19.3373" cy="19.6254" r="19.3119" fill="#4EC3CC"/>
<path d="M25.9528 22.9405C25.9528 23.0722 25.8461 23.1789 25.7144 23.1789H15.0158C14.8841 23.1789 14.7773 23.0722 14.7773 22.9405V12.2356C14.7773 12.1038 14.8841 11.9971 15.0158 11.9971H25.7144C25.8461 11.9971 25.9528 12.1038 25.9528 12.2356V22.9405Z" fill="white"/>
<path d="M11.8255 14.3726C11.8255 14.2458 11.7264 14.1411 11.5998 14.1342L11.3089 14.1185C11.1317 14.109 11.0266 13.9161 11.1147 13.7621L11.9275 12.3398C12.0189 12.1798 12.2495 12.1795 12.3413 12.3393L13.2224 13.8723C13.2668 13.9496 13.2678 14.0973 13.1787 14.1009V14.1009C12.4137 14.1486 12.4137 14.1486 12.4137 14.9295C12.4137 16.7626 12.4285 18.5957 12.4031 20.4288C12.3958 20.9011 12.4808 21.1682 12.9984 21.0959C13.0152 21.0935 13.0326 21.0926 13.0495 21.0943V21.0943C13.1864 21.1079 13.2439 21.2614 13.1756 21.3808L12.3395 22.8407C12.2482 23.0001 12.0185 23.0007 11.9264 22.8418C11.6541 22.3724 11.3933 21.9218 11.1214 21.4524C11.0347 21.3027 11.1312 21.1133 11.3033 21.0956L11.6065 21.0643C11.728 21.0518 11.8204 20.9494 11.8205 20.8273L11.8255 14.3726Z" fill="white"/>
<path d="M17.1044 25.7351C16.9778 25.7351 16.8732 25.8341 16.8663 25.9605C16.8612 26.0544 16.8563 26.1461 16.8513 26.2397C16.8419 26.4173 16.6486 26.5227 16.4943 26.4343L15.0978 25.6339C14.9383 25.5425 14.9379 25.3125 15.0971 25.2205L16.4952 24.4127C16.6486 24.324 16.8417 24.4277 16.8531 24.6044C16.8589 24.6953 16.8647 24.7837 16.8705 24.8731C16.8787 24.9986 16.9828 25.0962 17.1086 25.0962H23.6112C23.7383 25.0962 23.8431 24.9965 23.8493 24.8696C23.8535 24.7851 23.8577 24.6996 23.8621 24.6096C23.8707 24.431 24.0653 24.3245 24.2201 24.414L25.6162 25.2205C25.7755 25.3124 25.7751 25.5425 25.6155 25.6339L24.219 26.4338C24.064 26.5226 23.87 26.4157 23.8621 26.2373C23.858 26.1441 23.854 26.054 23.8501 25.9633C23.8445 25.8357 23.7394 25.7351 23.6117 25.7351H17.1044Z" fill="white"/>
<path d="M25.6003 23.2627C25.6003 23.3944 25.4935 23.5012 25.3618 23.5012H14.6633C14.5316 23.5012 14.4248 23.3944 14.4248 23.2627V12.5578C14.4248 12.4261 14.5316 12.3193 14.6633 12.3193H25.3618C25.4935 12.3193 25.6003 12.4261 25.6003 12.5578V23.2627Z" fill="white"/>
<path d="M11.4729 14.6948C11.473 14.568 11.3739 14.4633 11.2473 14.4565L10.9563 14.4408C10.7791 14.4312 10.6741 14.2384 10.7621 14.0843L11.575 12.6621C11.6664 12.5021 11.897 12.5018 11.9888 12.6616L12.8698 14.1946C12.9142 14.2719 12.9152 14.4196 12.8262 14.4231V14.4231C12.0612 14.4708 12.0612 14.4708 12.0612 15.2517C12.0612 17.0848 12.076 18.9179 12.0506 20.751C12.0433 21.2233 12.1283 21.4904 12.6458 21.4181C12.6627 21.4158 12.6801 21.4149 12.697 21.4166V21.4166C12.8338 21.4301 12.8914 21.5837 12.823 21.703L11.987 23.163C11.8957 23.3224 11.666 23.323 11.5738 23.1641C11.3016 22.6947 11.0407 22.2441 10.7689 21.7746C10.6822 21.6249 10.7787 21.4356 10.9508 21.4178L11.2539 21.3866C11.3755 21.374 11.4679 21.2717 11.4679 21.1495L11.4729 14.6948Z" fill="white"/>
</svg>
