<svg width="39" height="40" viewBox="0 0 39 40" fill="none" xmlns="http://www.w3.org/2000/svg">
<circle cx="19.3373" cy="20.2181" r="19.3119" fill="#4EC3CC"/>
<path d="M23.5721 27.6249C23.5721 27.8582 23.5749 28.0552 23.5721 28.2522C23.5692 28.4491 23.4716 28.5655 23.2776 28.5564C23.0978 28.5479 23.0206 28.4202 23.0217 28.2442C23.0217 28.0484 23.0217 27.8525 23.0217 27.6402H12.9604C12.9604 27.8463 12.9604 28.0421 12.9604 28.2374C12.9604 28.4327 12.8697 28.561 12.6813 28.5627C12.493 28.5644 12.4027 28.431 12.4044 28.2408C12.4061 28.0506 12.4044 27.8627 12.4044 27.6243C12.1775 27.6243 11.9665 27.6243 11.7543 27.6243C11.1364 27.6169 10.6621 27.1867 10.6372 26.6122C10.6088 25.9702 11.0059 25.482 11.6538 25.4559C12.5315 25.4201 13.4126 25.4371 14.2897 25.4371C17.4101 25.4371 20.5305 25.4371 23.6464 25.4292C23.792 25.4225 23.9309 25.3657 24.0396 25.2685C24.9564 24.4091 25.8551 23.5304 26.7736 22.6721C27.3517 22.1316 28.1789 22.2684 28.5188 22.9389C28.6242 23.1476 28.6596 23.3847 28.6199 23.6151C28.5801 23.8456 28.4673 24.0571 28.2981 24.2184C27.211 25.2691 26.1212 26.3187 25.0075 27.3405C24.831 27.5028 24.5388 27.5636 24.2886 27.6152C24.0725 27.6601 23.8399 27.6249 23.5721 27.6249Z" fill="white"/>
<path d="M19.9843 19.2961L21.7697 24.9454H21.199L19.4572 19.4522C19.0107 19.6991 18.5801 19.9199 18.1671 20.1703C17.7836 20.4036 17.6763 20.3843 17.5492 19.9495C17.1283 18.5048 16.9133 17.0362 17.1141 15.5319C17.181 15.0341 17.3314 14.5572 17.7019 14.1798C17.7287 14.1462 17.7479 14.1073 17.7584 14.0657C17.7689 14.0241 17.7703 13.9807 17.7626 13.9385C17.7178 13.7557 17.7807 13.6041 17.9402 13.5848C18.0474 13.5724 18.1767 13.6984 18.2862 13.7762C18.343 13.8148 18.3668 13.9255 18.4179 13.934C19.1917 14.0662 19.666 14.6072 20.1051 15.1828C20.9198 16.2517 21.4668 17.4591 21.8753 18.7341C21.9706 19.0338 21.8577 19.1587 21.5348 19.1769C21.0305 19.203 20.5267 19.2524 19.9843 19.2961Z" fill="white"/>
<path d="M19.3818 13.7969C20.0831 13.8019 20.775 13.9586 21.4101 14.2561C23.014 15.0145 24.1424 16.2111 24.7262 17.9005C24.8147 18.1576 24.7137 18.312 24.446 18.3132C23.7398 18.3144 23.0425 18.471 22.4035 18.7719C21.7499 16.9111 20.9988 15.119 19.3818 13.7969Z" fill="white"/>
<path d="M17.0846 20.3031C16.4026 20.3861 15.7583 20.6618 15.2271 21.0978C15.0002 21.2794 14.8096 21.2113 14.7307 20.9445C14.0958 18.7948 14.8714 16.0513 16.6676 14.6883C16.7175 14.6503 16.7731 14.6197 16.8707 14.5566C16.5588 15.4852 16.4688 16.4741 16.6081 17.4438C16.734 18.3929 16.9207 19.3341 17.0846 20.3031Z" fill="white"/>
</svg>
