<svg width="40" height="39" viewBox="0 0 40 39" fill="none" xmlns="http://www.w3.org/2000/svg">
<circle cx="19.8676" cy="19.6254" r="19.3119" fill="#4EC3CC"/>
<path d="M25.847 18.403C26.1505 18.403 26.4286 18.394 26.7076 18.403C27.517 18.4352 28.3169 18.5389 29.0824 18.8107C29.7297 19.0417 30.1726 19.5485 30.1649 20.3294C30.1514 21.6656 30.1622 23.0018 30.1604 24.3389C30.1604 24.7466 29.8515 25.0886 29.4325 25.1601C29.0249 25.229 28.5692 25.0242 28.4727 24.6619C28.2915 23.9892 27.8042 23.6871 27.1918 23.5952C26.655 23.5146 26.1011 23.5399 25.5544 23.5327C25.2921 23.5291 25.0299 23.5617 24.7672 23.5716C24.3142 23.5884 23.8653 23.6006 23.4147 23.6138C22.4227 23.6423 21.4312 23.6731 20.4392 23.6985C19.6946 23.7175 18.9486 23.7641 18.2053 23.737C16.4691 23.6735 14.7339 23.5522 13.0639 23.0299C12.5656 22.8741 12.0964 22.601 11.6412 22.3351C11.3141 22.1444 11.1656 21.8178 11.1678 21.4201C11.176 19.9929 11.181 18.5666 11.1651 17.1389C11.1601 16.6818 11.3644 16.3929 11.7309 16.1655C12.2672 15.833 12.8632 15.6401 13.4652 15.5169C14.3411 15.3336 15.226 15.1965 16.1163 15.106C17.0276 15.0186 17.9476 14.9883 18.8634 14.9914C19.9943 14.9885 21.1235 15.078 22.2397 15.2591C23.113 15.4059 23.9745 15.5762 24.7966 15.9109C25.1408 16.0513 25.4633 16.2339 25.6907 16.5333C25.7814 16.6587 25.8337 16.8077 25.8416 16.9622C25.8588 17.4324 25.847 17.8998 25.847 18.403ZM28.3418 23.1549C28.3418 21.932 28.3441 20.7543 28.3346 19.5766C28.3346 19.5186 28.2367 19.4204 28.1733 19.4104C27.6955 19.3352 27.2149 19.2251 26.7348 19.2242C25.5322 19.2242 24.3292 19.2722 23.1266 19.3035C22.6908 19.3144 22.2547 19.3488 21.8194 19.3415C20.3138 19.3207 18.8077 19.3049 17.303 19.251C16.6105 19.2265 15.9193 19.1309 15.2299 19.0458C14.4348 18.9505 13.6565 18.7473 12.9162 18.442C12.6023 18.3115 12.3043 18.143 11.9986 17.9918C11.9904 18.0038 11.9847 18.0174 11.9818 18.0316C11.9818 19.164 11.9755 20.2964 11.9818 21.4287C11.9818 21.6466 12.1575 21.7318 12.3324 21.8201C12.35 21.6108 12.3568 21.4242 12.384 21.2408C12.4125 21.0496 12.5593 21.0088 12.7228 21.0265C12.8863 21.0442 12.947 21.1561 12.9452 21.3128C12.9429 21.532 12.9402 21.7512 12.9479 21.97C12.9479 22.0312 12.9719 22.1299 13.0113 22.1453C13.2351 22.2359 13.4643 22.3034 13.7338 22.3917V22.066C13.7338 21.9754 13.7279 21.8848 13.737 21.7943C13.7555 21.6104 13.8357 21.4772 14.0441 21.4772C14.223 21.4772 14.3394 21.6131 14.3417 21.8273C14.3444 22.0538 14.3417 22.2803 14.3417 22.5258L15.1162 22.6743V22.4198C15.1162 21.9134 15.1162 21.4073 15.1162 20.9015C15.1162 20.6438 15.2131 20.5319 15.4301 20.5337C15.6298 20.5337 15.72 20.6429 15.7218 20.9015C15.725 21.4301 15.7218 21.9587 15.7218 22.4868V22.7586L16.6367 22.8388C16.6462 22.8223 16.6532 22.8046 16.6576 22.7862C16.6598 22.6277 16.6612 22.4692 16.6626 22.3106C16.6648 22.0683 16.764 21.9374 16.9515 21.9283C17.1327 21.9197 17.2731 22.0814 17.2781 22.3093C17.2822 22.4959 17.2781 22.6829 17.2781 22.8691C17.5535 22.8918 17.8049 22.9194 18.0567 22.9257C18.0975 22.9257 18.1713 22.8351 18.1768 22.783C18.1931 22.6263 18.1822 22.466 18.1836 22.3079C18.1836 22.0665 18.2741 21.9397 18.4499 21.9324C18.6256 21.9252 18.776 22.0977 18.7792 22.3147C18.7819 22.5163 18.7792 22.7174 18.7792 22.937C19.0242 22.937 19.2421 22.9271 19.4586 22.9402C19.6398 22.9506 19.6955 22.8868 19.6923 22.707C19.6824 22.1557 19.6883 21.604 19.6892 21.0528C19.6892 20.796 19.7576 20.7094 19.9609 20.6999C20.1643 20.6904 20.2753 20.7987 20.2807 21.0442C20.2902 21.4369 20.2834 21.8296 20.2839 22.2218V22.8904C20.5452 22.8904 20.778 22.885 21.0086 22.8904C21.1499 22.8954 21.1943 22.8351 21.1898 22.702C21.178 22.5254 21.178 22.3482 21.1898 22.1716C21.2065 21.9863 21.3483 21.9215 21.5123 21.9406C21.6685 21.9582 21.7718 22.047 21.7641 22.2277C21.755 22.3937 21.7564 22.5601 21.7682 22.726C21.7732 22.7821 21.8384 22.8804 21.8742 22.8795C22.1333 22.8723 22.3919 22.8451 22.6687 22.8225C22.6687 22.6318 22.6637 22.4515 22.6687 22.2721C22.6759 22.0751 22.8208 21.9256 22.988 21.9292C23.1551 21.9329 23.2597 22.0606 23.2597 22.2753C23.2625 22.4461 23.2597 22.6173 23.2597 22.7735H24.1697C24.1697 22.1516 24.1697 21.5633 24.1697 20.9749C24.1697 20.7407 24.2821 20.6148 24.4755 20.6157C24.696 20.6157 24.7663 20.7008 24.7663 20.9726C24.7663 21.4935 24.7622 22.0144 24.7717 22.5357C24.7717 22.6023 24.8433 22.7228 24.8849 22.7242C25.1427 22.7337 25.4017 22.716 25.6708 22.7065C25.6708 22.4682 25.6708 22.2798 25.6708 22.0914C25.6735 21.8649 25.7917 21.7195 25.972 21.7136C26.1523 21.7077 26.285 21.8622 26.2868 22.1005C26.2868 22.2934 26.2868 22.4859 26.2868 22.6798L27.1619 22.7364C27.175 22.7056 27.1854 22.6911 27.1854 22.6789C27.1886 22.5507 27.1895 22.422 27.1913 22.2939C27.1954 22.0561 27.2855 21.936 27.4672 21.9252C27.6352 21.9147 27.7806 22.076 27.787 22.2875C27.7924 22.4538 27.782 22.6204 27.7919 22.7858C27.7935 22.8159 27.8012 22.8453 27.8148 22.8722C27.8284 22.8991 27.8474 22.9229 27.8708 22.942C28.0152 23.0199 28.1616 23.0752 28.3418 23.1549ZM18.5287 17.4777C18.7434 17.465 18.9998 17.4632 19.2534 17.4324C19.6801 17.3789 20.114 17.3463 20.4922 17.1026C20.7273 16.9509 20.735 16.8109 20.4963 16.6669C20.3608 16.5869 20.2134 16.5291 20.0597 16.4957C19.7916 16.4363 19.5207 16.391 19.248 16.3598C18.401 16.262 17.5617 16.2923 16.7418 16.5509C16.5634 16.6076 16.3274 16.6764 16.3573 16.8861C16.3758 17.0138 16.5765 17.1579 16.7255 17.2172C17.2872 17.4478 17.891 17.446 18.5287 17.4777ZM29.3243 24.3086C29.3324 24.2347 29.341 24.1904 29.341 24.1464C29.341 22.8714 29.3505 21.5968 29.332 20.3222C29.3293 20.1473 29.1961 19.9725 29.1114 19.8031C29.0933 19.7664 29.0299 19.7524 28.9605 19.7125C28.9605 21.0048 28.9465 22.249 28.9723 23.4928C28.9778 23.7542 29.1309 24.0128 29.2201 24.271C29.2242 24.2877 29.2686 24.29 29.3243 24.3086ZM22.6143 18.5004L24.976 18.3976V17.8282L22.6143 18.5004Z" fill="white"/>
</svg>
