<svg width="40" height="40" viewBox="0 0 40 40" fill="none" xmlns="http://www.w3.org/2000/svg">
<circle cx="19.8676" cy="20.2181" r="19.3119" fill="#4EC3CC"/>
<path d="M22.5853 26.4414C20.4372 26.3377 18.2187 25.9739 16.0141 25.519C15.8649 25.4877 15.6917 25.4492 15.7815 25.2329C15.8399 25.0908 15.7417 24.8155 16.0475 24.8683C16.282 24.9094 16.2968 24.7682 16.3487 24.6278C16.9594 22.9904 18.0111 22.2816 19.8034 22.2959C20.1583 22.2959 20.5141 22.2959 20.869 22.3075C21.1619 22.3191 21.2935 22.1735 21.3268 21.9169C21.3392 21.8134 21.346 21.7092 21.3472 21.605C21.3583 20.8774 21.3583 20.8819 20.6411 20.9793C19.5226 21.125 18.7219 20.7827 18.4439 19.6485C18.3596 19.3052 18.2419 18.9629 17.9426 18.7127C17.7637 18.5625 17.7962 18.3703 17.8981 18.1817C18.0686 17.8641 18.236 17.5456 18.4004 17.2263C18.619 16.8297 18.7377 16.3891 18.7469 15.9401C18.7434 15.6932 18.7959 15.4485 18.9007 15.2232C19.0056 14.998 19.1603 14.7975 19.3539 14.636C20.9923 13.1899 23.1533 13.2774 24.7092 14.636C24.8806 14.8016 25.0961 14.9183 25.332 14.973C26.4292 15.2098 27.1455 16.0643 27.1112 17.0681C27.0948 17.5575 26.8954 18.0247 26.5499 18.3835C26.2043 18.7423 25.7358 18.9684 25.231 19.0201C24.6889 19.0854 24.5183 19.3017 24.472 19.7861C24.4099 20.4216 24.2422 21.0499 24.5202 21.6765C24.699 22.0823 24.9743 22.312 25.4645 22.3326C26.0657 22.3574 26.6647 22.4195 27.2576 22.5185C28.2872 22.691 28.9859 23.271 29.3186 24.2301C29.4112 24.492 29.4641 24.7011 29.8338 24.5644C30.0849 24.475 30.0822 24.711 30.1359 24.8531C30.2286 25.089 30.0896 25.1552 29.8764 25.2106C28.4059 25.6074 26.9142 25.9276 25.408 26.1697C24.4755 26.3288 23.5319 26.4197 22.5853 26.4414ZM20.0119 17.1552C19.7415 16.8559 19.2299 16.9746 19.0679 17.3441C18.9463 17.6216 18.8113 17.8807 18.6774 18.1406C18.633 18.23 18.5245 18.3274 18.6107 18.4257C18.9629 18.8297 18.9981 19.358 19.2094 19.8165C19.3641 20.1535 19.619 20.3385 19.9915 20.3528C20.8589 20.3841 21.6224 20.1106 22.3026 19.5957C22.5148 19.434 22.5297 19.3276 22.2869 19.1765C21.8127 18.8692 21.3696 18.5193 20.9636 18.1317C20.6328 17.8278 20.3257 17.5027 20.0119 17.1552Z" fill="white"/>
<path d="M13.4824 16.8298C13.5848 16.689 13.7874 16.6618 13.9239 16.7698C13.9788 16.8132 14.0286 16.8545 14.0755 16.8986C14.2015 17.0184 14.0884 17.1095 14.0199 17.207C13.7131 17.644 13.7576 18.0721 14.0662 18.4896C14.2886 18.7908 14.5546 19.067 14.6417 19.445C14.776 20.0215 14.6611 20.5408 14.2395 20.9761C13.9096 21.3175 13.8058 21.701 14.0125 22.1193C14.1756 22.4491 13.8827 22.5224 13.7224 22.6162C13.4981 22.7485 13.45 22.4911 13.3925 22.3696C13.1145 21.7752 13.2072 21.2076 13.6066 20.6946C14.1709 19.9688 14.1718 19.7275 13.6066 18.9588C13.0209 18.1696 12.9792 17.4501 13.4824 16.8298V16.8298Z" fill="white"/>
<path d="M11.2574 21.7268C11.2671 21.3374 11.4065 20.9613 11.6549 20.6542C12.1989 19.9892 12.2109 19.7122 11.6735 19.0391C11.2639 18.5279 11.035 17.9853 11.2435 17.3409C11.2865 17.1826 11.3604 17.0336 11.4613 16.902C11.5539 16.7939 11.5947 16.4918 11.857 16.7009C12.0275 16.8377 12.2999 16.936 12.0302 17.2533C11.7217 17.6153 11.768 18.0282 12.0377 18.4153C12.1415 18.5636 12.2499 18.7084 12.3546 18.8559C12.8782 19.587 12.8698 20.2663 12.2925 20.9429C11.9709 21.321 11.8292 21.7027 12.0571 22.171C12.2035 22.4669 11.8996 22.5196 11.7476 22.6179C11.5308 22.7645 11.502 22.5223 11.4372 22.4159C11.3214 22.2032 11.2598 21.967 11.2574 21.7268Z" fill="white"/>
<path d="M16.7067 19.943C16.6808 20.3 16.535 20.6391 16.2916 20.9092C15.9496 21.2828 15.7772 21.6752 16.0293 22.1685C16.1766 22.4554 15.8727 22.5261 15.7189 22.6154C15.5029 22.7522 15.4696 22.5153 15.414 22.4018C15.1045 21.7762 15.2036 21.1827 15.6392 20.6464C16.147 20.0207 16.1655 19.7526 15.6985 19.0992C15.0498 18.1992 14.9886 17.5377 15.427 16.8799C15.6373 16.5644 15.7976 16.6171 16.0228 16.8415C16.147 16.963 16.159 17.0461 16.0497 17.1766C15.6494 17.6548 15.7661 18.1125 16.1238 18.5558C16.4417 18.9526 16.7002 19.37 16.7067 19.943Z" fill="white"/>
<path d="M21.9772 27.8045C20.7864 27.7866 19.6142 27.6257 18.4419 27.4541C18.1843 27.4166 18.0564 27.3496 18.1111 27.0618C18.1658 26.7739 18.3409 26.7641 18.5744 26.8043C19.8338 27.0171 21.0987 27.1788 22.3813 27.1529C22.6276 27.1588 22.874 27.142 23.1171 27.1029C23.383 27.0466 23.4331 27.1717 23.4683 27.371C23.5035 27.5703 23.4683 27.7285 23.2171 27.7393C22.8057 27.7643 22.3915 27.7839 21.9772 27.8045Z" fill="white"/>
<path d="M14.126 25.2536C14.1325 24.4769 14.9174 23.6448 15.5466 23.5894C15.7273 23.5742 15.7671 23.6787 15.7764 23.7967C15.7875 23.946 15.9877 24.1355 15.6837 24.2383C15.463 24.3066 15.2594 24.4187 15.086 24.5672C14.6857 24.9247 14.7005 25.335 15.1305 25.6621C15.3633 25.834 15.6316 25.9559 15.9173 26.0196C16.236 26.0956 16.1693 26.2931 16.123 26.5014C16.0609 26.7802 15.8774 26.6962 15.6976 26.6435C15.2513 26.5228 14.8434 26.296 14.5115 25.9839C14.2659 25.7443 14.1315 25.4538 14.126 25.2536Z" fill="white"/>
</svg>
