<svg width="19" height="19" viewBox="0 0 19 19" fill="none" xmlns="http://www.w3.org/2000/svg">
<circle cx="9.52869" cy="9.36511" r="9.26111" fill="#4EC3CC"/>
<path d="M3.55046 10.7446C3.7333 10.8104 3.9173 10.8723 4.09823 10.9427C4.46546 11.0856 4.84844 11.2141 5.22873 11.0627C5.51375 10.948 5.7788 10.7683 6.0258 10.5817C6.43797 10.2709 6.89432 10.0974 7.40483 10.0931C7.83775 10.0893 8.25415 10.1941 8.61561 10.4453C8.93175 10.6651 9.25942 10.8616 9.65891 10.7698C9.89755 10.7107 10.1267 10.6186 10.3396 10.4961C10.7395 10.274 11.1463 10.0882 11.6134 10.0908C12.1611 10.0939 12.6505 10.264 13.0692 10.6261C13.4188 10.9293 13.8037 11.1728 14.2904 11.1128C14.5385 11.0822 14.7786 10.9874 15.0202 10.9147C15.1877 10.8647 15.3517 10.8035 15.5254 10.7676C15.1147 11.1881 14.7387 11.6412 14.1121 11.7474C13.6062 11.8331 13.1426 11.739 12.6909 11.5127C12.4861 11.4128 12.2723 11.3321 12.0524 11.2718C11.6783 11.1652 11.3572 11.3101 11.0479 11.5092C10.7986 11.671 10.5509 11.8556 10.2751 11.952C9.51256 12.2196 8.79462 12.0778 8.14006 11.6132C7.86733 11.4194 7.58921 11.2485 7.24042 11.2309C6.91967 11.216 6.64732 11.3456 6.37997 11.4985C5.53718 11.9787 4.61681 11.8568 3.93036 11.1766C3.80014 11.0478 3.66454 10.9243 3.53125 10.7981L3.55046 10.7446Z" fill="white"/>
<path d="M8.12715 9.76807L9.43128 8.53547C9.3218 8.35999 9.21731 8.18067 9.09823 8.01169C9.07288 7.97537 8.98991 7.95396 8.94036 7.96352C8.42216 8.06139 7.90551 8.16767 7.38808 8.26937C7.12265 8.32213 6.90792 8.21088 6.83339 7.98646C6.75657 7.75363 6.86797 7.52577 7.13263 7.42713C7.80525 7.17557 8.48209 6.9347 9.15624 6.68734C9.43089 6.58679 9.65177 6.65523 9.83538 6.8785C10.1992 7.32161 10.5687 7.76012 10.9321 8.20361C11.3116 8.6666 11.6865 9.13303 12.0622 9.59869C12.1006 9.64648 12.1306 9.70154 12.1817 9.77953C11.6658 9.68166 11.1856 9.70651 10.7285 9.89958C10.4942 9.99911 10.2683 10.1174 10.0532 10.2532C9.68749 10.4826 9.34753 10.4692 8.98645 10.2356C8.71679 10.0609 8.42139 9.92596 8.12715 9.76807Z" fill="white"/>
<path d="M12.4998 9.21564C11.8606 9.22979 11.3547 8.67505 11.3574 8.0534C11.3601 7.44436 11.9075 6.91677 12.5194 6.91944C13.1425 6.92212 13.6976 7.4631 13.681 8.07443C13.6641 8.70869 13.1678 9.23858 12.4998 9.21564Z" fill="white"/>
</svg>
