<svg width="21" height="21" viewBox="0 0 21 21" fill="none" xmlns="http://www.w3.org/2000/svg">
<circle cx="10.2856" cy="10.6039" r="10.2612" fill="#4EC3CC"/>
<path d="M7.77637 8.52856L8.80474 7.91244C9.24367 7.64968 9.67959 7.38189 10.1236 7.1282C10.195 7.08742 10.3249 7.0688 10.3893 7.10605C11.164 7.55908 11.9316 8.02217 12.7003 8.48375C12.7129 8.4913 12.7174 8.51144 12.7385 8.54768C12.6061 8.62922 12.4738 8.71178 12.3399 8.79232C11.7081 9.17236 11.0779 9.55491 10.4417 9.9279C10.3692 9.97018 10.2403 9.99939 10.1774 9.96314C9.38965 9.50307 8.61094 9.0294 7.77637 8.52856Z" fill="white"/>
<path d="M9.93561 11.0711L8.39079 12.0018C8.12552 12.1614 7.86377 12.3285 7.59195 12.4765C7.51796 12.5163 7.39061 12.5374 7.32416 12.4996C6.55099 12.0466 5.78538 11.5815 5.01875 11.1189C5.00617 11.1109 5.00063 11.0917 4.97949 11.059C5.04392 11.0152 5.10785 10.9679 5.1753 10.9271C5.86441 10.5139 6.55703 10.1051 7.24211 9.68483C7.38205 9.59876 7.48322 9.59574 7.62568 9.68483C8.37468 10.1429 9.13073 10.5904 9.93561 11.0711Z" fill="white"/>
<path d="M7.81152 12.7599C7.89307 12.7095 7.97411 12.6547 8.05717 12.6048C8.73872 12.1946 9.41927 11.7813 10.1059 11.3796C10.1829 11.3348 10.3228 11.3122 10.3913 11.3525C11.1508 11.7949 11.9014 12.2525 12.6564 12.7055C12.6846 12.7221 12.7148 12.7357 12.7837 12.7715L11.8092 13.3549C11.3492 13.6302 10.8916 13.9086 10.4265 14.1763C10.355 14.2176 10.2252 14.2362 10.1617 14.199C9.38705 13.746 8.61992 13.2844 7.85129 12.8228C7.8387 12.8152 7.83317 12.7956 7.81152 12.7599Z" fill="white"/>
<path d="M10.6299 11.0579C11.016 10.8284 11.3814 10.6119 11.7453 10.3945C12.148 10.1539 12.5472 9.90822 12.9534 9.67415C13.0219 9.63489 13.1412 9.60167 13.197 9.63439C13.9913 10.0985 14.7786 10.5742 15.5915 11.0609C15.5175 11.1153 15.4682 11.1581 15.4133 11.1908C14.7036 11.6191 13.9959 12.05 13.2801 12.4673C13.198 12.5177 13.0455 12.5287 12.969 12.4839C12.2235 12.051 11.4871 11.6025 10.7487 11.1571C10.7069 11.1268 10.6672 11.0936 10.6299 11.0579Z" fill="white"/>
<path d="M7.79199 9.38916C8.18009 9.0806 8.18009 9.0806 8.54704 9.30208C9.01416 9.58245 9.48933 9.84923 9.94387 10.1477C10.1754 10.2987 10.3496 10.3174 10.5897 10.1548C11.0332 9.85276 11.5038 9.59604 11.9634 9.3207C12.3484 9.08965 12.3489 9.09015 12.7385 9.367C12.7064 9.401 12.6714 9.43216 12.6338 9.46013C11.9015 9.90007 11.1706 10.342 10.4326 10.7724C10.3566 10.8167 10.2152 10.8303 10.1442 10.789C9.36198 10.3335 8.58982 9.86635 7.79199 9.38916Z" fill="white"/>
</svg>
