<svg width="19" height="19" viewBox="0 0 19 19" fill="none" xmlns="http://www.w3.org/2000/svg">
<circle cx="9.26111" cy="9.71033" r="9.26111" fill="#4EC3CC"/>
<path d="M11.7369 13.6024C11.7369 13.7287 11.7384 13.8354 11.7369 13.942C11.7354 14.0487 11.6825 14.1117 11.5775 14.1068C11.4801 14.1022 11.4383 14.033 11.4389 13.9377C11.4389 13.8317 11.4389 13.7257 11.4389 13.6107H5.99115C5.99115 13.7223 5.99115 13.8283 5.99115 13.934C5.99115 14.0398 5.942 14.1092 5.84001 14.1102C5.73803 14.1111 5.68918 14.0389 5.6901 13.9359C5.69102 13.8329 5.6901 13.7312 5.6901 13.6021C5.56723 13.6021 5.45295 13.6021 5.33806 13.6021C5.00352 13.5981 4.74671 13.3651 4.73319 13.0541C4.71783 12.7064 4.93287 12.4421 5.28368 12.428C5.75891 12.4086 6.23599 12.4178 6.71091 12.4178C8.40048 12.4178 10.09 12.4178 11.7772 12.4135C11.856 12.4099 11.9312 12.3792 11.99 12.3265C12.4865 11.8612 12.9731 11.3854 13.4704 10.9206C13.7834 10.628 14.2313 10.7021 14.4153 11.0651C14.4724 11.1781 14.4916 11.3065 14.4701 11.4313C14.4486 11.5561 14.3875 11.6706 14.2958 11.7579C13.7073 12.3268 13.1171 12.8952 12.5141 13.4484C12.4186 13.5363 12.2604 13.5692 12.1249 13.5972C12.0079 13.6215 11.8819 13.6024 11.7369 13.6024Z" fill="white"/>
<path d="M9.79447 9.09286L10.7612 12.1518H10.4522L9.50909 9.17739C9.26732 9.31109 9.03416 9.43066 8.81053 9.5662C8.60286 9.69253 8.5448 9.68208 8.47599 9.44664C8.24805 8.6644 8.13163 7.86924 8.24038 7.05473C8.27662 6.78517 8.35803 6.52698 8.55863 6.32258C8.57314 6.30443 8.58358 6.28338 8.58925 6.26084C8.59492 6.2383 8.59569 6.21481 8.5915 6.19195C8.56723 6.09298 8.60133 6.01092 8.68765 6.00047C8.74571 5.9937 8.81575 6.06194 8.87504 6.10405C8.90576 6.12495 8.91866 6.18489 8.94631 6.1895C9.36532 6.26112 9.62213 6.55403 9.8599 6.8657C10.301 7.44447 10.5972 8.09823 10.8183 8.78857C10.87 8.95086 10.8088 9.01848 10.634 9.02832C10.3609 9.04245 10.0881 9.0692 9.79447 9.09286Z" fill="white"/>
<path d="M9.46875 6.11523C9.84845 6.11797 10.2231 6.2028 10.567 6.36389C11.4354 6.77453 12.0464 7.42246 12.3625 8.33717C12.4104 8.47641 12.3558 8.56001 12.2108 8.56063C11.8284 8.56129 11.4508 8.64608 11.1049 8.80898C10.751 7.80144 10.3443 6.83109 9.46875 6.11523Z" fill="white"/>
<path d="M8.22417 9.63782C7.85488 9.68278 7.50603 9.83204 7.21842 10.0681C7.09554 10.1665 6.99233 10.1296 6.94963 9.98514C6.60588 8.82115 7.02581 7.33565 7.99839 6.59767C8.02542 6.57708 8.05553 6.56048 8.10836 6.52637C7.93945 7.02916 7.89073 7.56457 7.96613 8.08962C8.03433 8.60353 8.1354 9.11315 8.22417 9.63782Z" fill="white"/>
</svg>
