<svg width="19" height="20" viewBox="0 0 19 20" fill="none" xmlns="http://www.w3.org/2000/svg">
<circle cx="9.53552" cy="10.0658" r="9.26111" fill="#4EC3CC"/>
<path d="M9.9691 7.54113C9.00422 7.45336 8.122 7.57305 7.44502 8.30365C6.71633 9.09075 6.52354 10.0154 6.9273 11.009C7.33107 12.0026 8.10636 12.5248 9.18008 12.5944C9.23307 12.5979 9.28701 12.5915 9.33967 12.5976C9.48107 12.6132 9.57076 12.5721 9.66269 12.4428C9.91803 12.0834 10.5679 12.0891 10.8437 12.4345C11.0163 12.6506 10.9857 12.9286 10.7683 13.1172C10.4246 13.416 9.85994 13.3355 9.60236 12.9599C9.57044 12.913 9.48267 12.8801 9.42138 12.8814C8.93974 12.89 8.47757 12.8108 8.04284 12.5989C7.48087 12.3298 7.02594 11.8792 6.75144 11.3199C6.7109 11.2395 6.67164 11.1894 6.57014 11.1721C5.99083 11.0732 5.60781 10.6206 5.61036 10.0531C5.61292 9.48558 6.00391 9.04703 6.5845 8.94393C6.61553 8.93564 6.64458 8.92124 6.66996 8.90156C6.69534 8.88188 6.71653 8.85733 6.73229 8.82935C7.17914 7.9599 7.88389 7.44261 8.84654 7.27749C9.01826 7.24813 9.19604 7.24908 9.37127 7.24557C9.56278 7.24015 9.75429 7.24557 9.96846 7.24557C9.96846 7.10673 9.97484 6.98065 9.96431 6.85585C9.96144 6.81947 9.91643 6.78021 9.88196 6.7534C9.71471 6.62349 9.65279 6.44731 9.71439 6.26154C9.74248 6.18055 9.79497 6.11023 9.86464 6.06028C9.93431 6.01033 10.0177 5.98318 10.1035 5.98257C10.1919 5.9802 10.2788 6.00615 10.3514 6.05662C10.424 6.10709 10.4786 6.17944 10.5072 6.26313C10.5682 6.45017 10.504 6.61998 10.3397 6.75595C10.2934 6.79986 10.2635 6.85834 10.2551 6.92161C10.2414 7.0196 10.2516 7.12077 10.2516 7.24557C10.3658 7.24557 10.4648 7.24749 10.5637 7.24557C11.0773 7.2344 11.5832 7.26121 12.0639 7.47506C12.6856 7.75179 13.1564 8.18556 13.4629 8.79296C13.5126 8.89127 13.5663 8.94202 13.6844 8.95925C14.227 9.03809 14.624 9.53091 14.61 10.0892C14.5959 10.6541 14.1698 11.1249 13.6183 11.183C13.5822 11.1868 13.5455 11.183 13.4852 11.183C13.4852 11.1118 13.4852 11.0499 13.4852 10.9883C13.4763 10.5526 13.5095 10.1109 13.4488 9.6822C13.2742 8.4425 12.2465 7.55773 10.9934 7.52677C10.7549 7.52103 10.5165 7.52677 10.2532 7.52677C10.2532 7.66083 10.2465 7.78212 10.2576 7.89989C10.2608 7.93181 10.3141 7.97171 10.3534 7.98447C10.5321 8.04416 10.6742 8.14215 10.7709 8.30972C10.7923 8.34643 10.8641 8.36845 10.9145 8.37164C11.1105 8.38409 11.3109 8.36462 11.5034 8.39654C12.3534 8.53698 12.9646 9.28322 12.9269 10.1176C12.888 10.9889 12.2535 11.6911 11.3789 11.7339C10.5194 11.776 9.65534 11.7728 8.79356 11.7288C7.93177 11.6847 7.27234 10.8954 7.295 10.0371C7.3183 9.14342 8.02178 8.41377 8.89537 8.37739C8.94868 8.37515 9.00198 8.37356 9.05496 8.37579C9.25509 8.38409 9.4482 8.4026 9.56565 8.17152C9.60459 8.09459 9.72142 8.03427 9.81366 8.01193C9.95825 7.97682 9.98219 7.8951 9.97133 7.77094C9.96399 7.69274 9.9691 7.61997 9.9691 7.54113ZM9.42649 10.4205C9.42234 10.7467 9.74312 10.9896 10.1469 10.9736C10.527 10.9586 10.814 10.7141 10.791 10.4205H9.42649ZM8.84048 10.0595C8.91524 10.059 8.98687 10.0294 9.04015 9.97694C9.09343 9.92449 9.12416 9.85334 9.12582 9.7786C9.1249 9.70367 9.09444 9.63213 9.04107 9.57954C8.9877 9.52694 8.91573 9.49754 8.84079 9.49771C8.76879 9.49968 8.70022 9.52892 8.64897 9.57953C8.59771 9.63013 8.56759 9.69833 8.5647 9.7703C8.56324 9.84491 8.59122 9.91709 8.6426 9.97122C8.69398 10.0253 8.76461 10.057 8.8392 10.0595H8.84048ZM11.377 10.0595C11.4518 10.059 11.5234 10.0289 11.5762 9.97579C11.6289 9.92269 11.6585 9.85088 11.6585 9.77604C11.6571 9.70393 11.6283 9.63508 11.578 9.5834C11.5276 9.53173 11.4596 9.5011 11.3875 9.49771C11.3127 9.49616 11.2402 9.52417 11.1858 9.57566C11.1315 9.62716 11.0996 9.698 11.0971 9.77285C11.0972 9.84745 11.1264 9.91908 11.1784 9.97257C11.2304 10.0261 11.3012 10.0572 11.3757 10.0595H11.377Z" fill="white"/>
</svg>
