<svg width="72" height="60" viewBox="0 0 72 60" fill="none" xmlns="http://www.w3.org/2000/svg">
<path d="M70.1341 29.1084C70.6863 29.1084 71.1341 28.6606 71.1341 28.1084V26.4826C71.1341 25.9303 70.6863 25.4826 70.1341 25.4826H68.5083C67.956 25.4826 67.5179 25.0308 67.4171 24.4878C67.0082 22.2852 65.2671 20.5441 63.0644 20.1352C62.5214 20.0344 62.0697 19.5963 62.0697 19.044V17.4182C62.0697 16.8659 61.622 16.4182 61.0697 16.4182H59.4439C58.8916 16.4182 58.4439 16.8659 58.4439 17.4182V19.044C58.4439 19.5963 57.9962 20.044 57.4439 20.044H55.8182C55.2659 20.044 54.8182 19.5963 54.8182 19.044V17.4182C54.8182 16.8659 54.3704 16.4182 53.8182 16.4182H52.1924C51.6401 16.4182 51.1924 16.8659 51.1924 17.4182V19.044C51.1924 19.5963 50.7447 20.044 50.1924 20.044H48.5666C48.0144 20.044 47.5667 19.5963 47.5667 19.044V17.4182C47.5667 16.8659 47.1189 16.4182 46.5667 16.4182H44.9409C44.3886 16.4182 43.9409 16.8659 43.9409 17.4182V19.044C43.9409 19.5963 43.4932 20.044 42.9409 20.044H41.3151C40.7629 20.044 40.3151 19.5963 40.3151 19.044V17.4182C40.3151 16.8659 39.8674 16.4182 39.3151 16.4182H37.6894C37.1371 16.4182 36.6894 16.8659 36.6894 17.4182V19.044C36.6894 19.5963 36.2376 20.0344 35.6946 20.1352C33.492 20.5441 31.7509 22.2852 31.342 24.4878C31.2412 25.0308 30.803 25.4826 30.2508 25.4826H28.625C28.0727 25.4826 27.625 25.9303 27.625 26.4826V28.1084C27.625 28.6606 28.0727 29.1084 28.625 29.1084H30.2508C30.803 29.1084 31.2508 29.5561 31.2508 30.1084V31.7341C31.2508 32.2864 30.803 32.7341 30.2508 32.7341H28.625C28.0727 32.7341 27.625 33.1818 27.625 33.7341V35.3599C27.625 35.9121 28.0727 36.3599 28.625 36.3599H30.2508C30.803 36.3599 31.2508 36.8076 31.2508 37.3599V38.9856C31.2508 39.5379 30.803 39.9856 30.2508 39.9856H28.625C28.0727 39.9856 27.625 40.4333 27.625 40.9856V42.6114C27.625 43.1637 28.0727 43.6114 28.625 43.6114H30.2508C30.803 43.6114 31.2508 44.0591 31.2508 44.6114V46.2371C31.2508 46.7894 30.803 47.2371 30.2508 47.2371H28.625C28.0727 47.2371 27.625 47.6848 27.625 48.2371V49.8629C27.625 50.4152 28.0727 50.8629 28.625 50.8629H30.2508C30.803 50.8629 31.2508 51.3106 31.2508 51.8629V55.3015C31.2508 55.8538 31.6985 56.3015 32.2508 56.3015H35.6894C36.2417 56.3015 36.6894 56.7492 36.6894 57.3015V58.9273C36.6894 59.4796 37.1371 59.9273 37.6894 59.9273H39.3151C39.8674 59.9273 40.3151 59.4796 40.3151 58.9273V57.3015C40.3151 56.7492 40.7629 56.3015 41.3151 56.3015H42.9409C43.4932 56.3015 43.9409 56.7492 43.9409 57.3015V58.9273C43.9409 59.4796 44.3886 59.9273 44.9409 59.9273H46.5667C47.1189 59.9273 47.5667 59.4796 47.5667 58.9273V57.3015C47.5667 56.7492 48.0144 56.3015 48.5667 56.3015H50.1924C50.7447 56.3015 51.1924 56.7492 51.1924 57.3015V58.9273C51.1924 59.4796 51.6401 59.9273 52.1924 59.9273H53.8182C54.3704 59.9273 54.8182 59.4796 54.8182 58.9273V57.3015C54.8182 56.7492 55.2659 56.3015 55.8182 56.3015H57.4439C57.9962 56.3015 58.4439 56.7492 58.4439 57.3015V58.9273C58.4439 59.4796 58.8916 59.9273 59.4439 59.9273H61.0697C61.622 59.9273 62.0697 59.4796 62.0697 58.9273V57.3015C62.0697 56.7492 62.5174 56.3015 63.0697 56.3015H66.5083C67.0606 56.3015 67.5083 55.8538 67.5083 55.3015V51.8629C67.5083 51.3106 67.956 50.8629 68.5083 50.8629H70.1341C70.6863 50.8629 71.1341 50.4152 71.1341 49.8629V48.2371C71.1341 47.6848 70.6863 47.2371 70.1341 47.2371H68.5083C67.956 47.2371 67.5083 46.7894 67.5083 46.2371V44.6114C67.5083 44.0591 67.956 43.6114 68.5083 43.6114H70.1341C70.6863 43.6114 71.1341 43.1637 71.1341 42.6114V40.9856C71.1341 40.4333 70.6863 39.9856 70.1341 39.9856H68.5083C67.956 39.9856 67.5083 39.5379 67.5083 38.9856V37.3599C67.5083 36.8076 67.956 36.3599 68.5083 36.3599H70.1341C70.6863 36.3599 71.1341 35.9121 71.1341 35.3599V33.7341C71.1341 33.1818 70.6863 32.7341 70.1341 32.7341H68.5083C67.956 32.7341 67.5083 32.2864 67.5083 31.7341V30.1084C67.5083 29.5561 67.956 29.1084 68.5083 29.1084H70.1341ZM48.0271 45.4241C48.0271 45.4242 48.027 45.4242 48.0269 45.4242H42.6035C42.1383 45.4242 41.7345 45.7451 41.6294 46.1983L41.5679 46.4631C41.4628 46.9163 41.059 47.2371 40.5938 47.2371H38.9249C38.2814 47.2371 37.8054 46.6381 37.9508 46.0112L41.1817 32.0778C41.702 29.8353 44.1276 28.4376 46.5061 29.4347C47.6428 29.9115 48.4078 31.0046 48.6852 32.2047L51.8854 46.0095C52.0307 46.6364 51.5547 47.2353 50.9112 47.2353H48.6029C48.512 47.2353 48.4332 47.1727 48.4126 47.0842L48.0275 45.424C48.0274 45.4238 48.0271 45.4238 48.0271 45.4241V45.4241ZM54.8182 30.1084C54.8182 29.5561 55.2659 29.1084 55.8182 29.1084H57.4439C57.9962 29.1084 58.4439 29.5561 58.4439 30.1084V46.2371C58.4439 46.7894 57.9962 47.2371 57.4439 47.2371H55.8182C55.2659 47.2371 54.8182 46.7894 54.8182 46.2371V30.1084ZM45.122 32.8973C45.1225 32.8973 45.123 32.8976 45.1231 32.8981L46.9018 40.5727C47.0471 41.1996 46.5711 41.7985 45.9277 41.7985H43.9066C43.2631 41.7985 42.7871 41.1996 42.9324 40.5727L44.7114 32.8973C44.7331 32.8012 44.8183 32.7341 44.9162 32.7341C45.0138 32.7341 45.0988 32.8008 45.1209 32.8964C45.121 32.8969 45.1215 32.8973 45.122 32.8973V32.8973Z" fill="#4EC3CC" fill-opacity="0.6"/>
<path d="M48.3797 12.331C48.932 12.331 49.3797 11.8833 49.3797 11.331V11.2781C49.3797 10.7258 48.932 10.2781 48.3797 10.2781H46.274C45.7217 10.2781 45.274 9.83041 45.274 9.27813V9.25168C45.274 6.42074 42.9706 4.11945 40.1417 4.11945H40.1153C39.563 4.11945 39.1153 3.67174 39.1153 3.11945V1.01367C39.1153 0.461387 38.6676 0.0136719 38.1153 0.0136719H38.0624C37.5101 0.0136719 37.0624 0.461387 37.0624 1.01367V3.11945C37.0624 3.67174 36.6147 4.11945 36.0624 4.11945H33.9566C33.4043 4.11945 32.9566 3.67174 32.9566 3.11945V1.01367C32.9566 0.461387 32.5089 0.0136719 31.9566 0.0136719H31.9037C31.3514 0.0136719 30.9037 0.461387 30.9037 1.01367V3.11945C30.9037 3.67174 30.456 4.11945 29.9037 4.11945H26.7715C26.2192 4.11945 25.7715 3.67174 25.7715 3.11945V1.01367C25.7715 0.461387 25.3238 0.0136719 24.7715 0.0136719H24.7186C24.1663 0.0136719 23.7186 0.461387 23.7186 1.01367V3.11945C23.7186 3.67174 23.2709 4.11945 22.7186 4.11945H19.5864C19.0341 4.11945 18.5864 3.67174 18.5864 3.11945V1.01367C18.5864 0.461387 18.1387 0.0136719 17.5864 0.0136719H17.5335C16.9812 0.0136719 16.5335 0.461387 16.5335 1.01367V3.11945C16.5335 3.67174 16.0858 4.11945 15.5335 4.11945H13.4277C12.8754 4.11945 12.4277 3.67174 12.4277 3.11945V1.01367C12.4277 0.461387 11.98 0.0136719 11.4277 0.0136719H11.3748C10.8225 0.0136719 10.3748 0.461387 10.3748 1.01367V3.11945C10.3748 3.67174 9.92709 4.11945 9.37481 4.11945H9.34836C6.51948 4.11945 4.21613 6.42074 4.21613 9.25168V9.27813C4.21613 9.83041 3.76842 10.2781 3.21613 10.2781H1.11035C0.558067 10.2781 0.110352 10.7258 0.110352 11.2781V11.331C0.110352 11.8833 0.558067 12.331 1.11035 12.331H3.21613C3.76842 12.331 4.21613 12.7787 4.21613 13.331V15.4368C4.21613 15.9891 3.76842 16.4368 3.21613 16.4368H1.11035C0.558067 16.4368 0.110352 16.8845 0.110352 17.4368V17.4897C0.110352 18.042 0.558067 18.4897 1.11035 18.4897H3.21613C3.76842 18.4897 4.21613 18.9374 4.21613 19.4897V22.6219C4.21613 23.1742 3.76842 23.6219 3.21613 23.6219H1.11035C0.558067 23.6219 0.110352 24.0696 0.110352 24.6219V24.6748C0.110352 25.2271 0.558067 25.6748 1.11035 25.6748H3.21613C3.76842 25.6748 4.21613 26.1225 4.21613 26.6748V29.807C4.21613 30.3593 3.76842 30.807 3.21613 30.807H1.11035C0.558067 30.807 0.110352 31.2548 0.110352 31.807V31.8599C0.110352 32.4122 0.558067 32.8599 1.11035 32.8599H3.21613C3.76842 32.8599 4.21613 33.3076 4.21613 33.8599V35.9657C4.21613 36.518 3.76842 36.9657 3.21613 36.9657H1.11035C0.558067 36.9657 0.110352 37.4134 0.110352 37.9657V38.0186C0.110352 38.5709 0.558067 39.0186 1.11035 39.0186H3.21613C3.76842 39.0186 4.21613 39.4663 4.21613 40.0186V44.1773C4.21613 44.7296 4.66385 45.1773 5.21613 45.1773H9.37481C9.92709 45.1773 10.3748 45.625 10.3748 46.1773V48.2831C10.3748 48.8353 10.8225 49.2831 11.3748 49.2831H11.4277C11.98 49.2831 12.4277 48.8353 12.4277 48.2831V46.1773C12.4277 45.625 12.8754 45.1773 13.4277 45.1773H15.5335C16.0858 45.1773 16.5335 45.625 16.5335 46.1773V48.2831C16.5335 48.8353 16.9812 49.2831 17.5335 49.2831H17.5864C18.1387 49.2831 18.5864 48.8353 18.5864 48.2831V46.1773C18.5864 45.625 19.0341 45.1773 19.5864 45.1773H22.7186C23.2709 45.1773 23.7186 45.625 23.7186 46.1773V48.2831C23.7186 48.8353 24.1663 49.2831 24.7186 49.2831H24.7715C25.3238 49.2831 25.7715 48.8353 25.7715 48.2831V46.1773C25.7715 45.625 26.2192 45.1773 26.7715 45.1773H29.9037C30.456 45.1773 30.9037 45.625 30.9037 46.1773V48.2831C30.9037 48.8353 31.3514 49.2831 31.9037 49.2831H31.9566C32.5089 49.2831 32.9566 48.8353 32.9566 48.2831V46.1773C32.9566 45.625 33.4043 45.1773 33.9566 45.1773H36.0624C36.6147 45.1773 37.0624 45.625 37.0624 46.1773V48.2831C37.0624 48.8353 37.5101 49.2831 38.0624 49.2831H38.1153C38.6676 49.2831 39.1153 48.8353 39.1153 48.2831V46.1773C39.1153 45.625 39.563 45.1773 40.1153 45.1773H44.274C44.8262 45.1773 45.274 44.7296 45.274 44.1773V40.0186C45.274 39.4663 45.7217 39.0186 46.274 39.0186H48.3797C48.932 39.0186 49.3797 38.5709 49.3797 38.0186V37.9657C49.3797 37.4134 48.932 36.9657 48.3797 36.9657H46.274C45.7217 36.9657 45.274 36.518 45.274 35.9657V33.8599C45.274 33.3076 45.7217 32.8599 46.274 32.8599H48.3797C48.932 32.8599 49.3797 32.4122 49.3797 31.8599V31.807C49.3797 31.2548 48.932 30.807 48.3797 30.807H46.274C45.7217 30.807 45.274 30.3593 45.274 29.807V26.6748C45.274 26.1225 45.7217 25.6748 46.274 25.6748H48.3797C48.932 25.6748 49.3797 25.2271 49.3797 24.6748V24.6219C49.3797 24.0696 48.932 23.6219 48.3797 23.6219H46.274C45.7217 23.6219 45.274 23.1742 45.274 22.6219V19.4897C45.274 18.9374 45.7217 18.4897 46.274 18.4897H48.3797C48.932 18.4897 49.3797 18.042 49.3797 17.4897V17.4368C49.3797 16.8845 48.932 16.4368 48.3797 16.4368H46.274C45.7217 16.4368 45.274 15.9891 45.274 15.4368V13.331C45.274 12.7787 45.7217 12.331 46.274 12.331H48.3797ZM43.2211 42.1244C43.2211 42.6767 42.7733 43.1244 42.2211 43.1244H7.26903C6.71674 43.1244 6.26902 42.6767 6.26902 42.1244V9.25168C6.26902 7.55394 7.65062 6.17234 9.34836 6.17234H40.1417C41.8395 6.17234 43.2211 7.55394 43.2211 9.25168V42.1244ZM32.9566 15.3839C32.9566 14.8316 33.4043 14.3839 33.9566 14.3839H34.0095C34.5618 14.3839 35.0095 14.8316 35.0095 15.3839V33.9128C35.0095 34.4651 34.5618 34.9128 34.0095 34.9128H33.9566C33.4043 34.9128 32.9566 34.4651 32.9566 33.9128V15.3839ZM20.6393 14.349C19.504 14.349 18.5227 15.1496 18.1388 16.3916L12.827 33.6161C12.6286 34.2593 13.1095 34.9108 13.7826 34.9108H13.837C14.2757 34.9108 14.6632 34.6248 14.7926 34.2056L15.6241 31.5102C15.7534 31.091 16.1409 30.805 16.5797 30.805H24.6989C25.1376 30.805 25.5251 31.091 25.6544 31.5102L26.4859 34.2056C26.6153 34.6248 27.0028 34.9108 27.4415 34.9108H27.496C28.1691 34.9108 28.6499 34.2593 28.4516 33.6161L23.1397 16.3896C22.7558 15.1496 21.7745 14.349 20.6393 14.349ZM16.4752 28.7554C16.4744 28.7546 16.4741 28.7535 16.4745 28.7525L20.0994 16.9993C20.1917 16.7016 20.3929 16.404 20.6393 16.404C20.8856 16.404 21.0868 16.7037 21.1792 16.9972L24.4054 27.4616C24.6037 28.1047 24.1229 28.7562 23.4498 28.7562H16.4772C16.4764 28.7562 16.4757 28.7559 16.4752 28.7554V28.7554Z" fill="black"/>
</svg>
