<svg width="62" height="63" viewBox="0 0 62 63" fill="none" xmlns="http://www.w3.org/2000/svg">
<path d="M58.1516 9.40475C59.9644 9.35631 60.819 10.2687 60.5473 11.5691C60.427 12.1893 60.1622 12.7724 59.7744 13.2711C51.7992 22.8181 44.2333 32.7494 34.8366 41.014C31.1564 44.2396 27.3887 47.3515 23.6457 50.5013C22.3131 51.6213 21.8535 51.5716 20.6553 50.3943C20.4288 50.1724 20.205 49.9477 19.9811 49.7231C18.6491 48.3914 18.6153 48.1306 19.7561 46.6417C28.1346 35.6454 37.8071 25.6982 48.5646 17.0151C51.1732 14.9166 53.6671 12.6745 56.2566 10.5489C56.8524 10.111 57.4867 9.72808 58.1516 9.40475Z" fill="#95DBE0" fill-opacity="0.8"/>
<path d="M4.75406 61.9258C8.44139 59.097 10.4753 55.4217 11.9966 51.3844C12.2691 50.7713 12.7399 50.2676 13.3333 49.9545C15.3945 48.8857 17.1362 49.3948 18.9415 50.7951C20.8504 52.2765 20.9034 53.8663 20.2599 55.9538C19.0318 59.9247 15.9348 61.6013 12.3403 62.6004C9.88607 63.2767 7.4219 62.9012 4.75406 61.9258Z" fill="#95DBE0" fill-opacity="0.8"/>
<path d="M23.8849 43.0003L17.9404 37.118C21.6521 33.7131 25.365 30.3081 29.0792 26.9032C38.2566 18.5287 47.4415 10.1579 56.6339 1.79088C56.8639 1.57854 57.0938 1.36619 57.3275 1.1613C58.8353 -0.198438 60.1132 -0.37353 61.0668 0.762689C62.1977 2.0889 61.6285 3.22512 60.5579 4.35016C49.7697 15.7024 38.9916 27.0671 28.2235 38.4442C26.8137 39.9306 25.3964 41.4133 23.8849 43.0003ZM23.7228 40.2174L59.3932 2.59182L59.0954 2.30497L20.8882 37.1701L23.7228 40.2174Z" fill="white"/>
<path d="M0.314453 54.4782C1.35105 54.1951 1.97303 53.9642 2.61384 53.8561C5.47109 53.3681 6.89972 51.6768 7.30305 48.8642C7.99663 44.0213 10.8689 40.8734 15.3508 38.9661C16.7644 38.3663 17.7746 38.4557 18.7434 39.6888C19.473 40.6204 20.3234 41.4533 21.2727 42.1661C22.7805 43.2837 22.6523 44.5168 22.1095 46.0479C19.305 53.9679 11.8754 57.7826 3.52604 55.5139C2.59875 55.2606 1.679 54.9216 0.314453 54.4782ZM7.74407 54.1057C12.1317 54.3441 15.7278 52.6156 18.3664 48.9462C21.005 45.2767 20.8844 44.3268 17.5635 41.4546C17.2921 41.2579 16.9789 41.1252 16.6477 41.0664C16.3165 41.0077 15.976 41.0245 15.6524 41.1156C12.2033 42.6057 10.1301 45.2358 9.27447 48.8642C8.87114 50.548 8.28687 52.2133 7.74407 54.0871V54.1057Z" fill="white"/>
</svg>
