<svg width="74" height="65" viewBox="0 0 74 65" fill="none" xmlns="http://www.w3.org/2000/svg">
<path d="M44.8443 44.0621C47.2146 45.8519 49.8814 46.7494 52.9138 46.4963C58.4546 46.0335 62.8447 41.5155 63.241 35.806C63.6092 30.4928 59.6767 25.374 54.3687 24.2515C46.1023 22.5051 38.9559 29.8306 41.0039 38.0049C41.2366 38.933 41.0755 39.1785 40.1857 39.2245C39.7331 39.2475 39.2985 39.5339 38.8408 39.5927C38.1428 39.6822 37.4575 39.3907 37.3067 38.7183C36.8132 36.4529 35.1206 35.8904 33.1799 35.5528C32.6353 35.4608 31.8298 35.8622 31.5895 35.1489C31.298 34.2846 32.2517 34.2131 32.7248 33.8704C35.0668 32.1727 35.995 27.6649 34.1847 25.6296C32.9063 24.1824 33.1364 23.1904 34.6015 21.4619C35.9669 19.8537 36.7263 19.6491 38.4368 20.4954C39.5388 21.0401 40.6536 21.15 41.7607 20.59C43.9213 19.4906 45.8952 18.2633 46.2634 15.4916C46.4858 13.8297 47.8845 13.5126 49.3316 13.4052C51.1854 13.2671 52.0854 13.6072 52.699 15.0416C53.8292 17.688 56 18.5318 58.6335 18.6212C59.6946 18.6545 60.6023 18.2173 61.4691 17.6241C62.9291 16.6218 64.026 16.7317 65.5294 17.9386C67.0329 19.1454 67.2911 20.071 66.68 21.7227C65.4016 25.2103 67.3704 28.6928 70.9935 29.3192C72.7219 29.6184 73.512 30.4365 73.7447 32.1701C74.0412 34.3716 73.6373 35.2384 71.9548 36.0566C68.411 37.7543 67.4726 41.3928 69.738 44.6604C70.6687 46.0054 70.5997 46.9872 69.4645 48.4957C68.3292 50.0043 67.2093 50.5719 65.7672 49.833C62.791 48.2989 57.9202 51.2444 57.7591 54.5197C57.6798 56.1408 56.7977 56.6726 54.7062 56.9794C52.7962 57.2581 51.9524 56.9794 51.3209 55.499C51.0446 54.8282 50.6236 54.2266 50.0879 53.7373C49.5522 53.248 48.915 52.8831 48.222 52.6686C47.1992 52.3259 47.0228 51.8018 47.1021 50.8123C47.2222 49.3395 46.5677 48.1787 45.21 47.4883C43.5736 46.6395 43.5224 46.4656 44.3866 44.7653C44.4812 44.5786 44.5707 44.3868 44.6679 44.2002C44.7139 44.1618 44.7497 44.1439 44.8443 44.0621Z" fill="#95DBE0"/>
<path d="M38.1731 61.5711C38.0018 61.5021 37.6822 61.3947 37.3779 61.249C35.3068 60.2492 33.4198 60.8629 32.4252 62.9749C31.9471 63.9976 31.1775 64.1357 30.2263 64.0666C29.3186 64.0002 28.7919 63.5834 28.5311 62.645C28.3914 62.1806 28.1564 61.7504 27.8413 61.3818C27.5261 61.0132 27.1376 60.7143 26.7006 60.504C26.2635 60.2938 25.7875 60.1769 25.3028 60.1608C24.8181 60.1446 24.3353 60.2296 23.8853 60.4103C22.9264 60.8143 22.2591 60.4921 21.6224 59.8095C20.9858 59.1268 20.7838 58.416 21.2849 57.5083C22.3537 55.5727 21.648 53.4454 19.6153 52.5531C18.48 52.0417 18.5568 51.1775 18.5926 50.2161C18.6283 49.2547 19.0553 48.7714 19.9784 48.5234C22.0546 47.9635 23.0875 45.9666 22.3179 43.9722C21.9216 42.9494 22.2386 42.2821 23.0313 41.6531C23.7677 41.0701 24.435 40.8247 25.3325 41.4179C26.8666 42.4406 29.224 41.7886 30.1113 40.0883C30.5587 39.2318 30.9985 38.5849 32.1261 38.7178C33.2537 38.8508 33.9415 39.311 34.2355 40.5281C34.6369 42.1875 36.7924 43.2435 38.4313 42.6452C39.4822 42.2591 40.2902 42.2974 41.0368 43.2205C41.7425 44.0924 41.6683 44.8211 41.0956 45.7569C40.1342 47.3294 40.8399 49.3672 42.5581 50.1496C43.5067 50.5791 44.0922 51.0649 43.9925 52.2386C43.8928 53.4122 43.4147 53.9875 42.3075 54.3122C40.3055 54.9054 39.5691 56.5341 40.2288 58.6461C40.6609 60.0754 39.6816 61.6044 38.1731 61.5711ZM31.3258 45.9589C28.1604 45.9589 25.7007 48.3598 25.7007 51.4741C25.7007 54.3991 28.2013 56.8 31.2414 56.8051C34.2815 56.8103 36.7463 54.4323 36.7463 51.4868C36.7515 48.3444 34.4196 45.9691 31.3258 45.9589Z" fill="#95DBE0"/>
<path d="M45.2023 35.0926C45.2205 33.3273 45.9383 31.6414 47.198 30.4047C48.4577 29.168 50.1565 28.4815 51.9218 28.4958C55.6778 28.4958 58.8023 31.6127 58.741 35.3227C58.7015 37.13 57.9546 38.8497 56.6609 40.1124C55.3672 41.375 53.6298 42.0798 51.8221 42.0754C48.0814 42.0166 45.1767 38.9483 45.2023 35.0926Z" fill="#95DBE0"/>
<path d="M31.2974 47.6407C31.7989 47.6352 32.2962 47.7313 32.7596 47.9232C33.223 48.115 33.6428 48.3986 33.9937 48.7569C34.3446 49.1152 34.6194 49.5408 34.8015 50.0081C34.9836 50.4754 35.0693 50.9747 35.0534 51.476C35.0461 51.9681 34.9416 52.4539 34.7459 52.9055C34.5503 53.3571 34.2673 53.7656 33.9133 54.1075C33.5593 54.4494 33.1412 54.718 32.683 54.8978C32.2249 55.0776 31.7357 55.1651 31.2437 55.1553C29.1394 55.1553 27.4084 53.4908 27.4084 51.4657C27.4037 50.9567 27.5016 50.452 27.6963 49.9816C27.8909 49.5112 28.1782 49.0848 28.5411 48.7279C28.904 48.3709 29.3351 48.0907 29.8086 47.9039C30.2822 47.7171 30.7885 47.6276 31.2974 47.6407Z" fill="#95DBE0"/>
<path d="M29.763 34.2515C32.3213 36.1833 35.1998 37.152 38.4729 36.8788C44.4534 36.3793 49.192 31.5027 49.6198 25.34C50.0172 19.6052 45.7726 14.08 40.0432 12.8685C31.1208 10.9835 23.4071 18.8904 25.6177 27.7135C25.8689 28.7153 25.695 28.9802 24.7346 29.0299C24.2461 29.0547 23.7769 29.3638 23.2829 29.4273C22.5295 29.5239 21.7899 29.2093 21.6271 28.4835C21.0944 26.0383 19.2674 25.4311 17.1727 25.0668C16.5849 24.9675 15.7155 25.4008 15.4561 24.6308C15.1415 23.698 16.1709 23.6207 16.6815 23.2509C19.2095 21.4184 20.2113 16.5528 18.2573 14.356C16.8774 12.794 17.1258 11.7232 18.7072 9.85752C20.1809 8.1216 21.0006 7.90083 22.8469 8.81432C24.0364 9.40216 25.2396 9.52083 26.4346 8.91644C28.7667 7.72972 30.8972 6.40501 31.2947 3.41338C31.5348 1.61951 33.0444 1.27728 34.6064 1.16137C36.6073 1.01234 37.5787 1.3794 38.2411 2.92765C39.4609 5.78405 41.804 6.69479 44.6466 6.79138C45.7919 6.82726 46.7717 6.35533 47.7072 5.71505C49.2831 4.63321 50.467 4.75189 52.0898 6.05452C53.7126 7.35715 53.9913 8.35619 53.3317 10.139C51.9518 13.9034 54.0769 17.6623 57.9875 18.3384C59.8531 18.6613 60.7059 19.5444 60.957 21.4156C61.2772 23.7918 60.8411 24.7274 59.0252 25.6105C55.2001 27.443 54.1872 31.3702 56.6324 34.8973C57.637 36.3489 57.5625 37.4087 56.3371 39.037C55.1118 40.6653 53.903 41.2779 52.3465 40.4803C49.134 38.8245 43.8766 42.0038 43.7027 45.5391C43.6172 47.2888 42.6651 47.8628 40.4075 48.194C38.346 48.4948 37.4352 48.194 36.7536 46.5961C36.4553 45.872 36.0009 45.2227 35.4227 44.6946C34.8445 44.1664 34.1567 43.7725 33.4087 43.541C32.3047 43.1711 32.1143 42.6054 32.1999 41.5374C32.3296 39.9477 31.6231 38.6948 30.1576 37.9496C28.3913 37.0333 28.3361 36.8457 29.2689 35.0104C29.3711 34.8089 29.4677 34.6019 29.5725 34.4005C29.6222 34.3591 29.6608 34.3398 29.763 34.2515Z" stroke="black" stroke-width="1.5" stroke-miterlimit="10"/>
<path d="M22.5624 53.1505C22.3775 53.076 22.0325 52.9601 21.7041 52.8028C19.4687 51.7237 17.4319 52.386 16.3584 54.6656C15.8423 55.7696 15.0116 55.9186 13.985 55.8441C13.0052 55.7723 12.4367 55.3225 12.1552 54.3096C12.0044 53.8084 11.7508 53.344 11.4106 52.9461C11.0704 52.5483 10.6511 52.2256 10.1794 51.9987C9.70764 51.7718 9.19382 51.6456 8.67064 51.6282C8.14747 51.6108 7.6264 51.7025 7.14062 51.8976C6.10569 52.3336 5.38539 51.9859 4.6982 51.249C4.01101 50.5121 3.79298 49.7449 4.3339 48.7652C5.4875 46.676 4.7258 44.3798 2.53176 43.4167C1.3064 42.8647 1.3892 41.9319 1.42784 40.8942C1.46647 39.8565 1.92736 39.3349 2.92365 39.0672C5.16461 38.4628 6.27956 36.3074 5.44886 34.1548C5.02109 33.0508 5.36331 32.3305 6.21885 31.6516C7.01368 31.0224 7.73399 30.7574 8.70268 31.3977C10.3586 32.5016 12.9031 31.7979 13.8608 29.9626C14.3437 29.0381 14.8184 28.3398 16.0355 28.4834C17.2526 28.6269 17.9949 29.1236 18.3123 30.4373C18.7456 32.2284 21.0721 33.3682 22.8412 32.7224C23.9754 32.3057 24.8475 32.3471 25.6534 33.3434C26.4151 34.2845 26.3351 35.071 25.7169 36.0811C24.6792 37.7784 25.4409 39.978 27.2955 40.8225C28.3194 41.2861 28.9514 41.8105 28.8437 43.0772C28.7361 44.344 28.22 44.9649 27.025 45.3154C24.8641 45.9557 24.0693 47.7137 24.7813 49.9933C25.2477 51.536 24.1907 53.1864 22.5624 53.1505ZM15.1717 36.2991C11.755 36.2991 9.10009 38.8906 9.10009 42.252C9.10009 45.4092 11.7992 48.0007 15.0806 48.0062C18.362 48.0118 21.0225 45.4451 21.0225 42.2658C21.028 38.874 18.511 36.3102 15.1717 36.2991Z" stroke="black" stroke-width="1.5" stroke-miterlimit="10"/>
<path d="M30.1496 24.5702C30.1693 22.6649 30.9439 20.8452 32.3036 19.5103C33.6633 18.1755 35.497 17.4345 37.4024 17.4499C41.4565 17.4499 44.829 20.8142 44.7628 24.8186C44.7201 26.7694 43.914 28.6256 42.5176 29.9885C41.1212 31.3513 39.246 32.1121 37.2947 32.1073C33.2571 32.0438 30.122 28.732 30.1496 24.5702Z" stroke="black" stroke-width="1.5" stroke-miterlimit="10"/>
<path d="M15.1412 38.1149C15.6825 38.109 16.2194 38.2127 16.7195 38.4198C17.2197 38.6269 17.6728 38.933 18.0515 39.3197C18.4303 39.7065 18.7269 40.1659 18.9234 40.6702C19.12 41.1746 19.2125 41.7135 19.1953 42.2546C19.1874 42.7858 19.0747 43.3101 18.8635 43.7976C18.6523 44.285 18.3469 44.7259 17.9648 45.095C17.5826 45.464 17.1314 45.7539 16.6369 45.948C16.1424 46.1421 15.6144 46.2366 15.0832 46.2259C12.8119 46.2259 10.9435 44.4293 10.9435 42.2435C10.9385 41.6941 11.0442 41.1493 11.2543 40.6416C11.4643 40.1339 11.7745 39.6737 12.1662 39.2884C12.5579 38.9031 13.0232 38.6006 13.5343 38.399C14.0454 38.1974 14.5919 38.1008 15.1412 38.1149Z" stroke="black" stroke-width="1.5" stroke-miterlimit="10"/>
</svg>
