<svg width="41" height="42" viewBox="0 0 41 42" fill="none" xmlns="http://www.w3.org/2000/svg">
<path d="M40.4771 21.0339C40.4771 32.1693 31.4501 41.1963 20.3147 41.1963C9.17934 41.1963 0.152344 32.1693 0.152344 21.0339C0.152344 9.89857 9.17934 0.871582 20.3147 0.871582C31.4501 0.871582 40.4771 9.89857 40.4771 21.0339Z" fill="#4EC3CC"/>
<path d="M23.0817 24.9217C24.7414 24.9217 26.4051 24.9217 28.0608 24.9217C28.8665 24.9217 29.3701 25.3658 29.3822 26.0476C29.3942 26.7294 28.8786 27.2149 28.0941 27.2159C24.7575 27.2159 21.4209 27.2159 18.0844 27.2159C17.5516 27.2159 17.1296 27.0396 16.896 26.5391C16.8027 26.3491 16.7661 26.1363 16.7906 25.9261C16.8151 25.7159 16.8996 25.5172 17.034 25.3537C17.2988 24.9972 17.6755 24.9116 18.1015 24.9136C19.7612 24.9267 21.4219 24.9217 23.0817 24.9217Z" fill="white"/>
<path d="M23.0793 16.8974C21.4203 16.8974 19.7613 16.8974 18.1022 16.8974C17.2965 16.8974 16.793 16.4603 16.793 15.7674C16.793 15.0745 17.2814 14.6193 18.0921 14.6183C21.427 14.6129 24.7619 14.6129 28.0968 14.6183C28.8924 14.6183 29.3959 15.0866 29.3859 15.7785C29.3758 16.4704 28.8652 16.8974 28.0575 16.8974C26.3978 16.8974 24.7384 16.8974 23.0793 16.8974Z" fill="white"/>
<path d="M23.0674 22.0477C21.4086 22.0477 19.7499 22.0477 18.0912 22.0477C17.2855 22.0477 16.79 21.6086 16.79 20.9097C16.79 20.2107 17.2845 19.7827 18.0993 19.7827C21.4338 19.7827 24.7674 19.7827 28.1019 19.7827C28.6598 19.7827 29.0848 19.9781 29.3004 20.5119C29.4907 20.9842 29.3648 21.3991 29.0164 21.7516C28.7626 22.0084 28.4383 22.0537 28.0908 22.0537C26.419 22.0447 24.7432 22.0477 23.0674 22.0477Z" fill="white"/>
<path d="M11.0801 14.999C11.2745 14.8137 11.5323 14.848 11.7498 14.8409C12.2534 14.8238 12.5444 14.6062 12.7086 14.1359C12.7781 13.9345 12.8244 13.5971 13.0822 13.6092C13.2836 13.6183 13.3572 13.9365 13.4045 14.1329C13.5727 14.8308 14.1387 14.8036 14.6594 14.8762C14.7883 14.8943 14.9615 14.855 15.0159 15.003C15.0703 15.1511 14.9081 15.2437 14.8074 15.3142C14.2313 15.7171 14.0259 16.2277 14.2706 16.9075C14.3109 17.0203 14.3854 17.1915 14.2656 17.2852C14.1185 17.401 13.9634 17.259 13.8627 17.1774C13.3118 16.7393 12.7841 16.7584 12.2393 17.1865C12.1386 17.269 11.9865 17.408 11.8364 17.2872C11.7105 17.1865 11.8052 17.0253 11.8445 16.9115C12.0731 16.2408 11.9059 15.7161 11.3158 15.3183C11.2569 15.2838 11.2056 15.2377 11.1651 15.1828C11.1246 15.128 11.0957 15.0654 11.0801 14.999Z" fill="white"/>
<path d="M11.8011 27.4716C11.8192 27.387 11.8222 27.3538 11.8333 27.3225C12.0831 26.6226 11.9189 26.0606 11.2915 25.6407C11.2008 25.5802 11.0709 25.4936 11.1011 25.3698C11.1314 25.2459 11.2895 25.261 11.4033 25.2449C11.4848 25.2266 11.5676 25.2152 11.651 25.2106C12.2613 25.2368 12.5907 24.9085 12.7709 24.3596C12.8223 24.2025 12.8606 23.9477 13.0731 23.9568C13.2503 23.9638 13.3057 24.1995 13.3379 24.3455C13.5041 25.0948 14.0741 25.1996 14.6965 25.2459C14.8083 25.2539 14.9564 25.2247 15.0067 25.3567C15.0571 25.4886 14.906 25.55 14.8395 25.6356C14.7982 25.6881 14.7497 25.7345 14.6955 25.7736C14.2101 26.108 14.05 26.539 14.2463 27.1121C14.3007 27.2692 14.4075 27.5099 14.2463 27.6287C14.0852 27.7475 13.8868 27.5723 13.7589 27.4686C13.1869 27.0013 12.6833 27.248 12.1677 27.5693C12.0226 27.665 11.786 27.8352 11.8011 27.4716Z" fill="white"/>
<path d="M11 20.2009C11.1279 20.1253 11.1561 20.0941 11.1853 20.0941C12.0474 20.0881 12.6748 19.7658 12.9175 18.8695C12.9759 18.6529 13.1542 18.668 13.2086 18.8755C13.4382 19.7537 14.0354 20.0911 14.8925 20.084C14.9348 20.084 14.9781 20.1273 15.0204 20.1505C15.0143 20.1888 15.0204 20.2361 15.0013 20.2512C14.3245 20.7699 13.968 21.3892 14.2963 22.2654C14.3778 22.4789 14.2379 22.5313 14.0495 22.4306C14.0334 22.4255 14.0179 22.4188 14.0032 22.4105C13.3768 21.9019 12.7524 21.8888 12.1179 22.4014C12.0514 22.4548 11.9497 22.5394 11.849 22.4739C11.7483 22.4084 11.7785 22.2886 11.8158 22.2C12.1834 21.3107 11.7563 20.7105 11 20.2009Z" fill="white"/>
</svg>
