<svg width="41" height="41" viewBox="0 0 41 41" fill="none" xmlns="http://www.w3.org/2000/svg">
<circle cx="20.3147" cy="20.2703" r="20.1624" fill="#4EC3CC"/>
<path d="M19.8043 30.5496C18.9748 30.3967 17.9122 30.2934 16.9054 29.9975C14.7391 29.3609 13.4631 27.8255 13.1281 25.5851C12.709 22.7785 13.3083 20.1965 15.0731 17.9381C15.171 17.808 15.2885 17.6889 15.3924 17.5607C16.026 16.7792 16.7546 16.4683 17.8133 16.658C19.5555 16.9629 21.3242 16.8338 23.0802 16.6103C23.3601 16.5777 23.6424 16.6482 23.8754 16.809C25.7303 18.2877 26.6645 20.2938 27.0093 22.6157C27.1978 23.7786 27.1538 24.9681 26.88 26.1134C26.2708 28.5495 24.5972 29.7959 22.2683 30.2557C21.5367 30.4026 20.7826 30.4384 19.8043 30.5496ZM19.3822 26.8145C19.3897 26.9442 19.3897 27.0742 19.3822 27.2038C19.3077 27.7749 19.6495 27.7928 20.0746 27.7997C20.5162 27.8047 20.8336 27.7461 20.7435 27.1919C20.6906 26.8672 20.8502 26.751 21.1352 26.6358C22.0538 26.2654 22.565 25.3259 22.3927 24.4152C22.3039 23.9399 22.0554 23.5105 21.6895 23.2002C21.3236 22.8898 20.863 22.7176 20.386 22.713C20.1574 22.7224 19.9285 22.7178 19.7005 22.6991C19.1795 22.6236 18.9111 22.1032 19.1559 21.6722C19.4302 21.1916 20.6083 21.1548 20.907 21.6166C21.0735 21.8758 21.8462 22.0238 22.1351 21.8311C22.4886 21.5948 22.2673 21.2859 22.1723 21.0366C21.9255 20.3842 21.3751 20.0763 20.7914 19.9124C20.6377 19.5281 21.0177 18.9273 20.2411 18.9412C19.4409 18.9551 19.4409 18.9302 19.3469 19.9184C19.2676 19.9531 19.1804 19.9949 19.0903 20.0306C18.1482 20.408 17.587 21.3216 17.7281 22.2462C17.8838 23.2642 18.7074 23.9842 19.7651 24.0338C20.0246 24.0457 20.292 24.0279 20.5417 24.0865C21.0196 24.1997 21.2155 24.6913 20.9707 25.0895C20.7513 25.448 19.5075 25.6149 19.3332 25.2564C19.0707 24.7171 18.6477 24.8512 18.2491 24.8442C17.8897 24.8383 17.7594 25.0289 17.8573 25.3974C18.0679 26.179 18.5899 26.6149 19.3822 26.8145Z" fill="white"/>
<path d="M20.0325 15.425C19.1688 15.3554 18.2932 15.28 17.4177 15.2194C17.1454 15.2005 17.0338 15.0714 16.9662 14.8102C16.7841 14.0932 16.5608 13.3871 16.3718 12.6721C16.1681 11.9044 16.598 11.4624 17.3511 11.6789C19.1117 12.1906 20.9793 12.1862 22.7375 11.666C23.4925 11.4456 23.9401 11.8825 23.7403 12.6403C23.5445 13.3712 23.3163 14.0922 23.137 14.8251C23.0695 15.1032 22.9314 15.2075 22.6777 15.2224C21.8032 15.2879 20.9267 15.3564 20.0325 15.425Z" fill="white"/>
</svg>
