<svg width="41" height="41" viewBox="0 0 41 41" fill="none" xmlns="http://www.w3.org/2000/svg">
<circle cx="20.1624" cy="20.7712" r="20.1624" fill="#4EC3CC"/>
<path d="M28.9868 16.4948C28.9868 17.6641 28.9612 18.8334 28.9929 20.0026C29.0358 21.5416 28.5837 22.9197 27.7513 24.1919C26.9684 25.3896 25.9773 26.3991 24.8855 27.31C23.5967 28.3964 22.2043 29.3537 20.7284 30.168C20.5787 30.2499 20.4562 30.2794 20.2947 30.1892C18.2858 29.0388 16.3804 27.7499 14.7702 26.0689C13.8237 25.0795 13.0007 24.0026 12.4779 22.7203C12.1621 21.9477 12.002 21.1202 12.0068 20.2855C12.0146 17.4937 12.0096 14.7014 12.0113 11.9091C12.0113 11.8222 11.964 11.6953 12.0631 11.6585C12.1622 11.6218 12.2073 11.7521 12.2674 11.815C12.6906 12.256 13.087 12.7265 13.5341 13.1418C15.209 14.7008 17.5475 14.5544 19.0564 12.8317C19.5642 12.2521 19.8827 11.5644 20.2351 10.894C20.2516 10.8509 20.2727 10.8096 20.298 10.771C20.3426 10.7153 20.3337 10.6123 20.4289 10.609C20.5241 10.6056 20.5313 10.7025 20.5636 10.7638C20.7485 11.1151 20.9233 11.472 21.116 11.8217C21.7023 12.8751 22.4924 13.6964 23.6845 14.0594C24.9651 14.4492 26.0982 14.1379 27.116 13.3267C27.6967 12.864 28.1867 12.3011 28.7234 11.7888C28.7858 11.7292 28.8398 11.6045 28.94 11.6513C29.0403 11.6981 28.9846 11.8183 28.9846 11.9069C28.9875 13.4351 28.9883 14.9644 28.9868 16.4948ZM13.5675 18.0204C13.5675 18.7443 13.5675 19.4681 13.5675 20.1919C13.5589 20.4421 13.5701 20.6925 13.6009 20.9408C13.7858 22.0884 14.3203 23.0717 15.0386 23.962C16.4823 25.7521 18.2752 27.1262 20.239 28.2944C20.396 28.3874 20.5102 28.3573 20.6455 28.2755C22.3086 27.2693 23.8509 26.104 25.1989 24.7014C26.5848 23.2576 27.5063 21.6463 27.3148 19.5188C27.1939 18.1663 27.293 16.7944 27.2914 15.4308C27.2914 15.1418 27.2724 15.1346 27.0197 15.2593C25.8298 15.8456 24.5926 15.9364 23.3181 15.6017C22.2368 15.3178 21.3482 14.7209 20.6154 13.8902C20.4484 13.7042 20.3788 13.7231 20.2207 13.8974C18.5636 15.7047 16.1004 16.3773 13.7902 15.2181C13.5926 15.1184 13.5608 15.1931 13.562 15.3785C13.5703 16.2582 13.5675 17.1396 13.5675 18.0204Z" fill="white"/>
<path d="M21.1804 23.2359C21.1804 23.8762 21.1743 24.5166 21.1838 25.1563C21.1838 25.3451 21.1337 25.4247 20.9338 25.4152C20.6468 25.3955 20.3588 25.3955 20.0719 25.4152C19.7968 25.4397 19.7539 25.3217 19.7562 25.0811C19.7662 23.8473 19.7528 22.6134 19.7667 21.3796C19.7701 21.1012 19.6793 21.0294 19.4171 21.0377C18.8892 21.0544 18.3592 21.031 17.8313 21.0477C17.5802 21.0555 17.5045 20.9642 17.5206 20.7248C17.5357 20.4652 17.5357 20.2049 17.5206 19.9453C17.5106 19.7421 17.5813 19.6669 17.7907 19.6719C18.3564 19.6841 18.9226 19.6686 19.4883 19.6802C19.6938 19.6841 19.7639 19.6246 19.7595 19.4124C19.7467 18.8467 19.7595 18.2805 19.7511 17.7148C19.7478 17.521 19.8096 17.4503 20.0045 17.4575C20.3196 17.4692 20.6353 17.4698 20.951 17.4575C21.1531 17.4497 21.1994 17.5327 21.1955 17.7209C21.1843 18.2777 21.2027 18.8345 21.186 19.3913C21.1793 19.6301 21.2617 19.688 21.4872 19.6819C22.034 19.6669 22.5819 19.6819 23.1292 19.673C23.3269 19.6691 23.4176 19.712 23.4048 19.9319C23.387 20.2276 23.3931 20.5255 23.4048 20.8228C23.4104 20.9943 23.3441 21.0455 23.1771 21.0455C22.6019 21.0388 22.0268 21.05 21.451 21.0394C21.2439 21.036 21.1726 21.1101 21.1771 21.3133C21.186 21.9559 21.1804 22.5962 21.1804 23.2359Z" fill="white"/>
</svg>
